<svg xmlns="http://www.w3.org/2000/svg" width="26" height="11" fill="none" viewBox="0 0 26 11"><path fill="#303564" d="M6.47852 9.60742V10.6807H1.20801V9.60742H6.47852ZM1.47461 0.727539V10.6807H0.155273V0.727539H1.47461ZM5.78125 5.00684V6.08008H1.20801V5.00684H5.78125ZM6.41016 0.727539V1.80762H1.20801V0.727539H6.41016ZM15.8878 5.72461V9.36816C15.7647 9.55046 15.5688 9.75553 15.2999 9.9834C15.031 10.2067 14.6596 10.4027 14.1856 10.5713C13.7162 10.7354 13.1101 10.8174 12.3673 10.8174C11.7611 10.8174 11.2029 10.7126 10.6925 10.5029C10.1866 10.2887 9.74682 9.97884 9.37313 9.57324C9.00398 9.16309 8.71688 8.66634 8.5118 8.08301C8.31128 7.49512 8.21102 6.82975 8.21102 6.08691V5.31445C8.21102 4.57161 8.2976 3.90853 8.47078 3.3252C8.64852 2.74186 8.90828 2.2474 9.25008 1.8418C9.59188 1.43164 10.0111 1.12174 10.5079 0.912109C11.0046 0.697917 11.5743 0.59082 12.2169 0.59082C12.9779 0.59082 13.6137 0.722982 14.1241 0.987305C14.6391 1.24707 15.0401 1.6071 15.3272 2.06738C15.6189 2.52767 15.8057 3.05176 15.8878 3.63965H14.5684C14.5092 3.27962 14.3907 2.9515 14.213 2.65527C14.0398 2.35905 13.7914 2.12207 13.4679 1.94434C13.1443 1.76204 12.7273 1.6709 12.2169 1.6709C11.7566 1.6709 11.3578 1.75521 11.0206 1.92383C10.6833 2.09245 10.4054 2.33398 10.1866 2.64844C9.96785 2.96289 9.80379 3.34342 9.69441 3.79004C9.5896 4.23665 9.53719 4.74023 9.53719 5.30078V6.08691C9.53719 6.66113 9.60327 7.17383 9.73543 7.625C9.87215 8.07617 10.0658 8.46126 10.3165 8.78027C10.5671 9.09473 10.8656 9.33398 11.212 9.49805C11.5629 9.66211 11.9503 9.74414 12.3741 9.74414C12.8435 9.74414 13.224 9.7054 13.5157 9.62793C13.8074 9.5459 14.0352 9.4502 14.1993 9.34082C14.3634 9.22689 14.4887 9.11979 14.5753 9.01953V6.79102H12.2716V5.72461H15.8878ZM22.1662 6.77734H19.507V5.7041H22.1662C22.6811 5.7041 23.0981 5.62207 23.4171 5.45801C23.7362 5.29395 23.9686 5.06608 24.1144 4.77441C24.2648 4.48275 24.34 4.15007 24.34 3.77637C24.34 3.43457 24.2648 3.11328 24.1144 2.8125C23.9686 2.51172 23.7362 2.27018 23.4171 2.08789C23.0981 1.90104 22.6811 1.80762 22.1662 1.80762H19.8146V10.6807H18.4953V0.727539H22.1662C22.9181 0.727539 23.5539 0.857422 24.0734 1.11719C24.5929 1.37695 24.9871 1.73698 25.256 2.19727C25.5249 2.65299 25.6593 3.1748 25.6593 3.7627C25.6593 4.40072 25.5249 4.94531 25.256 5.39648C24.9871 5.84766 24.5929 6.19173 24.0734 6.42871C23.5539 6.66113 22.9181 6.77734 22.1662 6.77734Z"/></svg>