<svg xmlns="http://www.w3.org/2000/svg" width="135" height="91" fill="none" viewBox="0 0 135 91"><path fill="#E0E0E0" d="M102.644 90.9998L116.985 82.7193V39.0903L102.644 47.3709V90.9998Z"/><path fill="#EBEBEB" d="M102.644 47.3711L73.7158 30.6699V74.2988L102.644 91.0001V47.3711Z"/><path fill="#F5F5F5" d="M73.7158 30.6697L102.644 47.3709L116.985 39.0904L88.0571 22.3892L73.7158 30.6697Z"/><path fill="#E0E0E0" d="M100.596 48.9921L75.7668 34.6572V42.6575L75.391 42.8773L100.22 57.2122L100.596 56.9956V48.9921Z"/><path fill="#F5F5F5" d="M100.22 49.2084L75.3878 34.8735L75.391 42.877L100.22 57.2119V49.2084Z"/><path fill="#E0E0E0" d="M88.5858 44.4059L85.799 42.7976C85.436 42.5874 85.143 42.6829 85.143 43.011C85.1714 43.21 85.2454 43.3998 85.3592 43.5655C85.473 43.7312 85.6235 43.8684 85.799 43.9664L88.5858 45.5748C88.9457 45.785 89.2387 45.6894 89.2387 45.3614C89.2099 45.1629 89.1361 44.9736 89.0229 44.808C88.9098 44.6424 88.7602 44.5049 88.5858 44.4059Z"/><path fill="#E0E0E0" d="M100.596 58.8493L75.7668 44.5112V52.5147L75.391 52.7344L100.22 67.0693L100.596 66.8496V58.8493Z"/><path fill="#F5F5F5" d="M100.22 59.0654L75.3878 44.7305L75.391 52.7339L100.22 67.0688V59.0654Z"/><path fill="#E0E0E0" d="M88.5858 54.2627L85.799 52.6703C85.436 52.4601 85.143 52.5556 85.143 52.8805C85.1695 53.0822 85.2426 53.2749 85.3565 53.4435C85.4704 53.6121 85.6219 53.7519 85.799 53.8519L88.5858 55.4443C88.9457 55.6545 89.2387 55.5589 89.2387 55.2309C89.212 55.0301 89.1391 54.8382 89.0259 54.6702C88.9126 54.5022 88.762 54.3627 88.5858 54.2627Z"/><path fill="#E0E0E0" d="M100.596 68.7031L75.7668 54.3682V62.3716L75.391 62.5882L100.22 76.9231L100.596 76.7065V68.7031Z"/><path fill="#F5F5F5" d="M100.22 68.9228L75.3878 54.5879L75.391 62.5882L100.22 76.9231V68.9228Z"/><path fill="#E0E0E0" d="M88.5858 64.1166L85.799 62.5083C85.436 62.3013 85.143 62.3968 85.143 62.7217C85.1695 62.9234 85.2426 63.1161 85.3565 63.2847C85.4704 63.4533 85.6219 63.5931 85.799 63.693L88.5858 65.3014C88.9457 65.5084 89.2387 65.4129 89.2387 65.088C89.2122 64.8867 89.1395 64.6942 89.0262 64.5257C88.9129 64.3572 88.7622 64.2172 88.5858 64.1166Z"/><path fill="#E0E0E0" d="M100.596 78.56L75.7668 64.2251V72.2286L75.391 72.4451L100.22 86.78L100.596 86.5635V78.56Z"/><path fill="#F5F5F5" d="M100.22 78.7763L75.3878 64.4414L75.391 72.4449L100.22 86.7798V78.7763Z"/><path fill="#E0E0E0" d="M88.5858 73.9738L85.799 72.3655C85.436 72.1553 85.143 72.2508 85.143 72.5788C85.1714 72.7779 85.2454 72.9676 85.3592 73.1334C85.473 73.2991 85.6235 73.4363 85.799 73.5343L88.5858 75.1458C88.9457 75.3528 89.2387 75.2573 89.2387 74.9324C89.2103 74.7334 89.1368 74.5435 89.0236 74.3773C88.9104 74.2111 88.7606 74.0731 88.5858 73.9738Z"/><path fill="#F0F0F0" d="M93.7579 14.2391V12.8059C93.7695 12.7232 93.8018 12.6447 93.8519 12.5779C93.9021 12.511 93.9684 12.458 94.0446 12.4238L102.66 7.44906C102.865 7.34547 103.092 7.2915 103.322 7.2915C103.552 7.2915 103.779 7.34547 103.984 7.44906L128.75 21.7489C128.826 21.7826 128.892 21.8355 128.942 21.9025C128.992 21.9695 129.023 22.0483 129.033 22.1311V23.5643C129.022 23.6469 128.991 23.7254 128.941 23.7923C128.892 23.8592 128.826 23.9123 128.75 23.9465L120.135 28.9212C119.929 29.0247 119.702 29.0787 119.472 29.0787C119.242 29.0787 119.015 29.0247 118.81 28.9212L94.0446 14.6213C93.9684 14.587 93.9021 14.534 93.8519 14.4672C93.8018 14.4003 93.7695 14.3219 93.7579 14.2391Z"/><path fill="#FAFAFA" d="M128.75 22.5133L120.135 27.4848C119.93 27.5899 119.703 27.6447 119.472 27.6447C119.242 27.6447 119.015 27.5899 118.81 27.4848L94.0446 13.1881C93.9651 13.1606 93.8962 13.109 93.8475 13.0405C93.7987 12.972 93.7725 12.89 93.7725 12.8059C93.7725 12.7219 93.7987 12.6399 93.8475 12.5714C93.8962 12.5029 93.9651 12.4513 94.0446 12.4238L102.66 7.44906C102.865 7.34547 103.092 7.2915 103.322 7.2915C103.552 7.2915 103.779 7.34547 103.984 7.44906L128.75 21.7489C128.829 21.7765 128.898 21.8281 128.947 21.8966C128.995 21.965 129.022 22.047 129.022 22.1311C129.022 22.2152 128.995 22.2972 128.947 22.3657C128.898 22.4342 128.829 22.4858 128.75 22.5133Z"/><path fill="#E0E0E0" d="M119.472 27.6441V29.0805C119.703 29.0826 119.93 29.0279 120.135 28.9212L128.75 23.9465C128.826 23.9134 128.893 23.8606 128.943 23.7935C128.992 23.7264 129.024 23.6474 129.033 23.5643V22.1312C129.03 22.0731 129.011 22.0169 128.979 21.9688C129.081 22.1535 129.004 22.3669 128.75 22.5134L120.135 27.4849C119.931 27.5948 119.703 27.6497 119.472 27.6441Z"/><path fill="#000" d="M109.067 15.7839C106.685 17.1598 102.819 17.1598 100.433 15.7839C98.0479 14.4081 98.0479 12.1755 100.433 10.7997C102.819 9.42384 106.685 9.42065 109.067 10.7997C111.45 12.1787 111.453 14.4081 109.067 15.7839Z" opacity=".03"/><path fill="#EBEBEB" d="M98.9938 13.2552V4.26758H109.306V13.2552C109.351 14.0482 108.854 14.8476 107.806 15.4559C105.79 16.6183 102.526 16.6183 100.513 15.4559C99.4428 14.8508 98.946 14.0482 98.9938 13.2552Z"/><path fill="#E0E0E0" d="M109.294 11.5164C109.294 12.2839 108.797 13.0514 107.784 13.6375C105.768 14.8063 102.497 14.8063 100.491 13.6375C99.4843 13.0546 98.981 12.2935 98.981 11.5323V5.9461C98.981 6.70727 99.4843 7.46845 100.491 8.05127C102.503 9.21373 105.768 9.21373 107.784 8.05127C108.797 7.46526 109.3 6.69772 109.294 5.93018V11.5164Z"/><path fill="#FAFAFA" d="M103.574 7.22601C104.488 7.22601 105.166 7.59545 105.223 8.03496C105.281 8.47446 105.223 10.4077 105.223 11.0064C105.223 11.6051 104.905 11.9618 105.29 11.9618C105.676 11.9618 105.335 11.5096 105.335 11.0064V8.27064C105.335 7.49672 106.026 6.97123 107.128 6.67822L103.574 7.22601Z"/><path fill="#FAFAFA" d="M104.207 5.3183C105.125 5.3183 105.8 5.68774 105.86 6.12406C105.921 6.56038 105.86 8.49994 105.86 9.0955C105.86 9.69106 105.542 10.0509 105.927 10.0509C106.313 10.0509 105.972 9.5987 105.972 9.0955V6.36292C105.972 5.89157 106.663 5.06351 107.762 4.77051L104.207 5.3183Z"/><path fill="#FAFAFA" d="M107.784 6.37271C105.768 7.53517 102.503 7.53517 100.491 6.37271C98.4778 5.21025 98.4778 3.32483 100.491 2.16237C102.503 0.999912 105.768 0.999912 107.784 2.16237C109.8 3.32483 109.797 5.21025 107.784 6.37271Z"/><path fill="#EBEBEB" d="M107.561 6.20709C105.669 7.27401 102.605 7.27401 100.714 6.20709C98.8218 5.14018 98.825 3.40763 100.714 2.34071C102.602 1.2738 105.669 1.2738 107.561 2.34071C109.453 3.40763 109.45 5.13381 107.561 6.20709Z"/><path fill="#F5F5F5" d="M100.714 2.83437C102.605 1.76745 105.669 1.76745 107.561 2.83437C108.392 3.30572 108.857 3.90447 108.956 4.51914C108.857 5.13063 108.392 5.72937 107.561 6.20073C105.669 7.26764 102.605 7.26764 100.714 6.20073C99.8823 5.72937 99.4174 5.13063 99.3186 4.51914C99.4174 3.90447 99.8823 3.30572 100.714 2.83437Z"/><path fill="#000" d="M102.026 16.0801C103.937 16.5674 106.227 16.3699 107.781 15.4686C108.829 14.8667 109.329 14.0673 109.284 13.2711V4.26758C109.284 5.02875 108.778 5.79311 107.771 6.37275C107.611 6.46692 107.445 6.54992 107.274 6.62116V14.51C107.274 15.3699 104.408 16.3986 102.026 16.0801Z" opacity=".05"/><path fill="#000" d="M122.007 23.6438C119.622 25.0196 115.756 25.0196 113.373 23.6438C110.991 22.268 110.988 20.0354 113.373 18.6595C115.759 17.2837 119.622 17.2805 122.007 18.6595C124.393 20.0386 124.39 22.268 122.007 23.6438Z" opacity=".03"/><path fill="#EBEBEB" d="M111.927 21.115V12.1274H122.243V21.115C122.284 21.908 121.788 22.7074 120.74 23.3157C118.727 24.4782 115.463 24.4782 113.45 23.3157C112.37 22.7106 111.886 21.908 111.927 21.115Z"/><path fill="#E0E0E0" d="M122.243 19.3762C122.243 20.1438 121.746 20.9113 120.733 21.4973C118.721 22.6598 115.456 22.6598 113.443 21.4973C112.437 20.9145 111.934 20.1533 111.934 19.3921V13.806C111.934 14.5671 112.437 15.3283 113.443 15.9111C115.456 17.0736 118.721 17.0736 120.733 15.9111C121.746 15.3251 122.249 14.5576 122.243 13.79V19.3762Z"/><path fill="#FAFAFA" d="M116.51 15.0866C117.428 15.0866 118.103 15.4592 118.163 15.8955C118.224 16.3319 118.163 18.2714 118.163 18.867C118.163 19.4625 117.845 19.8224 118.23 19.8224C118.615 19.8224 118.275 19.3702 118.275 18.867V16.1344C118.275 15.3573 118.966 14.8318 120.065 14.542L116.51 15.0866Z"/><path fill="#FAFAFA" d="M117.147 13.1786C118.065 13.1786 118.74 13.5481 118.8 13.9876C118.861 14.4271 118.8 16.3603 118.8 16.959C118.8 17.5578 118.482 17.9145 118.867 17.9145C119.252 17.9145 118.912 17.4622 118.912 16.959V14.2233C118.912 13.7519 119.603 12.9239 120.702 12.6309L117.147 13.1786Z"/><path fill="#FAFAFA" d="M120.721 14.2331C118.708 15.3955 115.443 15.3955 113.431 14.2331C111.418 13.0706 111.418 11.1852 113.431 10.0227C115.443 8.86026 118.708 8.86026 120.721 10.0227C122.733 11.1852 122.733 13.0706 120.721 14.2331Z"/><path fill="#EBEBEB" d="M120.498 14.0608C118.609 15.1246 115.555 15.1246 113.644 14.0608C111.733 12.9971 111.752 11.2645 113.644 10.1944C115.536 9.12435 118.6 9.12753 120.488 10.1944C122.377 11.2614 122.389 12.9939 120.498 14.0608Z"/><path fill="#F5F5F5" d="M113.644 10.6947C115.533 9.6278 118.6 9.6278 120.488 10.6947C121.323 11.1661 121.784 11.7648 121.886 12.3795C121.784 12.9942 121.323 13.5929 120.488 14.0611C118.609 15.1248 115.555 15.1248 113.644 14.0611C112.81 13.5929 112.345 12.9942 112.246 12.3795C112.37 11.7648 112.819 11.1661 113.644 10.6947Z"/><path fill="#000" d="M114.966 23.924C116.877 24.4145 119.163 24.2139 120.721 23.3125C121.768 22.7106 122.265 21.9112 122.224 21.115V12.1274C122.224 12.8918 121.721 13.653 120.714 14.2358C120.553 14.3287 120.386 14.4117 120.214 14.4842V22.3698C120.221 23.2297 117.348 24.2521 114.966 23.924Z" opacity=".05"/><path fill="#F5F5F5" d="M5 29.8768L7.58926 31.3705L59.3363 1.49368L56.747 0L5 29.8768Z"/><path fill="#EBEBEB" d="M5 29.877L7.58926 31.3706V79.1749L5 77.678V29.877Z"/><path fill="#E0E0E0" d="M59.3363 1.49365V49.2979L7.58926 79.1747V31.3705L59.3363 1.49365Z"/><path fill="#FAFAFA" d="M58.0433 3.73584V48.5495L8.88229 76.9327V32.119L58.0433 3.73584Z"/><path fill="#EBEBEB" d="M58.0433 48.5495L56.747 47.8043V4.48109L58.0433 3.73584V48.5495Z"/><path fill="#F5F5F5" d="M58.0433 48.5494L56.747 47.8042L8.88229 75.4389V76.9326L58.0433 48.5494Z"/><g opacity=".15"><path fill="#000" d="M24.2714 34.3612C24.2092 34.3135 24.1602 34.2508 24.129 34.1789C24.0978 34.107 24.0854 34.0284 24.093 33.9504V26.6476L24.73 26.275V27.017C24.8701 26.861 25.0166 26.6667 25.179 26.4565C25.531 25.9618 25.9369 25.5078 26.3893 25.1029C26.762 24.7806 27.1905 24.5291 27.6536 24.3609C27.8841 24.285 28.0996 24.1697 28.2906 24.0201V23.1602L28.9276 22.7939V28.6891C28.9259 28.8344 28.8933 28.9777 28.832 29.1095V30.205L25.9657 47.1451L24.3032 48.1006L24.2714 34.3612ZM24.7363 31.4089C26.4498 30.3738 27.039 29.498 27.9881 28.0871L28.2683 27.6731V25.9947C28.1056 26.1766 27.9525 26.3669 27.8097 26.5648C27.4578 27.0566 27.053 27.5083 26.6027 27.912C26.2335 28.2358 25.8097 28.4914 25.351 28.6668C25.1294 28.7369 24.9215 28.8447 24.7363 28.9852V31.4089Z"/><path fill="#000" d="M31.7366 30.138C31.5965 30.0998 31.4754 29.9564 31.4754 29.6889V22.3861L32.1124 22.0135V22.7683C32.2525 22.6154 32.399 22.4212 32.5615 22.211C32.9125 21.7155 33.3185 21.2615 33.7717 20.8574C34.1377 20.531 34.561 20.2751 35.0201 20.1026C35.2513 20.0269 35.467 19.9104 35.6571 19.7586V18.8987L36.2941 18.5293V24.4244C36.2927 24.5708 36.2602 24.7152 36.1985 24.848L35.4151 26.5646L36.0106 26.3417L34.8673 40.2848L30.7875 41.8167L31.7366 30.138ZM32.1188 27.1442C33.8322 26.1124 34.4214 25.2334 35.3705 23.8225L35.6507 23.4116V21.7332C35.5042 21.8893 35.3545 22.0867 35.1921 22.3001C34.8411 22.7936 34.4363 23.2466 33.9851 23.6505C33.6167 23.9746 33.1926 24.2292 32.7334 24.4021C32.5118 24.4797 32.3043 24.5926 32.1188 24.7365V27.1442Z"/><path fill="#000" d="M24.8956 64.2699C24.7172 64.2699 24.5261 64.1234 24.5261 63.805V59.2602L24.7045 59.1583V58.4959C24.7065 58.2849 24.7672 58.0787 24.8797 57.9003V50.3013L24.8446 50.3236L24.5038 49.7344L27.1759 48.193C27.3412 48.0923 27.5302 48.0373 27.7237 48.0337C27.8767 48.0327 28.0273 48.0723 28.16 48.1484C28.5422 48.3713 28.762 48.8713 28.762 49.5242V54.4702C28.762 55.5117 28.2142 56.6455 27.5135 57.0468L25.4848 58.222C25.4206 58.299 25.3846 58.3956 25.3829 58.4959V58.757L25.5644 58.6551V63.3814C25.5613 63.5401 25.5208 63.6958 25.4461 63.8358C25.3714 63.9759 25.2646 64.0963 25.1344 64.1871C25.0641 64.2364 24.9814 64.2651 24.8956 64.2699ZM25.3797 57.4831L27.1759 56.448C27.66 56.1678 28.0836 55.2378 28.0836 54.4575V49.521C28.1019 49.3787 28.088 49.2341 28.0428 49.0979C27.9975 48.9617 27.9222 48.8375 27.8224 48.7344C27.792 48.7181 27.7582 48.7094 27.7237 48.7089C27.6493 48.7142 27.5773 48.7372 27.5135 48.7758L25.3797 50.0115V57.4831Z"/><path fill="#000" d="M30.7811 59.26C30.6754 59.256 30.5752 59.212 30.5007 59.1369C30.4262 59.0618 30.383 58.9612 30.3798 58.8555L30.2524 58.9287C30.2047 58.9584 30.1494 58.9739 30.0932 58.9733C29.9117 58.9733 29.7747 58.8141 29.7047 58.537C29.6751 58.5417 29.645 58.5417 29.6155 58.537C29.5556 58.5374 29.4968 58.5219 29.4448 58.4923C29.3928 58.4627 29.3495 58.4199 29.3193 58.3682C29.2759 58.2897 29.2646 58.1974 29.2877 58.1107C29.3109 58.024 29.3667 57.9497 29.4435 57.9032L29.676 57.7695C29.7206 57.4096 29.8512 56.9733 30.0932 56.8331L30.3735 56.6739V56.6102C30.3753 56.4282 30.4209 56.2494 30.5062 56.0887C30.5916 55.9279 30.7142 55.7901 30.8639 55.6866L32.434 54.7789C32.507 54.7343 32.5906 54.7101 32.6761 54.7089C32.8799 54.7089 33.0838 54.8681 33.0838 55.228V55.8012L33.4978 55.5656C33.612 55.461 33.7028 55.3334 33.7643 55.1913C33.8258 55.0491 33.8565 54.8956 33.8545 54.7407V49.2596C33.8493 48.9853 33.9099 48.7138 34.0313 48.4678C34.1526 48.2217 34.3312 48.0084 34.552 47.8456L34.9532 47.6162C35.0181 47.3027 35.2034 47.0272 35.4692 46.8487L37.0616 45.9187C37.1415 45.8705 37.2326 45.8441 37.3259 45.8423C37.3957 45.8417 37.4644 45.8593 37.5253 45.8934C37.5862 45.9275 37.6371 45.9768 37.6731 46.0366L37.775 45.9792C37.8827 45.9141 38.0058 45.8789 38.1317 45.8773C38.2368 45.8765 38.3402 45.904 38.4311 45.957C38.5617 46.0487 38.6658 46.1733 38.7329 46.3181C38.8 46.4629 38.8277 46.6229 38.8132 46.7818V51.4603C38.8106 51.5307 38.8214 51.601 38.8451 51.6673L39.9662 51.0304V48.8838C39.9693 48.6252 40.0339 48.3711 40.1546 48.1424C40.2753 47.9137 40.4487 47.717 40.6604 47.5685C40.7566 47.5097 40.8663 47.4768 40.9789 47.4729C41.2433 47.4729 41.5108 47.6895 41.5108 48.1736V52.9699C41.5076 53.2289 41.4426 53.4833 41.3213 53.712C41.2 53.9408 41.0258 54.1373 40.8133 54.2853C40.7175 54.3448 40.6076 54.3777 40.4948 54.3808C40.2305 54.3808 39.9662 54.1642 39.9662 53.6802V51.8011L39.17 52.2597C39.0632 52.3244 38.9412 52.3596 38.8164 52.3616C38.71 52.3617 38.6055 52.3331 38.5139 52.2788C38.3835 52.1876 38.2796 52.0636 38.2125 51.9193C38.1454 51.775 38.1175 51.6156 38.1317 51.4571V46.7818C38.1346 46.7104 38.1238 46.639 38.0999 46.5716L37.7368 46.785C37.6706 47.098 37.4857 47.3731 37.2208 47.5526L35.6157 48.4793C35.5357 48.5303 35.443 48.5578 35.3482 48.559C35.2791 48.5584 35.2112 48.5403 35.1511 48.5063C35.0909 48.4723 35.0404 48.4236 35.0042 48.3647L34.88 48.4347C34.7652 48.539 34.6738 48.6665 34.6117 48.8086C34.5497 48.9508 34.5185 49.1045 34.5201 49.2596V54.7534C34.5253 55.0273 34.4647 55.2984 34.3433 55.5439C34.2219 55.7894 34.0434 56.0022 33.8226 56.1643L33.071 56.6006V57.3586C33.0686 57.5405 33.0229 57.7192 32.9376 57.8798C32.8523 58.0404 32.7299 58.1784 32.5805 58.2822L31.0104 59.1899C30.9406 59.2311 30.862 59.2551 30.7811 59.26Z"/><path fill="#000" d="M39.2082 29.6411C38.6381 29.6411 38.205 29.0774 38.1285 28.2366C38.083 27.6775 38.1358 27.1149 38.2846 26.5741C38.42 26.0173 38.5837 25.4677 38.7751 24.9275C38.861 24.6696 38.963 24.4116 39.0617 24.16C39.1604 23.9084 39.2687 23.6249 39.3515 23.367C39.5063 22.8745 39.6036 22.3658 39.6413 21.851C39.6573 21.214 39.6413 20.5548 39.6413 19.9082C39.6413 19.5898 39.6413 19.2713 39.6413 18.9528C39.5314 18.8368 39.4465 18.6996 39.3917 18.5495C39.3369 18.3994 39.3135 18.2397 39.3228 18.0802C39.3155 17.7427 39.3892 17.4084 39.5377 17.1053C39.6862 16.8022 39.9052 16.5391 40.1764 16.3381C40.2996 16.2638 40.4402 16.2231 40.584 16.2202C40.7038 16.2202 40.8214 16.2521 40.9248 16.3126C41.0747 16.4251 41.1926 16.5747 41.2669 16.7468C41.3412 16.9188 41.3693 17.1073 41.3484 17.2935C41.3426 17.7017 41.233 18.1018 41.0299 18.456C41.0299 18.749 41.0299 19.491 41.0299 19.491L42.1987 18.8158C42.256 18.7796 42.3221 18.7597 42.3898 18.7585C42.4363 18.7608 42.4817 18.7726 42.5233 18.7933C42.565 18.8139 42.6019 18.8429 42.6318 18.8785C42.6617 18.9141 42.6839 18.9555 42.6971 19C42.7102 19.0446 42.7141 19.0914 42.7083 19.1375C42.7063 19.2642 42.6733 19.3885 42.6122 19.4995C42.5512 19.6105 42.4639 19.7049 42.358 19.7745L41.0299 20.5388C41.0299 20.7745 41.0299 21.007 41.0299 21.2331C41.0507 21.6288 41.1469 22.0169 41.3134 22.3765C41.3957 22.5308 41.4894 22.6787 41.5936 22.8192C41.6993 22.9639 41.7961 23.1149 41.8834 23.2714C42.0916 23.6162 42.2593 23.9838 42.3835 24.367C42.5448 24.8495 42.5992 25.3614 42.5427 25.8671C42.4472 27.0327 41.7975 28.3003 41.1 28.6888L40.9376 28.4149C41.5363 28.0487 42.0968 26.8798 42.1605 25.8671C42.1993 25.4349 42.1405 24.9995 41.9885 24.5931C41.8639 24.2567 41.7004 23.9361 41.5013 23.6377C41.4167 23.5018 41.3242 23.371 41.2242 23.2459C41.0966 23.0964 40.9815 22.9367 40.8802 22.7682C40.6667 22.3531 40.5389 21.8993 40.5044 21.4338C40.5044 21.1981 40.4853 20.9688 40.4821 20.7395L40.1891 20.9083C40.1891 21.2013 40.1891 21.5007 40.1605 21.8064C40.107 22.395 39.9851 22.9753 39.7974 23.5358C39.6955 23.8351 39.5808 24.1122 39.4789 24.3797C39.377 24.6473 39.2846 24.8575 39.1986 25.1059C39.0025 25.6183 38.8356 26.1415 38.6986 26.6728C38.555 27.157 38.4947 27.6621 38.5203 28.1665C38.568 28.8449 38.8706 29.313 39.2623 29.313C39.3742 29.3102 39.4837 29.2795 39.5808 29.2239L39.7369 29.5009C39.5801 29.5993 39.3996 29.6532 39.2146 29.657L39.2082 29.6411ZM40.1987 20.1025L40.4694 19.9465V19.0579C40.3903 19.0983 40.3054 19.1262 40.2178 19.1407C40.205 19.3764 40.1987 20.1025 40.1987 20.1025ZM40.0394 18.3859C40.0788 18.4002 40.1139 18.4243 40.1414 18.456H40.1636C40.3277 18.3126 40.4586 18.1351 40.5471 17.936C40.6357 17.7369 40.6798 17.5209 40.6764 17.3031C40.6764 17.0292 40.5936 16.9272 40.5713 16.9145C40.5465 16.9183 40.5227 16.927 40.5012 16.94C40.3372 17.0834 40.2063 17.2608 40.1177 17.4599C40.0292 17.659 39.9851 17.875 39.9885 18.0929C39.9857 18.193 40.003 18.2926 40.0394 18.3859Z"/><path fill="#000" d="M39.8802 36.6541L38.4597 37.4758V34.24L39.8802 33.4183V32.9502L38.8865 33.5234V32.8928L39.291 32.6572V32.224L39.8802 31.8832V31.6635L41.0586 30.9819V32.74L42.5491 31.8801V32.6603L43.0714 32.3578V34.0298L42.5491 34.3324V35.1126L41.0586 35.9726V43.6766L39.8802 44.3582V36.6541Z"/><path fill="#000" d="M47.8614 48.1864V46.9539L47.5907 47.11V47.4093L46.9728 47.766C46.6744 47.9671 46.41 48.2144 46.1893 48.4986C46.0817 48.6252 45.9536 48.7328 45.8103 48.817C45.6858 48.8945 45.5429 48.9374 45.3963 48.9412C45.046 48.9412 44.8103 48.6514 44.8103 48.2247C44.8226 47.9296 44.9054 47.6418 45.0516 47.3853C45.1979 47.1287 45.4035 46.911 45.6511 46.7501C45.7745 46.6727 45.9164 46.6298 46.0619 46.6259H46.1033C46.3498 46.6342 46.5943 46.5794 46.8136 46.4666L47.5907 46.0176V46.3361L47.8614 46.1768V44.3137L47.1129 44.7436C47.071 44.7689 47.0225 44.7813 46.9736 44.7794C46.9246 44.7775 46.8773 44.7614 46.8374 44.733C46.7975 44.7046 46.7668 44.6651 46.7489 44.6195C46.7311 44.5739 46.727 44.524 46.7371 44.4761C46.7366 44.3929 46.756 44.3107 46.7937 44.2365C46.8313 44.1622 46.8862 44.0981 46.9537 44.0494L47.8614 43.527V42.2531L49.8328 41.1129V42.3869L50.2564 42.1448V40.8709L52.2278 39.7307V41.0047L52.5876 40.7976V40.4792L53.2055 40.1225C53.5047 39.9224 53.7693 39.675 53.989 39.39C54.0966 39.2633 54.2247 39.1557 54.368 39.0715C54.4927 38.9944 54.6355 38.9516 54.782 38.9473C55.1323 38.9473 55.368 39.2371 55.368 39.667C55.3557 39.9616 55.2729 40.249 55.1266 40.505C54.9803 40.7611 54.7748 40.9783 54.5272 41.1384C54.4038 41.2158 54.2619 41.2587 54.1164 41.2626H54.0877C53.8408 41.2537 53.5959 41.3097 53.3775 41.4251L52.6004 41.8709V41.5716L52.2405 41.7818V43.6449L53.0781 43.1608C53.1163 43.137 53.1605 43.1249 53.2055 43.1258C53.3233 43.1258 53.4539 43.2181 53.4539 43.4283C53.455 43.5112 53.4358 43.5931 53.3981 43.6669C53.3604 43.7407 53.3052 43.8042 53.2374 43.8519L52.2278 44.4252V45.8265L50.9538 49.5495L50.2532 49.9572V45.5717L49.8296 45.8137V50.2056L49.1926 50.5719L47.8614 48.1864ZM49.8328 45.0303L50.2564 44.7851V42.9219L49.8328 43.1672V45.0303Z"/><path fill="#000" d="M10.5511 42.6991L11.1626 42.3456V39.3296L10.8442 39.5079V37.3104C10.8307 36.7431 10.7385 36.1803 10.5703 35.6384C10.5021 35.3883 10.4688 35.13 10.4715 34.8708C10.4715 33.8453 10.8856 32.8039 11.427 32.4981C11.5231 32.4398 11.633 32.4079 11.7455 32.4058C12.2136 32.4058 12.5289 32.995 12.5289 33.874C12.528 34.163 12.497 34.4512 12.4366 34.7339C12.2757 35.3926 12.1818 36.0659 12.1563 36.7435V38.7595L11.8378 38.9347V41.9443L12.4461 41.594V48.7598L10.5352 49.8586L10.5511 42.6991Z"/><path fill="#000" d="M13.5831 40.9475L14.0067 40.7054V37.6958L13.6882 37.8741V35.6734C13.6747 35.1058 13.5814 34.543 13.4111 34.0014C13.3438 33.7523 13.3117 33.495 13.3156 33.237C13.3156 32.2115 13.7296 31.1669 14.271 30.8611C14.3675 30.8039 14.4773 30.7731 14.5895 30.772C15.0577 30.772 15.373 31.3612 15.373 32.2402C15.3721 32.5294 15.3401 32.8177 15.2774 33.1001C15.1191 33.7581 15.0263 34.4302 15.0003 35.1065V37.1225L14.6819 37.3009V40.3105L15.1054 40.0685V47.2343L13.5767 48.1165L13.5831 40.9475Z"/><path fill="#000" d="M16.5068 39.253L16.8252 39.0651V36.0554L16.5068 36.2338V34.033C16.4918 33.4656 16.3986 32.9029 16.2297 32.361C16.1624 32.1108 16.1303 31.8525 16.1341 31.5935C16.1341 30.568 16.5482 29.5265 17.0896 29.2208C17.1857 29.1624 17.2956 29.1305 17.4081 29.1284C17.8794 29.1284 18.1947 29.7176 18.1947 30.5966C18.1941 30.8869 18.162 31.1763 18.0992 31.4597C17.9408 32.1177 17.848 32.7898 17.8221 33.4661V35.4821L17.5036 35.6605V38.6702L17.8221 38.4791V45.6481L16.5068 46.4188V39.253Z"/><path fill="#000" d="M19.4559 37.5585L19.6916 37.4183V34.4087L19.3731 34.587V32.3895C19.3596 31.8222 19.2674 31.2594 19.0992 30.7175C19.0294 30.4677 18.9962 30.2092 19.0005 29.9499C19.0005 28.9244 19.4145 27.883 19.9559 27.5772C20.0521 27.5189 20.1619 27.487 20.2744 27.4849C20.7426 27.4849 21.0579 28.0741 21.0579 28.9531C21.0574 29.2423 21.0254 29.5307 20.9623 29.813C20.8037 30.472 20.7109 31.1452 20.6852 31.8226V33.8386L20.3667 34.0138V37.0234L20.6024 36.8897V44.0555L19.4495 44.7211L19.4559 37.5585Z"/><path fill="#000" d="M44.46 28.1636V22.1315L45.0715 21.778V18.7524L44.753 18.9276V18.2301V16.7173C44.7375 16.1512 44.6453 15.5898 44.4791 15.0485C44.4102 14.7985 44.377 14.5401 44.3804 14.2809C44.3805 13.9892 44.4147 13.6984 44.4823 13.4146V13.3478L46.2435 12.3286L46.304 12.5165C46.3804 12.765 46.4169 13.0241 46.4123 13.2841C46.4109 13.5745 46.3778 13.8639 46.3135 14.1471C46.1609 14.8052 46.0682 15.4757 46.0365 16.1504V17.1059V18.1696L45.718 18.3479V21.3671L46.3263 21.0168V27.2272L46.1225 28.2973L44.7052 29.1381L44.46 28.1636Z"/><path fill="#000" d="M47.4919 26.4119V20.3608L47.9155 20.1187V17.1091L47.597 17.2874V16.5899V15.0899C47.5818 14.5238 47.4896 13.9623 47.3231 13.421C47.2529 13.1714 47.2196 12.9128 47.2244 12.6535C47.2247 12.3607 47.2589 12.069 47.3263 11.784V11.7172L49.0971 10.6948L49.1544 10.8891C49.223 11.1391 49.2563 11.3974 49.2531 11.6566C49.2527 11.947 49.2206 12.2363 49.1576 12.5197C49.0049 13.1778 48.9122 13.8482 48.8805 14.523V15.4784V16.5453L48.562 16.7205V19.7334L48.9792 19.4913V25.7017L48.7786 26.7686L47.7021 27.3897L47.4919 26.4119Z"/><path fill="#000" d="M50.4283 24.7176V18.6664L50.7468 18.4753V15.4689L50.4283 15.6472V14.9465V13.4465C50.4132 12.8801 50.3199 12.3185 50.1512 11.7776C50.0824 11.5288 50.0491 11.2715 50.0525 11.0133C50.0525 10.7205 50.0867 10.4287 50.1544 10.1438L50.1703 10.077L51.9539 9.07373L52.0175 9.25845C52.0912 9.50751 52.1266 9.7663 52.1226 10.026C52.121 10.3162 52.0889 10.6055 52.0271 10.8891C51.8735 11.5481 51.7797 12.2196 51.7468 12.8955V13.851V14.9147L51.4284 15.0931V18.1027L51.7468 17.9148V24.1061L51.5398 25.1762L50.6513 25.689L50.4283 24.7176Z"/><path fill="#000" d="M53.3679 23.02V16.9688L53.6004 16.835V13.8286L53.2819 14.0037V13.3062V11.8062C53.2661 11.2401 53.174 10.6788 53.008 10.1373C52.9392 9.88742 52.9059 9.62902 52.9093 9.3698C52.9096 9.07702 52.9438 8.78526 53.0112 8.50034V8.43665L54.782 7.41113L54.8393 7.60541C54.9095 7.85506 54.9428 8.11365 54.938 8.37295C54.9377 8.66327 54.9057 8.95269 54.8425 9.23604C54.6898 9.89406 54.5971 10.5645 54.5654 11.2393V12.1947V13.2585L54.2469 13.4368V16.4465L54.4826 16.3095V22.5199L54.2756 23.59L53.5749 23.9913L53.3679 23.02Z"/><path fill="#000" d="M10.5511 70.7061L10.4492 70.5246L10.5511 70.4673V69.6519L10.4492 69.4736L10.5511 69.4131V68.5978L10.4492 68.4194L10.5511 68.3589V67.5468L10.4492 67.3652L10.5511 67.3079V66.4926L10.4492 66.3142L10.5511 66.2537V65.4384L10.4492 65.2601L10.5511 65.1996V64.3874L10.4492 64.2059L10.5511 64.1486V63.3333L10.4492 63.1549L10.5511 63.0944V62.2791L10.4492 62.1007L10.5511 62.0402V61.2281L10.4492 61.0465L10.5511 60.9892V60.1739L10.4492 59.9956L10.5511 59.935V59.1197L10.4492 58.9414L10.5511 58.8809V58.0687L10.4492 57.8872L10.5511 57.8299V57.0146L10.4492 56.8362L10.5511 56.7757V55.9604L10.4492 55.782L10.5511 55.7215V53.094L12.8983 51.7373V70.5978L12.8124 70.6392L10.5511 71.945V70.7061Z"/><path fill="#000" d="M19.6343 59.9637L19.5292 59.7854L19.6343 59.7248V58.9095L19.5292 58.7312L19.6343 58.6707V57.8585L19.5292 57.677L19.6343 57.6197V56.8044L19.5292 56.626L19.6343 56.5655V55.7502L19.5292 55.5718L19.6343 55.5113V54.6992L19.5292 54.5177L19.6343 54.4603V53.645L19.5292 53.4667L19.6343 53.4061V52.5908L19.5292 52.4125L19.6343 52.352V51.5398L19.5292 51.3583L19.6343 51.301V51.0589L15.2201 53.6068V50.3997L21.7171 46.6479V49.4888L21.9815 49.3359V59.849L19.6343 61.2026V59.9637Z"/><path fill="#000" d="M14.1946 58.9512L21.284 65.7635L14.1946 69.8465V58.9512ZM15.7233 66.719L17.8285 65.5055L15.7233 63.48V66.719Z"/><path fill="#000" d="M44.7275 40.8137C44.6847 40.8105 44.6431 40.7988 44.6049 40.7791C44.5668 40.7595 44.5331 40.7323 44.5057 40.6993C44.4784 40.6663 44.458 40.6281 44.4457 40.587C44.4335 40.5459 44.4297 40.5028 44.4345 40.4602V39.9888C44.4362 39.8795 44.4636 39.772 44.5145 39.6752C44.5654 39.5784 44.6384 39.4949 44.7275 39.4315V38.9124C44.7301 38.7876 44.7095 38.6634 44.667 38.5461L44.5523 38.3805C44.4697 38.2111 44.4293 38.0243 44.4345 37.8359V36.1447C44.4345 35.9664 44.4345 35.7212 44.4345 35.5587C44.4345 35.3963 44.4345 35.2403 44.4345 35.1001C44.401 34.0101 44.5211 32.9209 44.7912 31.8643C45.2721 30.0108 46.3326 29.7082 46.3836 29.6955L46.9664 29.5426L46.5365 29.963C45.4696 31.014 45.4919 32.6096 45.8071 33.2051C45.8465 33.2787 45.907 33.3389 45.9807 33.3781C46.0544 33.4172 46.1381 33.4335 46.2212 33.4249C46.301 33.4242 46.3803 33.4124 46.4569 33.3899H46.4791H46.5206C46.6639 33.3899 46.8072 33.5236 46.8072 33.823V34.2338L50.9029 31.8548V31.5108L54.3775 29.5044C54.4468 29.4624 54.5258 29.4393 54.6068 29.4375C54.8011 29.4375 54.9922 29.5904 54.9922 29.928V30.7305C54.9907 30.8994 54.9485 31.0655 54.8693 31.2146C54.79 31.3637 54.6759 31.4916 54.5368 31.5873L50.9029 33.6701V33.3262L46.804 35.6925V36.046C46.7887 36.3161 46.7329 36.5824 46.6384 36.8358L46.3645 37.5556C46.283 37.7734 46.2336 38.0019 46.218 38.234V38.5907H46.2785C46.4186 38.5907 46.5683 38.7022 46.5683 38.9442V39.4156C46.568 39.5263 46.5405 39.6353 46.4883 39.733C46.4361 39.8308 46.3608 39.9142 46.2689 39.9761L44.8931 40.7723C44.842 40.8027 44.7838 40.8191 44.7243 40.8201L44.7275 40.8137Z"/></g><path fill="#F5F5F5" d="M28.969 28.1382L24.7491 33.5683V47.5115L26.109 46.728L28.969 29.8898V28.1382Z"/><path fill="#E0E0E0" d="M25.9211 46.384L26.109 46.728L28.969 29.8898V28.4312L28.6951 28.5872V30.0299L25.9211 46.384Z"/><path fill="#E0E0E0" d="M24.7491 33.568V47.5112L25.0039 46.9411V33.2432L24.7491 33.568Z"/><path fill="#E0E0E0" d="M25.9434 44.7852C25.9459 44.9374 25.9133 45.0881 25.8482 45.2256C25.783 45.3632 25.687 45.4838 25.5676 45.5783C25.3606 45.6993 25.195 45.5369 25.195 45.2184C25.1916 45.0664 25.2235 44.9157 25.2882 44.7781C25.3528 44.6405 25.4485 44.5198 25.5676 44.4253C25.7746 44.3043 25.9434 44.4668 25.9434 44.7852Z"/><path fill="#EBEBEB" d="M28.7461 22.9342V23.7591C28.2047 24.2559 27.7556 24.0999 26.8161 24.9056C25.8766 25.7114 25.4211 26.6796 24.9052 27.0586V26.2337L24.5867 26.4216V33.6321C24.5867 33.8741 24.7173 33.9983 24.8797 33.906L27.1377 32.6002C27.2313 32.5377 27.3044 32.4491 27.3479 32.3454L28.9977 28.7242C29.0499 28.6136 29.0782 28.4931 29.0805 28.3707V22.7495L28.7461 22.9342ZM28.7461 27.393C27.5581 29.1383 27.0167 30.1415 24.8956 31.3676V28.6096C25.4307 28.1255 25.8797 28.272 26.8065 27.4726C27.7333 26.6732 28.211 25.6891 28.7365 25.3197L28.7461 27.393Z"/><path fill="#E0E0E0" d="M24.8956 28.6093C25.4307 28.1252 25.8797 28.2717 26.8065 27.4723C27.7333 26.6729 28.211 25.6888 28.7365 25.3194V23.7588C28.1951 24.2556 27.746 24.0996 26.8065 24.9053C25.867 25.7111 25.4116 26.6793 24.8956 27.0583V28.6093Z"/><path fill="#000" d="M24.8956 28.6093C25.4307 28.1252 25.8797 28.2717 26.8065 27.4723C27.7333 26.6729 28.211 25.6888 28.7365 25.3194V23.7588C28.1951 24.2556 27.746 24.0996 26.8065 24.9053C25.867 25.7111 25.4116 26.6793 24.8956 27.0583V28.6093Z" opacity=".1"/><path fill="#F5F5F5" d="M35.0361 39.8453L31.2844 41.2498L32.3927 27.6665L36.1444 26.2588L35.0361 39.8453Z"/><path fill="#E0E0E0" d="M33.1379 38.7911C33.1349 38.9396 33.0949 39.0849 33.0215 39.2139C32.948 39.3429 32.8436 39.4516 32.7175 39.53C32.5137 39.6065 32.3704 39.3994 32.3991 39.0682C32.4035 38.9201 32.4441 38.7753 32.5174 38.6465C32.5907 38.5177 32.6944 38.4088 32.8195 38.3293C33.0233 38.2529 33.1666 38.4599 33.1379 38.7911Z"/><path fill="#E0E0E0" d="M32.7685 27.5234L32.3927 27.6668L31.2844 41.25L31.7334 40.2404L32.7685 27.5234Z"/><path fill="#E0E0E0" d="M36.1444 26.2588L35.7654 26.4021L34.7303 39.1191L35.0361 39.8453L36.1444 26.2588Z"/><path fill="#EBEBEB" d="M36.1285 18.673V19.4979C35.5871 19.9947 35.1348 19.8355 34.1985 20.6444C33.2622 21.4534 32.8035 22.4184 32.2876 22.7973V21.9725L31.9691 22.1572V29.3708C31.9691 29.6129 32.0997 29.7371 32.2621 29.6415L34.5202 28.3389C34.613 28.2757 34.6859 28.1873 34.7304 28.0842L36.3801 24.463C36.4324 24.3512 36.4606 24.2297 36.4629 24.1063V18.4883L36.1285 18.673ZM36.1285 23.1318C34.9406 24.8739 34.3991 25.8707 32.278 27.0969V24.3611C32.8131 23.8738 33.2622 24.0235 34.1889 23.2241C35.1157 22.4247 35.5934 21.4406 36.1189 21.0712L36.1285 23.1318Z"/><path fill="#E0E0E0" d="M32.278 24.3607C32.8131 23.8735 33.2622 24.0232 34.1889 23.2238C35.1157 22.4244 35.5935 21.4403 36.1189 21.0708V19.5103C35.5775 20.0071 35.1253 19.8478 34.1889 20.6568C33.2526 21.4657 32.794 22.4307 32.278 22.8097V24.3607Z"/><path fill="#000" d="M32.278 24.3607C32.8131 23.8735 33.2622 24.0232 34.1889 23.2238C35.1157 22.4244 35.5935 21.4403 36.1189 21.0708V19.5103C35.5775 20.0071 35.1253 19.8478 34.1889 20.6568C33.2526 21.4657 32.794 22.4307 32.278 22.8097V24.3607Z" opacity=".1"/><path fill="#E0E0E0" d="M25.539 49.4478H25.3574V57.8302H25.539V49.4478Z"/><path fill="#F0F0F0" d="M25.5421 59.19H25.1823V58.1772C25.1798 58.0362 25.2113 57.8967 25.2739 57.7704C25.3365 57.644 25.4285 57.5346 25.5421 57.4511L27.5741 56.2791C28.1091 55.9606 28.5614 55.0051 28.5614 54.1516V49.2024C28.5614 48.747 28.434 48.403 28.2206 48.2788C28.1458 48.2438 28.0631 48.2292 27.9809 48.2365C27.8987 48.2438 27.8199 48.2726 27.7524 48.3202L25.2045 49.782L25.023 49.4636L27.5709 48.0017C27.6916 47.9204 27.8322 47.8735 27.9775 47.8662C28.1229 47.8589 28.2675 47.8915 28.3957 47.9603C28.7142 48.1514 28.9181 48.5973 28.9181 49.196V54.1421C28.9181 55.1325 28.4053 56.2026 27.7492 56.5816L25.7205 57.7537C25.6627 57.8059 25.6166 57.8698 25.5853 57.9412C25.554 58.0126 25.5382 58.0898 25.539 58.1677L25.5421 59.19Z"/><path fill="#E0E0E0" d="M25.3733 63.7379H25.3511C25.16 63.8494 25.0039 63.7379 25.0039 63.4768V59.018L25.7237 58.604V63.0628C25.7222 63.1949 25.6897 63.3248 25.6289 63.4421C25.568 63.5593 25.4805 63.6607 25.3733 63.7379Z"/><path fill="#FAFAFA" d="M25.574 59.5247C25.5748 59.6105 25.5564 59.6954 25.52 59.7731C25.4836 59.8508 25.4302 59.9194 25.3638 59.9737C25.246 60.0406 25.1504 59.9482 25.1504 59.7699C25.1486 59.6836 25.1669 59.598 25.2039 59.5201C25.241 59.4421 25.2957 59.3739 25.3638 59.3208C25.4785 59.2508 25.574 59.3431 25.574 59.5247Z"/><path fill="#F0F0F0" d="M29.934 58.0724C29.9024 58.073 29.8712 58.065 29.8437 58.0493C29.8162 58.0336 29.7935 58.0108 29.778 57.9832C29.7535 57.9418 29.7465 57.8924 29.7584 57.8458C29.7704 57.7992 29.8003 57.7593 29.8417 57.7348L33.8959 55.3971C34.0349 55.2801 34.1461 55.1337 34.2216 54.9685C34.297 54.8032 34.3348 54.6233 34.3323 54.4416V48.9415C34.328 48.6955 34.3818 48.452 34.4891 48.2307C34.5964 48.0094 34.7544 47.8165 34.9501 47.6675L38.1891 45.798C38.2624 45.7504 38.3471 45.7232 38.4345 45.7192C38.5218 45.7153 38.6086 45.7348 38.6859 45.7757C38.7945 45.8526 38.881 45.9565 38.9369 46.0772C38.9928 46.1979 39.016 46.3312 39.0044 46.4637V51.1422C39.0044 51.3492 39.0649 51.4798 39.1254 51.5148C39.1482 51.5236 39.1729 51.5262 39.1969 51.5223C39.221 51.5184 39.2436 51.5081 39.2624 51.4925L40.8548 50.5657C40.8755 50.5537 40.8983 50.546 40.922 50.5429C40.9457 50.5398 40.9698 50.5413 40.9929 50.5476C41.016 50.5538 41.0376 50.5645 41.0565 50.5791C41.0754 50.5937 41.0913 50.6119 41.1032 50.6326C41.1151 50.653 41.1228 50.6757 41.1259 50.6991C41.129 50.7226 41.1273 50.7464 41.1211 50.7692C41.1149 50.792 41.1042 50.8134 41.0896 50.832C41.0751 50.8507 41.0569 50.8663 41.0363 50.8778L39.4439 51.8078C39.3707 51.8559 39.2857 51.8832 39.1981 51.8865C39.1106 51.8899 39.0238 51.8693 38.9471 51.8269C38.8385 51.7508 38.7519 51.6474 38.696 51.5272C38.6401 51.407 38.6169 51.2742 38.6286 51.1422V46.4637C38.6286 46.2535 38.5681 46.1261 38.5076 46.091C38.4471 46.056 38.4311 46.091 38.3738 46.1101L35.1348 47.9796C34.9951 48.0962 34.8832 48.2424 34.8071 48.4077C34.7311 48.573 34.6929 48.7532 34.6953 48.9351V54.4289C34.6996 54.6748 34.6458 54.9183 34.5385 55.1396C34.4312 55.361 34.2732 55.5539 34.0775 55.7028L30.0264 58.0437C29.9987 58.0613 29.9668 58.0712 29.934 58.0724Z"/><path fill="#E0E0E0" d="M41.0745 53.8333C40.7337 54.0276 40.4598 53.8333 40.4598 53.3651V48.5656C40.4629 48.3348 40.5201 48.1079 40.6269 47.9032C40.7336 47.6985 40.887 47.5218 41.0745 47.3872C41.4153 47.1897 41.6924 47.3872 41.6924 47.8522V52.6517C41.6889 52.8833 41.6312 53.1108 41.5239 53.316C41.4166 53.5212 41.2627 53.6984 41.0745 53.8333Z"/><path fill="#E0E0E0" d="M37.4757 47.0974L35.8673 48.0242C35.6062 48.1739 35.3928 48.0242 35.3928 47.6675V47.5719C35.3961 47.3947 35.4407 47.2206 35.5231 47.0636C35.6055 46.9066 35.7233 46.7709 35.8673 46.6674L37.4757 45.7407C37.7368 45.5878 37.947 45.7407 37.947 46.0974V46.1929C37.9443 46.37 37.9003 46.5439 37.8185 46.701C37.7366 46.858 37.6192 46.9938 37.4757 47.0974Z"/><path fill="#E0E0E0" d="M32.8322 57.8269L31.2621 58.7314C31.0328 58.8652 30.8513 58.7314 30.8513 58.4129V56.3046C30.8531 56.1504 30.8912 55.9988 30.9626 55.8621C31.034 55.7254 31.1366 55.6075 31.2621 55.5179L32.8322 54.6102C33.0583 54.4797 33.2431 54.6102 33.2431 54.9287V57.0466C33.2393 57.1995 33.2002 57.3495 33.1289 57.4848C33.0577 57.6202 32.9561 57.7372 32.8322 57.8269Z"/><path fill="#E0E0E0" d="M30.4914 58.4735C30.2939 58.5882 30.1315 58.2761 30.1315 57.776C30.1315 57.276 30.2939 56.7792 30.4914 56.6645L30.8512 56.4575V58.2665L30.4914 58.4735Z"/><path fill="#000" d="M30.5933 58.413L30.8512 58.2665V56.4575L30.5933 56.6072V58.413Z" opacity=".1"/><path fill="#FAFAFA" d="M33.0328 56.0597C33.0347 56.1444 33.017 56.2284 32.9811 56.3052C32.9452 56.382 32.8921 56.4495 32.8258 56.5023C32.708 56.5692 32.6156 56.4801 32.6156 56.3017C32.6136 56.2166 32.6316 56.1323 32.6681 56.0554C32.7046 55.9785 32.7586 55.9112 32.8258 55.859C32.9405 55.7921 33.0328 55.8909 33.0328 56.0597Z"/><path fill="#FAFAFA" d="M41.2847 50.4764C41.2867 50.562 41.2688 50.6468 41.2323 50.7242C41.1958 50.8016 41.1418 50.8694 41.0745 50.9223C40.9599 50.9892 40.8643 50.8968 40.8643 50.7185C40.8631 50.6335 40.8814 50.5494 40.9179 50.4726C40.9543 50.3959 41.0079 50.3285 41.0745 50.2758C41.1924 50.2216 41.2847 50.314 41.2847 50.4764Z"/><path fill="#F0F0F0" d="M40.4121 18.6728C40.3203 18.6737 40.23 18.6495 40.1509 18.6027C40.0233 18.5063 39.9227 18.3785 39.8591 18.2317C39.7955 18.085 39.7709 17.9242 39.7879 17.7651C39.7879 17.1282 40.1286 16.4116 40.5618 16.1727C40.6484 16.1156 40.7488 16.0829 40.8524 16.0778C40.9561 16.0728 41.0592 16.0957 41.151 16.1441C41.2794 16.2405 41.3804 16.3688 41.444 16.5163C41.5077 16.6637 41.5318 16.8252 41.514 16.9848C41.5181 17.2922 41.4503 17.5963 41.3159 17.8728C41.1815 18.1493 40.9843 18.3906 40.7401 18.5773C40.6411 18.6375 40.5279 18.6705 40.4121 18.6728ZM40.8898 16.4434C40.8367 16.4466 40.7852 16.463 40.7401 16.4912C40.5511 16.6481 40.3997 16.8455 40.2972 17.0687C40.1946 17.292 40.1436 17.5354 40.1477 17.7811C40.1477 18.0995 40.2433 18.2556 40.3325 18.3066C40.3695 18.3229 40.4103 18.3292 40.4505 18.3248C40.4908 18.3203 40.5292 18.3052 40.5618 18.2811C40.749 18.1262 40.8994 17.9314 41.0019 17.711C41.1044 17.4906 41.1564 17.2502 41.1541 17.0071C41.1541 16.6887 41.0586 16.5326 40.9694 16.4816C40.9503 16.4546 40.922 16.4353 40.8898 16.4275V16.4434Z"/><path fill="#F0F0F0" d="M41.1988 17.8831C41.1988 18.8958 41.1605 19.9659 41.1828 20.9278C41.2039 21.3466 41.3056 21.7576 41.4822 22.138C41.6446 22.4565 41.8803 22.7081 42.0555 23.0393C42.2587 23.3749 42.4222 23.7329 42.5428 24.1062C42.6973 24.5671 42.7505 25.056 42.6988 25.5394C42.6065 26.6254 42.0109 27.8643 41.3325 28.2401C42.0109 27.8261 42.5682 26.5904 42.6319 25.5649C42.6733 25.1099 42.6112 24.6516 42.4504 24.224C42.3228 23.872 42.1539 23.5363 41.9472 23.224C41.7593 22.9055 41.53 22.6953 41.3389 22.3577C41.1362 21.9611 41.0149 21.528 40.9822 21.0838C40.9344 20.0583 40.9472 19.0551 40.928 18.0423C40.927 17.9866 40.9385 17.9313 40.9616 17.8806C40.9848 17.8299 41.019 17.785 41.0618 17.7493C41.1351 17.7047 41.1988 17.7493 41.1988 17.8735V17.8831Z"/><path fill="#F0F0F0" d="M40.3739 18.3605C40.3548 19.3987 40.3739 20.3828 40.3197 21.4657C40.2667 22.0389 40.148 22.6042 39.9662 23.1505C39.7719 23.7078 39.5426 24.1887 39.3547 24.7174C39.1585 25.2388 38.9905 25.7703 38.8515 26.3098C38.7031 26.8127 38.6428 27.3374 38.6732 27.8608C38.7337 28.8163 39.291 29.4055 39.9694 29.0392C39.291 29.4437 38.6955 28.8927 38.6031 27.9118C38.5631 27.3696 38.6158 26.8246 38.7592 26.3002C38.8913 25.7512 39.054 25.21 39.2464 24.6792C39.4216 24.1441 39.6573 23.6186 39.8197 23.1122C39.9809 22.6079 40.0814 22.0862 40.1191 21.558C40.1414 20.5676 40.1191 19.542 40.1191 18.5325C40.1181 18.4776 40.1296 18.4233 40.1528 18.3737C40.176 18.324 40.2102 18.2803 40.2528 18.2458C40.3293 18.2012 40.3898 18.2458 40.3898 18.3732L40.3739 18.3605Z"/><path fill="#F0F0F0" d="M41.7863 19.2347L40.1506 20.1787L40.3305 20.4904L41.9662 19.5464L41.7863 19.2347Z"/><path fill="#F0F0F0" d="M42.5937 19.3193L41.3484 20.0455V19.3607L42.5937 18.6282C42.7434 18.5422 42.8644 18.6282 42.8644 18.8129C42.8621 18.9126 42.8364 19.0104 42.7893 19.0984C42.7423 19.1863 42.6753 19.262 42.5937 19.3193Z"/><path fill="#F0F0F0" d="M41.2178 43.2694L40.3579 43.7662V31.4377L41.2178 30.9409V43.2694Z"/><path fill="#EBEBEB" d="M42.7083 34.7018L38.9375 36.8802V34.0139L42.7083 31.8354V34.7018Z"/><path fill="#E0E0E0" d="M42.7083 34.0938L38.9375 36.2722V36.8805L42.7083 34.7021V34.0938Z"/><path fill="#000" d="M42.7083 34.0938L38.9375 36.2722V36.8805L42.7083 34.7021V34.0938Z" opacity=".1"/><path fill="#E0E0E0" d="M43.2307 33.6193L42.7083 33.9218V32.6192L43.2307 32.3135V33.6193Z"/><path fill="#000" d="M42.8835 33.8197L42.7083 33.9216V32.619L42.8835 32.5171V33.8197Z" opacity=".1"/><path fill="#E0E0E0" d="M39.7688 31.9983V32.4314L39.3643 32.6671V32.9314L41.2179 31.8581V31.597V31.1606L39.7688 31.9983Z"/><path fill="#E0E0E0" d="M41.2179 42.0683L40.5841 42.4346V42.2276L41.2179 41.8613V42.0683Z"/><path fill="#E0E0E0" d="M41.2179 40.2373L40.5841 40.6067V40.3965L41.2179 40.0303V40.2373Z"/><path fill="#E0E0E0" d="M41.2179 38.4089L40.5841 38.7752V38.565L41.2179 38.1987V38.4089Z"/><path fill="#E0E0E0" d="M41.2179 36.5779L40.5841 36.9441V36.7371L41.2179 36.3677V36.5779Z"/><path fill="#E0E0E0" d="M47.2021 46.8043C47.2013 46.7492 47.2132 46.6946 47.2369 46.6449C47.2607 46.5951 47.2957 46.5516 47.3391 46.5176L53.4508 42.9825C53.5272 42.9379 53.5877 42.9984 53.5877 43.1131C53.5886 43.1682 53.5767 43.2227 53.5529 43.2725C53.5291 43.3222 53.4942 43.3658 53.4508 43.3997L47.3263 46.9349C47.2626 46.9731 47.2021 46.9189 47.2021 46.8043Z"/><path fill="#E0E0E0" d="M47.2117 47.3105L47.7499 46.992V45.9761L47.2117 46.2946C46.9575 46.4265 46.673 46.4891 46.3868 46.4761C46.2673 46.4799 46.1509 46.515 46.0492 46.578C45.8259 46.7252 45.6406 46.9231 45.5083 47.1556C45.3761 47.3881 45.3006 47.6485 45.2881 47.9156C45.2881 48.4093 45.6288 48.6131 46.0492 48.3711C46.1769 48.2936 46.2909 48.1957 46.3868 48.0812C46.6232 47.7859 46.901 47.5263 47.2117 47.3105Z"/><g opacity=".1"><path fill="#000" d="M47.2117 47.3105L47.7499 46.992V45.9761L47.2117 46.2946C46.9575 46.4265 46.673 46.4891 46.3868 46.4761C46.2673 46.4799 46.1509 46.515 46.0492 46.578C45.8259 46.7252 45.6406 46.9231 45.5083 47.1556C45.3761 47.3881 45.3006 47.6485 45.2881 47.9156C45.2881 48.4093 45.6288 48.6131 46.0492 48.3711C46.1769 48.2936 46.2909 48.1957 46.3868 48.0812C46.6232 47.7859 46.901 47.5263 47.2117 47.3105Z"/></g><path fill="#E0E0E0" d="M53.6132 40.457C53.6132 40.3423 53.5527 40.285 53.4763 40.3264L47.3518 43.8648C47.308 43.8984 47.2728 43.9418 47.249 43.9917C47.2252 44.0415 47.2135 44.0962 47.2149 44.1514C47.2149 44.266 47.2754 44.3234 47.3518 44.2788L53.4763 40.7436C53.5201 40.71 53.5553 40.6665 53.5791 40.6167C53.6029 40.5669 53.6146 40.5122 53.6132 40.457Z"/><path fill="#E0E0E0" d="M53.6037 40.9696L53.0686 41.2881V40.269L53.6037 39.9505C53.9142 39.7346 54.1921 39.475 54.4285 39.1797C54.5244 39.0653 54.6385 38.9674 54.7661 38.8899C55.1865 38.6479 55.5273 38.8517 55.5273 39.3485C55.5143 39.6152 55.4386 39.8749 55.3063 40.1068C55.174 40.3387 54.989 40.5361 54.7661 40.683C54.6645 40.746 54.548 40.7811 54.4285 40.7849C54.1423 40.7745 53.8582 40.8381 53.6037 40.9696Z"/><g opacity=".1"><path fill="#000" d="M53.6037 40.9696L53.0686 41.2881V40.269L53.6037 39.9505C53.9142 39.7346 54.1921 39.475 54.4285 39.1797C54.5244 39.0653 54.6385 38.9674 54.7661 38.8899C55.1865 38.6479 55.5273 38.8517 55.5273 39.3485C55.5143 39.6152 55.4386 39.8749 55.3063 40.1068C55.174 40.3387 54.989 40.5361 54.7661 40.683C54.6645 40.746 54.548 40.7811 54.4285 40.7849C54.1423 40.7745 53.8582 40.8381 53.6037 40.9696Z"/></g><path fill="#EBEBEB" d="M52.387 45.489V39.6831L50.7341 40.6354V49.3682L51.1449 49.1293L52.387 45.489Z"/><path fill="#000" d="M50.9793 49.2247V40.4951L50.7341 40.6353V49.368L50.9793 49.2247Z" opacity=".1"/><path fill="#EBEBEB" d="M48.3359 47.8268V42.0209L49.992 41.0654V49.7982L49.578 50.0339L48.3359 47.8268Z"/><path fill="#000" d="M49.7436 49.9384V41.2087L49.992 41.0654V49.7982L49.7436 49.9384Z" opacity=".1"/><path fill="#E0E0E0" d="M49.113 45.9379C49.0302 45.9857 48.9602 45.922 48.9602 45.7914C48.9606 45.7304 48.9745 45.6701 49.0009 45.6151C49.0274 45.56 49.0657 45.5115 49.113 45.4729C49.1959 45.4252 49.2659 45.4921 49.2659 45.6226C49.2655 45.6832 49.2515 45.743 49.2251 45.7975C49.1986 45.8521 49.1604 45.9 49.113 45.9379Z"/><path fill="#E0E0E0" d="M51.6386 44.4792C51.5526 44.5269 51.4857 44.4792 51.4857 44.3327C51.4845 44.2713 51.4977 44.2105 51.5242 44.1552C51.5508 44.0999 51.59 44.0516 51.6386 44.0142C51.7214 43.9632 51.7915 44.0301 51.7915 44.1607C51.792 44.2219 51.7785 44.2825 51.752 44.3377C51.7255 44.3929 51.6867 44.4413 51.6386 44.4792Z"/><path fill="#E0E0E0" d="M49.113 43.3169C49.0302 43.3646 48.9602 43.2978 48.9602 43.1704C48.9606 43.1093 48.9745 43.0491 49.0009 42.994C49.0274 42.9389 49.0657 42.8904 49.113 42.8519C49.1959 42.8041 49.2659 42.871 49.2659 42.9984C49.266 43.0595 49.2522 43.1199 49.2258 43.175C49.1993 43.2302 49.1608 43.2787 49.113 43.3169Z"/><path fill="#E0E0E0" d="M51.6386 41.8581C51.5526 41.9059 51.4857 41.8422 51.4857 41.7116C51.4845 41.6502 51.4977 41.5894 51.5242 41.5341C51.5508 41.4788 51.59 41.4305 51.6386 41.3931C51.7214 41.3421 51.7915 41.409 51.7915 41.5396C51.7915 41.6008 51.7778 41.6611 51.7513 41.7163C51.7249 41.7714 51.6863 41.8199 51.6386 41.8581Z"/><path fill="#F0F0F0" d="M12.0066 42.8455L11.6404 43.0557V38.0237L12.0066 37.8135V42.8455Z"/><path fill="#E0E0E0" d="M11.3314 36.998V38.2242L12.3124 37.6573V36.4311C12.3417 35.7432 12.4366 35.0596 12.5958 34.3896C12.6543 34.1175 12.6842 33.84 12.685 33.5616C12.685 32.6061 12.2996 32.0488 11.8219 32.3227C11.3442 32.5966 10.9588 33.5966 10.9588 34.5521C10.9563 34.7961 10.9874 35.0394 11.0512 35.275C11.2221 35.834 11.3164 36.4136 11.3314 36.998Z"/><g opacity=".1"><path fill="#000" d="M11.3314 36.998V38.2242L12.3124 37.6573V36.4311C12.3417 35.7432 12.4366 35.0596 12.5958 34.3896C12.6543 34.1175 12.6842 33.84 12.685 33.5616C12.685 32.6061 12.2996 32.0488 11.8219 32.3227C11.3442 32.5966 10.9588 33.5966 10.9588 34.5521C10.9563 34.7961 10.9874 35.0394 11.0512 35.275C11.2221 35.834 11.3164 36.4136 11.3314 36.998Z"/></g><path fill="#EBEBEB" d="M12.3124 38.3547L11.3315 38.9216V38.2241L12.3124 37.6572V38.3547Z"/><path fill="#F5F5F5" d="M12.6149 48.3553L11.0289 49.2725V42.4729L12.6149 41.5557V48.3553Z"/><path fill="#E0E0E0" d="M12.427 48.4667L12.6149 48.3553V41.5557L12.427 41.6639V48.4667Z"/><path fill="#E0E0E0" d="M11.0289 49.2726L11.22 49.1644V42.3647L11.0289 42.473V49.2726Z"/><path fill="#F0F0F0" d="M14.8475 41.2022L14.4844 41.4156V36.3835L14.8475 36.1733V41.2022Z"/><path fill="#E0E0E0" d="M14.1755 35.3548V36.5842L15.1564 36.0173V34.7879C15.1854 34.1002 15.2792 33.4166 15.4367 32.7465C15.498 32.4758 15.529 32.1991 15.5291 31.9216C15.5291 30.9662 15.1437 30.4056 14.666 30.6827C14.1882 30.9598 13.8029 31.9566 13.8029 32.9121C13.7992 33.155 13.8292 33.3972 13.8921 33.6319C14.0637 34.1908 14.1591 34.7704 14.1755 35.3548Z"/><g opacity=".1"><path fill="#000" d="M14.1755 35.3548V36.5842L15.1564 36.0173V34.7879C15.1854 34.1002 15.2792 33.4166 15.4367 32.7465C15.498 32.4758 15.529 32.1991 15.5291 31.9216C15.5291 30.9662 15.1437 30.4056 14.666 30.6827C14.1882 30.9598 13.8029 31.9566 13.8029 32.9121C13.7992 33.155 13.8292 33.3972 13.8921 33.6319C14.0637 34.1908 14.1591 34.7704 14.1755 35.3548Z"/></g><path fill="#EBEBEB" d="M15.1564 36.7114L14.1755 37.2783V36.584L15.1564 36.0171V36.7114Z"/><path fill="#F5F5F5" d="M15.2711 46.8235L14.0609 47.521V40.7214L15.2711 40.0239V46.8235Z"/><path fill="#E0E0E0" d="M15.0832 46.9318L15.2711 46.8235V40.0239L15.0832 40.1322V46.9318Z"/><path fill="#E0E0E0" d="M14.0609 47.5207L14.2488 47.4124V40.6128L14.0609 40.7211V47.5207Z"/><path fill="#F0F0F0" d="M17.6915 39.5618L17.3253 39.772V34.74L17.6915 34.5298V39.5618Z"/><path fill="#E0E0E0" d="M17.0195 33.7148V34.941L18.0005 34.3741V33.1479C18.0289 32.4601 18.1228 31.7765 18.2807 31.1064C18.3404 30.8344 18.3714 30.5569 18.3731 30.2784C18.3731 29.3229 17.9845 28.7656 17.51 29.0395C17.0355 29.3134 16.6469 30.3134 16.6469 31.2689C16.6432 31.5128 16.6733 31.7561 16.7361 31.9918C16.908 32.5507 17.0034 33.1303 17.0195 33.7148Z"/><g opacity=".1"><path fill="#000" d="M17.0195 33.7148V34.941L18.0005 34.3741V33.1479C18.0289 32.4601 18.1228 31.7765 18.2807 31.1064C18.3404 30.8344 18.3714 30.5569 18.3731 30.2784C18.3731 29.3229 17.9845 28.7656 17.51 29.0395C17.0355 29.3134 16.6469 30.3134 16.6469 31.2689C16.6432 31.5128 16.6733 31.7561 16.7361 31.9918C16.908 32.5507 17.0034 33.1303 17.0195 33.7148Z"/></g><path fill="#EBEBEB" d="M18.0005 35.0715L17.0195 35.6384V34.9409L18.0005 34.374V35.0715Z"/><path fill="#F5F5F5" d="M18.0196 45.2376L16.9973 45.8268V39.0272L18.0196 38.438V45.2376Z"/><path fill="#E0E0E0" d="M17.8317 45.3459L18.0196 45.2376V38.438L17.8317 38.5463V45.3459Z"/><path fill="#E0E0E0" d="M16.9973 45.8263L17.1852 45.7181V38.9185L16.9973 39.0267V45.8263Z"/><path fill="#F0F0F0" d="M20.5324 37.9217L20.1693 38.1319V33.0998L20.5324 32.8896V37.9217Z"/><path fill="#E0E0E0" d="M19.8604 32.0745V33.3006L20.8413 32.7337V31.5076C20.8701 30.8164 20.965 30.1296 21.1248 29.4565C21.1833 29.1844 21.2131 28.9069 21.2139 28.6285C21.2139 27.673 20.8286 27.1157 20.3509 27.3896C19.8731 27.6635 19.4878 28.6635 19.4878 29.619C19.4838 29.8631 19.5149 30.1066 19.5801 30.3419C19.7519 30.904 19.8462 31.4869 19.8604 32.0745Z"/><g opacity=".1"><path fill="#000" d="M19.8604 32.0745V33.3006L20.8413 32.7337V31.5076C20.8701 30.8164 20.965 30.1296 21.1248 29.4565C21.1833 29.1844 21.2131 28.9069 21.2139 28.6285C21.2139 27.673 20.8286 27.1157 20.3509 27.3896C19.8731 27.6635 19.4878 28.6635 19.4878 29.619C19.4838 29.8631 19.5149 30.1066 19.5801 30.3419C19.7519 30.904 19.8462 31.4869 19.8604 32.0745Z"/></g><path fill="#EBEBEB" d="M20.8413 33.4314L19.8604 33.9983V33.3008L20.8413 32.7339V33.4314Z"/><path fill="#F5F5F5" d="M20.7681 43.648L19.9337 44.1289V37.3293L20.7681 36.8516V43.648Z"/><path fill="#E0E0E0" d="M20.5802 43.7594L20.7681 43.648V36.8516L20.5802 36.9598V43.7594Z"/><path fill="#E0E0E0" d="M19.9337 44.1291L20.1216 44.0208V37.2212L19.9337 37.3295V44.1291Z"/><path fill="#F0F0F0" d="M45.9154 22.2591L45.5492 22.4693V17.4373L45.9154 17.2271V22.2591Z"/><path fill="#E0E0E0" d="M46.597 12.9781C46.5952 13.2566 46.5642 13.5341 46.5047 13.8061C46.3473 14.4753 46.2524 15.1577 46.2212 15.8444V17.0706L45.2403 17.6375V16.3986C45.2241 15.8174 45.1298 15.2411 44.96 14.6851C44.8945 14.4499 44.8633 14.2064 44.8677 13.9622C44.8672 13.6822 44.9004 13.4031 44.9664 13.1309L46.4983 12.2583C46.5676 12.4918 46.6009 12.7345 46.597 12.9781Z"/><g opacity=".1"><path fill="#000" d="M46.597 12.9781C46.5952 13.2566 46.5642 13.5341 46.5047 13.8061C46.3473 14.4753 46.2524 15.1577 46.2212 15.8444V17.0706L45.2403 17.6375V16.3986C45.2241 15.8174 45.1298 15.2411 44.96 14.6851C44.8945 14.4499 44.8633 14.2064 44.8677 13.9622C44.8672 13.6822 44.9004 13.4031 44.9664 13.1309L46.4983 12.2583C46.5676 12.4918 46.6009 12.7345 46.597 12.9781Z"/></g><path fill="#EBEBEB" d="M46.2244 17.7683L45.2435 18.3352V17.6377L46.2244 17.0708V17.7683Z"/><path fill="#F5F5F5" d="M46.5238 20.9722V26.9087L46.3359 27.8769L45.1288 28.5743L44.9377 27.8259V21.8894L46.5238 20.9722Z"/><path fill="#E0E0E0" d="M46.5238 20.9722V26.9087L46.3359 27.8769V21.0805L46.5238 20.9722Z"/><path fill="#E0E0E0" d="M45.1288 21.7778V28.5743L44.9377 27.8258V21.8893L45.1288 21.7778Z"/><path fill="#F0F0F0" d="M48.7595 20.6185L48.3932 20.8287V15.7966L48.7595 15.5864V20.6185Z"/><path fill="#E0E0E0" d="M49.4379 11.3382C49.4374 11.6167 49.4064 11.8944 49.3455 12.1662C49.1909 12.8358 49.0971 13.5181 49.0653 14.2045V15.4434L48.0843 16.0071V14.7714C48.0685 14.1903 47.9742 13.6139 47.8041 13.058C47.7388 12.8227 47.7077 12.5792 47.7117 12.335C47.7118 12.0552 47.7439 11.7763 47.8073 11.5038L49.3455 10.6152C49.4108 10.8505 49.4419 11.094 49.4379 11.3382Z"/><g opacity=".1"><path fill="#000" d="M49.4379 11.3382C49.4374 11.6167 49.4064 11.8944 49.3455 12.1662C49.1909 12.8358 49.0971 13.5181 49.0653 14.2045V15.4434L48.0843 16.0071V14.7714C48.0685 14.1903 47.9742 13.6139 47.8041 13.058C47.7388 12.8227 47.7077 12.5792 47.7117 12.335C47.7118 12.0552 47.7439 11.7763 47.8073 11.5038L49.3455 10.6152C49.4108 10.8505 49.4419 11.094 49.4379 11.3382Z"/></g><path fill="#EBEBEB" d="M49.0653 16.1281L48.0844 16.6919V15.9976L49.0653 15.4307V16.1281Z"/><path fill="#F5F5F5" d="M49.1799 19.4404V25.3769L48.9952 26.3419L48.1608 26.8229L47.9697 26.0744V20.1379L49.1799 19.4404Z"/><path fill="#E0E0E0" d="M49.1799 19.4404V25.3769L48.9952 26.3419V19.5487L49.1799 19.4404Z"/><path fill="#E0E0E0" d="M48.1608 20.0293V26.8225L47.9697 26.0741V20.1376L48.1608 20.0293Z"/><path fill="#F0F0F0" d="M51.6004 18.9754L51.2373 19.1856V14.1567L51.6004 13.9434V18.9754Z"/><path fill="#E0E0E0" d="M52.2819 9.71054C52.2815 9.99015 52.2505 10.2689 52.1896 10.5418C52.0322 11.211 51.9373 11.8933 51.9061 12.5801V13.7871L50.9284 14.354V13.1279C50.913 12.5464 50.8176 11.9698 50.6449 11.4144C50.5811 11.1799 50.55 10.9377 50.5526 10.6946C50.5538 10.4137 50.5869 10.1337 50.6513 9.86022L52.1768 8.97803C52.2518 9.21478 52.2873 9.46226 52.2819 9.71054Z"/><g opacity=".1"><path fill="#000" d="M52.2819 9.71054C52.2815 9.99015 52.2505 10.2689 52.1896 10.5418C52.0322 11.211 51.9373 11.8933 51.9061 12.5801V13.7871L50.9284 14.354V13.1279C50.913 12.5464 50.8176 11.9698 50.6449 11.4144C50.5811 11.1799 50.55 10.9377 50.5526 10.6946C50.5538 10.4137 50.5869 10.1337 50.6513 9.86022L52.1768 8.97803C52.2518 9.21478 52.2873 9.46226 52.2819 9.71054Z"/></g><path fill="#EBEBEB" d="M51.9093 14.4848L50.9284 15.0517V14.3542L51.9093 13.7905V14.4848Z"/><path fill="#F5F5F5" d="M51.9284 17.8511V23.7876L51.7405 24.7558L51.094 25.1284L50.9061 24.38V18.4435L51.9284 17.8511Z"/><path fill="#E0E0E0" d="M51.9284 17.8511V23.7876L51.7405 24.7558V17.9625L51.9284 17.8511Z"/><path fill="#E0E0E0" d="M51.094 18.335V25.1282L50.9061 24.3798V18.4432L51.094 18.335Z"/><path fill="#F0F0F0" d="M54.4444 17.3352L54.0782 17.5454V12.5134L54.4444 12.3032V17.3352Z"/><path fill="#E0E0E0" d="M55.1228 8.0545C55.1223 8.33306 55.0913 8.61073 55.0304 8.88255C54.8758 9.55216 54.782 10.2344 54.7502 10.9208V12.147L53.7692 12.7139V11.4877C53.753 10.9066 53.6588 10.3303 53.489 9.7743C53.4237 9.53899 53.3926 9.29552 53.3966 9.05135C53.3962 8.77132 53.4293 8.49225 53.4953 8.22011L55.0432 7.33154C55.1041 7.56748 55.131 7.81095 55.1228 8.0545Z"/><g opacity=".1"><path fill="#000" d="M55.1228 8.0545C55.1223 8.33306 55.0913 8.61073 55.0304 8.88255C54.8758 9.55216 54.782 10.2344 54.7502 10.9208V12.147L53.7692 12.7139V11.4877C53.753 10.9066 53.6588 10.3303 53.489 9.7743C53.4237 9.53899 53.3926 9.29552 53.3966 9.05135C53.3962 8.77132 53.4293 8.49225 53.4953 8.22011L55.0432 7.33154C55.1041 7.56748 55.131 7.81095 55.1228 8.0545Z"/></g><path fill="#EBEBEB" d="M54.7534 12.8444L53.7724 13.4113V12.7139L54.7534 12.147V12.8444Z"/><path fill="#F5F5F5" d="M54.6801 16.2651V22.2017L54.489 23.1698L54.0368 23.431L53.8457 22.6826V16.746L54.6801 16.2651Z"/><path fill="#E0E0E0" d="M54.6801 16.2651V22.2017L54.489 23.1698V16.3734L54.6801 16.2651Z"/><path fill="#E0E0E0" d="M54.0368 16.6377V23.4309L53.8457 22.6825V16.746L54.0368 16.6377Z"/><path fill="#F0F0F0" d="M13.0576 70.181L11.0289 71.3498V52.8683L13.0576 51.6963V70.181Z"/><path fill="#FAFAFA" d="M11.4747 71.0951L11.0289 71.3499V52.8683L11.4747 52.6104V71.0951Z"/><path fill="#E0E0E0" d="M13.0576 70.181L12.6149 70.4358V51.9511L13.0576 51.6963V70.181Z"/><path fill="#E0E0E0" d="M12.3303 53.5499C12.4211 53.254 12.3666 52.9748 12.2086 52.9263C12.0505 52.8777 11.8487 53.0783 11.7579 53.3743C11.6671 53.6702 11.7216 53.9495 11.8797 53.998C12.0377 54.0465 12.2395 53.8459 12.3303 53.5499Z"/><path fill="#E0E0E0" d="M11.9601 69.7071L10.9861 70.2686L11.0767 70.4258L12.0507 69.8644L11.9601 69.7071Z"/><path fill="#E0E0E0" d="M11.966 68.6474L10.9921 69.209L11.0827 69.3662L12.0567 68.8046L11.966 68.6474Z"/><path fill="#E0E0E0" d="M11.9649 67.5942L10.9909 68.1558L11.0816 68.313L12.0555 67.7514L11.9649 67.5942Z"/><path fill="#E0E0E0" d="M11.9637 66.5375L10.9898 67.0991L11.0805 67.2564L12.0544 66.6948L11.9637 66.5375Z"/><path fill="#E0E0E0" d="M11.9642 65.4872L10.9903 66.0488L11.081 66.2061L12.0549 65.6445L11.9642 65.4872Z"/><path fill="#E0E0E0" d="M11.9631 64.4335L10.9892 64.9951L11.0799 65.1524L12.0538 64.5908L11.9631 64.4335Z"/><path fill="#E0E0E0" d="M11.962 63.3803L10.9881 63.9419L11.0788 64.0992L12.0527 63.5375L11.962 63.3803Z"/><path fill="#E0E0E0" d="M11.9656 62.33L10.9917 62.8916L11.0824 63.0489L12.0563 62.4872L11.9656 62.33Z"/><path fill="#E0E0E0" d="M11.9588 61.2789L10.9848 61.8403L11.0754 61.9976L12.0494 61.4362L11.9588 61.2789Z"/><path fill="#E0E0E0" d="M11.9634 60.2201L10.9895 60.7817L11.0802 60.939L12.0541 60.3774L11.9634 60.2201Z"/><path fill="#E0E0E0" d="M11.9639 59.1693L10.99 59.731L11.0807 59.8882L12.0546 59.3266L11.9639 59.1693Z"/><path fill="#E0E0E0" d="M11.9628 58.1161L10.9889 58.6777L11.0795 58.835L12.0535 58.2734L11.9628 58.1161Z"/><path fill="#E0E0E0" d="M11.9617 57.0624L10.9878 57.624L11.0784 57.7813L12.0524 57.2197L11.9617 57.0624Z"/><path fill="#E0E0E0" d="M11.9653 56.0087L10.9914 56.5703L11.0821 56.7276L12.056 56.166L11.9653 56.0087Z"/><path fill="#E0E0E0" d="M11.9642 54.9555L10.9903 55.5171L11.081 55.6744L12.0549 55.1127L11.9642 54.9555Z"/><path fill="#F0F0F0" d="M20.112 50.4635V60.6104L22.1375 59.4384V49.2915L20.112 50.4635Z"/><path fill="#FAFAFA" d="M20.112 50.4638V60.6106L20.5547 60.3527V50.209L20.112 50.4638Z"/><path fill="#E0E0E0" d="M21.6949 49.5495V59.6931L22.1407 59.4384V49.2915L21.6949 49.5495Z"/><path fill="#E0E0E0" d="M21.0369 58.9672L20.063 59.5288L20.1536 59.6861L21.1276 59.1245L21.0369 58.9672Z"/><path fill="#E0E0E0" d="M21.0357 57.914L20.0618 58.4756L20.1525 58.6328L21.1264 58.0712L21.0357 57.914Z"/><path fill="#E0E0E0" d="M21.0346 56.8578L20.0607 57.4194L20.1514 57.5767L21.1253 57.0151L21.0346 56.8578Z"/><path fill="#E0E0E0" d="M21.0383 55.807L20.0644 56.3687L20.1551 56.5259L21.129 55.9643L21.0383 55.807Z"/><path fill="#E0E0E0" d="M21.0372 54.7538L20.0633 55.3154L20.1539 55.4727L21.1279 54.9111L21.0372 54.7538Z"/><path fill="#E0E0E0" d="M21.0361 53.7001L20.0622 54.2617L20.1529 54.419L21.1268 53.8574L21.0361 53.7001Z"/><path fill="#E0E0E0" d="M21.0366 52.6498L20.0627 53.2114L20.1533 53.3687L21.1273 52.8071L21.0366 52.6498Z"/><path fill="#E0E0E0" d="M21.0354 51.5932L20.0615 52.1548L20.1522 52.312L21.1261 51.7504L21.0354 51.5932Z"/><path fill="#E0E0E0" d="M21.0375 50.54L20.0636 51.1016L20.1543 51.2588L21.1282 50.6972L21.0375 50.54Z"/><path fill="#E0E0E0" d="M15.6978 50.1739L21.8764 46.6069V49.4446L15.6978 53.0116V50.1739Z"/><path fill="#000" d="M15.6978 50.1739L21.8764 46.6069V49.4446L15.6978 53.0116V50.1739Z" opacity=".1"/><path fill="#F0F0F0" d="M21.3254 48.3425C21.3277 48.4823 21.2979 48.6207 21.2382 48.7471C21.1786 48.8736 21.0908 48.9847 20.9815 49.0718C20.7904 49.1833 20.6343 49.0336 20.6343 48.7534C20.6322 48.6133 20.6624 48.4746 20.7226 48.3481C20.7828 48.2216 20.8714 48.1107 20.9815 48.024C21.1694 47.903 21.3254 48.0495 21.3254 48.3425Z"/><path fill="#F0F0F0" d="M14.6723 59.0054V69.2669L21.3286 65.4228L14.6723 59.0054ZM15.8698 62.8017L18.4177 65.2317L15.8698 66.6904V62.8017Z"/><path fill="#E0E0E0" d="M14.6723 69.254L14.9813 68.6012L21.0197 65.1138L21.3286 65.41L14.6723 69.254Z"/><path fill="#FAFAFA" d="M14.9813 68.6013V59.3016L14.6723 59.0054V69.2541L14.9813 68.6013Z"/><path fill="#F0F0F0" d="M51.8743 32.4472V31.3452L46.3231 34.5523V35.6543L51.8743 32.4472Z"/><path fill="#E0E0E0" d="M46.3805 38.4759V37.9154C46.3958 37.6648 46.4484 37.418 46.5365 37.1829L46.8104 36.4599C46.8985 36.2249 46.9511 35.978 46.9665 35.7274V33.4981C46.9665 33.3197 46.8996 33.2051 46.82 33.2273C46.6716 33.2869 46.5073 33.2934 46.3547 33.2458C46.2021 33.1983 46.0706 33.0995 45.9824 32.9662C45.6352 32.3037 45.6352 30.6253 46.7435 29.5361C46.7435 29.5361 45.7339 29.8037 45.2721 31.5872C44.9799 32.7827 44.8598 34.0139 44.9154 35.2433C44.9154 35.4249 44.9154 35.7115 44.9154 35.8803V37.5078C44.9103 37.6647 44.9419 37.8207 45.0078 37.9632L45.1193 38.1288C45.1838 38.2717 45.2144 38.4276 45.2084 38.5842V39.5874C45.2084 39.7658 45.3518 39.9473 45.4473 39.8454L46.2117 38.9791C46.3186 38.8329 46.3776 38.6571 46.3805 38.4759Z"/><path fill="#E0E0E0" d="M46.7308 39.0908V38.6194C46.7308 38.457 46.6321 38.3837 46.511 38.4538L45.1352 39.2468C45.0673 39.2949 45.0118 39.3583 44.973 39.4319C44.9343 39.5055 44.9135 39.5872 44.9123 39.6704V40.1417C44.9123 40.3042 45.011 40.3806 45.1352 40.3105L46.511 39.5143C46.5783 39.4659 46.6333 39.4023 46.6714 39.3287C46.7096 39.2552 46.7299 39.1736 46.7308 39.0908Z"/><path fill="#000" d="M46.3805 38.1064V38.5268L45.2084 39.2052V38.7816L46.3805 38.1064Z" opacity=".1"/><path fill="#E0E0E0" d="M55.1547 29.6093V30.4119C55.1529 30.5529 55.118 30.6916 55.0527 30.8167C54.9874 30.9417 54.8936 31.0496 54.7788 31.1316L51.3838 33.0935V31.3004L54.7788 29.3386C54.989 29.2048 55.1547 29.3322 55.1547 29.6093Z"/><path fill="#C7C7C7" d="M25.968 83.0189L55.1489 65.9602L54.5087 57.6318L25.3258 74.6924L25.968 83.0189Z"/><path fill="#fff" d="M25.968 83.0189L55.1489 65.9602L54.5087 57.6318L25.3258 74.6924L25.968 83.0189Z" opacity=".4"/><path fill="#fff" d="M54.814 61.603C53.3958 62.4303 51.944 63.2616 51.294 63.5413C50.3327 63.955 49.3084 64.0594 47.4706 65.1349C47.4706 65.1349 49.3498 63.7895 50.4647 63.4665C51.1679 63.2695 53.1673 62.1408 54.7825 61.2012L54.814 61.603Z" opacity=".05"/><path fill="#fff" d="M25.4027 75.6833C27.0238 74.7359 33.8355 70.7017 34.6175 70.1994C36.8907 68.7358 38.8467 67.4298 41.9058 65.6313C41.9058 65.6313 40.4797 66.3503 37.4343 68.2414C36.0062 69.1297 34.6963 69.9689 34.0108 70.4082C33.3253 70.8474 25.3928 75.4864 25.3928 75.4864L25.4027 75.6833Z" opacity=".05"/><path fill="#000" d="M54.7786 61.1343L54.0832 61.5401C51.6998 62.9347 50.0983 63.831 49.0444 64.2368C47.9906 64.6425 45.9932 65.787 45.093 66.3307C46.0724 65.6611 47.0849 65.0412 48.1265 64.4731C50.0963 63.3661 50.4903 63.3937 53.2993 61.7548L54.7668 60.9019L54.7786 61.1343Z" opacity=".1"/><path fill="#000" d="M25.4401 76.1659L33.735 71.3142C34.6372 70.7883 36.7252 69.0844 37.8913 68.4048C37.1855 68.7759 36.5057 69.1945 35.8565 69.6576C34.6746 70.477 26.5314 75.2992 25.4164 75.9512L25.4401 76.1659Z" opacity=".1"/><path fill="#fff" d="M54.6269 59.1685C52.9309 60.1534 49.1764 62.3477 47.766 63.1731C45.9617 64.227 42.9577 65.7674 40.4422 67.294C38.0982 68.7103 36.349 69.8862 36.1086 70.0517C36.3785 69.8547 38.5886 68.1922 40.456 67.097C42.4495 65.9328 46.0838 63.9098 48.2723 62.6353C49.7339 61.7824 52.6354 60.0844 54.6092 58.938L54.6269 59.1685Z" opacity=".05"/><path fill="#fff" d="M25.5504 77.6179L34.0837 72.6323C35.4074 71.8581 37.4324 70.822 39.676 69.5121C41.9196 68.2021 43.7496 66.9749 45.1501 66.0038C46.5506 65.0327 48.1048 64.1128 48.1048 64.1128C48.1048 64.1128 46.6176 64.8751 44.4055 66.3288C42.0656 67.8928 39.6432 69.3295 37.1487 70.6329C34.7711 71.8384 25.5268 77.3579 25.5268 77.3579L25.5504 77.6179Z" opacity=".05"/><path fill="#fff" d="M54.82 61.6916C51.8652 63.4349 46.1331 66.823 44.2676 67.9143C41.766 69.3739 38.4783 71.2236 38.4783 71.2236C38.4783 71.2236 43.7634 67.9931 49.0543 64.8985L54.8062 61.5498L54.82 61.6916Z" opacity=".05"/><path fill="#000" d="M25.6134 78.3803C25.6134 78.3803 37.1822 71.6179 40.4422 69.7131C43.7023 67.8083 47.3209 65.4839 47.3209 65.4839C47.3209 65.4839 44.6025 66.9396 40.5959 69.2758L25.5839 78.0474L25.6095 78.3803H25.6134Z" opacity=".1"/><path fill="#000" d="M54.5816 58.5813C52.3557 59.8814 48.8573 61.93 47.5848 62.6647C45.745 63.7383 40.978 66.4389 39.8336 67.0712C39.8336 67.0712 44.5158 64.1874 50.7582 60.5432L54.5698 58.3252L54.5816 58.5813Z" opacity=".1"/><path fill="#000" d="M54.6525 59.5054L49.0641 62.7654C47.311 63.7897 43.1941 65.9644 41.3956 67.0163C39.5972 68.0682 27.7271 75.2324 25.4716 76.5522L25.4933 76.8398C26.8938 76.0203 38.3089 69.8312 41.0273 68.2415C43.7456 66.6519 46.4955 64.5678 48.1895 63.577L54.6742 59.7989L54.6525 59.5054ZM44.8803 65.4267C44.8921 65.5685 42.5854 67.0813 40.9899 68.013C39.5854 68.8344 36.7843 70.3138 36.7725 70.1798C36.7607 70.0459 39.4849 68.3893 40.9583 67.5284C42.4318 66.6676 44.8704 65.2848 44.8803 65.4267Z" opacity=".1"/><path fill="#fff" d="M54.7372 60.5986C53.317 61.4279 51.8632 62.2631 51.2171 62.5685C50.2578 63.0215 49.2473 63.254 47.4095 64.3295C47.4095 64.3295 49.2907 63.053 50.3997 62.6433C51.1009 62.3813 53.0983 61.2507 54.7136 60.3091L54.7372 60.5986Z" opacity=".05"/><path fill="#fff" d="M54.9027 62.7634C52.206 64.3294 48.9755 66.1771 48.4121 66.4745C46.0385 67.7254 43.9918 68.7576 40.8283 70.5954C40.8283 70.5954 42.2879 69.6282 45.4534 67.8849C46.9426 67.0655 48.3077 66.3485 49.0267 65.9565C49.466 65.7181 52.4325 63.9866 54.8889 62.5664L54.9027 62.7634Z" opacity=".05"/><path fill="#000" d="M25.9227 82.3397L28.6805 80.7303C31.1467 79.2884 32.7993 78.2819 33.8532 77.4565C34.9071 76.6312 36.9793 75.3961 37.913 74.8682C37.913 74.8682 36.8079 75.3803 34.7613 76.6233C32.7146 77.8662 32.362 78.3291 29.4428 80.033L25.8971 82.1053L25.9227 82.3397Z" opacity=".1"/><path fill="#000" d="M54.9421 63.2559C52.596 64.6348 50.0451 66.1161 49.4266 66.4825C48.4988 67.0261 46.2749 67.8436 45.0753 68.5508C45.7479 68.1131 46.4494 67.7215 47.1751 67.3787C48.03 66.971 51.9834 64.7175 54.9322 63.0195L54.9421 63.2559Z" opacity=".1"/><path fill="#fff" d="M26.6929 79.8341L34.9051 75.0297C36.7685 73.9384 39.8473 71.9252 42.4593 70.4498C45.0713 68.9744 47.0057 68.0151 47.0057 68.0151C45.4347 68.6855 43.9024 69.4431 42.416 70.2844C40.3536 71.4919 36.605 73.7847 34.3397 75.1104L25.7474 80.1394V80.23L26.6929 79.8341Z" opacity=".05"/><path fill="#fff" d="M55.0524 64.7095L49.2887 68.072C47.9098 68.8796 45.8435 70.2388 43.5191 71.5979C41.1947 72.9571 39.282 73.9223 37.8066 74.6256C36.3312 75.3288 34.7278 76.2664 34.7278 76.2664C34.7278 76.2664 36.2505 75.2618 38.5689 74.072C41.1447 72.7563 43.6516 71.3099 46.0799 69.7384C47.6715 68.6866 52.0051 66.1593 55.0307 64.4199L55.0524 64.7095Z" opacity=".05"/><path fill="#fff" d="M25.968 82.885C25.968 82.885 36.3371 76.8869 38.9274 75.3701C41.5177 73.8533 44.9177 71.8008 44.9177 71.8008C44.9177 71.8008 39.4278 74.8698 33.9477 78.0766L25.9562 82.7471L25.968 82.885Z" opacity=".05"/><path fill="#000" d="M55.1115 65.472L42.8237 72.654C39.4494 74.6238 35.6753 76.6291 35.6753 76.6291C35.6753 76.6291 38.4685 74.8562 42.613 72.4314L55.0859 65.1431L55.1115 65.472Z" opacity=".1"/><path fill="#000" d="M25.7198 79.7904L34.9977 74.3616C36.9005 73.2486 41.827 70.2781 43.001 69.5532C43.001 69.5532 38.1316 72.2558 31.6726 76.0379L25.7001 79.5323L25.7198 79.7904Z" opacity=".1"/><path fill="#000" d="M54.9637 63.6182C50.4923 66.1691 42.9636 70.4278 41.5099 71.2788C39.6484 72.372 35.4212 75.0766 33.605 76.1383C31.7888 77.2001 25.7868 80.7142 25.7868 80.7142L25.8104 80.9939C25.8104 80.9939 32.7993 76.9085 34.5525 75.8724C36.3056 74.8363 39.2229 73.6248 42.0378 71.9781C44.1435 70.741 50.9414 66.498 54.9893 63.9964L54.9637 63.6182ZM46.3596 68.9091C46.3694 69.045 43.4915 70.8789 42.0378 71.7358C40.389 72.701 37.976 73.9459 37.9642 73.8041C37.9524 73.6623 40.4777 72.1475 42.0004 71.2571C43.523 70.3668 46.3556 68.7771 46.3655 68.9091H46.3596Z" opacity=".1"/><path fill="#fff" d="M25.8833 81.8019C27.0199 81.1361 30.5616 79.0894 31.5386 78.4118C32.5157 77.7342 33.5085 76.7926 35.4153 75.6797C35.4153 75.6797 33.4454 76.6646 32.3266 77.5451C31.2077 78.4256 25.8518 81.5143 25.8518 81.5143L25.8833 81.8019Z" opacity=".05"/><path fill="#C7C7C7" d="M24.2897 82.0755L25.968 83.019L25.3258 74.6926L23.6476 73.7471L24.2897 82.0755Z"/><path fill="#fff" d="M24.2897 82.0755L25.968 83.019L25.3258 74.6926L23.6476 73.7471L24.2897 82.0755Z" opacity=".6"/><path fill="#000" d="M25.4933 76.8396L24.0711 75.9453L25.4716 76.552L25.4933 76.8396Z" opacity=".1"/><path fill="#000" d="M25.4401 76.1659L24.731 75.6616L25.4224 75.9472L25.4401 76.1659Z" opacity=".1"/><path fill="#000" d="M25.6095 78.3801L24.2227 77.4937L25.5839 78.0472L25.6095 78.3801Z" opacity=".1"/><path fill="#000" d="M25.8183 80.9941L24.404 80.0801L25.7927 80.7144L25.8183 80.9941Z" opacity=".1"/><path fill="#fff" d="M25.968 82.8852L24.9279 82.2607L25.9562 82.7473" opacity=".05"/><path fill="#fff" d="M25.8833 81.7996L24.3173 80.8403L25.8518 81.514L25.8833 81.7996Z" opacity=".05"/><path fill="#fff" d="M25.4027 75.6834L23.8307 74.7319L25.3869 75.4805L25.4027 75.6834Z" opacity=".05"/><path fill="#C7C7C7" d="M54.5087 57.632L52.8304 56.6885L23.6476 73.7471L25.3258 74.6926L54.5087 57.632Z"/><path fill="#fff" d="M54.5087 57.632L52.8304 56.6885L23.6476 73.7471L25.3258 74.6926L54.5087 57.632Z" opacity=".3"/><path fill="#000" d="M54.5087 57.632L52.8304 56.6885L23.6476 73.7471L25.3258 74.6926L54.5087 57.632Z" opacity=".1"/><path fill="#000" d="M54.0773 57.3896L53.7917 57.228C52.7891 57.7244 52.1134 58.016 50.7149 58.7901C48.4752 60.0508 47.3504 60.8367 47.2204 60.9293C48.2723 60.297 50.6538 58.9359 52.0799 58.339C52.7044 58.079 53.3229 57.7875 54.0773 57.3896Z" opacity=".1"/><path fill="#fff" d="M50.3307 58.5835C50.2204 58.6406 48.4003 59.592 46.009 61.1699C43.261 63.0021 40.4178 64.6873 37.4915 66.2185C34.8421 67.5797 26.0074 72.8292 24.0671 73.9816L24.3528 74.1431C26.6811 72.78 32.5768 69.3289 34.0541 68.4681C35.63 67.5541 38.1494 66.2441 40.8067 64.6939C43.464 63.1436 45.483 61.7805 46.9958 60.7188C48.4634 59.6925 50.2224 58.6465 50.3307 58.5835Z" opacity=".05"/><path fill="#000" d="M50.2519 59.6865C50.1239 59.7555 46.8245 61.5362 42.1757 64.2467L24.8058 74.3991L25.1525 74.5961C27.3942 73.2881 38.8349 66.5986 42.3096 64.5697C46.0996 62.3596 50.1278 59.7673 50.2519 59.6865Z" opacity=".1"/><path fill="#000" d="M47.9295 59.5547L44.8507 61.3531C43.9643 61.9441 42.7272 62.732 41.699 63.3348C40.7653 63.8804 39.2643 64.6999 38.1001 65.3046L27.6818 71.3894C32.5551 68.7065 39.7686 64.7491 41.9649 63.4648C44.1987 62.1627 46.2276 60.7149 47.9295 59.5547Z" opacity=".1"/><path fill="#fff" d="M53.3879 56.9999L53.1062 56.8423C53.0511 56.8679 52.9979 56.8896 52.9447 56.9112C51.5126 57.4904 49.6137 58.7688 49.3813 58.9264C50.6709 58.1928 52.0096 57.5491 53.3879 56.9999Z" opacity=".05"/><mask id="path-256-outside-1_307_86" width="53" height="40" x="-1" y="45" fill="#000" maskUnits="userSpaceOnUse"><rect width="53" height="40" x="-1" y="45" fill="#fff"/><path d="M33.176 81.669V84H0V81.669H4.66199V46.1078H30.6824V53.5345H13.1186V61.72H29.815V69.1467H13.1186V81.669H33.176ZM50.9731 81.669V84H33.1925V81.669H37.8545V46.1078H46.3111V81.669H50.9731Z"/></mask><path fill="#303564" d="M33.176 81.669V84H0V81.669H4.66199V46.1078H30.6824V53.5345H13.1186V61.72H29.815V69.1467H13.1186V81.669H33.176ZM50.9731 81.669V84H33.1925V81.669H37.8545V46.1078H46.3111V81.669H50.9731Z"/><path fill="#263238" d="M33.176 81.669H33.8536V80.9914H33.176V81.669ZM33.176 84V84.6776H33.8536V84H33.176ZM0 84H-0.677614V84.6776H0V84ZM0 81.669V80.9914H-0.677614V81.669H0ZM4.66199 81.669V82.3466H5.3396V81.669H4.66199ZM4.66199 46.1078V45.4302H3.98437V46.1078H4.66199ZM30.6824 46.1078H31.36V45.4302H30.6824V46.1078ZM30.6824 53.5345V54.2121H31.36V53.5345H30.6824ZM13.1186 53.5345V52.8568H12.441V53.5345H13.1186ZM13.1186 61.72H12.441V62.3977H13.1186V61.72ZM29.815 61.72H30.4926V61.0424H29.815V61.72ZM29.815 69.1467V69.8243H30.4926V69.1467H29.815ZM13.1186 69.1467V68.4691H12.441V69.1467H13.1186ZM13.1186 81.669H12.441V82.3466H13.1186V81.669ZM32.4984 81.669V84H33.8536V81.669H32.4984ZM33.176 83.3224H0V84.6776H33.176V83.3224ZM0.677614 84V81.669H-0.677614V84H0.677614ZM0 82.3466H4.66199V80.9914H0V82.3466ZM5.3396 81.669V46.1078H3.98437V81.669H5.3396ZM4.66199 46.7854H30.6824V45.4302H4.66199V46.7854ZM30.0048 46.1078V53.5345H31.36V46.1078H30.0048ZM30.6824 52.8568H13.1186V54.2121H30.6824V52.8568ZM12.441 53.5345V61.72H13.7962V53.5345H12.441ZM13.1186 62.3977H29.815V61.0424H13.1186V62.3977ZM29.1374 61.72V69.1467H30.4926V61.72H29.1374ZM29.815 68.4691H13.1186V69.8243H29.815V68.4691ZM12.441 69.1467V81.669H13.7962V69.1467H12.441ZM13.1186 82.3466H33.176V80.9914H13.1186V82.3466ZM50.9731 81.669H51.6507V80.9914H50.9731V81.669ZM50.9731 84V84.6776H51.6507V84H50.9731ZM33.1925 84H32.5149V84.6776H33.1925V84ZM33.1925 81.669V80.9914H32.5149V81.669H33.1925ZM37.8545 81.669V82.3466H38.5321V81.669H37.8545ZM37.8545 46.1078V45.4302H37.1769V46.1078H37.8545ZM46.3111 46.1078H46.9887V45.4302H46.3111V46.1078ZM46.3111 81.669H45.6335V82.3466H46.3111V81.669ZM50.2955 81.669V84H51.6507V81.669H50.2955ZM50.9731 83.3224H33.1925V84.6776H50.9731V83.3224ZM33.8701 84V81.669H32.5149V84H33.8701ZM33.1925 82.3466H37.8545V80.9914H33.1925V82.3466ZM38.5321 81.669V46.1078H37.1769V81.669H38.5321ZM37.8545 46.7854H46.3111V45.4302H37.8545V46.7854ZM45.6335 46.1078V81.669H46.9887V46.1078H45.6335ZM46.3111 82.3466H50.9731V80.9914H46.3111V82.3466Z" mask="url(#path-256-outside-1_307_86)"/><mask id="path-258-outside-2_307_86" width="44" height="40" x="83.379" y="45" fill="#000" maskUnits="userSpaceOnUse"><rect width="44" height="40" x="83.379" y="45" fill="#fff"/><path d="M90.0414 81.669V46.1078H104.407C110.298 46.1078 114.49 47.1016 116.983 49.0893C119.513 51.077 120.778 54.2753 120.778 58.6843C120.778 64.7558 118.375 68.6769 113.568 70.4477L121.483 81.669H126.578V84H112.755L104.353 71.9114H98.498V84H84.7831V81.669H90.0414ZM104.678 64.5931C107.569 64.5931 109.539 64.1233 110.587 63.1837C111.635 62.2441 112.159 60.7623 112.159 58.7385C112.159 56.6786 111.617 55.2692 110.532 54.5102C109.448 53.7513 107.551 53.3718 104.84 53.3718H98.498V64.5931H104.678Z"/></mask><path fill="#303564" d="M90.0414 81.669V46.1078H104.407C110.298 46.1078 114.49 47.1016 116.983 49.0893C119.513 51.077 120.778 54.2753 120.778 58.6843C120.778 64.7558 118.375 68.6769 113.568 70.4477L121.483 81.669H126.578V84H112.755L104.353 71.9114H98.498V84H84.7831V81.669H90.0414ZM104.678 64.5931C107.569 64.5931 109.539 64.1233 110.587 63.1837C111.635 62.2441 112.159 60.7623 112.159 58.7385C112.159 56.6786 111.617 55.2692 110.532 54.5102C109.448 53.7513 107.551 53.3718 104.84 53.3718H98.498V64.5931H104.678Z"/><path fill="#2E353A" d="M90.0414 81.669V82.3466H90.719V81.669H90.0414ZM90.0414 46.1078V45.4302H89.3638V46.1078H90.0414ZM116.983 49.0893L116.561 49.6192L116.565 49.6221L116.983 49.0893ZM113.568 70.4477L113.334 69.8119L112.506 70.117L113.014 70.8383L113.568 70.4477ZM121.483 81.669L120.929 82.0596L121.131 82.3466H121.483V81.669ZM126.578 81.669H127.256V80.9914H126.578V81.669ZM126.578 84V84.6776H127.256V84H126.578ZM112.755 84L112.199 84.3867L112.401 84.6776H112.755V84ZM104.353 71.9114L104.909 71.5246L104.707 71.2337H104.353V71.9114ZM98.498 71.9114V71.2337H97.8204V71.9114H98.498ZM98.498 84V84.6776H99.1756V84H98.498ZM84.7831 84H84.1055V84.6776H84.7831V84ZM84.7831 81.669V80.9914H84.1055V81.669H84.7831ZM110.587 63.1837L111.039 63.6882L110.587 63.1837ZM110.532 54.5102L110.921 53.9551L110.532 54.5102ZM98.498 53.3718V52.6942H97.8204V53.3718H98.498ZM98.498 64.5931H97.8204V65.2707H98.498V64.5931ZM90.719 81.669V46.1078H89.3638V81.669H90.719ZM90.0414 46.7854H104.407V45.4302H90.0414V46.7854ZM104.407 46.7854C110.258 46.7854 114.253 47.7798 116.561 49.6192L117.406 48.5594C114.726 46.4235 110.337 45.4302 104.407 45.4302V46.7854ZM116.565 49.6221C118.876 51.438 120.1 54.4012 120.1 58.6843H121.456C121.456 54.1494 120.15 50.716 117.402 48.5565L116.565 49.6221ZM120.1 58.6843C120.1 61.6341 119.516 63.9996 118.398 65.8246C117.285 67.6406 115.611 68.9728 113.334 69.8119L113.802 71.0835C116.331 70.1518 118.263 68.6381 119.553 66.5328C120.838 64.4367 121.456 61.806 121.456 58.6843H120.1ZM113.014 70.8383L120.929 82.0596L122.036 81.2785L114.122 70.0572L113.014 70.8383ZM121.483 82.3466H126.578V80.9914H121.483V82.3466ZM125.901 81.669V84H127.256V81.669H125.901ZM126.578 83.3224H112.755V84.6776H126.578V83.3224ZM113.311 83.6133L104.909 71.5246L103.796 72.2981L112.199 84.3867L113.311 83.6133ZM104.353 71.2337H98.498V72.589H104.353V71.2337ZM97.8204 71.9114V84H99.1756V71.9114H97.8204ZM98.498 83.3224H84.7831V84.6776H98.498V83.3224ZM85.4607 84V81.669H84.1055V84H85.4607ZM84.7831 82.3466H90.0414V80.9914H84.7831V82.3466ZM104.678 65.2707C107.588 65.2707 109.789 64.8093 111.039 63.6882L110.134 62.6792C109.289 63.4373 107.55 63.9155 104.678 63.9155V65.2707ZM111.039 63.6882C112.284 62.572 112.836 60.8687 112.836 58.7385H111.481C111.481 60.656 110.985 61.9161 110.134 62.6792L111.039 63.6882ZM112.836 58.7385C112.836 56.5846 112.27 54.8995 110.921 53.9551L110.144 55.0653C110.963 55.6388 111.481 56.7725 111.481 58.7385H112.836ZM110.921 53.9551C109.654 53.0679 107.57 52.6942 104.84 52.6942V54.0494C107.531 54.0494 109.243 54.4347 110.144 55.0653L110.921 53.9551ZM104.84 52.6942H98.498V54.0494H104.84V52.6942ZM97.8204 53.3718V64.5931H99.1756V53.3718H97.8204ZM98.498 65.2707H104.678V63.9155H98.498V65.2707Z" mask="url(#path-258-outside-2_307_86)"/><path fill="#2E353A" stroke="#303564" stroke-linecap="round" stroke-linejoin="round" stroke-width=".339" d="M86.4477 58.8475C87.098 58.1961 87.5783 57.3948 87.8463 56.5143C88.1144 55.6337 88.162 54.7008 87.985 53.7975L84.4628 57.3197C84.2626 57.5187 83.9918 57.6304 83.7095 57.6304C83.4273 57.6304 83.1565 57.5187 82.9563 57.3197L80.0287 54.392C79.9295 54.293 79.8508 54.1754 79.7971 54.046C79.7434 53.9165 79.7157 53.7778 79.7157 53.6376C79.7157 53.4975 79.7434 53.3587 79.7971 53.2293C79.8508 53.0998 79.9295 52.9822 80.0287 52.8832L83.5485 49.3634C82.562 49.1708 81.542 49.2464 80.5947 49.5824C79.6474 49.9183 78.8077 50.5024 78.1631 51.2735C77.5185 52.0447 77.0926 52.9747 76.93 53.9665C76.7673 54.9583 76.8738 55.9756 77.2384 56.9123L68.1499 65.7924L67.2735 64.9136L68.6947 63.4924C68.7673 63.4184 68.808 63.3189 68.808 63.2153C68.808 63.1116 68.7673 63.0121 68.6947 62.9381L67.5861 61.8296C67.5129 61.7566 67.4136 61.7155 67.3102 61.7155C67.2067 61.7155 67.1075 61.7566 67.0342 61.8296L66.48 62.3839L65.2791 61.1853L65.741 60.7235C65.8387 60.6253 65.8936 60.4925 65.8936 60.3539C65.8936 60.2154 65.8387 60.0825 65.741 59.9844L55.8234 50.0669C55.5871 49.8303 55.3065 49.6425 54.9976 49.5145C54.6887 49.3864 54.3576 49.3204 54.0232 49.3204C53.6888 49.3204 53.3577 49.3864 53.0488 49.5145C52.74 49.6425 52.4593 49.8303 52.2231 50.0669L51.2093 51.0807C50.9727 51.3167 50.7851 51.5972 50.657 51.9059C50.529 52.2145 50.463 52.5455 50.463 52.8797C50.463 53.2139 50.529 53.5448 50.657 53.8535C50.7851 54.1622 50.9727 54.4426 51.2093 54.6787L61.1268 64.5986C61.2249 64.6963 61.3578 64.7512 61.4963 64.7512C61.6349 64.7512 61.7677 64.6963 61.8658 64.5986L62.3277 64.1367L63.5263 65.3376L62.9744 65.8895C62.9378 65.9258 62.9089 65.969 62.8891 66.0165C62.8693 66.0641 62.8591 66.1151 62.8591 66.1666C62.8591 66.2181 62.8693 66.2691 62.8891 66.3167C62.9089 66.3642 62.9378 66.4074 62.9744 66.4437L64.0805 67.5523C64.1545 67.6249 64.254 67.6656 64.3577 67.6656C64.4613 67.6656 64.5608 67.6249 64.6348 67.5523L66.056 66.1311L66.9182 66.9933L59.3811 74.3361C58.4444 73.9718 57.427 73.8655 56.4352 74.0282C55.4434 74.1909 54.5133 74.6167 53.7421 75.2612C52.9708 75.9057 52.3866 76.7453 52.0502 77.6924C51.7139 78.6396 51.6378 79.6596 51.8299 80.6462L55.3521 77.1264C55.4511 77.0272 55.5686 76.9485 55.6981 76.8948C55.8276 76.8411 55.9663 76.8134 56.1065 76.8134C56.2466 76.8134 56.3854 76.8411 56.5148 76.8948C56.6443 76.9485 56.7619 77.0272 56.8609 77.1264L59.798 80.0351C59.8972 80.1341 59.9759 80.2517 60.0296 80.3811C60.0833 80.5106 60.1109 80.6493 60.1109 80.7895C60.1109 80.9296 60.0833 81.0684 60.0296 81.1978C59.9759 81.3273 59.8972 81.4449 59.798 81.5439L56.2782 85.0637C57.2647 85.256 58.2847 85.1803 59.2319 84.8442C60.1791 84.5082 61.0188 83.9243 61.6635 83.1533C62.3082 82.3823 62.7344 81.4524 62.8974 80.4607C63.0605 79.469 62.9545 78.4517 62.5906 77.5148L70.1277 70.172L80.4053 80.4377C80.2576 80.8183 80.2237 81.2337 80.3078 81.6332C80.392 82.0327 80.5904 82.3992 80.879 82.6879L83.359 85.1679L86.334 82.1905L83.854 79.7129C83.5653 79.4243 83.1988 79.2259 82.7993 79.1418C82.3998 79.0577 81.9844 79.0915 81.6038 79.2392L71.3428 68.9782L80.4408 60.1076C81.4564 60.5027 82.565 60.594 83.6315 60.3703C84.6981 60.1465 85.6765 59.6174 86.4477 58.8475Z"/><path fill="#fff" stroke="#303564" stroke-miterlimit="10" stroke-width=".339" d="M61.9653 76.2524L79.8084 58.8452C80.7456 59.2103 81.7638 59.3169 82.7564 59.154C83.749 58.9911 84.6796 58.5646 85.451 57.9191C86.2224 57.2735 86.8063 56.4326 87.1416 55.4843C87.477 54.5359 87.5514 53.5149 87.3572 52.528L83.8374 56.0478C83.7384 56.147 83.6208 56.2257 83.4914 56.2794C83.3619 56.3331 83.2232 56.3607 83.083 56.3607C82.9429 56.3607 82.8041 56.3331 82.6747 56.2794C82.5452 56.2257 82.4276 56.147 82.3286 56.0478L79.4009 53.1201C79.3018 53.0213 79.2232 52.904 79.1695 52.7747C79.1159 52.6454 79.0882 52.5069 79.0882 52.3669C79.0882 52.227 79.1159 52.0884 79.1695 51.9591C79.2232 51.8299 79.3018 51.7125 79.4009 51.6137L82.9208 48.0915C81.9338 47.8992 80.9133 47.9753 79.9659 48.312C79.0184 48.6487 78.1787 49.2336 77.5345 50.0056C76.8903 50.7776 76.4651 51.7085 76.3035 52.7009C76.1418 53.6933 76.2495 54.7109 76.6154 55.6475L58.7724 73.0547C57.8357 72.6902 56.8184 72.5837 55.8266 72.7463C54.8348 72.909 53.9047 73.3348 53.1336 73.9794C52.3624 74.624 51.7784 75.4638 51.4424 76.411C51.1064 77.3583 51.0308 78.3783 51.2235 79.3648L54.7433 75.845C54.8423 75.7458 54.9599 75.6671 55.0893 75.6134C55.2188 75.5597 55.3576 75.5321 55.4977 75.5321C55.6379 75.5321 55.7766 75.5597 55.9061 75.6134C56.0355 75.6671 56.1531 75.7458 56.2521 75.845L59.1798 78.7726C59.2789 78.8714 59.3575 78.9888 59.4112 79.1181C59.4649 79.2473 59.4925 79.3859 59.4925 79.5259C59.4925 79.6658 59.4649 79.8044 59.4112 79.9336C59.3575 80.0629 59.2789 80.1803 59.1798 80.2791L55.6529 83.7942C56.6393 83.9865 57.6593 83.9107 58.6065 83.5747C59.5537 83.2387 60.3935 82.6547 61.0382 81.8837C61.6829 81.1127 62.109 80.1829 62.2721 79.1912C62.4351 78.1994 62.3292 77.1821 61.9653 76.2453V76.2524Z"/><path fill="#fff" stroke="#303564" stroke-miterlimit="10" stroke-width=".339" d="M60.5915 74.4263C60.4551 74.2895 60.3785 74.1043 60.3785 73.9111C60.3785 73.7179 60.4551 73.5327 60.5915 73.3959L76.6344 57.7889C76.7715 57.6523 76.9572 57.5757 77.1507 57.5757C77.3443 57.5757 77.5299 57.6523 77.6671 57.7889C77.8036 57.926 77.8803 58.1117 77.8803 58.3052C77.8803 58.4988 77.8036 58.6845 77.6671 58.8216L61.6242 74.4263C61.4871 74.5628 61.3014 74.6395 61.1079 74.6395C60.9143 74.6395 60.7287 74.5628 60.5915 74.4263Z"/><path fill="#fff" stroke="#303564" stroke-miterlimit="10" stroke-width=".339" d="M65.3495 62.3467L64.1503 63.5459L81.4535 80.8492L82.6528 79.65L65.3495 62.3467Z"/><path fill="#fff" stroke="#303564" stroke-miterlimit="10" stroke-width=".339" d="M85.7063 80.9278L82.7313 83.9028L80.2513 81.4252C79.8566 81.0303 79.6348 80.4948 79.6348 79.9365C79.6348 79.3782 79.8566 78.8427 80.2513 78.4478C80.4466 78.2524 80.6785 78.0974 80.9338 77.9917C81.189 77.886 81.4626 77.8315 81.7388 77.8315C82.0151 77.8315 82.2886 77.886 82.5439 77.9917C82.7991 78.0974 83.031 78.2524 83.2263 78.4478L85.7063 80.9278Z"/><path fill="#fff" stroke="#303564" stroke-miterlimit="10" stroke-width=".339" d="M63.7354 58.9798L60.7826 61.9326L63.181 64.3311L66.1338 61.3782L63.7354 58.9798Z"/><path fill="#fff" stroke="#303564" stroke-miterlimit="10" stroke-width=".339" d="M50.587 49.7988L51.602 48.7838C51.8382 48.5476 52.1187 48.3602 52.4273 48.2324C52.736 48.1045 53.0668 48.0387 53.4009 48.0387C53.7349 48.0387 54.0657 48.1045 54.3744 48.2324C54.683 48.3602 54.9635 48.5476 55.1997 48.7838L65.1184 58.7025C65.2161 58.8003 65.271 58.9328 65.271 59.071C65.271 59.2092 65.2161 59.3418 65.1184 59.4395L61.2427 63.3152C61.145 63.4129 61.0124 63.4678 60.8742 63.4678C60.736 63.4678 60.6035 63.4129 60.5057 63.3152L50.587 53.3965C50.11 52.9194 49.8419 52.2723 49.8419 51.5977C49.8419 50.923 50.11 50.2759 50.587 49.7988Z"/><path fill="#fff" stroke="#303564" stroke-miterlimit="10" stroke-width=".339" d="M66.41 60.5499L62.35 64.6099C62.1974 64.7625 62.1974 65.01 62.35 65.1626L63.4588 66.2714C63.6114 66.424 63.8589 66.424 64.0115 66.2714L68.0714 62.2114C68.2241 62.0588 68.2241 61.8113 68.0714 61.6587L66.9627 60.5499C66.81 60.3973 66.5626 60.3973 66.41 60.5499Z"/><path fill="#fff" stroke="#303564" stroke-miterlimit="10" stroke-width=".339" d="M61.7972 61.8412L60.9824 62.6584L51.2425 52.9185C51.1341 52.8101 51.0733 52.6632 51.0733 52.5099C51.0733 52.3567 51.1341 52.2097 51.2425 52.1013C51.296 52.0474 51.3596 52.0046 51.4298 51.9754C51.4999 51.9462 51.5751 51.9312 51.6511 51.9312C51.727 51.9312 51.8022 51.9462 51.8724 51.9754C51.9425 52.0046 52.0061 52.0474 52.0597 52.1013L61.7972 61.8412Z"/><path fill="#fff" stroke="#303564" stroke-miterlimit="10" stroke-width=".339" d="M63.1875 60.4511L62.368 61.2683L52.6281 51.5284C52.5198 51.42 52.4589 51.273 52.4589 51.1198C52.4589 50.9665 52.5198 50.8196 52.6281 50.7112C52.6816 50.6573 52.7452 50.6145 52.8154 50.5853C52.8855 50.5561 52.9607 50.541 53.0367 50.541C53.1126 50.541 53.1879 50.5561 53.258 50.5853C53.3281 50.6145 53.3918 50.6573 53.4453 50.7112L63.1875 60.4511Z"/><path fill="#fff" stroke="#303564" stroke-miterlimit="10" stroke-width=".339" d="M64.5779 59.0605L63.7584 59.8705L54.0185 50.1378C53.9101 50.0294 53.8493 49.8824 53.8493 49.7292C53.8493 49.5759 53.9101 49.429 54.0185 49.3206C54.072 49.2666 54.1356 49.2238 54.2058 49.1946C54.2759 49.1654 54.3511 49.1504 54.4271 49.1504C54.503 49.1504 54.5782 49.1654 54.6484 49.1946C54.7185 49.2238 54.7822 49.2666 54.8357 49.3206L64.5779 59.0605Z"/></svg>