<svg xmlns="http://www.w3.org/2000/svg" width="135" height="57" fill="none" viewBox="0 0 135 57"><mask id="path-1-outside-1_95_1550" width="53" height="40" x="-1" y="13" fill="#000" maskUnits="userSpaceOnUse"><rect width="53" height="40" x="-1" y="13" fill="#fff"/><path d="M33.176 49.669V52H0V49.669H4.66199V14.1078H30.6824V21.5345H13.1186V29.72H29.815V37.1467H13.1186V49.669H33.176ZM50.9731 49.669V52H33.1925V49.669H37.8545V14.1078H46.3111V49.669H50.9731Z"/></mask><path fill="#303564" d="M33.176 49.669V52H0V49.669H4.66199V14.1078H30.6824V21.5345H13.1186V29.72H29.815V37.1467H13.1186V49.669H33.176ZM50.9731 49.669V52H33.1925V49.669H37.8545V14.1078H46.3111V49.669H50.9731Z"/><path fill="#263238" d="M33.176 49.669H33.8536V48.9914H33.176V49.669ZM33.176 52V52.6776H33.8536V52H33.176ZM0 52H-0.677614V52.6776H0V52ZM0 49.669V48.9914H-0.677614V49.669H0ZM4.66199 49.669V50.3466H5.3396V49.669H4.66199ZM4.66199 14.1078V13.4302H3.98437V14.1078H4.66199ZM30.6824 14.1078H31.36V13.4302H30.6824V14.1078ZM30.6824 21.5345V22.2121H31.36V21.5345H30.6824ZM13.1186 21.5345V20.8568H12.441V21.5345H13.1186ZM13.1186 29.72H12.441V30.3977H13.1186V29.72ZM29.815 29.72H30.4926V29.0424H29.815V29.72ZM29.815 37.1467V37.8243H30.4926V37.1467H29.815ZM13.1186 37.1467V36.4691H12.441V37.1467H13.1186ZM13.1186 49.669H12.441V50.3466H13.1186V49.669ZM32.4984 49.669V52H33.8536V49.669H32.4984ZM33.176 51.3224H0V52.6776H33.176V51.3224ZM0.677614 52V49.669H-0.677614V52H0.677614ZM0 50.3466H4.66199V48.9914H0V50.3466ZM5.3396 49.669V14.1078H3.98437V49.669H5.3396ZM4.66199 14.7854H30.6824V13.4302H4.66199V14.7854ZM30.0048 14.1078V21.5345H31.36V14.1078H30.0048ZM30.6824 20.8568H13.1186V22.2121H30.6824V20.8568ZM12.441 21.5345V29.72H13.7962V21.5345H12.441ZM13.1186 30.3977H29.815V29.0424H13.1186V30.3977ZM29.1374 29.72V37.1467H30.4926V29.72H29.1374ZM29.815 36.4691H13.1186V37.8243H29.815V36.4691ZM12.441 37.1467V49.669H13.7962V37.1467H12.441ZM13.1186 50.3466H33.176V48.9914H13.1186V50.3466ZM50.9731 49.669H51.6507V48.9914H50.9731V49.669ZM50.9731 52V52.6776H51.6507V52H50.9731ZM33.1925 52H32.5149V52.6776H33.1925V52ZM33.1925 49.669V48.9914H32.5149V49.669H33.1925ZM37.8545 49.669V50.3466H38.5321V49.669H37.8545ZM37.8545 14.1078V13.4302H37.1769V14.1078H37.8545ZM46.3111 14.1078H46.9887V13.4302H46.3111V14.1078ZM46.3111 49.669H45.6335V50.3466H46.3111V49.669ZM50.2955 49.669V52H51.6507V49.669H50.2955ZM50.9731 51.3224H33.1925V52.6776H50.9731V51.3224ZM33.8701 52V49.669H32.5149V52H33.8701ZM33.1925 50.3466H37.8545V48.9914H33.1925V50.3466ZM38.5321 49.669V14.1078H37.1769V49.669H38.5321ZM37.8545 14.7854H46.3111V13.4302H37.8545V14.7854ZM45.6335 14.1078V49.669H46.9887V14.1078H45.6335ZM46.3111 50.3466H50.9731V48.9914H46.3111V50.3466Z" mask="url(#path-1-outside-1_95_1550)"/><mask id="path-3-outside-2_95_1550" width="44" height="40" x="83.379" y="13" fill="#000" maskUnits="userSpaceOnUse"><rect width="44" height="40" x="83.379" y="13" fill="#fff"/><path d="M90.0414 49.669V14.1078H104.407C110.298 14.1078 114.49 15.1016 116.983 17.0893C119.513 19.077 120.778 22.2753 120.778 26.6843C120.778 32.7558 118.375 36.6769 113.568 38.4477L121.483 49.669H126.578V52H112.755L104.353 39.9114H98.498V52H84.7831V49.669H90.0414ZM104.678 32.5931C107.569 32.5931 109.539 32.1233 110.587 31.1837C111.635 30.2441 112.159 28.7623 112.159 26.7385C112.159 24.6786 111.617 23.2692 110.532 22.5102C109.448 21.7513 107.551 21.3718 104.84 21.3718H98.498V32.5931H104.678Z"/></mask><path fill="#303564" d="M90.0414 49.669V14.1078H104.407C110.298 14.1078 114.49 15.1016 116.983 17.0893C119.513 19.077 120.778 22.2753 120.778 26.6843C120.778 32.7558 118.375 36.6769 113.568 38.4477L121.483 49.669H126.578V52H112.755L104.353 39.9114H98.498V52H84.7831V49.669H90.0414ZM104.678 32.5931C107.569 32.5931 109.539 32.1233 110.587 31.1837C111.635 30.2441 112.159 28.7623 112.159 26.7385C112.159 24.6786 111.617 23.2692 110.532 22.5102C109.448 21.7513 107.551 21.3718 104.84 21.3718H98.498V32.5931H104.678Z"/><path fill="#2E353A" d="M90.0414 49.669V50.3466H90.719V49.669H90.0414ZM90.0414 14.1078V13.4302H89.3638V14.1078H90.0414ZM116.983 17.0893L116.561 17.6192L116.565 17.6221L116.983 17.0893ZM113.568 38.4477L113.334 37.8119L112.506 38.117L113.014 38.8383L113.568 38.4477ZM121.483 49.669L120.929 50.0596L121.131 50.3466H121.483V49.669ZM126.578 49.669H127.256V48.9914H126.578V49.669ZM126.578 52V52.6776H127.256V52H126.578ZM112.755 52L112.199 52.3867L112.401 52.6776H112.755V52ZM104.353 39.9114L104.909 39.5246L104.707 39.2337H104.353V39.9114ZM98.498 39.9114V39.2337H97.8204V39.9114H98.498ZM98.498 52V52.6776H99.1756V52H98.498ZM84.7831 52H84.1055V52.6776H84.7831V52ZM84.7831 49.669V48.9914H84.1055V49.669H84.7831ZM110.587 31.1837L111.039 31.6882L110.587 31.1837ZM110.532 22.5102L110.921 21.9551L110.532 22.5102ZM98.498 21.3718V20.6942H97.8204V21.3718H98.498ZM98.498 32.5931H97.8204V33.2707H98.498V32.5931ZM90.719 49.669V14.1078H89.3638V49.669H90.719ZM90.0414 14.7854H104.407V13.4302H90.0414V14.7854ZM104.407 14.7854C110.258 14.7854 114.253 15.7798 116.561 17.6192L117.406 16.5594C114.726 14.4235 110.337 13.4302 104.407 13.4302V14.7854ZM116.565 17.6221C118.876 19.438 120.1 22.4012 120.1 26.6843H121.456C121.456 22.1494 120.15 18.716 117.402 16.5565L116.565 17.6221ZM120.1 26.6843C120.1 29.6341 119.516 31.9996 118.398 33.8246C117.285 35.6406 115.611 36.9728 113.334 37.8119L113.802 39.0835C116.331 38.1518 118.263 36.6381 119.553 34.5328C120.838 32.4367 121.456 29.806 121.456 26.6843H120.1ZM113.014 38.8383L120.929 50.0596L122.036 49.2785L114.122 38.0572L113.014 38.8383ZM121.483 50.3466H126.578V48.9914H121.483V50.3466ZM125.901 49.669V52H127.256V49.669H125.901ZM126.578 51.3224H112.755V52.6776H126.578V51.3224ZM113.311 51.6133L104.909 39.5246L103.796 40.2981L112.199 52.3867L113.311 51.6133ZM104.353 39.2337H98.498V40.589H104.353V39.2337ZM97.8204 39.9114V52H99.1756V39.9114H97.8204ZM98.498 51.3224H84.7831V52.6776H98.498V51.3224ZM85.4607 52V49.669H84.1055V52H85.4607ZM84.7831 50.3466H90.0414V48.9914H84.7831V50.3466ZM104.678 33.2707C107.588 33.2707 109.789 32.8093 111.039 31.6882L110.134 30.6792C109.289 31.4373 107.55 31.9155 104.678 31.9155V33.2707ZM111.039 31.6882C112.284 30.572 112.836 28.8687 112.836 26.7385H111.481C111.481 28.656 110.985 29.9161 110.134 30.6792L111.039 31.6882ZM112.836 26.7385C112.836 24.5846 112.27 22.8995 110.921 21.9551L110.144 23.0653C110.963 23.6388 111.481 24.7725 111.481 26.7385H112.836ZM110.921 21.9551C109.654 21.0679 107.57 20.6942 104.84 20.6942V22.0494C107.531 22.0494 109.243 22.4347 110.144 23.0653L110.921 21.9551ZM104.84 20.6942H98.498V22.0494H104.84V20.6942ZM97.8204 21.3718V32.5931H99.1756V21.3718H97.8204ZM98.498 33.2707H104.678V31.9155H98.498V33.2707Z" mask="url(#path-3-outside-2_95_1550)"/><path fill="#2E353A" stroke="#303564" stroke-linecap="round" stroke-linejoin="round" stroke-width=".339" d="M86.4477 26.8475C87.098 26.1961 87.5783 25.3948 87.8464 24.5143C88.1144 23.6337 88.162 22.7008 87.985 21.7975L84.4628 25.3197C84.2626 25.5187 83.9918 25.6304 83.7096 25.6304C83.4273 25.6304 83.1565 25.5187 82.9563 25.3197L80.0287 22.392C79.9295 22.293 79.8508 22.1754 79.7971 22.046C79.7434 21.9165 79.7158 21.7778 79.7158 21.6376C79.7158 21.4975 79.7434 21.3587 79.7971 21.2293C79.8508 21.0998 79.9295 20.9822 80.0287 20.8832L83.5485 17.3634C82.562 17.1708 81.542 17.2464 80.5947 17.5824C79.6475 17.9183 78.8077 18.5024 78.1631 19.2735C77.5185 20.0447 77.0927 20.9747 76.93 21.9665C76.7674 22.9583 76.8739 23.9756 77.2384 24.9123L68.1499 33.7924L67.2735 32.9136L68.6947 31.4924C68.7673 31.4184 68.808 31.3189 68.808 31.2153C68.808 31.1116 68.7673 31.0121 68.6947 30.9381L67.5862 29.8296C67.5129 29.7566 67.4137 29.7155 67.3102 29.7155C67.2068 29.7155 67.1075 29.7566 67.0343 29.8296L66.48 30.3839L65.2791 29.1853L65.741 28.7235C65.8388 28.6253 65.8937 28.4925 65.8937 28.3539C65.8937 28.2154 65.8388 28.0825 65.741 27.9844L55.8234 18.0669C55.5872 17.8303 55.3066 17.6425 54.9977 17.5145C54.6888 17.3864 54.3577 17.3204 54.0233 17.3204C53.6889 17.3204 53.3578 17.3864 53.0489 17.5145C52.74 17.6425 52.4594 17.8303 52.2231 18.0669L51.2093 19.0807C50.9728 19.3167 50.7851 19.5972 50.657 19.9059C50.529 20.2145 50.4631 20.5455 50.4631 20.8797C50.4631 21.2139 50.529 21.5448 50.657 21.8535C50.7851 22.1622 50.9728 22.4426 51.2093 22.6787L61.1269 32.5986C61.225 32.6963 61.3578 32.7512 61.4964 32.7512C61.6349 32.7512 61.7678 32.6963 61.8659 32.5986L62.3278 32.1367L63.5263 33.3376L62.9744 33.8895C62.9379 33.9258 62.9089 33.969 62.8891 34.0165C62.8693 34.0641 62.8592 34.1151 62.8592 34.1666C62.8592 34.2181 62.8693 34.2691 62.8891 34.3167C62.9089 34.3642 62.9379 34.4074 62.9744 34.4437L64.0806 35.5523C64.1545 35.6249 64.254 35.6656 64.3577 35.6656C64.4613 35.6656 64.5609 35.6249 64.6348 35.5523L66.056 34.1311L66.9182 34.9933L59.3812 42.3361C58.4444 41.9718 57.4271 41.8655 56.4352 42.0282C55.4434 42.1909 54.5134 42.6167 53.7421 43.2612C52.9709 43.9057 52.3866 44.7453 52.0503 45.6924C51.7139 46.6396 51.6378 47.6596 51.8299 48.6462L55.3521 45.1264C55.4511 45.0272 55.5687 44.9485 55.6981 44.8948C55.8276 44.8411 55.9664 44.8134 56.1065 44.8134C56.2466 44.8134 56.3854 44.8411 56.5149 44.8948C56.6443 44.9485 56.7619 45.0272 56.8609 45.1264L59.798 48.0351C59.8972 48.1341 59.9759 48.2517 60.0296 48.3811C60.0833 48.5106 60.111 48.6493 60.111 48.7895C60.111 48.9296 60.0833 49.0684 60.0296 49.1978C59.9759 49.3273 59.8972 49.4449 59.798 49.5439L56.2782 53.0637C57.2647 53.256 58.2847 53.1803 59.2319 52.8442C60.1791 52.5082 61.0188 51.9243 61.6636 51.1533C62.3083 50.3823 62.7344 49.4524 62.8975 48.4607C63.0605 47.469 62.9546 46.4517 62.5907 45.5148L70.1277 38.172L80.4053 48.4377C80.2576 48.8183 80.2238 49.2337 80.3079 49.6332C80.392 50.0327 80.5904 50.3992 80.879 50.6879L83.359 53.1679L86.334 50.1905L83.8541 47.7129C83.5653 47.4243 83.1988 47.2259 82.7993 47.1418C82.3998 47.0577 81.9845 47.0915 81.6038 47.2392L71.3428 36.9782L80.4408 28.1076C81.4564 28.5027 82.565 28.594 83.6316 28.3703C84.6981 28.1465 85.6765 27.6174 86.4477 26.8475Z"/><path fill="#fff" stroke="#303564" stroke-miterlimit="10" stroke-width=".339" d="M61.9653 44.2524L79.8084 26.8452C80.7457 27.2103 81.7638 27.3169 82.7564 27.154C83.749 26.9911 84.6796 26.5646 85.4511 25.9191C86.2225 25.2735 86.8063 24.4326 87.1417 23.4843C87.477 22.5359 87.5515 21.5149 87.3573 20.528L83.8375 24.0478C83.7385 24.147 83.6209 24.2257 83.4914 24.2794C83.362 24.3331 83.2232 24.3607 83.083 24.3607C82.9429 24.3607 82.8041 24.3331 82.6747 24.2794C82.5452 24.2257 82.4276 24.147 82.3286 24.0478L79.401 21.1201C79.3019 21.0213 79.2232 20.904 79.1695 20.7747C79.1159 20.6454 79.0883 20.5069 79.0883 20.3669C79.0883 20.227 79.1159 20.0884 79.1695 19.9591C79.2232 19.8299 79.3019 19.7125 79.401 19.6137L82.9208 16.0915C81.9339 15.8992 80.9134 15.9753 79.9659 16.312C79.0185 16.6487 78.1788 17.2336 77.5345 18.0056C76.8903 18.7776 76.4652 19.7085 76.3035 20.7009C76.1418 21.6933 76.2495 22.7109 76.6154 23.6475L58.7724 41.0547C57.8358 40.6902 56.8185 40.5837 55.8266 40.7463C54.8348 40.909 53.9048 41.3348 53.1336 41.9794C52.3625 42.624 51.7784 43.4638 51.4425 44.411C51.1065 45.3583 51.0309 46.3783 51.2235 47.3648L54.7433 43.845C54.8423 43.7458 54.9599 43.6671 55.0894 43.6134C55.2188 43.5597 55.3576 43.5321 55.4977 43.5321C55.6379 43.5321 55.7767 43.5597 55.9061 43.6134C56.0356 43.6671 56.1532 43.7458 56.2522 43.845L59.1798 46.7726C59.2789 46.8714 59.3576 46.9888 59.4112 47.1181C59.4649 47.2473 59.4925 47.3859 59.4925 47.5259C59.4925 47.6658 59.4649 47.8044 59.4112 47.9336C59.3576 48.0629 59.2789 48.1803 59.1798 48.2791L55.6529 51.7942C56.6394 51.9865 57.6594 51.9107 58.6066 51.5747C59.5538 51.2387 60.3935 50.6547 61.0382 49.8837C61.6829 49.1127 62.109 48.1829 62.2721 47.1912C62.4352 46.1994 62.3292 45.1821 61.9653 44.2453V44.2524Z"/><path fill="#fff" stroke="#303564" stroke-miterlimit="10" stroke-width=".339" d="M60.5915 42.4263C60.4551 42.2895 60.3785 42.1043 60.3785 41.9111C60.3785 41.7179 60.4551 41.5327 60.5915 41.3959L76.6344 25.7889C76.7716 25.6523 76.9572 25.5757 77.1508 25.5757C77.3443 25.5757 77.53 25.6523 77.6671 25.7889C77.8037 25.926 77.8803 26.1117 77.8803 26.3052C77.8803 26.4988 77.8037 26.6845 77.6671 26.8216L61.6243 42.4263C61.4871 42.5628 61.3014 42.6395 61.1079 42.6395C60.9144 42.6395 60.7287 42.5628 60.5915 42.4263Z"/><path fill="#fff" stroke="#303564" stroke-miterlimit="10" stroke-width=".339" d="M65.3495 30.3467L64.1503 31.5459L81.4535 48.8492L82.6528 47.65L65.3495 30.3467Z"/><path fill="#fff" stroke="#303564" stroke-miterlimit="10" stroke-width=".339" d="M85.7063 48.9278L82.7313 51.9028L80.2513 49.4252C79.8566 49.0303 79.6348 48.4948 79.6348 47.9365C79.6348 47.3782 79.8566 46.8427 80.2513 46.4478C80.4466 46.2524 80.6785 46.0974 80.9338 45.9917C81.189 45.886 81.4626 45.8315 81.7388 45.8315C82.0151 45.8315 82.2886 45.886 82.5439 45.9917C82.7991 46.0974 83.031 46.2524 83.2263 46.4478L85.7063 48.9278Z"/><path fill="#fff" stroke="#303564" stroke-miterlimit="10" stroke-width=".339" d="M63.7354 26.9798L60.7826 29.9326L63.181 32.3311L66.1339 29.3782L63.7354 26.9798Z"/><path fill="#fff" stroke="#303564" stroke-miterlimit="10" stroke-width=".339" d="M50.587 17.7988L51.602 16.7838C51.8382 16.5476 52.1187 16.3602 52.4273 16.2324C52.736 16.1045 53.0668 16.0387 53.4009 16.0387C53.7349 16.0387 54.0657 16.1045 54.3744 16.2324C54.683 16.3602 54.9635 16.5476 55.1997 16.7838L65.1184 26.7025C65.2161 26.8003 65.271 26.9328 65.271 27.071C65.271 27.2092 65.2161 27.3418 65.1184 27.4395L61.2427 31.3152C61.145 31.4129 61.0124 31.4678 60.8742 31.4678C60.736 31.4678 60.6035 31.4129 60.5057 31.3152L50.587 21.3965C50.11 20.9194 49.8419 20.2723 49.8419 19.5977C49.8419 18.923 50.11 18.2759 50.587 17.7988Z"/><path fill="#fff" stroke="#303564" stroke-miterlimit="10" stroke-width=".339" d="M66.41 28.5499L62.35 32.6099C62.1974 32.7625 62.1974 33.01 62.35 33.1626L63.4588 34.2714C63.6114 34.424 63.8589 34.424 64.0115 34.2714L68.0714 30.2114C68.2241 30.0588 68.2241 29.8113 68.0714 29.6587L66.9627 28.5499C66.81 28.3973 66.5626 28.3973 66.41 28.5499Z"/><path fill="#fff" stroke="#303564" stroke-miterlimit="10" stroke-width=".339" d="M61.7971 29.8412L60.9823 30.6584L51.2424 20.9185C51.1341 20.8101 51.0732 20.6632 51.0732 20.5099C51.0732 20.3567 51.1341 20.2097 51.2424 20.1013C51.2959 20.0474 51.3596 20.0046 51.4297 19.9754C51.4998 19.9462 51.5751 19.9312 51.651 19.9312C51.727 19.9312 51.8022 19.9462 51.8723 19.9754C51.9425 20.0046 52.0061 20.0474 52.0596 20.1013L61.7971 29.8412Z"/><path fill="#fff" stroke="#303564" stroke-miterlimit="10" stroke-width=".339" d="M63.1876 28.4511L62.368 29.2683L52.6281 19.5284C52.5198 19.42 52.4589 19.273 52.4589 19.1198C52.4589 18.9665 52.5198 18.8196 52.6281 18.7112C52.6816 18.6573 52.7453 18.6145 52.8154 18.5853C52.8855 18.5561 52.9607 18.541 53.0367 18.541C53.1127 18.541 53.1879 18.5561 53.258 18.5853C53.3281 18.6145 53.3918 18.6573 53.4453 18.7112L63.1876 28.4511Z"/><path fill="#fff" stroke="#303564" stroke-miterlimit="10" stroke-width=".339" d="M64.5779 27.0605L63.7584 27.8705L54.0185 18.1378C53.9102 18.0294 53.8493 17.8824 53.8493 17.7292C53.8493 17.5759 53.9102 17.429 54.0185 17.3206C54.072 17.2666 54.1357 17.2238 54.2058 17.1946C54.2759 17.1654 54.3511 17.1504 54.4271 17.1504C54.5031 17.1504 54.5783 17.1654 54.6484 17.1946C54.7185 17.2238 54.7822 17.2666 54.8357 17.3206L64.5779 27.0605Z"/></svg>