<svg xmlns="http://www.w3.org/2000/svg" width="125" height="91" fill="none" viewBox="0 0 125 91"><path fill="#E0E0E0" d="M97.6436 90.9998L111.985 82.7193V39.0903L97.6436 47.3709V90.9998Z"/><path fill="#EBEBEB" d="M97.6436 47.3711L68.7158 30.6699V74.2988L97.6436 91.0001V47.3711Z"/><path fill="#F5F5F5" d="M68.7158 30.6697L97.6436 47.3709L111.985 39.0904L83.0571 22.3892L68.7158 30.6697Z"/><path fill="#E0E0E0" d="M95.5958 48.9921L70.7669 34.6572V42.6575L70.3911 42.8773L95.22 57.2122L95.5958 56.9956V48.9921Z"/><path fill="#F5F5F5" d="M95.22 49.2084L70.3879 34.8735L70.3911 42.877L95.22 57.2119V49.2084Z"/><path fill="#E0E0E0" d="M83.5857 44.4059L80.799 42.7976C80.4359 42.5874 80.1429 42.6829 80.1429 43.011C80.1714 43.21 80.2454 43.3998 80.3592 43.5655C80.473 43.7312 80.6235 43.8684 80.799 43.9664L83.5857 45.5748C83.9456 45.785 84.2386 45.6894 84.2386 45.3614C84.2098 45.1629 84.1361 44.9736 84.0229 44.808C83.9097 44.6424 83.7602 44.5049 83.5857 44.4059Z"/><path fill="#E0E0E0" d="M95.5958 58.8493L70.7669 44.5112V52.5147L70.3911 52.7344L95.22 67.0693L95.5958 66.8496V58.8493Z"/><path fill="#F5F5F5" d="M95.22 59.0654L70.3879 44.7305L70.3911 52.7339L95.22 67.0688V59.0654Z"/><path fill="#E0E0E0" d="M83.5857 54.2627L80.799 52.6703C80.4359 52.4601 80.1429 52.5556 80.1429 52.8805C80.1695 53.0822 80.2426 53.2749 80.3565 53.4435C80.4703 53.6121 80.6218 53.7519 80.799 53.8519L83.5857 55.4443C83.9456 55.6545 84.2386 55.5589 84.2386 55.2309C84.2119 55.0301 84.1391 54.8382 84.0258 54.6702C83.9125 54.5022 83.7619 54.3627 83.5857 54.2627Z"/><path fill="#E0E0E0" d="M95.5958 68.7031L70.7669 54.3682V62.3716L70.3911 62.5882L95.22 76.9231L95.5958 76.7065V68.7031Z"/><path fill="#F5F5F5" d="M95.22 68.9228L70.3879 54.5879L70.3911 62.5882L95.22 76.9231V68.9228Z"/><path fill="#E0E0E0" d="M83.5857 64.1166L80.799 62.5083C80.4359 62.3013 80.1429 62.3968 80.1429 62.7217C80.1695 62.9234 80.2426 63.1161 80.3565 63.2847C80.4703 63.4533 80.6218 63.5931 80.799 63.693L83.5857 65.3014C83.9456 65.5084 84.2386 65.4129 84.2386 65.088C84.2122 64.8867 84.1395 64.6942 84.0262 64.5257C83.9129 64.3572 83.7622 64.2172 83.5857 64.1166Z"/><path fill="#E0E0E0" d="M95.5958 78.56L70.7669 64.2251V72.2286L70.3911 72.4451L95.22 86.78L95.5958 86.5635V78.56Z"/><path fill="#F5F5F5" d="M95.22 78.7763L70.3879 64.4414L70.3911 72.4449L95.22 86.7798V78.7763Z"/><path fill="#E0E0E0" d="M83.5857 73.9738L80.799 72.3655C80.4359 72.1553 80.1429 72.2508 80.1429 72.5788C80.1714 72.7779 80.2454 72.9676 80.3592 73.1334C80.473 73.2991 80.6235 73.4363 80.799 73.5343L83.5857 75.1458C83.9456 75.3528 84.2386 75.2573 84.2386 74.9324C84.2103 74.7334 84.1367 74.5435 84.0235 74.3773C83.9104 74.2111 83.7606 74.0731 83.5857 73.9738Z"/><path fill="#F0F0F0" d="M88.7579 14.2391V12.8059C88.7695 12.7232 88.8018 12.6447 88.8519 12.5779C88.9021 12.511 88.9684 12.458 89.0446 12.4238L97.6595 7.44906C97.865 7.34547 98.0919 7.2915 98.322 7.2915C98.5521 7.2915 98.779 7.34547 98.9844 7.44906L123.75 21.7489C123.826 21.7826 123.892 21.8355 123.942 21.9025C123.992 21.9695 124.023 22.0483 124.033 22.1311V23.5643C124.022 23.6469 123.991 23.7254 123.941 23.7923C123.892 23.8592 123.826 23.9123 123.75 23.9465L115.135 28.9212C114.929 29.0247 114.702 29.0787 114.472 29.0787C114.242 29.0787 114.015 29.0247 113.81 28.9212L89.0446 14.6213C88.9684 14.587 88.9021 14.534 88.8519 14.4672C88.8018 14.4003 88.7695 14.3219 88.7579 14.2391Z"/><path fill="#FAFAFA" d="M123.75 22.5133L115.135 27.4848C114.93 27.5899 114.703 27.6447 114.472 27.6447C114.242 27.6447 114.015 27.5899 113.81 27.4848L89.0446 13.1881C88.9651 13.1606 88.8962 13.109 88.8475 13.0405C88.7987 12.972 88.7725 12.89 88.7725 12.8059C88.7725 12.7219 88.7987 12.6399 88.8475 12.5714C88.8962 12.5029 88.9651 12.4513 89.0446 12.4238L97.6595 7.44906C97.865 7.34547 98.0919 7.2915 98.322 7.2915C98.5521 7.2915 98.779 7.34547 98.9844 7.44906L123.75 21.7489C123.829 21.7765 123.898 21.8281 123.947 21.8966C123.995 21.965 124.022 22.047 124.022 22.1311C124.022 22.2152 123.995 22.2972 123.947 22.3657C123.898 22.4342 123.829 22.4858 123.75 22.5133Z"/><path fill="#E0E0E0" d="M114.472 27.6441V29.0805C114.703 29.0826 114.93 29.0279 115.135 28.9212L123.75 23.9465C123.826 23.9134 123.893 23.8606 123.943 23.7935C123.992 23.7264 124.024 23.6474 124.033 23.5643V22.1312C124.03 22.0731 124.011 22.0169 123.979 21.9688C124.081 22.1535 124.004 22.3669 123.75 22.5134L115.135 27.4849C114.931 27.5948 114.703 27.6497 114.472 27.6441Z"/><path fill="#000" d="M104.067 15.7839C101.685 17.1598 97.8187 17.1598 95.4333 15.7839C93.0479 14.4081 93.0479 12.1755 95.4333 10.7997C97.8187 9.42384 101.685 9.42065 104.067 10.7997C106.45 12.1787 106.453 14.4081 104.067 15.7839Z" opacity=".03"/><path fill="#EBEBEB" d="M93.9938 13.2552V4.26758H104.306V13.2552C104.351 14.0482 103.854 14.8476 102.806 15.4559C100.79 16.6183 97.5258 16.6183 95.513 15.4559C94.4429 14.8508 93.946 14.0482 93.9938 13.2552Z"/><path fill="#E0E0E0" d="M104.293 11.5164C104.293 12.2839 103.797 13.0514 102.784 13.6375C100.768 14.8063 97.4971 14.8063 95.4906 13.6375C94.4842 13.0546 93.981 12.2935 93.981 11.5323V5.9461C93.981 6.70727 94.4842 7.46845 95.4906 8.05127C97.5034 9.21373 100.768 9.21373 102.784 8.05127C103.797 7.46526 104.3 6.69772 104.293 5.93018V11.5164Z"/><path fill="#FAFAFA" d="M98.5735 7.22601C99.4876 7.22601 100.166 7.59545 100.223 8.03496C100.281 8.47446 100.223 10.4077 100.223 11.0064C100.223 11.6051 99.9048 11.9618 100.29 11.9618C100.676 11.9618 100.335 11.5096 100.335 11.0064V8.27064C100.335 7.49672 101.026 6.97123 102.128 6.67822L98.5735 7.22601Z"/><path fill="#FAFAFA" d="M99.2073 5.3183C100.125 5.3183 100.8 5.68774 100.86 6.12406C100.921 6.56038 100.86 8.49994 100.86 9.0955C100.86 9.69106 100.542 10.0509 100.927 10.0509C101.313 10.0509 100.972 9.5987 100.972 9.0955V6.36292C100.972 5.89157 101.663 5.06351 102.762 4.77051L99.2073 5.3183Z"/><path fill="#FAFAFA" d="M102.784 6.37271C100.768 7.53517 97.5034 7.53517 95.4906 6.37271C93.4778 5.21025 93.4778 3.32483 95.4906 2.16237C97.5034 0.999912 100.768 0.999912 102.784 2.16237C104.8 3.32483 104.797 5.21025 102.784 6.37271Z"/><path fill="#EBEBEB" d="M102.561 6.20709C100.669 7.27401 97.6054 7.27401 95.7136 6.20709C93.8218 5.14018 93.825 3.40763 95.7136 2.34071C97.6022 1.2738 100.669 1.2738 102.561 2.34071C104.453 3.40763 104.45 5.13381 102.561 6.20709Z"/><path fill="#F5F5F5" d="M95.7136 2.83437C97.6053 1.76745 100.669 1.76745 102.561 2.83437C103.392 3.30572 103.857 3.90447 103.956 4.51914C103.857 5.13063 103.392 5.72937 102.561 6.20073C100.669 7.26764 97.6053 7.26764 95.7136 6.20073C94.8823 5.72937 94.4173 5.13063 94.3186 4.51914C94.4173 3.90447 94.8823 3.30572 95.7136 2.83437Z"/><path fill="#000" d="M97.0257 16.0801C98.9366 16.5674 101.227 16.3699 102.781 15.4686C103.829 14.8667 104.329 14.0673 104.284 13.2711V4.26758C104.284 5.02875 103.778 5.79311 102.771 6.37275C102.611 6.46692 102.445 6.54992 102.274 6.62116V14.51C102.274 15.3699 99.408 16.3986 97.0257 16.0801Z" opacity=".05"/><path fill="#000" d="M117.007 23.6438C114.622 25.0196 110.756 25.0196 108.373 23.6438C105.991 22.268 105.988 20.0354 108.373 18.6595C110.759 17.2837 114.622 17.2805 117.007 18.6595C119.393 20.0386 119.39 22.268 117.007 23.6438Z" opacity=".03"/><path fill="#EBEBEB" d="M106.927 21.115V12.1274H117.243V21.115C117.284 21.908 116.788 22.7074 115.74 23.3157C113.727 24.4782 110.463 24.4782 108.45 23.3157C107.37 22.7106 106.886 21.908 106.927 21.115Z"/><path fill="#E0E0E0" d="M117.243 19.3762C117.243 20.1438 116.746 20.9113 115.733 21.4973C113.721 22.6598 110.456 22.6598 108.443 21.4973C107.437 20.9145 106.934 20.1533 106.934 19.3921V13.806C106.934 14.5671 107.437 15.3283 108.443 15.9111C110.456 17.0736 113.721 17.0736 115.733 15.9111C116.746 15.3251 117.249 14.5576 117.243 13.79V19.3762Z"/><path fill="#FAFAFA" d="M111.51 15.0866C112.428 15.0866 113.103 15.4592 113.163 15.8955C113.224 16.3319 113.163 18.2714 113.163 18.867C113.163 19.4625 112.845 19.8224 113.23 19.8224C113.615 19.8224 113.275 19.3702 113.275 18.867V16.1344C113.275 15.3573 113.966 14.8318 115.065 14.542L111.51 15.0866Z"/><path fill="#FAFAFA" d="M112.147 13.1786C113.065 13.1786 113.74 13.5481 113.8 13.9876C113.861 14.4271 113.8 16.3603 113.8 16.959C113.8 17.5578 113.482 17.9145 113.867 17.9145C114.252 17.9145 113.912 17.4622 113.912 16.959V14.2233C113.912 13.7519 114.603 12.9239 115.702 12.6309L112.147 13.1786Z"/><path fill="#FAFAFA" d="M115.721 14.2331C113.708 15.3955 110.443 15.3955 108.431 14.2331C106.418 13.0706 106.418 11.1852 108.431 10.0227C110.443 8.86026 113.708 8.86026 115.721 10.0227C117.733 11.1852 117.733 13.0706 115.721 14.2331Z"/><path fill="#EBEBEB" d="M115.498 14.0608C113.609 15.1246 110.555 15.1246 108.644 14.0608C106.733 12.9971 106.752 11.2645 108.644 10.1944C110.536 9.12435 113.6 9.12753 115.488 10.1944C117.377 11.2614 117.389 12.9939 115.498 14.0608Z"/><path fill="#F5F5F5" d="M108.644 10.6947C110.533 9.6278 113.6 9.6278 115.488 10.6947C116.323 11.1661 116.784 11.7648 116.886 12.3795C116.784 12.9942 116.323 13.5929 115.488 14.0611C113.609 15.1248 110.555 15.1248 108.644 14.0611C107.81 13.5929 107.345 12.9942 107.246 12.3795C107.37 11.7648 107.819 11.1661 108.644 10.6947Z"/><path fill="#000" d="M109.966 23.924C111.877 24.4145 114.163 24.2139 115.721 23.3125C116.768 22.7106 117.265 21.9112 117.224 21.115V12.1274C117.224 12.8918 116.721 13.653 115.714 14.2358C115.553 14.3287 115.386 14.4117 115.214 14.4842V22.3698C115.221 23.2297 112.348 24.2521 109.966 23.924Z" opacity=".05"/><path fill="#F5F5F5" d="M0 29.8768L2.58926 31.3705L54.3363 1.49368L51.747 0L0 29.8768Z"/><path fill="#EBEBEB" d="M0 29.877L2.58926 31.3706V79.1749L0 77.678V29.877Z"/><path fill="#E0E0E0" d="M54.3363 1.49365V49.2979L2.58929 79.1747V31.3705L54.3363 1.49365Z"/><path fill="#FAFAFA" d="M53.0433 3.73584V48.5495L3.88232 76.9327V32.119L53.0433 3.73584Z"/><path fill="#EBEBEB" d="M53.0433 48.5495L51.7471 47.8043V4.48109L53.0433 3.73584V48.5495Z"/><path fill="#F5F5F5" d="M53.0433 48.5494L51.7471 47.8042L3.88232 75.4389V76.9326L53.0433 48.5494Z"/><g opacity=".15"><path fill="#000" d="M19.2713 34.3612C19.2092 34.3135 19.1602 34.2508 19.129 34.1789C19.0978 34.107 19.0854 34.0284 19.093 33.9504V26.6476L19.7299 26.275V27.017C19.8701 26.861 20.0166 26.6667 20.179 26.4565C20.531 25.9618 20.9369 25.5078 21.3892 25.1029C21.7619 24.7806 22.1904 24.5291 22.6536 24.3609C22.8841 24.285 23.0996 24.1697 23.2906 24.0201V23.1602L23.9275 22.7939V28.6891C23.9258 28.8344 23.8933 28.9777 23.832 29.1095V30.205L20.9657 47.1451L19.3032 48.1006L19.2713 34.3612ZM19.7363 31.4089C21.4497 30.3738 22.0389 29.498 22.988 28.0871L23.2683 27.6731V25.9947C23.1055 26.1766 22.9525 26.3669 22.8097 26.5648C22.4577 27.0566 22.053 27.5083 21.6026 27.912C21.2335 28.2358 20.8097 28.4914 20.351 28.6668C20.1294 28.7369 19.9214 28.8447 19.7363 28.9852V31.4089Z"/><path fill="#000" d="M26.7366 30.138C26.5964 30.0998 26.4754 29.9564 26.4754 29.6889V22.3861L27.1124 22.0135V22.7683C27.2525 22.6154 27.399 22.4212 27.5614 22.211C27.9124 21.7155 28.3184 21.2615 28.7717 20.8574C29.1377 20.531 29.561 20.2751 30.0201 20.1026C30.2513 20.0269 30.467 19.9104 30.6571 19.7586V18.8987L31.294 18.5293V24.4244C31.2927 24.5708 31.2601 24.7152 31.1985 24.848L30.415 26.5646L31.0106 26.3417L29.8672 40.2848L25.7875 41.8167L26.7366 30.138ZM27.1187 27.1442C28.8322 26.1124 29.4214 25.2334 30.3704 23.8225L30.6507 23.4116V21.7332C30.5042 21.8893 30.3545 22.0867 30.1921 22.3001C29.8411 22.7936 29.4363 23.2466 28.985 23.6505C28.6167 23.9746 28.1926 24.2292 27.7334 24.4021C27.5118 24.4797 27.3042 24.5926 27.1187 24.7365V27.1442Z"/><path fill="#000" d="M19.8956 64.2699C19.7172 64.2699 19.5261 64.1234 19.5261 63.805V59.2602L19.7045 59.1583V58.4959C19.7065 58.2849 19.7672 58.0787 19.8797 57.9003V50.3013L19.8446 50.3236L19.5038 49.7344L22.1759 48.193C22.3412 48.0923 22.5302 48.0373 22.7237 48.0337C22.8767 48.0327 23.0273 48.0723 23.16 48.1484C23.5422 48.3713 23.762 48.8713 23.762 49.5242V54.4702C23.762 55.5117 23.2142 56.6455 22.5135 57.0468L20.4848 58.222C20.4206 58.299 20.3846 58.3956 20.3829 58.4959V58.757L20.5644 58.6551V63.3814C20.5613 63.5401 20.5208 63.6958 20.4461 63.8358C20.3714 63.9759 20.2646 64.0963 20.1344 64.1871C20.0641 64.2364 19.9814 64.2651 19.8956 64.2699ZM20.3797 57.4831L22.1759 56.448C22.66 56.1678 23.0836 55.2378 23.0836 54.4575V49.521C23.1019 49.3787 23.088 49.2341 23.0428 49.0979C22.9975 48.9617 22.9222 48.8375 22.8224 48.7344C22.792 48.7181 22.7582 48.7094 22.7237 48.7089C22.6493 48.7142 22.5773 48.7372 22.5135 48.7758L20.3797 50.0115V57.4831Z"/><path fill="#000" d="M25.7812 59.26C25.6755 59.256 25.5752 59.212 25.5007 59.1369C25.4262 59.0618 25.383 58.9612 25.3799 58.8555L25.2525 58.9287C25.2047 58.9584 25.1495 58.9739 25.0932 58.9733C24.9117 58.9733 24.7747 58.8141 24.7047 58.537C24.6751 58.5417 24.6451 58.5417 24.6155 58.537C24.5557 58.5374 24.4968 58.5219 24.4448 58.4923C24.3928 58.4627 24.3495 58.4199 24.3193 58.3682C24.2759 58.2897 24.2646 58.1974 24.2878 58.1107C24.3109 58.024 24.3667 57.9497 24.4435 57.9032L24.676 57.7695C24.7206 57.4096 24.8512 56.9733 25.0932 56.8331L25.3735 56.6739V56.6102C25.3754 56.4282 25.4209 56.2494 25.5062 56.0887C25.5916 55.9279 25.7143 55.7901 25.864 55.6866L27.4341 54.7789C27.507 54.7343 27.5906 54.7101 27.6761 54.7089C27.88 54.7089 28.0838 54.8681 28.0838 55.228V55.8012L28.4978 55.5656C28.612 55.461 28.7029 55.3334 28.7643 55.1913C28.8258 55.0491 28.8565 54.8956 28.8545 54.7407V49.2596C28.8493 48.9853 28.9099 48.7138 29.0313 48.4678C29.1526 48.2217 29.3312 48.0084 29.552 47.8456L29.9533 47.6162C30.0182 47.3027 30.2034 47.0272 30.4692 46.8487L32.0616 45.9187C32.1415 45.8705 32.2327 45.8441 32.326 45.8423C32.3957 45.8417 32.4644 45.8593 32.5253 45.8934C32.5862 45.9275 32.6371 45.9768 32.6731 46.0366L32.775 45.9792C32.8827 45.9141 33.0059 45.8789 33.1317 45.8773C33.2369 45.8765 33.3403 45.904 33.4311 45.957C33.5617 46.0487 33.6658 46.1733 33.7329 46.3181C33.8 46.4629 33.8277 46.6229 33.8133 46.7818V51.4603C33.8106 51.5307 33.8215 51.601 33.8451 51.6673L34.9662 51.0304V48.8838C34.9693 48.6252 35.0339 48.3711 35.1546 48.1424C35.2754 47.9137 35.4487 47.717 35.6605 47.5685C35.7566 47.5097 35.8663 47.4768 35.979 47.4729C36.2433 47.4729 36.5108 47.6895 36.5108 48.1736V52.9699C36.5076 53.2289 36.4426 53.4833 36.3213 53.712C36.2 53.9408 36.0259 54.1373 35.8134 54.2853C35.7175 54.3448 35.6076 54.3777 35.4949 54.3808C35.2305 54.3808 34.9662 54.1642 34.9662 53.6802V51.8011L34.17 52.2597C34.0633 52.3244 33.9413 52.3596 33.8165 52.3616C33.71 52.3617 33.6055 52.3331 33.5139 52.2788C33.3836 52.1876 33.2796 52.0636 33.2125 51.9193C33.1454 51.775 33.1175 51.6156 33.1317 51.4571V46.7818C33.1346 46.7104 33.1238 46.639 33.0999 46.5716L32.7368 46.785C32.6707 47.098 32.4857 47.3731 32.2209 47.5526L30.6157 48.4793C30.5357 48.5303 30.443 48.5578 30.3482 48.559C30.2791 48.5584 30.2113 48.5403 30.1511 48.5063C30.0909 48.4723 30.0404 48.4236 30.0042 48.3647L29.88 48.4347C29.7652 48.539 29.6738 48.6665 29.6118 48.8086C29.5497 48.9508 29.5185 49.1045 29.5201 49.2596V54.7534C29.5253 55.0273 29.4647 55.2984 29.3433 55.5439C29.222 55.7894 29.0434 56.0022 28.8227 56.1643L28.071 56.6006V57.3586C28.0686 57.5405 28.0229 57.7192 27.9376 57.8798C27.8523 58.0404 27.7299 58.1784 27.5806 58.2822L26.0105 59.1899C25.9406 59.2311 25.8621 59.2551 25.7812 59.26Z"/><path fill="#000" d="M34.2082 29.6411C33.6381 29.6411 33.205 29.0774 33.1285 28.2366C33.083 27.6775 33.1358 27.1149 33.2846 26.5741C33.42 26.0173 33.5837 25.4677 33.7751 24.9275C33.861 24.6696 33.963 24.4116 34.0617 24.16C34.1604 23.9084 34.2687 23.6249 34.3515 23.367C34.5063 22.8745 34.6036 22.3658 34.6413 21.851C34.6573 21.214 34.6413 20.5548 34.6413 19.9082C34.6413 19.5898 34.6413 19.2713 34.6413 18.9528C34.5314 18.8368 34.4465 18.6996 34.3917 18.5495C34.3369 18.3994 34.3135 18.2397 34.3228 18.0802C34.3155 17.7427 34.3892 17.4084 34.5377 17.1053C34.6862 16.8022 34.9052 16.5391 35.1764 16.3381C35.2996 16.2638 35.4402 16.2231 35.584 16.2202C35.7038 16.2202 35.8214 16.2521 35.9248 16.3126C36.0747 16.4251 36.1926 16.5747 36.2669 16.7468C36.3412 16.9188 36.3693 17.1073 36.3484 17.2935C36.3426 17.7017 36.233 18.1018 36.0299 18.456C36.0299 18.749 36.0299 19.491 36.0299 19.491L37.1987 18.8158C37.256 18.7796 37.3221 18.7597 37.3898 18.7585C37.4363 18.7608 37.4817 18.7726 37.5233 18.7933C37.565 18.8139 37.6019 18.8429 37.6318 18.8785C37.6617 18.9141 37.6839 18.9555 37.6971 19C37.7102 19.0446 37.7141 19.0914 37.7083 19.1375C37.7063 19.2642 37.6733 19.3885 37.6122 19.4995C37.5512 19.6105 37.4639 19.7049 37.358 19.7745L36.0299 20.5388C36.0299 20.7745 36.0299 21.007 36.0299 21.2331C36.0507 21.6288 36.1469 22.0169 36.3134 22.3765C36.3957 22.5308 36.4894 22.6787 36.5936 22.8192C36.6993 22.9639 36.7961 23.1149 36.8834 23.2714C37.0916 23.6162 37.2593 23.9838 37.3835 24.367C37.5448 24.8495 37.5992 25.3614 37.5427 25.8671C37.4472 27.0327 36.7975 28.3003 36.1 28.6888L35.9376 28.4149C36.5363 28.0487 37.0968 26.8798 37.1605 25.8671C37.1993 25.4349 37.1405 24.9995 36.9885 24.5931C36.8639 24.2567 36.7004 23.9361 36.5013 23.6377C36.4167 23.5018 36.3242 23.371 36.2242 23.2459C36.0966 23.0964 35.9815 22.9367 35.8802 22.7682C35.6667 22.3531 35.5389 21.8993 35.5044 21.4338C35.5044 21.1981 35.4853 20.9688 35.4821 20.7395L35.1891 20.9083C35.1891 21.2013 35.1891 21.5007 35.1605 21.8064C35.107 22.395 34.9851 22.9753 34.7974 23.5358C34.6955 23.8351 34.5808 24.1122 34.4789 24.3797C34.377 24.6473 34.2846 24.8575 34.1986 25.1059C34.0025 25.6183 33.8356 26.1415 33.6986 26.6728C33.555 27.157 33.4947 27.6621 33.5203 28.1665C33.568 28.8449 33.8706 29.313 34.2623 29.313C34.3742 29.3102 34.4837 29.2795 34.5808 29.2239L34.7369 29.5009C34.5801 29.5993 34.3996 29.6532 34.2146 29.657L34.2082 29.6411ZM35.1987 20.1025L35.4694 19.9465V19.0579C35.3903 19.0983 35.3054 19.1262 35.2178 19.1407C35.205 19.3764 35.1987 20.1025 35.1987 20.1025ZM35.0394 18.3859C35.0788 18.4002 35.1139 18.4243 35.1414 18.456H35.1636C35.3277 18.3126 35.4586 18.1351 35.5471 17.936C35.6357 17.7369 35.6798 17.5209 35.6764 17.3031C35.6764 17.0292 35.5936 16.9272 35.5713 16.9145C35.5465 16.9183 35.5227 16.927 35.5012 16.94C35.3372 17.0834 35.2063 17.2608 35.1177 17.4599C35.0292 17.659 34.9851 17.875 34.9885 18.0929C34.9857 18.193 35.003 18.2926 35.0394 18.3859Z"/><path fill="#000" d="M34.8802 36.6541L33.4598 37.4758V34.24L34.8802 33.4183V32.9502L33.8865 33.5234V32.8928L34.291 32.6572V32.224L34.8802 31.8832V31.6635L36.0586 30.9819V32.74L37.5491 31.8801V32.6603L38.0714 32.3578V34.0298L37.5491 34.3324V35.1126L36.0586 35.9726V43.6766L34.8802 44.3582V36.6541Z"/><path fill="#000" d="M42.8614 48.1864V46.9539L42.5907 47.11V47.4093L41.9728 47.766C41.6744 47.9671 41.41 48.2144 41.1893 48.4986C41.0817 48.6252 40.9536 48.7328 40.8103 48.817C40.6858 48.8945 40.5429 48.9374 40.3963 48.9412C40.046 48.9412 39.8103 48.6514 39.8103 48.2247C39.8226 47.9296 39.9054 47.6418 40.0516 47.3853C40.1979 47.1287 40.4035 46.911 40.6511 46.7501C40.7745 46.6727 40.9164 46.6298 41.0619 46.6259H41.1033C41.3498 46.6342 41.5943 46.5794 41.8136 46.4666L42.5907 46.0176V46.3361L42.8614 46.1768V44.3137L42.1129 44.7436C42.071 44.7689 42.0225 44.7813 41.9736 44.7794C41.9246 44.7775 41.8773 44.7614 41.8374 44.733C41.7975 44.7046 41.7668 44.6651 41.7489 44.6195C41.7311 44.5739 41.727 44.524 41.7371 44.4761C41.7366 44.3929 41.756 44.3107 41.7937 44.2365C41.8313 44.1622 41.8862 44.0981 41.9537 44.0494L42.8614 43.527V42.2531L44.8328 41.1129V42.3869L45.2564 42.1448V40.8709L47.2278 39.7307V41.0047L47.5876 40.7976V40.4792L48.2055 40.1225C48.5047 39.9224 48.7693 39.675 48.989 39.39C49.0966 39.2633 49.2247 39.1557 49.368 39.0715C49.4927 38.9944 49.6355 38.9516 49.782 38.9473C50.1323 38.9473 50.368 39.2371 50.368 39.667C50.3557 39.9616 50.2729 40.249 50.1266 40.505C49.9803 40.7611 49.7748 40.9783 49.5272 41.1384C49.4038 41.2158 49.2619 41.2587 49.1164 41.2626H49.0877C48.8408 41.2537 48.5959 41.3097 48.3775 41.4251L47.6004 41.8709V41.5716L47.2405 41.7818V43.6449L48.0781 43.1608C48.1163 43.137 48.1605 43.1249 48.2055 43.1258C48.3233 43.1258 48.4539 43.2181 48.4539 43.4283C48.455 43.5112 48.4358 43.5931 48.3981 43.6669C48.3604 43.7407 48.3052 43.8042 48.2374 43.8519L47.2278 44.4252V45.8265L45.9538 49.5495L45.2532 49.9572V45.5717L44.8296 45.8137V50.2056L44.1926 50.5719L42.8614 48.1864ZM44.8328 45.0303L45.2564 44.7851V42.9219L44.8328 43.1672V45.0303Z"/><path fill="#000" d="M5.55115 42.6991L6.16263 42.3456V39.3296L5.84415 39.5079V37.3104C5.83068 36.7431 5.7385 36.1803 5.57026 35.6384C5.50205 35.3883 5.46883 35.13 5.47153 34.8708C5.47153 33.8453 5.88555 32.8039 6.42697 32.4981C6.52312 32.4398 6.633 32.4079 6.74546 32.4058C7.21363 32.4058 7.52892 32.995 7.52892 33.874C7.52796 34.163 7.49701 34.4512 7.43656 34.7339C7.27566 35.3926 7.18176 36.0659 7.1563 36.7435V38.7595L6.83782 38.9347V41.9443L7.44612 41.594V48.7598L5.53522 49.8586L5.55115 42.6991Z"/><path fill="#000" d="M8.58309 40.9475L9.00667 40.7054V37.6958L8.68819 37.8741V35.6734C8.67472 35.1058 8.58145 34.543 8.41111 34.0014C8.34382 33.7523 8.31167 33.495 8.31556 33.237C8.31556 32.2115 8.72959 31.1669 9.27101 30.8611C9.36747 30.8039 9.47733 30.7731 9.58949 30.772C10.0577 30.772 10.373 31.3612 10.373 32.2402C10.3721 32.5294 10.3401 32.8177 10.2774 33.1001C10.1191 33.7581 10.0263 34.4302 10.0003 35.1065V37.1225L9.68185 37.3009V40.3105L10.1054 40.0685V47.2343L8.57672 48.1165L8.58309 40.9475Z"/><path fill="#000" d="M11.5068 39.253L11.8253 39.0651V36.0554L11.5068 36.2338V34.033C11.4918 33.4656 11.3986 32.9029 11.2297 32.361C11.1625 32.1108 11.1303 31.8525 11.1342 31.5935C11.1342 30.568 11.5482 29.5265 12.0896 29.2208C12.1858 29.1624 12.2956 29.1305 12.4081 29.1284C12.8794 29.1284 13.1947 29.7176 13.1947 30.5966C13.1941 30.8869 13.1621 31.1763 13.0992 31.4597C12.9409 32.1177 12.8481 32.7898 12.8221 33.4661V35.4821L12.5036 35.6605V38.6702L12.8221 38.4791V45.6481L11.5068 46.4188V39.253Z"/><path fill="#000" d="M14.4559 37.5585L14.6916 37.4183V34.4087L14.3731 34.587V32.3895C14.3596 31.8222 14.2675 31.2594 14.0992 30.7175C14.0295 30.4677 13.9962 30.2092 14.0005 29.9499C14.0005 28.9244 14.4145 27.883 14.9559 27.5772C15.0521 27.5189 15.162 27.487 15.2744 27.4849C15.7426 27.4849 16.0579 28.0741 16.0579 28.9531C16.0574 29.2423 16.0254 29.5307 15.9623 29.813C15.8038 30.472 15.711 31.1452 15.6853 31.8226V33.8386L15.3668 34.0138V37.0234L15.6025 36.8897V44.0555L14.4495 44.7211L14.4559 37.5585Z"/><path fill="#000" d="M39.46 28.1636V22.1315L40.0715 21.778V18.7524L39.753 18.9276V18.2301V16.7173C39.7375 16.1512 39.6453 15.5898 39.4791 15.0485C39.4102 14.7985 39.377 14.5401 39.3804 14.2809C39.3805 13.9892 39.4147 13.6984 39.4823 13.4146V13.3478L41.2435 12.3286L41.304 12.5165C41.3804 12.765 41.4169 13.0241 41.4123 13.2841C41.4109 13.5745 41.3778 13.8639 41.3135 14.1471C41.1609 14.8052 41.0682 15.4757 41.0365 16.1504V17.1059V18.1696L40.718 18.3479V21.3671L41.3263 21.0168V27.2272L41.1225 28.2973L39.7052 29.1381L39.46 28.1636Z"/><path fill="#000" d="M42.4919 26.4119V20.3608L42.9155 20.1187V17.1091L42.597 17.2874V16.5899V15.0899C42.5818 14.5238 42.4896 13.9623 42.3231 13.421C42.2529 13.1714 42.2196 12.9128 42.2244 12.6535C42.2247 12.3607 42.2589 12.069 42.3263 11.784V11.7172L44.0971 10.6948L44.1544 10.8891C44.223 11.1391 44.2563 11.3974 44.2531 11.6566C44.2527 11.947 44.2206 12.2363 44.1576 12.5197C44.0049 13.1778 43.9122 13.8482 43.8805 14.523V15.4784V16.5453L43.562 16.7205V19.7334L43.9792 19.4913V25.7017L43.7786 26.7686L42.7021 27.3897L42.4919 26.4119Z"/><path fill="#000" d="M45.4283 24.7176V18.6664L45.7468 18.4753V15.4689L45.4283 15.6472V14.9465V13.4465C45.4132 12.8801 45.3199 12.3185 45.1513 11.7776C45.0824 11.5288 45.0492 11.2715 45.0525 11.0133C45.0525 10.7205 45.0867 10.4287 45.1545 10.1438L45.1704 10.077L46.9539 9.07373L47.0176 9.25845C47.0912 9.50751 47.1267 9.7663 47.1227 10.026C47.121 10.3162 47.089 10.6055 47.0271 10.8891C46.8735 11.5481 46.7797 12.2196 46.7469 12.8955V13.851V14.9147L46.4284 15.0931V18.1027L46.7469 17.9148V24.1061L46.5399 25.1762L45.6513 25.689L45.4283 24.7176Z"/><path fill="#000" d="M48.3679 23.02V16.9688L48.6004 16.835V13.8286L48.2819 14.0037V13.3062V11.8062C48.2661 11.2401 48.174 10.6788 48.008 10.1373C47.9392 9.88742 47.9059 9.62902 47.9093 9.3698C47.9096 9.07702 47.9438 8.78526 48.0112 8.50034V8.43665L49.782 7.41113L49.8393 7.60541C49.9095 7.85506 49.9428 8.11365 49.938 8.37295C49.9377 8.66327 49.9057 8.95269 49.8425 9.23604C49.6898 9.89406 49.5971 10.5645 49.5654 11.2393V12.1947V13.2585L49.2469 13.4368V16.4465L49.4826 16.3095V22.5199L49.2756 23.59L48.5749 23.9913L48.3679 23.02Z"/><path fill="#000" d="M5.55113 70.7061L5.44922 70.5246L5.55113 70.4673V69.6519L5.44922 69.4736L5.55113 69.4131V68.5978L5.44922 68.4194L5.55113 68.3589V67.5468L5.44922 67.3652L5.55113 67.3079V66.4926L5.44922 66.3142L5.55113 66.2537V65.4384L5.44922 65.2601L5.55113 65.1996V64.3874L5.44922 64.2059L5.55113 64.1486V63.3333L5.44922 63.1549L5.55113 63.0944V62.2791L5.44922 62.1007L5.55113 62.0402V61.2281L5.44922 61.0465L5.55113 60.9892V60.1739L5.44922 59.9956L5.55113 59.935V59.1197L5.44922 58.9414L5.55113 58.8809V58.0687L5.44922 57.8872L5.55113 57.8299V57.0146L5.44922 56.8362L5.55113 56.7757V55.9604L5.44922 55.782L5.55113 55.7215V53.094L7.89835 51.7373V70.5978L7.81236 70.6392L5.55113 71.945V70.7061Z"/><path fill="#000" d="M14.6343 59.9637L14.5292 59.7854L14.6343 59.7248V58.9095L14.5292 58.7312L14.6343 58.6707V57.8585L14.5292 57.677L14.6343 57.6197V56.8044L14.5292 56.626L14.6343 56.5655V55.7502L14.5292 55.5718L14.6343 55.5113V54.6992L14.5292 54.5177L14.6343 54.4603V53.645L14.5292 53.4667L14.6343 53.4061V52.5908L14.5292 52.4125L14.6343 52.352V51.5398L14.5292 51.3583L14.6343 51.301V51.0589L10.2201 53.6068V50.3997L16.7171 46.6479V49.4888L16.9815 49.3359V59.849L14.6343 61.2026V59.9637Z"/><path fill="#000" d="M9.19458 58.9512L16.284 65.7635L9.19458 69.8465V58.9512ZM10.7233 66.719L12.8285 65.5055L10.7233 63.48V66.719Z"/><path fill="#000" d="M39.7275 40.8137C39.6847 40.8105 39.6431 40.7988 39.6049 40.7791C39.5668 40.7595 39.5331 40.7323 39.5057 40.6993C39.4784 40.6663 39.458 40.6281 39.4457 40.587C39.4335 40.5459 39.4297 40.5028 39.4345 40.4602V39.9888C39.4362 39.8795 39.4636 39.772 39.5145 39.6752C39.5654 39.5784 39.6384 39.4949 39.7275 39.4315V38.9124C39.7301 38.7876 39.7095 38.6634 39.667 38.5461L39.5523 38.3805C39.4697 38.2111 39.4293 38.0243 39.4345 37.8359V36.1447C39.4345 35.9664 39.4345 35.7212 39.4345 35.5587C39.4345 35.3963 39.4345 35.2403 39.4345 35.1001C39.401 34.0101 39.5211 32.9209 39.7912 31.8643C40.2721 30.0108 41.3326 29.7082 41.3836 29.6955L41.9664 29.5426L41.5365 29.963C40.4696 31.014 40.4919 32.6096 40.8071 33.2051C40.8465 33.2787 40.907 33.3389 40.9807 33.3781C41.0544 33.4172 41.1381 33.4335 41.2212 33.4249C41.301 33.4242 41.3803 33.4124 41.4569 33.3899H41.4791H41.5206C41.6639 33.3899 41.8072 33.5236 41.8072 33.823V34.2338L45.9029 31.8548V31.5108L49.3775 29.5044C49.4468 29.4624 49.5258 29.4393 49.6068 29.4375C49.8011 29.4375 49.9922 29.5904 49.9922 29.928V30.7305C49.9907 30.8994 49.9485 31.0655 49.8693 31.2146C49.79 31.3637 49.6759 31.4916 49.5368 31.5873L45.9029 33.6701V33.3262L41.804 35.6925V36.046C41.7887 36.3161 41.7329 36.5824 41.6384 36.8358L41.3645 37.5556C41.283 37.7734 41.2336 38.0019 41.218 38.234V38.5907H41.2785C41.4186 38.5907 41.5683 38.7022 41.5683 38.9442V39.4156C41.568 39.5263 41.5405 39.6353 41.4883 39.733C41.4361 39.8308 41.3608 39.9142 41.2689 39.9761L39.8931 40.7723C39.842 40.8027 39.7838 40.8191 39.7243 40.8201L39.7275 40.8137Z"/></g><path fill="#F5F5F5" d="M23.969 28.1382L19.7491 33.5683V47.5115L21.1091 46.728L23.969 29.8898V28.1382Z"/><path fill="#E0E0E0" d="M20.9211 46.384L21.109 46.728L23.969 29.8898V28.4312L23.6951 28.5872V30.0299L20.9211 46.384Z"/><path fill="#E0E0E0" d="M19.7491 33.568V47.5112L20.0039 46.9411V33.2432L19.7491 33.568Z"/><path fill="#E0E0E0" d="M20.9434 44.7852C20.9459 44.9374 20.9133 45.0881 20.8482 45.2256C20.783 45.3632 20.687 45.4838 20.5676 45.5783C20.3606 45.6993 20.195 45.5369 20.195 45.2184C20.1916 45.0664 20.2235 44.9157 20.2882 44.7781C20.3528 44.6405 20.4485 44.5198 20.5676 44.4253C20.7746 44.3043 20.9434 44.4668 20.9434 44.7852Z"/><path fill="#EBEBEB" d="M23.7461 22.9342V23.7591C23.2046 24.2559 22.7556 24.0999 21.816 24.9056C20.8765 25.7114 20.4211 26.6796 19.9052 27.0586V26.2337L19.5867 26.4216V33.6321C19.5867 33.8741 19.7172 33.9983 19.8797 33.906L22.1377 32.6002C22.2313 32.5377 22.3044 32.4491 22.3479 32.3454L23.9977 28.7242C24.0499 28.6136 24.0781 28.4931 24.0805 28.3707V22.7495L23.7461 22.9342ZM23.7461 27.393C22.5581 29.1383 22.0167 30.1415 19.8956 31.3676V28.6096C20.4306 28.1255 20.8797 28.272 21.8065 27.4726C22.7333 26.6732 23.211 25.6891 23.7365 25.3197L23.7461 27.393Z"/><path fill="#E0E0E0" d="M19.8956 28.6093C20.4307 28.1252 20.8797 28.2717 21.8065 27.4723C22.7333 26.6729 23.211 25.6888 23.7365 25.3194V23.7588C23.1951 24.2556 22.746 24.0996 21.8065 24.9053C20.867 25.7111 20.4116 26.6793 19.8956 27.0583V28.6093Z"/><path fill="#000" d="M19.8956 28.6093C20.4307 28.1252 20.8797 28.2717 21.8065 27.4723C22.7333 26.6729 23.211 25.6888 23.7365 25.3194V23.7588C23.1951 24.2556 22.746 24.0996 21.8065 24.9053C20.867 25.7111 20.4116 26.6793 19.8956 27.0583V28.6093Z" opacity=".1"/><path fill="#F5F5F5" d="M30.0361 39.8453L26.2844 41.2498L27.3927 27.6665L31.1444 26.2588L30.0361 39.8453Z"/><path fill="#E0E0E0" d="M28.138 38.7911C28.1349 38.9396 28.0949 39.0849 28.0215 39.2139C27.9481 39.3429 27.8436 39.4516 27.7176 39.53C27.5138 39.6065 27.3704 39.3994 27.3991 39.0682C27.4035 38.9201 27.4442 38.7753 27.5174 38.6465C27.5907 38.5177 27.6944 38.4088 27.8195 38.3293C28.0233 38.2529 28.1666 38.4599 28.138 38.7911Z"/><path fill="#E0E0E0" d="M27.7685 27.5234L27.3927 27.6668L26.2844 41.25L26.7334 40.2404L27.7685 27.5234Z"/><path fill="#E0E0E0" d="M31.1444 26.2588L30.7654 26.4021L29.7303 39.1191L30.0361 39.8453L31.1444 26.2588Z"/><path fill="#EBEBEB" d="M31.1285 18.673V19.4979C30.5871 19.9947 30.1348 19.8355 29.1985 20.6444C28.2622 21.4534 27.8035 22.4184 27.2876 22.7973V21.9725L26.9691 22.1572V29.3708C26.9691 29.6129 27.0997 29.7371 27.2621 29.6415L29.5202 28.3389C29.613 28.2757 29.6859 28.1873 29.7304 28.0842L31.3801 24.463C31.4324 24.3512 31.4606 24.2297 31.4629 24.1063V18.4883L31.1285 18.673ZM31.1285 23.1318C29.9406 24.8739 29.3991 25.8707 27.278 27.0969V24.3611C27.8131 23.8738 28.2622 24.0235 29.1889 23.2241C30.1157 22.4247 30.5934 21.4406 31.1189 21.0712L31.1285 23.1318Z"/><path fill="#E0E0E0" d="M27.2781 24.3607C27.8131 23.8735 28.2622 24.0232 29.189 23.2238C30.1158 22.4244 30.5935 21.4403 31.119 21.0708V19.5103C30.5776 20.0071 30.1253 19.8478 29.189 20.6568C28.2526 21.4657 27.794 22.4307 27.2781 22.8097V24.3607Z"/><path fill="#000" d="M27.2781 24.3607C27.8131 23.8735 28.2622 24.0232 29.189 23.2238C30.1158 22.4244 30.5935 21.4403 31.119 21.0708V19.5103C30.5776 20.0071 30.1253 19.8478 29.189 20.6568C28.2526 21.4657 27.794 22.4307 27.2781 22.8097V24.3607Z" opacity=".1"/><path fill="#E0E0E0" d="M20.539 49.4478H20.3574V57.8302H20.539V49.4478Z"/><path fill="#F0F0F0" d="M20.5421 59.19H20.1823V58.1772C20.1798 58.0362 20.2113 57.8967 20.2739 57.7704C20.3365 57.644 20.4285 57.5346 20.5421 57.4511L22.5741 56.2791C23.1091 55.9606 23.5614 55.0051 23.5614 54.1516V49.2024C23.5614 48.747 23.434 48.403 23.2206 48.2788C23.1458 48.2438 23.0631 48.2292 22.9809 48.2365C22.8987 48.2438 22.8199 48.2726 22.7524 48.3202L20.2045 49.782L20.023 49.4636L22.5709 48.0017C22.6916 47.9204 22.8322 47.8735 22.9775 47.8662C23.1229 47.8589 23.2675 47.8915 23.3957 47.9603C23.7142 48.1514 23.9181 48.5973 23.9181 49.196V54.1421C23.9181 55.1325 23.4053 56.2026 22.7492 56.5816L20.7205 57.7537C20.6627 57.8059 20.6166 57.8698 20.5853 57.9412C20.554 58.0126 20.5382 58.0898 20.539 58.1677L20.5421 59.19Z"/><path fill="#E0E0E0" d="M20.3733 63.7379H20.3511C20.16 63.8494 20.0039 63.7379 20.0039 63.4768V59.018L20.7237 58.604V63.0628C20.7222 63.1949 20.6897 63.3248 20.6289 63.4421C20.568 63.5593 20.4805 63.6607 20.3733 63.7379Z"/><path fill="#FAFAFA" d="M20.574 59.5247C20.5748 59.6105 20.5563 59.6954 20.5199 59.7731C20.4836 59.8508 20.4302 59.9194 20.3638 59.9737C20.2459 60.0406 20.1504 59.9482 20.1504 59.7699C20.1485 59.6836 20.1669 59.598 20.2039 59.5201C20.2409 59.4421 20.2957 59.3739 20.3638 59.3208C20.4784 59.2508 20.574 59.3431 20.574 59.5247Z"/><path fill="#F0F0F0" d="M24.934 58.0724C24.9024 58.073 24.8712 58.065 24.8437 58.0493C24.8162 58.0336 24.7935 58.0108 24.778 57.9832C24.7535 57.9418 24.7465 57.8924 24.7584 57.8458C24.7704 57.7992 24.8003 57.7593 24.8417 57.7348L28.8959 55.3971C29.0349 55.2801 29.1461 55.1337 29.2216 54.9685C29.297 54.8032 29.3348 54.6233 29.3323 54.4416V48.9415C29.328 48.6955 29.3818 48.452 29.4891 48.2307C29.5964 48.0094 29.7544 47.8165 29.9501 47.6675L33.1891 45.798C33.2624 45.7504 33.3471 45.7232 33.4345 45.7192C33.5218 45.7153 33.6086 45.7348 33.6859 45.7757C33.7945 45.8526 33.881 45.9565 33.9369 46.0772C33.9928 46.1979 34.016 46.3312 34.0044 46.4637V51.1422C34.0044 51.3492 34.0649 51.4798 34.1254 51.5148C34.1482 51.5236 34.1729 51.5262 34.1969 51.5223C34.221 51.5184 34.2436 51.5081 34.2624 51.4925L35.8548 50.5657C35.8755 50.5537 35.8983 50.546 35.922 50.5429C35.9457 50.5398 35.9698 50.5413 35.9929 50.5476C36.016 50.5538 36.0376 50.5645 36.0565 50.5791C36.0754 50.5937 36.0913 50.6119 36.1032 50.6326C36.1151 50.653 36.1228 50.6757 36.1259 50.6991C36.129 50.7226 36.1273 50.7464 36.1211 50.7692C36.1149 50.792 36.1042 50.8134 36.0896 50.832C36.0751 50.8507 36.0569 50.8663 36.0363 50.8778L34.4439 51.8078C34.3707 51.8559 34.2857 51.8832 34.1981 51.8865C34.1106 51.8899 34.0238 51.8693 33.9471 51.8269C33.8385 51.7508 33.7519 51.6474 33.696 51.5272C33.6401 51.407 33.6169 51.2742 33.6286 51.1422V46.4637C33.6286 46.2535 33.5681 46.1261 33.5076 46.091C33.4471 46.056 33.4311 46.091 33.3738 46.1101L30.1348 47.9796C29.9951 48.0962 29.8832 48.2424 29.8071 48.4077C29.7311 48.573 29.6929 48.7532 29.6953 48.9351V54.4289C29.6996 54.6748 29.6458 54.9183 29.5385 55.1396C29.4312 55.361 29.2732 55.5539 29.0775 55.7028L25.0264 58.0437C24.9987 58.0613 24.9668 58.0712 24.934 58.0724Z"/><path fill="#E0E0E0" d="M36.0745 53.8333C35.7337 54.0276 35.4598 53.8333 35.4598 53.3651V48.5656C35.4629 48.3348 35.5201 48.1079 35.6269 47.9032C35.7336 47.6985 35.887 47.5218 36.0745 47.3872C36.4153 47.1897 36.6924 47.3872 36.6924 47.8522V52.6517C36.6889 52.8833 36.6312 53.1108 36.5239 53.316C36.4166 53.5212 36.2627 53.6984 36.0745 53.8333Z"/><path fill="#E0E0E0" d="M32.4757 47.0974L30.8674 48.0242C30.6062 48.1739 30.3928 48.0242 30.3928 47.6675V47.5719C30.3961 47.3947 30.4408 47.2206 30.5231 47.0636C30.6055 46.9066 30.7234 46.7709 30.8674 46.6674L32.4757 45.7407C32.7369 45.5878 32.9471 45.7407 32.9471 46.0974V46.1929C32.9443 46.37 32.9003 46.5439 32.8185 46.701C32.7367 46.858 32.6193 46.9938 32.4757 47.0974Z"/><path fill="#E0E0E0" d="M27.8322 57.8269L26.2621 58.7314C26.0328 58.8652 25.8513 58.7314 25.8513 58.4129V56.3046C25.8531 56.1504 25.8912 55.9988 25.9626 55.8621C26.034 55.7254 26.1366 55.6075 26.2621 55.5179L27.8322 54.6102C28.0583 54.4797 28.2431 54.6102 28.2431 54.9287V57.0466C28.2393 57.1995 28.2002 57.3495 28.1289 57.4848C28.0577 57.6202 27.9561 57.7372 27.8322 57.8269Z"/><path fill="#E0E0E0" d="M25.4914 58.4735C25.2939 58.5882 25.1315 58.2761 25.1315 57.776C25.1315 57.276 25.2939 56.7792 25.4914 56.6645L25.8512 56.4575V58.2665L25.4914 58.4735Z"/><path fill="#000" d="M25.5933 58.413L25.8512 58.2665V56.4575L25.5933 56.6072V58.413Z" opacity=".1"/><path fill="#FAFAFA" d="M28.0328 56.0597C28.0347 56.1444 28.017 56.2284 27.9811 56.3052C27.9452 56.382 27.8921 56.4495 27.8258 56.5023C27.708 56.5692 27.6156 56.4801 27.6156 56.3017C27.6136 56.2166 27.6316 56.1323 27.6681 56.0554C27.7046 55.9785 27.7586 55.9112 27.8258 55.859C27.9405 55.7921 28.0328 55.8909 28.0328 56.0597Z"/><path fill="#FAFAFA" d="M36.2847 50.4764C36.2867 50.562 36.2687 50.6468 36.2323 50.7242C36.1958 50.8016 36.1418 50.8694 36.0745 50.9223C35.9599 50.9892 35.8643 50.8968 35.8643 50.7185C35.8631 50.6335 35.8814 50.5494 35.9178 50.4726C35.9543 50.3959 36.0079 50.3285 36.0745 50.2758C36.1924 50.2216 36.2847 50.314 36.2847 50.4764Z"/><path fill="#F0F0F0" d="M35.4121 18.6728C35.3203 18.6737 35.23 18.6495 35.1509 18.6027C35.0233 18.5063 34.9227 18.3785 34.8591 18.2317C34.7955 18.085 34.7709 17.9242 34.7879 17.7651C34.7879 17.1282 35.1286 16.4116 35.5618 16.1727C35.6484 16.1156 35.7488 16.0829 35.8524 16.0778C35.9561 16.0728 36.0592 16.0957 36.151 16.1441C36.2794 16.2405 36.3804 16.3688 36.444 16.5163C36.5077 16.6637 36.5318 16.8252 36.514 16.9848C36.5181 17.2922 36.4503 17.5963 36.3159 17.8728C36.1815 18.1493 35.9843 18.3906 35.7401 18.5773C35.6411 18.6375 35.5279 18.6705 35.4121 18.6728ZM35.8898 16.4434C35.8367 16.4466 35.7852 16.463 35.7401 16.4912C35.5511 16.6481 35.3997 16.8455 35.2972 17.0687C35.1946 17.292 35.1436 17.5354 35.1477 17.7811C35.1477 18.0995 35.2433 18.2556 35.3325 18.3066C35.3695 18.3229 35.4103 18.3292 35.4505 18.3248C35.4908 18.3203 35.5292 18.3052 35.5618 18.2811C35.749 18.1262 35.8994 17.9314 36.0019 17.711C36.1044 17.4906 36.1564 17.2502 36.1541 17.0071C36.1541 16.6887 36.0586 16.5326 35.9694 16.4816C35.9503 16.4546 35.922 16.4353 35.8898 16.4275V16.4434Z"/><path fill="#F0F0F0" d="M36.1988 17.8831C36.1988 18.8958 36.1605 19.9659 36.1828 20.9278C36.2039 21.3466 36.3056 21.7576 36.4822 22.138C36.6446 22.4565 36.8803 22.7081 37.0555 23.0393C37.2587 23.3749 37.4222 23.7329 37.5428 24.1062C37.6973 24.5671 37.7505 25.056 37.6988 25.5394C37.6065 26.6254 37.0109 27.8643 36.3325 28.2401C37.0109 27.8261 37.5682 26.5904 37.6319 25.5649C37.6733 25.1099 37.6112 24.6516 37.4504 24.224C37.3228 23.872 37.1539 23.5363 36.9472 23.224C36.7593 22.9055 36.53 22.6953 36.3389 22.3577C36.1362 21.9611 36.0149 21.528 35.9822 21.0838C35.9344 20.0583 35.9472 19.0551 35.928 18.0423C35.927 17.9866 35.9385 17.9313 35.9616 17.8806C35.9848 17.8299 36.019 17.785 36.0618 17.7493C36.1351 17.7047 36.1988 17.7493 36.1988 17.8735V17.8831Z"/><path fill="#F0F0F0" d="M35.3739 18.3605C35.3548 19.3987 35.3739 20.3828 35.3198 21.4657C35.2667 22.0389 35.1481 22.6042 34.9662 23.1505C34.772 23.7078 34.5427 24.1887 34.3548 24.7174C34.1585 25.2388 33.9905 25.7703 33.8515 26.3098C33.7031 26.8127 33.6428 27.3374 33.6732 27.8608C33.7337 28.8163 34.2911 29.4055 34.9694 29.0392C34.2911 29.4437 33.6955 28.8927 33.6031 27.9118C33.5631 27.3696 33.6159 26.8246 33.7592 26.3002C33.8913 25.7512 34.054 25.21 34.2465 24.6792C34.4216 24.1441 34.6573 23.6186 34.8197 23.1122C34.981 22.6079 35.0815 22.0862 35.1191 21.558C35.1414 20.5676 35.1191 19.542 35.1191 18.5325C35.1181 18.4776 35.1296 18.4233 35.1528 18.3737C35.176 18.324 35.2102 18.2803 35.2529 18.2458C35.3293 18.2012 35.3898 18.2458 35.3898 18.3732L35.3739 18.3605Z"/><path fill="#F0F0F0" d="M36.7864 19.2347L35.1506 20.1787L35.3305 20.4904L36.9663 19.5464L36.7864 19.2347Z"/><path fill="#F0F0F0" d="M37.5937 19.3193L36.3484 20.0455V19.3607L37.5937 18.6282C37.7434 18.5422 37.8644 18.6282 37.8644 18.8129C37.8621 18.9126 37.8364 19.0104 37.7894 19.0984C37.7423 19.1863 37.6753 19.262 37.5937 19.3193Z"/><path fill="#F0F0F0" d="M36.2179 43.2694L35.358 43.7662V31.4377L36.2179 30.9409V43.2694Z"/><path fill="#EBEBEB" d="M37.7083 34.7018L33.9375 36.8802V34.0139L37.7083 31.8354V34.7018Z"/><path fill="#E0E0E0" d="M37.7083 34.0938L33.9375 36.2722V36.8805L37.7083 34.7021V34.0938Z"/><path fill="#000" d="M37.7083 34.0938L33.9375 36.2722V36.8805L37.7083 34.7021V34.0938Z" opacity=".1"/><path fill="#E0E0E0" d="M38.2306 33.6193L37.7083 33.9218V32.6192L38.2306 32.3135V33.6193Z"/><path fill="#000" d="M37.8835 33.8197L37.7083 33.9216V32.619L37.8835 32.5171V33.8197Z" opacity=".1"/><path fill="#E0E0E0" d="M34.7687 31.9983V32.4314L34.3643 32.6671V32.9314L36.2178 31.8581V31.597V31.1606L34.7687 31.9983Z"/><path fill="#E0E0E0" d="M36.2178 42.0683L35.584 42.4346V42.2276L36.2178 41.8613V42.0683Z"/><path fill="#E0E0E0" d="M36.2178 40.2373L35.584 40.6067V40.3965L36.2178 40.0303V40.2373Z"/><path fill="#E0E0E0" d="M36.2178 38.4089L35.584 38.7752V38.565L36.2178 38.1987V38.4089Z"/><path fill="#E0E0E0" d="M36.2178 36.5779L35.584 36.9441V36.7371L36.2178 36.3677V36.5779Z"/><path fill="#E0E0E0" d="M42.2021 46.8043C42.2013 46.7492 42.2132 46.6946 42.2369 46.6449C42.2607 46.5951 42.2957 46.5516 42.3391 46.5176L48.4508 42.9825C48.5272 42.9379 48.5877 42.9984 48.5877 43.1131C48.5886 43.1682 48.5767 43.2227 48.5529 43.2725C48.5291 43.3222 48.4942 43.3658 48.4508 43.3997L42.3263 46.9349C42.2626 46.9731 42.2021 46.9189 42.2021 46.8043Z"/><path fill="#E0E0E0" d="M42.2117 47.3105L42.75 46.992V45.9761L42.2117 46.2946C41.9575 46.4265 41.673 46.4891 41.3869 46.4761C41.2673 46.4799 41.1509 46.515 41.0493 46.578C40.826 46.7252 40.6407 46.9231 40.5084 47.1556C40.3761 47.3881 40.3006 47.6485 40.2881 47.9156C40.2881 48.4093 40.6289 48.6131 41.0493 48.3711C41.1769 48.2936 41.291 48.1957 41.3869 48.0812C41.6232 47.7859 41.9011 47.5263 42.2117 47.3105Z"/><g opacity=".1"><path fill="#000" d="M42.2117 47.3105L42.75 46.992V45.9761L42.2117 46.2946C41.9575 46.4265 41.673 46.4891 41.3869 46.4761C41.2673 46.4799 41.1509 46.515 41.0493 46.578C40.826 46.7252 40.6407 46.9231 40.5084 47.1556C40.3761 47.3881 40.3006 47.6485 40.2881 47.9156C40.2881 48.4093 40.6289 48.6131 41.0493 48.3711C41.1769 48.2936 41.291 48.1957 41.3869 48.0812C41.6232 47.7859 41.9011 47.5263 42.2117 47.3105Z"/></g><path fill="#E0E0E0" d="M48.6132 40.457C48.6132 40.3423 48.5527 40.285 48.4763 40.3264L42.3518 43.8648C42.308 43.8984 42.2728 43.9418 42.249 43.9917C42.2252 44.0415 42.2135 44.0962 42.2149 44.1514C42.2149 44.266 42.2754 44.3234 42.3518 44.2788L48.4763 40.7436C48.5201 40.71 48.5553 40.6665 48.5791 40.6167C48.6029 40.5669 48.6146 40.5122 48.6132 40.457Z"/><path fill="#E0E0E0" d="M48.6037 40.9696L48.0686 41.2881V40.269L48.6037 39.9505C48.9142 39.7346 49.1921 39.475 49.4285 39.1797C49.5244 39.0653 49.6385 38.9674 49.7661 38.8899C50.1865 38.6479 50.5273 38.8517 50.5273 39.3485C50.5143 39.6152 50.4386 39.8749 50.3063 40.1068C50.174 40.3387 49.989 40.5361 49.7661 40.683C49.6645 40.746 49.548 40.7811 49.4285 40.7849C49.1423 40.7745 48.8582 40.8381 48.6037 40.9696Z"/><g opacity=".1"><path fill="#000" d="M48.6037 40.9696L48.0686 41.2881V40.269L48.6037 39.9505C48.9142 39.7346 49.1921 39.475 49.4285 39.1797C49.5244 39.0653 49.6385 38.9674 49.7661 38.8899C50.1865 38.6479 50.5273 38.8517 50.5273 39.3485C50.5143 39.6152 50.4386 39.8749 50.3063 40.1068C50.174 40.3387 49.989 40.5361 49.7661 40.683C49.6645 40.746 49.548 40.7811 49.4285 40.7849C49.1423 40.7745 48.8582 40.8381 48.6037 40.9696Z"/></g><path fill="#EBEBEB" d="M47.3871 45.489V39.6831L45.7341 40.6354V49.3682L46.145 49.1293L47.3871 45.489Z"/><path fill="#000" d="M45.9794 49.2247V40.4951L45.7341 40.6353V49.368L45.9794 49.2247Z" opacity=".1"/><path fill="#EBEBEB" d="M43.3359 47.8268V42.0209L44.992 41.0654V49.7982L44.578 50.0339L43.3359 47.8268Z"/><path fill="#000" d="M44.7437 49.9384V41.2087L44.9921 41.0654V49.7982L44.7437 49.9384Z" opacity=".1"/><path fill="#E0E0E0" d="M44.113 45.9379C44.0302 45.9857 43.9601 45.922 43.9601 45.7914C43.9606 45.7304 43.9745 45.6701 44.0009 45.6151C44.0273 45.56 44.0656 45.5115 44.113 45.4729C44.1958 45.4252 44.2659 45.4921 44.2659 45.6226C44.2655 45.6832 44.2515 45.743 44.2251 45.7975C44.1986 45.8521 44.1603 45.9 44.113 45.9379Z"/><path fill="#E0E0E0" d="M46.6386 44.4792C46.5526 44.5269 46.4857 44.4792 46.4857 44.3327C46.4845 44.2713 46.4977 44.2105 46.5242 44.1552C46.5508 44.0999 46.59 44.0516 46.6386 44.0142C46.7214 43.9632 46.7915 44.0301 46.7915 44.1607C46.792 44.2219 46.7785 44.2825 46.752 44.3377C46.7255 44.3929 46.6867 44.4413 46.6386 44.4792Z"/><path fill="#E0E0E0" d="M44.113 43.3169C44.0302 43.3646 43.9601 43.2978 43.9601 43.1704C43.9606 43.1093 43.9745 43.0491 44.0009 42.994C44.0273 42.9389 44.0656 42.8904 44.113 42.8519C44.1958 42.8041 44.2659 42.871 44.2659 42.9984C44.2659 43.0595 44.2522 43.1199 44.2257 43.175C44.1993 43.2302 44.1608 43.2787 44.113 43.3169Z"/><path fill="#E0E0E0" d="M46.6386 41.8581C46.5526 41.9059 46.4857 41.8422 46.4857 41.7116C46.4845 41.6502 46.4977 41.5894 46.5242 41.5341C46.5508 41.4788 46.59 41.4305 46.6386 41.3931C46.7214 41.3421 46.7915 41.409 46.7915 41.5396C46.7915 41.6008 46.7778 41.6611 46.7513 41.7163C46.7249 41.7714 46.6863 41.8199 46.6386 41.8581Z"/><path fill="#F0F0F0" d="M7.00664 42.8455L6.64038 43.0557V38.0237L7.00664 37.8135V42.8455Z"/><path fill="#E0E0E0" d="M6.33145 36.998V38.2242L7.31237 37.6573V36.4311C7.34173 35.7432 7.43665 35.0596 7.59582 34.3896C7.6543 34.1175 7.68419 33.84 7.685 33.5616C7.685 32.6061 7.29963 32.0488 6.82191 32.3227C6.34419 32.5966 5.95882 33.5966 5.95882 34.5521C5.95628 34.7961 5.98736 35.0394 6.05118 35.275C6.2221 35.834 6.31639 36.4136 6.33145 36.998Z"/><g opacity=".1"><path fill="#000" d="M6.33145 36.998V38.2242L7.31237 37.6573V36.4311C7.34173 35.7432 7.43665 35.0596 7.59582 34.3896C7.6543 34.1175 7.68419 33.84 7.685 33.5616C7.685 32.6061 7.29963 32.0488 6.82191 32.3227C6.34419 32.5966 5.95882 33.5966 5.95882 34.5521C5.95628 34.7961 5.98736 35.0394 6.05118 35.275C6.2221 35.834 6.31639 36.4136 6.33145 36.998Z"/></g><path fill="#EBEBEB" d="M7.31235 38.3547L6.33142 38.9216V38.2241L7.31235 37.6572V38.3547Z"/><path fill="#F5F5F5" d="M7.61491 48.3553L6.02887 49.2725V42.4729L7.61491 41.5557V48.3553Z"/><path fill="#E0E0E0" d="M7.427 48.4667L7.61491 48.3553V41.5557L7.427 41.6639V48.4667Z"/><path fill="#E0E0E0" d="M6.02887 49.2726L6.21996 49.1644V42.3647L6.02887 42.473V49.2726Z"/><path fill="#F0F0F0" d="M9.84751 41.2022L9.48444 41.4156V36.3835L9.84751 36.1733V41.2022Z"/><path fill="#E0E0E0" d="M9.17548 35.3548V36.5842L10.1564 36.0173V34.7879C10.1853 34.1002 10.2792 33.4166 10.4367 32.7465C10.4979 32.4758 10.5289 32.1991 10.529 31.9216C10.529 30.9662 10.1437 30.4056 9.66594 30.6827C9.18822 30.9598 8.80285 31.9566 8.80285 32.9121C8.79916 33.155 8.82918 33.3972 8.89203 33.6319C9.06369 34.1908 9.15903 34.7704 9.17548 35.3548Z"/><g opacity=".1"><path fill="#000" d="M9.17548 35.3548V36.5842L10.1564 36.0173V34.7879C10.1853 34.1002 10.2792 33.4166 10.4367 32.7465C10.4979 32.4758 10.5289 32.1991 10.529 31.9216C10.529 30.9662 10.1437 30.4056 9.66594 30.6827C9.18822 30.9598 8.80285 31.9566 8.80285 32.9121C8.79916 33.155 8.82918 33.3972 8.89203 33.6319C9.06369 34.1908 9.15903 34.7704 9.17548 35.3548Z"/></g><path fill="#EBEBEB" d="M10.1564 36.7114L9.17548 37.2783V36.584L10.1564 36.0171V36.7114Z"/><path fill="#F5F5F5" d="M10.2711 46.8235L9.06085 47.521V40.7214L10.2711 40.0239V46.8235Z"/><path fill="#E0E0E0" d="M10.0832 46.9318L10.2711 46.8235V40.0239L10.0832 40.1322V46.9318Z"/><path fill="#E0E0E0" d="M9.06085 47.5207L9.24876 47.4124V40.6128L9.06085 40.7211V47.5207Z"/><path fill="#F0F0F0" d="M12.6915 39.5618L12.3253 39.772V34.74L12.6915 34.5298V39.5618Z"/><path fill="#E0E0E0" d="M12.0195 33.7148V34.941L13.0005 34.3741V33.1479C13.0289 32.4601 13.1228 31.7765 13.2807 31.1064C13.3404 30.8344 13.3714 30.5569 13.3731 30.2784C13.3731 29.3229 12.9845 28.7656 12.51 29.0395C12.0355 29.3134 11.6469 30.3134 11.6469 31.2689C11.6432 31.5128 11.6733 31.7561 11.7361 31.9918C11.908 32.5507 12.0034 33.1303 12.0195 33.7148Z"/><g opacity=".1"><path fill="#000" d="M12.0195 33.7148V34.941L13.0005 34.3741V33.1479C13.0289 32.4601 13.1228 31.7765 13.2807 31.1064C13.3404 30.8344 13.3714 30.5569 13.3731 30.2784C13.3731 29.3229 12.9845 28.7656 12.51 29.0395C12.0355 29.3134 11.6469 30.3134 11.6469 31.2689C11.6432 31.5128 11.6733 31.7561 11.7361 31.9918C11.908 32.5507 12.0034 33.1303 12.0195 33.7148Z"/></g><path fill="#EBEBEB" d="M13.0005 35.0715L12.0195 35.6384V34.9409L13.0005 34.374V35.0715Z"/><path fill="#F5F5F5" d="M13.0196 45.2376L11.9973 45.8268V39.0272L13.0196 38.438V45.2376Z"/><path fill="#E0E0E0" d="M12.8317 45.3459L13.0196 45.2376V38.438L12.8317 38.5463V45.3459Z"/><path fill="#E0E0E0" d="M11.9973 45.8263L12.1852 45.7181V38.9185L11.9973 39.0267V45.8263Z"/><path fill="#F0F0F0" d="M15.5324 37.9217L15.1693 38.1319V33.0998L15.5324 32.8896V37.9217Z"/><path fill="#E0E0E0" d="M14.8604 32.0745V33.3006L15.8413 32.7337V31.5076C15.8701 30.8164 15.965 30.1296 16.1248 29.4565C16.1833 29.1844 16.2131 28.9069 16.2139 28.6285C16.2139 27.673 15.8286 27.1157 15.3509 27.3896C14.8731 27.6635 14.4878 28.6635 14.4878 29.619C14.4838 29.8631 14.5149 30.1066 14.5801 30.3419C14.7519 30.904 14.8462 31.4869 14.8604 32.0745Z"/><g opacity=".1"><path fill="#000" d="M14.8604 32.0745V33.3006L15.8413 32.7337V31.5076C15.8701 30.8164 15.965 30.1296 16.1248 29.4565C16.1833 29.1844 16.2131 28.9069 16.2139 28.6285C16.2139 27.673 15.8286 27.1157 15.3509 27.3896C14.8731 27.6635 14.4878 28.6635 14.4878 29.619C14.4838 29.8631 14.5149 30.1066 14.5801 30.3419C14.7519 30.904 14.8462 31.4869 14.8604 32.0745Z"/></g><path fill="#EBEBEB" d="M15.8413 33.4314L14.8604 33.9983V33.3008L15.8413 32.7339V33.4314Z"/><path fill="#F5F5F5" d="M15.7681 43.648L14.9337 44.1289V37.3293L15.7681 36.8516V43.648Z"/><path fill="#E0E0E0" d="M15.5802 43.7594L15.7681 43.648V36.8516L15.5802 36.9598V43.7594Z"/><path fill="#E0E0E0" d="M14.9337 44.1291L15.1216 44.0208V37.2212L14.9337 37.3295V44.1291Z"/><path fill="#F0F0F0" d="M40.9154 22.2591L40.5492 22.4693V17.4373L40.9154 17.2271V22.2591Z"/><path fill="#E0E0E0" d="M41.597 12.9781C41.5951 13.2566 41.5642 13.5341 41.5046 13.8061C41.3473 14.4753 41.2524 15.1577 41.2212 15.8444V17.0706L40.2403 17.6375V16.3986C40.2241 15.8174 40.1298 15.2411 39.96 14.6851C39.8944 14.4499 39.8633 14.2064 39.8676 13.9622C39.8672 13.6822 39.9004 13.4031 39.9664 13.1309L41.4983 12.2583C41.5676 12.4918 41.6009 12.7345 41.597 12.9781Z"/><g opacity=".1"><path fill="#000" d="M41.597 12.9781C41.5951 13.2566 41.5642 13.5341 41.5046 13.8061C41.3473 14.4753 41.2524 15.1577 41.2212 15.8444V17.0706L40.2403 17.6375V16.3986C40.2241 15.8174 40.1298 15.2411 39.96 14.6851C39.8944 14.4499 39.8633 14.2064 39.8676 13.9622C39.8672 13.6822 39.9004 13.4031 39.9664 13.1309L41.4983 12.2583C41.5676 12.4918 41.6009 12.7345 41.597 12.9781Z"/></g><path fill="#EBEBEB" d="M41.2244 17.7683L40.2435 18.3352V17.6377L41.2244 17.0708V17.7683Z"/><path fill="#F5F5F5" d="M41.5238 20.9722V26.9087L41.3359 27.8769L40.1288 28.5743L39.9377 27.8259V21.8894L41.5238 20.9722Z"/><path fill="#E0E0E0" d="M41.5238 20.9722V26.9087L41.3359 27.8769V21.0805L41.5238 20.9722Z"/><path fill="#E0E0E0" d="M40.1288 21.7778V28.5743L39.9377 27.8258V21.8893L40.1288 21.7778Z"/><path fill="#F0F0F0" d="M43.7595 20.6185L43.3932 20.8287V15.7966L43.7595 15.5864V20.6185Z"/><path fill="#E0E0E0" d="M44.4379 11.3382C44.4374 11.6167 44.4064 11.8944 44.3455 12.1662C44.1909 12.8358 44.0971 13.5181 44.0653 14.2045V15.4434L43.0843 16.0071V14.7714C43.0685 14.1903 42.9742 13.6139 42.8041 13.058C42.7388 12.8227 42.7077 12.5792 42.7117 12.335C42.7118 12.0552 42.7439 11.7763 42.8073 11.5038L44.3455 10.6152C44.4108 10.8505 44.4419 11.094 44.4379 11.3382Z"/><g opacity=".1"><path fill="#000" d="M44.4379 11.3382C44.4374 11.6167 44.4064 11.8944 44.3455 12.1662C44.1909 12.8358 44.0971 13.5181 44.0653 14.2045V15.4434L43.0843 16.0071V14.7714C43.0685 14.1903 42.9742 13.6139 42.8041 13.058C42.7388 12.8227 42.7077 12.5792 42.7117 12.335C42.7118 12.0552 42.7439 11.7763 42.8073 11.5038L44.3455 10.6152C44.4108 10.8505 44.4419 11.094 44.4379 11.3382Z"/></g><path fill="#EBEBEB" d="M44.0653 16.1281L43.0844 16.6919V15.9976L44.0653 15.4307V16.1281Z"/><path fill="#F5F5F5" d="M44.1799 19.4404V25.3769L43.9952 26.3419L43.1608 26.8229L42.9697 26.0744V20.1379L44.1799 19.4404Z"/><path fill="#E0E0E0" d="M44.1799 19.4404V25.3769L43.9952 26.3419V19.5487L44.1799 19.4404Z"/><path fill="#E0E0E0" d="M43.1608 20.0293V26.8225L42.9697 26.0741V20.1376L43.1608 20.0293Z"/><path fill="#F0F0F0" d="M46.6004 18.9754L46.2373 19.1856V14.1567L46.6004 13.9434V18.9754Z"/><path fill="#E0E0E0" d="M47.2819 9.71054C47.2815 9.99015 47.2505 10.2689 47.1896 10.5418C47.0322 11.211 46.9373 11.8933 46.9061 12.5801V13.7871L45.9284 14.354V13.1279C45.913 12.5464 45.8176 11.9698 45.6449 11.4144C45.5811 11.1799 45.55 10.9377 45.5526 10.6946C45.5538 10.4137 45.5869 10.1337 45.6513 9.86022L47.1768 8.97803C47.2518 9.21478 47.2873 9.46226 47.2819 9.71054Z"/><g opacity=".1"><path fill="#000" d="M47.2819 9.71054C47.2815 9.99015 47.2505 10.2689 47.1896 10.5418C47.0322 11.211 46.9373 11.8933 46.9061 12.5801V13.7871L45.9284 14.354V13.1279C45.913 12.5464 45.8176 11.9698 45.6449 11.4144C45.5811 11.1799 45.55 10.9377 45.5526 10.6946C45.5538 10.4137 45.5869 10.1337 45.6513 9.86022L47.1768 8.97803C47.2518 9.21478 47.2873 9.46226 47.2819 9.71054Z"/></g><path fill="#EBEBEB" d="M46.9093 14.4848L45.9284 15.0517V14.3542L46.9093 13.7905V14.4848Z"/><path fill="#F5F5F5" d="M46.9285 17.8511V23.7876L46.7406 24.7558L46.094 25.1284L45.9061 24.38V18.4435L46.9285 17.8511Z"/><path fill="#E0E0E0" d="M46.9284 17.8511V23.7876L46.7405 24.7558V17.9625L46.9284 17.8511Z"/><path fill="#E0E0E0" d="M46.094 18.335V25.1282L45.9061 24.3798V18.4432L46.094 18.335Z"/><path fill="#F0F0F0" d="M49.4444 17.3352L49.0782 17.5454V12.5134L49.4444 12.3032V17.3352Z"/><path fill="#E0E0E0" d="M50.1228 8.0545C50.1223 8.33306 50.0913 8.61073 50.0305 8.88255C49.8759 9.55216 49.7821 10.2344 49.7502 10.9208V12.147L48.7693 12.7139V11.4877C48.7531 10.9066 48.6588 10.3303 48.489 9.7743C48.4237 9.53899 48.3926 9.29552 48.3966 9.05135C48.3962 8.77132 48.4294 8.49225 48.4954 8.22011L50.0432 7.33154C50.1042 7.56748 50.131 7.81095 50.1228 8.0545Z"/><g opacity=".1"><path fill="#000" d="M50.1228 8.0545C50.1223 8.33306 50.0913 8.61073 50.0305 8.88255C49.8759 9.55216 49.7821 10.2344 49.7502 10.9208V12.147L48.7693 12.7139V11.4877C48.7531 10.9066 48.6588 10.3303 48.489 9.7743C48.4237 9.53899 48.3926 9.29552 48.3966 9.05135C48.3962 8.77132 48.4294 8.49225 48.4954 8.22011L50.0432 7.33154C50.1042 7.56748 50.131 7.81095 50.1228 8.0545Z"/></g><path fill="#EBEBEB" d="M49.7533 12.8444L48.7724 13.4113V12.7139L49.7533 12.147V12.8444Z"/><path fill="#F5F5F5" d="M49.6801 16.2651V22.2017L49.489 23.1698L49.0368 23.431L48.8457 22.6826V16.746L49.6801 16.2651Z"/><path fill="#E0E0E0" d="M49.6801 16.2651V22.2017L49.489 23.1698V16.3734L49.6801 16.2651Z"/><path fill="#E0E0E0" d="M49.0368 16.6377V23.4309L48.8457 22.6825V16.746L49.0368 16.6377Z"/><path fill="#F0F0F0" d="M8.0576 70.181L6.02887 71.3498V52.8683L8.0576 51.6963V70.181Z"/><path fill="#FAFAFA" d="M6.47475 71.0951L6.02887 71.3499V52.8683L6.47475 52.6104V71.0951Z"/><path fill="#E0E0E0" d="M8.05762 70.181L7.61493 70.4358V51.9511L8.05762 51.6963V70.181Z"/><path fill="#E0E0E0" d="M7.33029 53.5499C7.42111 53.254 7.3666 52.9748 7.20853 52.9263C7.05047 52.8777 6.84871 53.0783 6.75789 53.3743C6.66707 53.6702 6.72158 53.9495 6.87965 53.998C7.03771 54.0465 7.23947 53.8459 7.33029 53.5499Z"/><path fill="#E0E0E0" d="M6.96004 69.7071L5.98602 70.2686L6.07668 70.4258L7.05069 69.8644L6.96004 69.7071Z"/><path fill="#E0E0E0" d="M6.96598 68.6474L5.99207 69.209L6.08275 69.3662L7.05667 68.8046L6.96598 68.6474Z"/><path fill="#E0E0E0" d="M6.96482 67.5942L5.99091 68.1558L6.08159 68.313L7.05551 67.7514L6.96482 67.5942Z"/><path fill="#E0E0E0" d="M6.96372 66.5375L5.98981 67.0991L6.08049 67.2564L7.05441 66.6948L6.96372 66.5375Z"/><path fill="#E0E0E0" d="M6.96421 65.4872L5.9903 66.0488L6.08098 66.2061L7.0549 65.6445L6.96421 65.4872Z"/><path fill="#E0E0E0" d="M6.96311 64.4335L5.9892 64.9951L6.07988 65.1524L7.0538 64.5908L6.96311 64.4335Z"/><path fill="#E0E0E0" d="M6.96202 63.3803L5.9881 63.9419L6.07878 64.0992L7.0527 63.5375L6.96202 63.3803Z"/><path fill="#E0E0E0" d="M6.96568 62.33L5.99176 62.8916L6.08244 63.0489L7.05636 62.4872L6.96568 62.33Z"/><path fill="#E0E0E0" d="M6.95876 61.2789L5.98474 61.8403L6.0754 61.9976L7.04942 61.4362L6.95876 61.2789Z"/><path fill="#E0E0E0" d="M6.96342 60.2201L5.9895 60.7817L6.08019 60.939L7.05411 60.3774L6.96342 60.2201Z"/><path fill="#E0E0E0" d="M6.96391 59.1693L5.98999 59.731L6.08068 59.8882L7.05459 59.3266L6.96391 59.1693Z"/><path fill="#E0E0E0" d="M6.96281 58.1161L5.98889 58.6777L6.07958 58.835L7.0535 58.2734L6.96281 58.1161Z"/><path fill="#E0E0E0" d="M6.96165 57.0624L5.98773 57.624L6.07842 57.7813L7.05234 57.2197L6.96165 57.0624Z"/><path fill="#E0E0E0" d="M6.96531 56.0087L5.99139 56.5703L6.08208 56.7276L7.056 56.166L6.96531 56.0087Z"/><path fill="#E0E0E0" d="M6.96421 54.9555L5.9903 55.5171L6.08098 55.6744L7.0549 55.1127L6.96421 54.9555Z"/><path fill="#F0F0F0" d="M15.112 50.4635V60.6104L17.1375 59.4384V49.2915L15.112 50.4635Z"/><path fill="#FAFAFA" d="M15.112 50.4638V60.6106L15.5547 60.3527V50.209L15.112 50.4638Z"/><path fill="#E0E0E0" d="M16.6949 49.5495V59.6931L17.1408 59.4384V49.2915L16.6949 49.5495Z"/><path fill="#E0E0E0" d="M16.0369 58.9672L15.063 59.5288L15.1537 59.6861L16.1276 59.1245L16.0369 58.9672Z"/><path fill="#E0E0E0" d="M16.0357 57.914L15.0618 58.4756L15.1525 58.6328L16.1264 58.0712L16.0357 57.914Z"/><path fill="#E0E0E0" d="M16.0346 56.8578L15.0607 57.4194L15.1514 57.5767L16.1253 57.0151L16.0346 56.8578Z"/><path fill="#E0E0E0" d="M16.0383 55.807L15.0644 56.3687L15.1551 56.5259L16.129 55.9643L16.0383 55.807Z"/><path fill="#E0E0E0" d="M16.0372 54.7538L15.0633 55.3154L15.154 55.4727L16.1279 54.9111L16.0372 54.7538Z"/><path fill="#E0E0E0" d="M16.0361 53.7001L15.0621 54.2617L15.1528 54.419L16.1267 53.8574L16.0361 53.7001Z"/><path fill="#E0E0E0" d="M16.0365 52.6498L15.0626 53.2114L15.1533 53.3687L16.1272 52.8071L16.0365 52.6498Z"/><path fill="#E0E0E0" d="M16.0354 51.5932L15.0615 52.1548L15.1522 52.312L16.1261 51.7504L16.0354 51.5932Z"/><path fill="#E0E0E0" d="M16.0375 50.54L15.0636 51.1016L15.1543 51.2588L16.1282 50.6972L16.0375 50.54Z"/><path fill="#E0E0E0" d="M10.6979 50.1739L16.8764 46.6069V49.4446L10.6979 53.0116V50.1739Z"/><path fill="#000" d="M10.6979 50.1739L16.8764 46.6069V49.4446L10.6979 53.0116V50.1739Z" opacity=".1"/><path fill="#F0F0F0" d="M16.3254 48.3425C16.3277 48.4823 16.2979 48.6207 16.2382 48.7471C16.1786 48.8736 16.0908 48.9847 15.9815 49.0718C15.7904 49.1833 15.6343 49.0336 15.6343 48.7534C15.6322 48.6133 15.6624 48.4746 15.7226 48.3481C15.7828 48.2216 15.8714 48.1107 15.9815 48.024C16.1694 47.903 16.3254 48.0495 16.3254 48.3425Z"/><path fill="#F0F0F0" d="M9.67236 59.0054V69.2669L16.3286 65.4228L9.67236 59.0054ZM10.8699 62.8017L13.4177 65.2317L10.8699 66.6904V62.8017Z"/><path fill="#E0E0E0" d="M9.67236 69.254L9.98129 68.6012L16.0197 65.1138L16.3286 65.41L9.67236 69.254Z"/><path fill="#FAFAFA" d="M9.98129 68.6013V59.3016L9.67236 59.0054V69.2541L9.98129 68.6013Z"/><path fill="#F0F0F0" d="M46.8743 32.4472V31.3452L41.3231 34.5523V35.6543L46.8743 32.4472Z"/><path fill="#E0E0E0" d="M41.3805 38.4759V37.9154C41.3958 37.6648 41.4484 37.418 41.5365 37.1829L41.8104 36.4599C41.8985 36.2249 41.9511 35.978 41.9665 35.7274V33.4981C41.9665 33.3197 41.8996 33.2051 41.82 33.2273C41.6716 33.2869 41.5073 33.2934 41.3547 33.2458C41.2021 33.1983 41.0706 33.0995 40.9824 32.9662C40.6352 32.3037 40.6352 30.6253 41.7435 29.5361C41.7435 29.5361 40.7339 29.8037 40.2721 31.5872C39.9799 32.7827 39.8598 34.0139 39.9154 35.2433C39.9154 35.4249 39.9154 35.7115 39.9154 35.8803V37.5078C39.9103 37.6647 39.9419 37.8207 40.0078 37.9632L40.1193 38.1288C40.1838 38.2717 40.2144 38.4276 40.2084 38.5842V39.5874C40.2084 39.7658 40.3518 39.9473 40.4473 39.8454L41.2117 38.9791C41.3186 38.8329 41.3776 38.6571 41.3805 38.4759Z"/><path fill="#E0E0E0" d="M41.7308 39.0908V38.6194C41.7308 38.457 41.632 38.3837 41.511 38.4538L40.1352 39.2468C40.0673 39.2949 40.0118 39.3583 39.973 39.4319C39.9343 39.5055 39.9135 39.5872 39.9122 39.6704V40.1417C39.9122 40.3042 40.011 40.3806 40.1352 40.3105L41.511 39.5143C41.5783 39.4659 41.6332 39.4023 41.6714 39.3287C41.7096 39.2552 41.7299 39.1736 41.7308 39.0908Z"/><path fill="#000" d="M41.3805 38.1064V38.5268L40.2084 39.2052V38.7816L41.3805 38.1064Z" opacity=".1"/><path fill="#E0E0E0" d="M50.1546 29.6093V30.4119C50.1529 30.5529 50.118 30.6916 50.0527 30.8167C49.9874 30.9417 49.8936 31.0496 49.7788 31.1316L46.3838 33.0935V31.3004L49.7788 29.3386C49.989 29.2048 50.1546 29.3322 50.1546 29.6093Z"/><path fill="#C7C7C7" d="M20.968 83.0189L50.1489 65.9602L49.5087 57.6318L20.3258 74.6924L20.968 83.0189Z"/><path fill="#fff" d="M20.968 83.0189L50.1489 65.9602L49.5087 57.6318L20.3258 74.6924L20.968 83.0189Z" opacity=".4"/><path fill="#fff" d="M49.814 61.603C48.3957 62.4303 46.944 63.2616 46.2939 63.5413C45.3327 63.955 44.3084 64.0594 42.4705 65.1349C42.4705 65.1349 44.3497 63.7895 45.4646 63.4665C46.1679 63.2695 48.1672 62.1408 49.7825 61.2012L49.814 61.603Z" opacity=".05"/><path fill="#fff" d="M20.4027 75.6833C22.0238 74.7359 28.8355 70.7017 29.6175 70.1994C31.8907 68.7358 33.8467 67.4298 36.9058 65.6313C36.9058 65.6313 35.4797 66.3503 32.4343 68.2414C31.0062 69.1297 29.6963 69.9689 29.0108 70.4082C28.3253 70.8474 20.3928 75.4864 20.3928 75.4864L20.4027 75.6833Z" opacity=".05"/><path fill="#000" d="M49.7786 61.1343L49.0832 61.5401C46.6997 62.9347 45.0983 63.831 44.0444 64.2368C42.9906 64.6425 40.9932 65.787 40.093 66.3307C41.0724 65.6611 42.0849 65.0412 43.1265 64.4731C45.0963 63.3661 45.4903 63.3937 48.2992 61.7548L49.7667 60.9019L49.7786 61.1343Z" opacity=".1"/><path fill="#000" d="M20.4401 76.1659L28.735 71.3142C29.6372 70.7883 31.7252 69.0844 32.8913 68.4048C32.1855 68.7759 31.5057 69.1945 30.8565 69.6576C29.6746 70.477 21.5314 75.2992 20.4164 75.9512L20.4401 76.1659Z" opacity=".1"/><path fill="#fff" d="M49.6269 59.1685C47.9308 60.1534 44.1764 62.3477 42.766 63.1731C40.9616 64.227 37.9576 65.7674 35.4422 67.294C33.0981 68.7103 31.3489 69.8862 31.1086 70.0517C31.3784 69.8547 33.5886 68.1922 35.456 67.097C37.4494 65.9328 41.0837 63.9098 43.2722 62.6353C44.7338 61.7824 47.6354 60.0844 49.6091 58.938L49.6269 59.1685Z" opacity=".05"/><path fill="#fff" d="M20.5504 77.6179L29.0836 72.6323C30.4073 71.8581 32.4323 70.822 34.6759 69.5121C36.9196 68.2021 38.7495 66.9749 40.1501 66.0038C41.5506 65.0327 43.1048 64.1128 43.1048 64.1128C43.1048 64.1128 41.6176 64.8751 39.4055 66.3288C37.0656 67.8928 34.6431 69.3295 32.1487 70.6329C29.7711 71.8384 20.5267 77.3579 20.5267 77.3579L20.5504 77.6179Z" opacity=".05"/><path fill="#fff" d="M49.8199 61.6916C46.8652 63.4349 41.133 66.823 39.2676 67.9143C36.7659 69.3739 33.4783 71.2236 33.4783 71.2236C33.4783 71.2236 38.7633 67.9931 44.0542 64.8985L49.8061 61.5498L49.8199 61.6916Z" opacity=".05"/><path fill="#000" d="M20.6134 78.3803C20.6134 78.3803 32.1822 71.6179 35.4422 69.7131C38.7023 67.8083 42.3208 65.4839 42.3208 65.4839C42.3208 65.4839 39.6025 66.9396 35.5959 69.2758L20.5839 78.0474L20.6095 78.3803H20.6134Z" opacity=".1"/><path fill="#000" d="M49.5816 58.5813C47.3557 59.8814 43.8573 61.93 42.5848 62.6647C40.745 63.7383 35.978 66.4389 34.8336 67.0712C34.8336 67.0712 39.5158 64.1874 45.7582 60.5432L49.5698 58.3252L49.5816 58.5813Z" opacity=".1"/><path fill="#000" d="M49.6525 59.5054L44.0641 62.7654C42.3109 63.7897 38.194 65.9644 36.3956 67.0163C34.5971 68.0682 22.727 75.2324 20.4716 76.5522L20.4932 76.8398C21.8938 76.0203 33.3089 69.8312 36.0272 68.2415C38.7456 66.6519 41.4954 64.5678 43.1895 63.577L49.6741 59.7989L49.6525 59.5054ZM39.8802 65.4267C39.892 65.5685 37.5854 67.0813 35.9898 68.013C34.5853 68.8344 31.7842 70.3138 31.7724 70.1798C31.7606 70.0459 34.4849 68.3893 35.9583 67.5284C37.4317 66.6676 39.8703 65.2848 39.8802 65.4267Z" opacity=".1"/><path fill="#fff" d="M49.7372 60.5986C48.317 61.4279 46.8632 62.2631 46.2171 62.5685C45.2578 63.0215 44.2473 63.254 42.4095 64.3295C42.4095 64.3295 44.2907 63.053 45.3997 62.6433C46.1009 62.3813 48.0983 61.2507 49.7136 60.3091L49.7372 60.5986Z" opacity=".05"/><path fill="#fff" d="M49.9027 62.7634C47.206 64.3294 43.9755 66.1771 43.4121 66.4745C41.0385 67.7254 38.9918 68.7576 35.8283 70.5954C35.8283 70.5954 37.2879 69.6282 40.4534 67.8849C41.9426 67.0655 43.3077 66.3485 44.0267 65.9565C44.466 65.7181 47.4325 63.9866 49.8889 62.5664L49.9027 62.7634Z" opacity=".05"/><path fill="#000" d="M20.9227 82.3397L23.6805 80.7303C26.1467 79.2884 27.7993 78.2819 28.8532 77.4565C29.9071 76.6312 31.9793 75.3961 32.913 74.8682C32.913 74.8682 31.8079 75.3803 29.7613 76.6233C27.7146 77.8662 27.362 78.3291 24.4428 80.033L20.8971 82.1053L20.9227 82.3397Z" opacity=".1"/><path fill="#000" d="M49.942 63.2559C47.596 64.6348 45.045 66.1161 44.4265 66.4825C43.4987 67.0261 41.2748 67.8436 40.0752 68.5508C40.7478 68.1131 41.4494 67.7215 42.175 67.3787C43.0299 66.971 46.9834 64.7175 49.9322 63.0195L49.942 63.2559Z" opacity=".1"/><path fill="#fff" d="M21.6928 79.8341L29.905 75.0297C31.7685 73.9384 34.8473 71.9252 37.4593 70.4498C40.0712 68.9744 42.0056 68.0151 42.0056 68.0151C40.4346 68.6855 38.9024 69.4431 37.4159 70.2844C35.3535 71.4919 31.605 73.7847 29.3397 75.1104L20.7473 80.1394V80.23L21.6928 79.8341Z" opacity=".05"/><path fill="#fff" d="M50.0524 64.7095L44.2887 68.072C42.9098 68.8796 40.8435 70.2388 38.5191 71.5979C36.1947 72.9571 34.282 73.9223 32.8066 74.6256C31.3312 75.3288 29.7278 76.2664 29.7278 76.2664C29.7278 76.2664 31.2505 75.2618 33.5689 74.072C36.1447 72.7563 38.6516 71.3099 41.0799 69.7384C42.6715 68.6866 47.0051 66.1593 50.0307 64.4199L50.0524 64.7095Z" opacity=".05"/><path fill="#fff" d="M20.968 82.885C20.968 82.885 31.3371 76.8869 33.9274 75.3701C36.5177 73.8533 39.9177 71.8008 39.9177 71.8008C39.9177 71.8008 34.4278 74.8698 28.9477 78.0766L20.9562 82.7471L20.968 82.885Z" opacity=".05"/><path fill="#000" d="M50.1114 65.472L37.8237 72.654C34.4494 74.6238 30.6752 76.6291 30.6752 76.6291C30.6752 76.6291 33.4684 74.8562 37.6129 72.4314L50.0858 65.1431L50.1114 65.472Z" opacity=".1"/><path fill="#000" d="M20.7198 79.7904L29.9976 74.3616C31.9005 73.2486 36.827 70.2781 38.001 69.5532C38.001 69.5532 33.1316 72.2558 26.6726 76.0379L20.7001 79.5323L20.7198 79.7904Z" opacity=".1"/><path fill="#000" d="M49.9637 63.6182C45.4922 66.1691 37.9636 70.4278 36.5098 71.2788C34.6484 72.372 30.4211 75.0766 28.605 76.1383C26.7888 77.2001 20.7867 80.7142 20.7867 80.7142L20.8104 80.9939C20.8104 80.9939 27.7993 76.9085 29.5524 75.8724C31.3056 74.8363 34.2229 73.6248 37.0378 71.9781C39.1435 70.741 45.9413 66.498 49.9893 63.9964L49.9637 63.6182ZM41.3595 68.9091C41.3694 69.045 38.4915 70.8789 37.0378 71.7358C35.389 72.701 32.976 73.9459 32.9642 73.8041C32.9523 73.6623 35.4777 72.1475 37.0003 71.2571C38.523 70.3668 41.3556 68.7771 41.3655 68.9091H41.3595Z" opacity=".1"/><path fill="#fff" d="M20.8833 81.8019C22.0198 81.1361 25.5616 79.0894 26.5386 78.4118C27.5156 77.7342 28.5084 76.7926 30.4152 75.6797C30.4152 75.6797 28.4454 76.6646 27.3265 77.5451C26.2077 78.4256 20.8517 81.5143 20.8517 81.5143L20.8833 81.8019Z" opacity=".05"/><path fill="#C7C7C7" d="M19.2897 82.0755L20.968 83.019L20.3258 74.6926L18.6475 73.7471L19.2897 82.0755Z"/><path fill="#fff" d="M19.2897 82.0755L20.968 83.019L20.3258 74.6926L18.6475 73.7471L19.2897 82.0755Z" opacity=".6"/><path fill="#000" d="M20.4933 76.8396L19.071 75.9453L20.4716 76.552L20.4933 76.8396Z" opacity=".1"/><path fill="#000" d="M20.44 76.1659L19.7309 75.6616L20.4223 75.9472L20.44 76.1659Z" opacity=".1"/><path fill="#000" d="M20.6095 78.3801L19.2227 77.4937L20.5839 78.0472L20.6095 78.3801Z" opacity=".1"/><path fill="#000" d="M20.8183 80.9941L19.4039 80.0801L20.7927 80.7144L20.8183 80.9941Z" opacity=".1"/><path fill="#fff" d="M20.968 82.8852L19.9279 82.2607L20.9562 82.7473" opacity=".05"/><path fill="#fff" d="M20.8833 81.7996L19.3173 80.8403L20.8517 81.514L20.8833 81.7996Z" opacity=".05"/><path fill="#fff" d="M20.4026 75.6834L18.8307 74.7319L20.3868 75.4805L20.4026 75.6834Z" opacity=".05"/><path fill="#C7C7C7" d="M49.5087 57.632L47.8304 56.6885L18.6475 73.7471L20.3258 74.6926L49.5087 57.632Z"/><path fill="#fff" d="M49.5087 57.632L47.8304 56.6885L18.6475 73.7471L20.3258 74.6926L49.5087 57.632Z" opacity=".3"/><path fill="#000" d="M49.5087 57.632L47.8304 56.6885L18.6475 73.7471L20.3258 74.6926L49.5087 57.632Z" opacity=".1"/><path fill="#000" d="M49.0773 57.3896L48.7917 57.228C47.789 57.7244 47.1134 58.016 45.7148 58.7901C43.4751 60.0508 42.3503 60.8367 42.2203 60.9293C43.2722 60.297 45.6537 58.9359 47.0799 58.339C47.7043 58.079 48.3228 57.7875 49.0773 57.3896Z" opacity=".1"/><path fill="#fff" d="M45.3307 58.5835C45.2204 58.6406 43.4003 59.592 41.0089 61.1699C38.2609 63.0021 35.4178 64.6873 32.4914 66.2185C29.842 67.5797 21.0074 72.8292 19.0671 73.9816L19.3527 74.1431C21.681 72.78 27.5767 69.3289 29.0541 68.4681C30.6299 67.5541 33.1493 66.2441 35.8066 64.6939C38.4639 63.1436 40.483 61.7805 41.9958 60.7188C43.4633 59.6925 45.2223 58.6465 45.3307 58.5835Z" opacity=".05"/><path fill="#000" d="M45.2519 59.6865C45.1239 59.7555 41.8244 61.5362 37.1757 64.2467L19.8058 74.3991L20.1525 74.5961C22.3941 73.2881 33.8348 66.5986 37.3096 64.5697C41.0995 62.3596 45.1278 59.7673 45.2519 59.6865Z" opacity=".1"/><path fill="#000" d="M42.9295 59.5547L39.8506 61.3531C38.9642 61.9441 37.7272 62.732 36.6989 63.3348C35.7652 63.8804 34.2642 64.6999 33.1001 65.3046L22.6817 71.3894C27.555 68.7065 34.7685 64.7491 36.9649 63.4648C39.1986 62.1627 41.2276 60.7149 42.9295 59.5547Z" opacity=".1"/><path fill="#fff" d="M48.3878 56.9999L48.1062 56.8423C48.051 56.8679 47.9978 56.8896 47.9446 56.9112C46.5126 57.4904 44.6137 58.7688 44.3812 58.9264C45.6709 58.1928 47.0096 57.5491 48.3878 56.9999Z" opacity=".05"/></svg>