<svg width="263" height="250" viewBox="0 0 263 250" fill="none" xmlns="http://www.w3.org/2000/svg">
<path d="M232.585 227.219L231.653 235.643L234.254 235.931C234.628 235.971 234.982 236.115 235.278 236.346C235.574 236.578 235.798 236.887 235.927 237.24C236.076 237.637 236.247 238.025 236.439 238.402C236.609 238.734 236.684 239.106 236.655 239.477C236.626 239.848 236.494 240.204 236.275 240.505L234.737 242.601L241.574 247.624L243.112 245.527C243.336 245.233 243.638 245.005 243.983 244.87C244.328 244.735 244.704 244.698 245.069 244.763C245.487 244.83 245.908 244.875 246.331 244.898C246.698 244.924 247.051 245.049 247.352 245.26C247.653 245.471 247.891 245.76 248.04 246.096L249.082 248.474L256.847 245.064L255.802 242.655C255.656 242.312 255.608 241.935 255.663 241.567C255.718 241.198 255.874 240.851 256.114 240.566L256.499 240.072C256.622 239.905 256.74 239.732 256.854 239.56C257.053 239.246 257.336 238.994 257.67 238.831C258.004 238.669 258.376 238.602 258.746 238.639L261.347 238.927L262.275 230.498L259.674 230.211C259.3 230.169 258.946 230.024 258.65 229.792C258.355 229.56 258.13 229.25 258.001 228.897C257.855 228.502 257.687 228.116 257.498 227.739C257.328 227.408 257.253 227.037 257.281 226.666C257.309 226.295 257.44 225.939 257.658 225.637L259.195 223.541L252.388 218.524L250.851 220.62C250.627 220.916 250.326 221.144 249.98 221.279C249.635 221.414 249.259 221.45 248.894 221.384C248.477 221.316 248.058 221.27 247.636 221.245C247.264 221.228 246.903 221.108 246.595 220.898C246.287 220.687 246.043 220.395 245.892 220.054L244.841 217.671L237.081 221.081L238.127 223.468C238.273 223.811 238.321 224.187 238.266 224.555C238.211 224.923 238.055 225.269 237.815 225.554C237.684 225.712 237.557 225.88 237.43 226.052C237.303 226.223 237.189 226.387 237.075 226.564C236.875 226.881 236.591 227.137 236.254 227.303C235.918 227.468 235.542 227.537 235.169 227.501L232.585 227.219ZM241.365 228.96C242.179 227.853 243.303 227.012 244.595 226.543C245.887 226.075 247.289 226 248.623 226.329C249.957 226.657 251.164 227.374 252.091 228.388C253.018 229.403 253.624 230.669 253.831 232.028C254.038 233.386 253.837 234.776 253.254 236.02C252.672 237.265 251.733 238.308 250.557 239.019C249.381 239.73 248.02 240.076 246.648 240.014C245.275 239.951 243.951 239.483 242.845 238.669C242.11 238.129 241.488 237.449 241.016 236.669C240.543 235.889 240.229 235.023 240.092 234.121C239.954 233.219 239.996 232.299 240.215 231.414C240.433 230.528 240.824 229.694 241.365 228.96Z" fill="#EBEBEB"/>
<path d="M53.2809 179.691H37.2465V186.467H53.2809V179.691Z" fill="#EBEBEB"/>
<path d="M44.3372 195.011L36.3926 195.181L32.3598 195.247C31.0095 195.277 29.6531 195.247 28.3028 195.277H28.0363V195.005L28 188.229V187.926H28.3028L36.32 187.963C38.9904 187.963 41.6668 188.029 44.3372 188.059H44.5067V188.223C44.5067 189.373 44.4583 190.512 44.428 191.644L44.3372 195.011ZM44.3372 195.011L44.2524 191.584C44.2221 190.457 44.1858 189.343 44.1737 188.235L44.3372 188.399C41.6668 188.429 38.9904 188.495 36.32 188.495L28.3028 188.538L28.6055 188.235L28.5753 195.011L28.3028 194.738C29.6228 194.738 30.9429 194.738 32.269 194.775L36.2534 194.841L44.3372 195.011Z" fill="#EBEBEB"/>
<path d="M182.646 59.5234H166.612V66.2993H182.646V59.5234Z" fill="#EBEBEB"/>
<path d="M173.703 74.8438L165.758 75.0133L161.719 75.0799C160.375 75.1102 159.018 75.0799 157.668 75.1163H157.402V74.8438V68.0679V67.7651H157.704L165.722 67.8075C168.392 67.8075 171.069 67.8741 173.739 67.9044H173.908V68.0679C173.908 69.2184 173.86 70.3629 173.83 71.4952L173.703 74.8438ZM173.703 74.8438L173.618 71.4225C173.588 70.2963 173.551 69.176 173.539 68.0679L173.703 68.2375C171.032 68.2375 168.356 68.3283 165.685 68.3343L157.668 68.3707L157.971 68.0679L157.941 74.8438L157.668 74.5773C158.988 74.5773 160.308 74.5773 161.634 74.5773L165.613 74.644L173.703 74.8438Z" fill="#EBEBEB"/>
<path d="M164.795 66.2993L156.845 66.4689L152.812 66.5355C151.467 66.5355 150.111 66.5355 148.761 66.5718H148.488V66.2993V59.5235V59.2207H148.797L156.814 59.2631C159.485 59.2631 162.155 59.3297 164.832 59.36H164.947V59.5235C164.947 60.674 164.892 61.8184 164.868 62.9508L164.795 66.2993ZM164.795 66.2993L164.704 62.8781C164.704 61.7518 164.638 60.6316 164.626 59.5235L164.795 59.693C162.119 59.7233 159.448 59.7838 156.778 59.7899L148.761 59.8262L149.064 59.5235L149.027 66.2993L148.761 66.0329C150.081 66.0329 151.395 66.0329 152.721 66.0632L156.705 66.1298L164.795 66.2993Z" fill="#EBEBEB"/>
<path d="M262.836 188.235H246.802V195.011H262.836V188.235Z" fill="#EBEBEB"/>
<path d="M106.065 128.978H90.0305V135.753H106.065V128.978Z" fill="#EBEBEB"/>
<path d="M253.893 23.2341L245.942 23.4037L241.909 23.4703C240.565 23.4703 239.209 23.4703 237.858 23.4703H237.61V23.1978V16.4219V16.1191H237.919L245.936 16.1555C248.607 16.1555 251.277 16.2221 253.953 16.2584H254.117V16.4885C254.117 17.639 254.062 18.7835 254.038 19.9098L253.893 23.2341ZM253.893 23.2341L253.808 19.8068C253.778 18.6805 253.735 17.5664 253.723 16.4582L253.893 16.6217C251.216 16.6217 248.546 16.7186 245.876 16.7247L237.858 16.761L238.161 16.4582L238.125 23.2341L237.858 22.9616C239.178 22.9616 240.492 22.9616 241.819 22.998L245.803 23.0646L253.893 23.2341Z" fill="#EBEBEB"/>
<path d="M262.837 31.7785L254.886 31.9481L250.853 32.0147C249.509 32.0147 248.152 32.0147 246.802 32.0147H246.53V31.7422L246.499 24.9663V24.6636H246.802L254.819 24.6999C257.49 24.6999 260.166 24.7665 262.837 24.8028H263V24.9663C263 26.1168 262.952 27.2613 262.921 28.3876L262.837 31.7785ZM262.837 31.7785L262.752 28.3512C262.752 27.225 262.679 26.1108 262.673 25.0027L262.837 25.1662C260.166 25.1662 257.49 25.263 254.819 25.263L246.802 25.3054L247.105 25.0027L247.069 31.7785L246.802 31.5061C248.122 31.5061 249.442 31.5061 250.762 31.5424L254.747 31.609L262.837 31.7785Z" fill="#EBEBEB"/>
<path d="M47.2255 16.4585H31.1911V23.2344H47.2255V16.4585Z" fill="#EBEBEB"/>
<path d="M131.206 65.7544C132.726 64.8644 134.474 64.4431 136.232 64.5433C137.024 64.527 137.806 64.7261 138.493 65.1193C139.181 65.5126 139.748 66.0852 140.136 66.776C140.523 67.4668 140.715 68.2498 140.692 69.0415C140.669 69.8331 140.432 70.6036 140.005 71.2707C139.142 72.7941 137.878 74.0514 136.35 74.9056C134.822 75.7598 133.089 76.1781 131.34 76.115C130.549 76.1296 129.769 75.9298 129.083 75.5369C128.397 75.1439 127.83 74.5724 127.442 73.8831C127.055 73.1938 126.861 72.4124 126.882 71.622C126.903 70.8315 127.138 70.0614 127.561 69.3936C128.394 67.8497 129.661 66.5843 131.206 65.7544ZM135.227 72.9178C136.373 72.2985 137.322 71.3688 137.964 70.2353C138.43 69.2846 138.455 68.4792 138.122 67.9282C137.789 67.3772 137.116 66.9412 136.051 66.8262C134.751 66.8037 133.47 67.1287 132.338 67.7674C131.207 68.4061 130.266 69.3354 129.614 70.4593C129.399 70.81 129.273 71.2075 129.245 71.6177C129.218 72.0279 129.29 72.4387 129.456 72.8148C129.688 73.1472 129.999 73.4172 130.36 73.601C130.721 73.7848 131.122 73.8767 131.527 73.8685C132.826 73.9079 134.109 73.5782 135.227 72.9178Z" fill="#EBEBEB"/>
<path d="M149.094 104.835C149.908 106.397 150.241 108.165 150.051 109.916C150.029 110.708 149.793 111.479 149.368 112.148C148.942 112.817 148.343 113.357 147.635 113.712C146.926 114.067 146.135 114.223 145.344 114.163C144.554 114.104 143.795 113.831 143.147 113.373C141.664 112.44 140.466 111.118 139.683 109.55C138.9 107.983 138.563 106.23 138.709 104.484C138.732 103.693 138.969 102.924 139.395 102.257C139.82 101.59 140.418 101.051 141.126 100.697C141.833 100.343 142.623 100.187 143.412 100.246C144.201 100.305 144.959 100.577 145.606 101.032C147.116 101.932 148.328 103.254 149.094 104.835ZM141.749 108.529C142.308 109.705 143.19 110.699 144.292 111.393C145.224 111.902 146.024 111.999 146.593 111.66C147.162 111.32 147.622 110.703 147.804 109.643C147.887 108.349 147.625 107.057 147.046 105.897C146.466 104.738 145.589 103.753 144.504 103.043C144.165 102.811 143.774 102.664 143.366 102.617C142.958 102.569 142.544 102.622 142.16 102.77C141.817 102.986 141.532 103.282 141.33 103.634C141.129 103.986 141.016 104.382 141.004 104.787C140.894 106.079 141.153 107.377 141.749 108.529Z" fill="#EBEBEB"/>
<path d="M121.27 105.502L127.258 94.7959C127.413 94.5314 127.665 94.3382 127.961 94.2578C128.256 94.1774 128.572 94.2162 128.839 94.366C128.971 94.4379 129.088 94.5357 129.182 94.6535C129.276 94.7713 129.345 94.9068 129.386 95.0519C129.427 95.197 129.438 95.3488 129.419 95.4983C129.4 95.6478 129.351 95.7919 129.275 95.9222L124.279 104.848H125.242C125.454 104.828 125.666 104.877 125.848 104.987C126.062 105.114 126.23 105.306 126.327 105.535C126.424 105.764 126.445 106.018 126.387 106.261C126.329 106.503 126.194 106.719 126.003 106.879C125.812 107.039 125.575 107.134 125.327 107.149L122.354 107.221C122.354 107.221 122.287 107.221 122.263 107.221C122.239 107.221 122.184 107.221 122.142 107.221C122.1 107.21 122.06 107.196 122.021 107.179C121.99 107.179 121.954 107.179 121.936 107.179C121.889 107.172 121.843 107.156 121.803 107.131H121.748L121.621 107.058C121.606 107.035 121.585 107.016 121.56 107.003C121.5 107.003 121.494 106.943 121.47 106.907C121.443 106.891 121.421 106.871 121.403 106.846C121.373 106.779 121.367 106.749 121.324 106.731C121.318 106.697 121.306 106.664 121.288 106.634C121.271 106.603 121.257 106.571 121.246 106.537C121.215 106.501 121.246 106.452 121.209 106.428C121.206 106.394 121.206 106.359 121.209 106.325C121.209 106.325 121.209 106.24 121.179 106.21V106.162C121.179 106.162 121.179 106.119 121.179 106.101C121.179 106.083 121.179 106.022 121.179 105.986C121.181 105.95 121.181 105.913 121.179 105.877C121.182 105.843 121.182 105.808 121.179 105.774C121.209 105.72 121.233 105.683 121.215 105.629L121.27 105.502Z" fill="#EBEBEB"/>
<path d="M146.327 94.4328L139.932 83.9631C139.776 83.6994 139.731 83.3848 139.806 83.0877C139.881 82.7906 140.07 82.5351 140.332 82.3767C140.46 82.2966 140.602 82.2429 140.751 82.2187C140.9 82.1945 141.053 82.2004 141.199 82.2359C141.346 82.2715 141.484 82.336 141.605 82.4257C141.727 82.5154 141.829 82.6284 141.906 82.7581L147.235 91.4899L147.695 90.6482C147.787 90.4631 147.93 90.3079 148.107 90.2001C148.279 90.099 148.476 90.0457 148.676 90.0457C148.876 90.0457 149.073 90.099 149.245 90.2001C149.38 90.2655 149.5 90.3575 149.598 90.4706C149.697 90.5837 149.771 90.7155 149.817 90.8582C149.863 91.0008 149.879 91.1512 149.865 91.3004C149.851 91.4496 149.807 91.5944 149.736 91.726L148.343 94.3601C148.343 94.3601 148.301 94.4085 148.294 94.4328C148.288 94.457 148.264 94.5054 148.24 94.5417C148.216 94.5781 148.179 94.6023 148.143 94.6265C148.107 94.6507 148.101 94.675 148.083 94.6871C148.053 94.7273 148.013 94.7587 147.968 94.7779L147.919 94.8142L147.792 94.8869C147.792 94.8869 147.731 94.8869 147.713 94.8869C147.676 94.9124 147.631 94.9232 147.586 94.9172C147.562 94.9368 147.532 94.9475 147.501 94.9475C147.429 94.9475 147.398 94.9475 147.362 94.9475C147.328 94.9408 147.293 94.9408 147.259 94.9475H147.156C147.118 94.955 147.079 94.955 147.041 94.9475C147.007 94.9389 146.974 94.9246 146.944 94.9051H146.829H146.793C146.793 94.9051 146.75 94.8748 146.738 94.8627C146.726 94.8506 146.672 94.8263 146.653 94.79C146.635 94.7537 146.587 94.7355 146.563 94.7234L146.49 94.6447C146.48 94.6208 146.464 94.5996 146.444 94.5828C146.424 94.566 146.4 94.554 146.375 94.5478L146.327 94.4328Z" fill="#EBEBEB"/>
<path d="M34.6851 59.6024C34.9381 59.4465 35.2295 59.364 35.5267 59.364C35.824 59.364 36.1154 59.4465 36.3684 59.6024L36.8044 59.8446C36.9497 59.9294 37.1011 60.0021 37.2525 60.0747C37.5228 60.1969 37.7537 60.3919 37.9194 60.6379C38.0852 60.8839 38.1792 61.1711 38.1911 61.4674L38.2577 63.5444L45.0154 63.3325L44.9548 61.2616C44.9445 60.9632 45.0186 60.668 45.1686 60.4098C45.3185 60.1517 45.5383 59.9411 45.8026 59.8022C46.0963 59.6397 46.3813 59.4618 46.6564 59.2694C46.8988 59.0982 47.1842 58.9979 47.4804 58.9797C47.7767 58.9615 48.0721 59.0262 48.3337 59.1664L50.1503 60.1413L53.3475 54.1829L51.5309 53.202C51.2707 53.0593 51.055 52.8475 50.9075 52.59C50.7601 52.3325 50.6866 52.0393 50.6953 51.7426C50.7013 51.4072 50.6892 51.0716 50.6589 50.7375C50.6324 50.4411 50.6878 50.1431 50.8191 49.8761C50.9505 49.6092 51.1527 49.3834 51.4037 49.2236L53.1719 48.1276L49.6053 42.3811L47.8311 43.4832C47.578 43.636 47.2881 43.7167 46.9925 43.7167C46.6968 43.7167 46.4069 43.636 46.1538 43.4832C46.0145 43.3924 45.8692 43.3137 45.7178 43.2349C45.5664 43.1562 45.4272 43.0775 45.2758 43.0109C45.0048 42.8874 44.7731 42.6914 44.6064 42.4446C44.4398 42.1977 44.3445 41.9097 44.3311 41.6121L44.2706 39.5352L37.5129 39.741L37.5795 41.8119C37.587 42.1098 37.5117 42.4039 37.3621 42.6615C37.2124 42.9192 36.9942 43.1302 36.7318 43.2713C36.4352 43.4324 36.1481 43.6103 35.8719 43.8041C35.6283 43.9749 35.3424 44.0753 35.0455 44.0946C34.7486 44.1138 34.4522 44.051 34.1885 43.9131L32.3719 42.9322L29.1747 48.8966L30.9913 49.8715C31.2527 50.0134 31.4696 50.2248 31.6182 50.4824C31.7667 50.74 31.8411 51.0336 31.833 51.3309C31.8148 51.6677 31.8148 52.0053 31.833 52.3421C31.8617 52.6387 31.8072 52.9374 31.6756 53.2048C31.5441 53.4722 31.3407 53.6976 31.0882 53.8559L29.3261 54.9459L32.9411 60.6924L34.6851 59.6024ZM36.3805 48.9269C36.9016 47.9646 37.696 47.1781 38.6635 46.6667C39.631 46.1552 40.7283 45.9418 41.8169 46.0532C42.9056 46.1646 43.9369 46.596 44.7807 47.2928C45.6245 47.9896 46.2431 48.9207 46.5584 49.9686C46.8737 51.0166 46.8716 52.1344 46.5524 53.1812C46.2332 54.2279 45.6112 55.1567 44.7647 55.8504C43.9183 56.544 42.8854 56.9715 41.7964 57.0789C40.7073 57.1862 39.6108 56.9687 38.6452 56.4537C38.0007 56.1099 37.4305 55.642 36.9674 55.077C36.5044 54.5119 36.1576 53.8609 35.9471 53.1614C35.7367 52.4619 35.6666 51.7276 35.741 51.0009C35.8154 50.2742 36.0327 49.5693 36.3805 48.9269Z" fill="#EBEBEB"/>
<path d="M246.408 10.1245C246.589 10.2303 246.736 10.3844 246.834 10.5696C246.931 10.7547 246.975 10.9634 246.959 11.1721C246.959 11.2871 246.959 11.4022 246.959 11.5172C246.959 11.6323 246.959 11.7534 246.959 11.8685C246.973 12.0768 246.928 12.2847 246.831 12.4695C246.734 12.6542 246.588 12.8087 246.408 12.916L245.149 13.6427L247.517 17.7421L248.776 17.0155C248.958 16.9131 249.164 16.863 249.372 16.8704C249.581 16.8779 249.783 16.9428 249.957 17.0578C250.157 17.185 250.357 17.3061 250.562 17.4151C250.745 17.5098 250.899 17.6532 251.006 17.8295C251.113 18.0058 251.169 18.2081 251.168 18.4142V19.8614H255.903V18.4142C255.904 18.2084 255.96 18.0066 256.067 17.8305C256.174 17.6545 256.326 17.5109 256.509 17.4151C256.717 17.3066 256.919 17.1874 257.114 17.0578C257.288 16.9428 257.49 16.8779 257.699 16.8704C257.907 16.863 258.113 16.9131 258.295 17.0155L259.554 17.7421L261.922 13.6427L260.657 12.91C260.478 12.8044 260.332 12.651 260.236 12.4669C260.139 12.2829 260.096 12.0756 260.112 11.8685C260.112 11.7534 260.112 11.6384 260.112 11.5172C260.112 11.3961 260.112 11.2871 260.112 11.1721C260.096 10.9634 260.14 10.7547 260.237 10.5696C260.335 10.3844 260.482 10.2303 260.663 10.1245L261.922 9.39789L259.554 5.29846L258.301 6.01904C258.12 6.12359 257.914 6.17559 257.705 6.16917C257.497 6.16275 257.294 6.09817 257.12 5.98271C256.92 5.85554 256.715 5.73444 256.515 5.62544C256.333 5.52967 256.18 5.38604 256.073 5.21C255.966 5.03396 255.91 4.83217 255.909 4.62632V3.16699H251.174V4.62026C251.173 4.82611 251.117 5.02791 251.01 5.20395C250.903 5.37999 250.751 5.52362 250.568 5.61939C250.361 5.72785 250.158 5.8471 249.963 5.97665C249.785 6.09679 249.577 6.16398 249.363 6.17042C249.148 6.17685 248.936 6.12225 248.752 6.01298L247.498 5.2924L245.131 9.39184L246.408 10.1245ZM253.56 7.6358C254.327 7.6358 255.078 7.86344 255.716 8.28994C256.354 8.71644 256.852 9.32264 257.146 10.0319C257.44 10.7411 257.516 11.5216 257.367 12.2745C257.217 13.0274 256.847 13.719 256.304 14.2618C255.762 14.8047 255.07 15.1743 254.317 15.3241C253.564 15.4739 252.784 15.397 252.074 15.1032C251.365 14.8095 250.759 14.312 250.332 13.6737C249.906 13.0354 249.678 12.2849 249.678 11.5172C249.68 10.4883 250.089 9.50198 250.817 8.77442C251.544 8.04685 252.531 7.6374 253.56 7.6358Z" fill="#EBEBEB"/>
<path d="M213.958 67.0562C213.963 70.7044 215.049 74.2692 217.079 77.3002C219.11 80.3312 221.993 82.6922 225.365 84.085C228.736 85.4778 232.446 85.8397 236.023 85.125C239.6 84.4104 242.886 82.6512 245.464 80.0699C248.042 77.4886 249.796 74.201 250.506 70.6226C251.216 67.0443 250.85 63.3357 249.452 59.9658C248.055 56.5958 245.69 53.7156 242.657 51.6893C239.623 49.663 236.057 48.5815 232.409 48.5815C229.984 48.5823 227.583 49.0609 225.343 49.9899C223.104 50.919 221.069 52.2802 219.355 53.9959C217.642 55.7116 216.283 57.7481 215.357 59.9891C214.431 62.23 213.956 64.6315 213.958 67.0562ZM223.792 67.0562C223.79 65.3501 224.293 63.6815 225.24 62.2618C226.186 60.8421 227.532 59.735 229.108 59.0807C230.684 58.4264 232.418 58.2542 234.092 58.5861C235.765 58.9179 237.303 59.7388 238.51 60.9448C239.717 62.1508 240.539 63.6878 240.872 65.3612C241.205 67.0346 241.034 68.7691 240.38 70.3453C239.727 71.9215 238.621 73.2685 237.202 74.2158C235.783 75.1631 234.115 75.6681 232.409 75.6669C230.125 75.6653 227.935 74.7578 226.32 73.1435C224.704 71.5292 223.795 69.34 223.792 67.0562Z" fill="#EBEBEB"/>
<path d="M228.86 49.3687H235.957L235.563 44.3428H229.254L228.86 49.3687Z" fill="#EBEBEB"/>
<path d="M242.37 51.7608L247.383 56.7746L250.659 52.9476L246.197 48.4849L242.37 51.7608Z" fill="#EBEBEB"/>
<path d="M250.229 62.999V70.0958L255.249 69.7022V63.3926L250.229 62.999Z" fill="#EBEBEB"/>
<path d="M247.838 76.5029L242.818 81.5228L246.651 84.7987L251.113 80.3359L247.838 76.5029Z" fill="#EBEBEB"/>
<path d="M236.593 84.3623H229.502L229.89 89.3882H236.205L236.593 84.3623Z" fill="#EBEBEB"/>
<path d="M223.09 81.9703L218.076 76.9565L214.8 80.7835L219.263 85.2462L223.09 81.9703Z" fill="#EBEBEB"/>
<path d="M215.23 70.7321V63.6353L210.21 64.0288V70.3385L215.23 70.7321Z" fill="#EBEBEB"/>
<path d="M217.622 57.2289L222.641 52.209L218.808 48.9331L214.346 53.4019L217.622 57.2289Z" fill="#EBEBEB"/>
<path d="M60.5048 133.471C60.5048 137.119 61.5867 140.686 63.6138 143.72C65.6409 146.754 68.5221 149.119 71.8932 150.516C75.2642 151.913 78.9737 152.278 82.5525 151.567C86.1314 150.855 89.419 149.099 91.9996 146.519C94.5802 143.939 96.3379 140.652 97.0505 137.074C97.7631 133.495 97.3986 129.785 96.003 126.414C94.6075 123.043 92.2436 120.161 89.2102 118.132C86.1768 116.104 82.6102 115.021 78.9613 115.02C76.5378 115.019 74.138 115.496 71.8987 116.423C69.6595 117.35 67.6249 118.709 65.9109 120.422C64.197 122.135 62.8374 124.17 61.9098 126.408C60.9822 128.647 60.5048 131.047 60.5048 133.471ZM70.3325 133.471C70.3301 131.765 70.8336 130.097 71.7794 128.677C72.7251 127.258 74.0706 126.151 75.6457 125.496C77.2207 124.841 78.9545 124.669 80.6278 124.999C82.3011 125.33 83.8386 126.15 85.046 127.355C86.2534 128.56 87.0763 130.095 87.4107 131.768C87.745 133.441 87.5759 135.175 86.9245 136.751C86.2732 138.328 85.1689 139.675 83.7515 140.624C82.334 141.573 80.667 142.08 78.9613 142.081C76.6759 142.081 74.4839 141.175 72.8662 139.56C71.2485 137.946 70.3373 135.756 70.3325 133.471Z" fill="#EBEBEB"/>
<path d="M75.4069 115.783H82.5037L82.1101 110.757H75.8005L75.4069 115.783Z" fill="#EBEBEB"/>
<path d="M88.9102 118.175L93.9301 123.189L97.206 119.362L92.7372 114.899L88.9102 118.175Z" fill="#EBEBEB"/>
<path d="M96.77 129.414V136.51L101.796 136.117V129.807L96.77 129.414Z" fill="#EBEBEB"/>
<path d="M94.3781 142.917L89.3643 147.937L93.1913 151.213L97.654 146.75L94.3781 142.917Z" fill="#EBEBEB"/>
<path d="M83.1395 150.777H76.0427L76.4363 155.803H82.7459L83.1395 150.777Z" fill="#EBEBEB"/>
<path d="M69.6362 148.385L64.6164 143.371L61.3405 147.198L65.8032 151.661L69.6362 148.385Z" fill="#EBEBEB"/>
<path d="M61.7765 137.146V130.049L56.7506 130.443V136.753L61.7765 137.146Z" fill="#EBEBEB"/>
<path d="M64.1622 123.643L69.182 118.623L65.3551 115.347L60.8923 119.81L64.1622 123.643Z" fill="#EBEBEB"/>
<path d="M174.871 -3.05176e-05V41.0488L237.489 41.0488V-3.05176e-05L174.871 -3.05176e-05Z" fill="#EBEBEB"/>
<path d="M207.128 21.4782V38.8267H234.982V21.4782H207.128Z" fill="white"/>
<path d="M207.134 2.22873V19.5771H234.988V2.22873H207.134Z" fill="white"/>
<path d="M177.384 21.4782V38.8267H205.239V21.4782H177.384Z" fill="white"/>
<path d="M177.384 2.22873V19.5771H205.239V2.22873H177.384Z" fill="white"/>
<path opacity="0.2" d="M179.867 21.4722H189.689L177.384 33.7765V23.9548L179.867 21.4722Z" fill="#EBEBEB"/>
<path opacity="0.2" d="M205.238 2.22852V5.92225L191.584 19.5769H181.762L199.111 2.22852H205.238Z" fill="#EBEBEB"/>
<path opacity="0.2" d="M208.932 2.22852L207.134 4.02694V2.22852H208.932Z" fill="#EBEBEB"/>
<path opacity="0.2" d="M198.323 38.8265L205.239 31.9053V38.8265H198.323Z" fill="#EBEBEB"/>
<path opacity="0.2" d="M215.672 21.4722H225.5L208.145 38.8266H207.134V30.0101L215.672 21.4722Z" fill="#EBEBEB"/>
<path opacity="0.2" d="M234.988 2.22852V11.9836L227.395 19.5769H217.567L234.915 2.22852H234.988Z" fill="#EBEBEB"/>
<path opacity="0.2" d="M194.109 2.22852L177.384 18.9532V14.0363L189.192 2.22852H194.109Z" fill="#EBEBEB"/>
<path opacity="0.2" d="M234.988 24.1724V29.0832L225.245 38.8262H220.334L234.988 24.1724Z" fill="#EBEBEB"/>
<path opacity="0.2" d="M194.03 38.8265L205.239 27.6182V28.8413L195.253 38.8265H194.03Z" fill="#EBEBEB"/>
<path opacity="0.2" d="M212.608 21.4722L207.134 26.9462V25.723L211.385 21.4722H212.608Z" fill="#EBEBEB"/>
<path opacity="0.2" d="M231.851 2.22852L214.503 19.5769H213.28L230.628 2.22852H231.851Z" fill="#EBEBEB"/>
<path opacity="0.2" d="M234.189 21.4722L216.834 38.8266H215.611L232.966 21.4722H234.189Z" fill="#EBEBEB"/>
<path opacity="0.2" d="M234.988 19.4492V19.5764H234.861L234.988 19.4492Z" fill="#EBEBEB"/>
<path d="M53.6442 0.0058403V41.0547L116.262 41.0547V0.0058403L53.6442 0.0058403Z" fill="#EBEBEB"/>
<path d="M85.9008 21.4719V38.8203H113.755V21.4719H85.9008Z" fill="white"/>
<path d="M85.9068 2.22873V19.5771H113.761V2.22873H85.9068Z" fill="white"/>
<path d="M56.1511 21.4719V38.8203H84.0054V21.4719H56.1511Z" fill="white"/>
<path d="M56.1571 2.22872V19.5771H84.0115V2.22872H56.1571Z" fill="white"/>
<path opacity="0.2" d="M58.6337 21.4722H68.4554L56.1511 33.7765V23.9548L58.6337 21.4722Z" fill="#EBEBEB"/>
<path opacity="0.2" d="M84.0054 2.22852V5.92225L70.3507 19.5769H60.5291L77.8775 2.22852H84.0054Z" fill="#EBEBEB"/>
<path opacity="0.2" d="M87.6992 2.22852L85.9008 4.02694V2.22852H87.6992Z" fill="#EBEBEB"/>
<path opacity="0.2" d="M77.0903 38.8265L84.0054 31.9053V38.8265H77.0903Z" fill="#EBEBEB"/>
<path opacity="0.2" d="M94.4387 21.4722H104.266L86.912 38.8266H85.9008V30.0101L94.4387 21.4722Z" fill="#EBEBEB"/>
<path opacity="0.2" d="M113.755 2.22852V11.9836L106.162 19.5769H96.334L113.682 2.22852H113.755Z" fill="#EBEBEB"/>
<path opacity="0.2" d="M72.8758 2.22852L56.1511 18.9532V14.0363L67.9589 2.22852H72.8758Z" fill="#EBEBEB"/>
<path opacity="0.2" d="M113.755 24.1724V29.0832L104.012 38.8262H99.1013L113.755 24.1724Z" fill="#EBEBEB"/>
<path opacity="0.2" d="M72.7971 38.8265L84.0055 27.6182V28.8413L74.0203 38.8265H72.7971Z" fill="#EBEBEB"/>
<path opacity="0.2" d="M91.3747 21.4722L85.9008 26.9462V25.723L90.1516 21.4722H91.3747Z" fill="#EBEBEB"/>
<path opacity="0.2" d="M110.618 2.22852L93.27 19.5769H92.0469L109.395 2.22852H110.618Z" fill="#EBEBEB"/>
<path opacity="0.2" d="M112.956 21.4722L95.6013 38.8266H94.3782L111.733 21.4722H112.956Z" fill="#EBEBEB"/>
<path opacity="0.2" d="M113.755 19.4492V19.5764H113.628L113.755 19.4492Z" fill="#EBEBEB"/>
<path d="M17.4923 158.422C18.1392 157.648 18.9885 157.07 19.9444 156.753C20.9004 156.436 21.9252 156.393 22.9035 156.628L20.0528 160.036L21.3509 162.241L23.7462 163.134L26.5974 159.725C26.9825 160.611 27.1246 161.584 27.0088 162.545C26.893 163.505 26.5235 164.418 25.9387 165.188C25.3538 165.957 24.5748 166.557 23.6821 166.924C22.7895 167.291 21.8157 167.412 20.8615 167.275C19.9072 167.138 19.0072 166.747 18.2545 166.144C17.5018 165.54 16.9237 164.746 16.5801 163.842C16.2365 162.939 16.1398 161.96 16.3 161.006C16.4603 160.052 16.8716 159.157 17.4915 158.416L17.4923 158.422Z" fill="#C7C7C7" fill-opacity="0.4"/>
<path d="M21.5482 165.774L17.8563 162.67L4.71674 178.394L8.40873 181.498L21.5482 165.774Z" fill="#C7C7C7" fill-opacity="0.4"/>
<path d="M2.50952 184.798C3.16324 185.349 3.96535 185.692 4.81442 185.785C5.66349 185.878 6.52137 185.717 7.27955 185.321C8.03773 184.925 8.66215 184.312 9.07384 183.561C9.48553 182.809 9.666 181.953 9.59241 181.099C9.51883 180.245 9.19449 179.433 8.66044 178.765C8.12638 178.097 7.40659 177.603 6.5921 177.345C5.77762 177.088 4.90503 177.079 4.0847 177.319C3.26437 177.559 2.53314 178.038 1.98352 178.695C1.61846 179.131 1.34247 179.635 1.17133 180.177C1.00019 180.72 0.937244 181.291 0.986092 181.858C1.03494 182.424 1.19462 182.976 1.45602 183.48C1.71741 183.985 2.0754 184.432 2.50952 184.798ZM6.56351 179.951C6.86352 180.204 7.08181 180.541 7.19078 180.919C7.29974 181.297 7.2945 181.699 7.17571 182.075C7.05691 182.45 6.8299 182.782 6.52338 183.028C6.21685 183.274 5.84457 183.424 5.45361 183.458C5.06264 183.492 4.67054 183.409 4.32688 183.219C3.98321 183.03 3.70342 182.742 3.52287 182.393C3.34231 182.044 3.2691 181.648 3.3125 181.257C3.35589 180.866 3.51394 180.496 3.76666 180.195C3.93456 179.994 4.1401 179.829 4.37154 179.708C4.60299 179.588 4.85581 179.514 5.11554 179.491C5.37527 179.469 5.63684 179.498 5.88529 179.576C6.13374 179.655 6.3642 179.782 6.56351 179.951Z" fill="#C7C7C7" fill-opacity="0.4"/>
</svg>
