<svg xmlns="http://www.w3.org/2000/svg" width="46" height="44" fill="none" viewBox="0 0 46 44"><g clip-path="url(#clip0_1308_1553)"><path fill="#303564" d="M38.9009 21.8333L25.1509 10.5833C24.9791 10.4436 24.7468 10.3652 24.5046 10.3652C24.2624 10.3652 24.0301 10.4436 23.8584 10.5833L10.1084 21.8333C9.95818 21.9768 9.87971 22.1614 9.88862 22.3501C9.89753 22.5389 9.99317 22.7179 10.1564 22.8515C10.3197 22.9851 10.5385 23.0633 10.7692 23.0706C10.9999 23.0779 11.2255 23.0137 11.4009 22.8908L24.5 12.1733L37.5992 22.8983C37.7746 23.0212 38.0001 23.0854 38.2308 23.0781C38.4615 23.0708 38.6804 22.9926 38.8436 22.859C39.0069 22.7254 39.1025 22.5464 39.1114 22.3576C39.1203 22.1689 39.0419 21.9843 38.8917 21.8408L38.9009 21.8333Z"/><path fill="#303564" d="M33.6667 32.8665H29.0833V25.3665H19.9167V32.8665H15.3333V22.3665L13.5 23.8665V32.8665C13.5 33.2643 13.6932 33.6459 14.037 33.9272C14.3808 34.2085 14.8471 34.3665 15.3333 34.3665H21.75V26.8665H27.25V34.3665H33.6667C34.1529 34.3665 34.6192 34.2085 34.963 33.9272C35.3068 33.6459 35.5 33.2643 35.5 32.8665V23.6865L33.6667 22.1865V32.8665Z"/></g><defs><clipPath id="clip0_1308_1553"><rect width="33" height="27" fill="#fff" transform="translate(8 8.86621)"/></clipPath></defs></svg>