<svg width="255" height="269" viewBox="0 0 255 269" fill="none" xmlns="http://www.w3.org/2000/svg">
<path d="M203.086 63.7721L196.527 97.5461L246.632 107.277L253.191 73.5025L203.086 63.7721Z" fill="#EBEBEB"/>
<path d="M253.277 73.949C253.105 74.085 252.921 74.2055 252.728 74.3089L251.094 75.2587L245.041 78.6862L224.948 89.8419L224.783 89.9363L224.659 89.7888L224.358 89.4407L209.303 71.6719L204.784 66.2445L203.575 64.7578C203.424 64.5901 203.29 64.4084 203.174 64.2151C203.345 64.3598 203.503 64.5198 203.646 64.6929C203.964 65.0587 204.389 65.5306 204.92 66.1265L209.557 71.4359L224.712 89.134L225.013 89.482L224.724 89.4348L244.882 78.3735L251.006 75.0699L252.681 74.1968C252.871 74.0949 253.071 74.0119 253.277 73.949Z" fill="#E0E0E0"/>
<path d="M196.614 97.9888C196.531 97.8886 201.203 93.9891 207.038 89.2814C212.872 84.5737 217.657 80.8394 217.751 80.9397C217.845 81.04 213.167 84.9336 207.327 89.6472C201.486 94.3607 196.696 98.1009 196.614 97.9888Z" fill="#E0E0E0"/>
<path d="M234.488 83.7539C234.606 83.6949 237.437 89.0102 240.812 95.6293C244.186 102.248 246.835 107.664 246.711 107.723C246.587 107.782 243.761 102.461 240.387 95.8417C237.012 89.2226 234.375 83.8129 234.488 83.7539Z" fill="#E0E0E0"/>
<path d="M247.987 8.80856L213.974 18.9224L220.793 41.852L254.805 31.7382L247.987 8.80856Z" fill="#EBEBEB"/>
<path d="M248.18 9.02075C248.113 9.15826 248.036 9.29041 247.95 9.41601L247.254 10.531C246.611 11.5162 245.72 12.8907 244.622 14.5897C242.363 18.0291 239.266 22.7308 235.832 27.9459L235.762 28.0521L235.638 28.0049L235.349 27.8987L220.341 21.7693L215.81 19.8756L214.583 19.3446C214.438 19.2905 214.297 19.2234 214.164 19.144C214.316 19.1773 214.464 19.2247 214.607 19.2856L215.857 19.7576C216.966 20.2 218.524 20.8077 220.429 21.5274L235.467 27.5919L235.762 27.7099L235.567 27.7748L244.416 14.4718L247.13 10.4661L247.879 9.38651C247.966 9.25452 248.067 9.13194 248.18 9.02075Z" fill="#E0E0E0"/>
<path d="M220.984 42.0572C220.901 42.0218 222.524 38.1165 224.606 33.338C226.689 28.5595 228.447 24.7131 228.529 24.7485C228.612 24.7839 226.99 28.6893 224.901 33.4678C222.813 38.2463 221.067 42.1044 220.984 42.0572Z" fill="#E0E0E0"/>
<path d="M239.75 21.1144C239.803 21.0377 243.254 23.4092 247.466 26.4238C251.678 29.4383 255.047 31.9043 254.999 31.9751C254.952 32.0459 251.489 29.6802 247.277 26.6657C243.065 23.6511 239.697 21.1851 239.75 21.1144Z" fill="#E0E0E0"/>
<path d="M219.722 132.689L219.652 150.168L245.585 150.272L245.655 132.793L219.722 132.689Z" fill="#F5F5F5"/>
<path d="M245.749 133.008C245.674 133.09 245.593 133.166 245.507 133.238L244.788 133.869C244.133 134.423 243.213 135.196 242.092 136.152L233.119 143.638L233.048 143.703L232.971 143.644L232.788 143.497L223.585 136.04L220.813 133.763L220.069 133.131C219.979 133.062 219.894 132.985 219.816 132.901C219.916 132.957 220.011 133.022 220.099 133.096L220.872 133.686L223.692 135.904L232.936 143.308L233.119 143.449H232.989L242.003 136.01L244.746 133.786L245.496 133.196C245.574 133.125 245.659 133.062 245.749 133.008Z" fill="#EBEBEB"/>
<path d="M219.739 150.381C219.692 150.34 221.65 147.951 224.116 145.072C226.582 142.193 228.624 139.845 228.677 139.892C228.73 139.939 226.765 142.323 224.299 145.201C221.833 148.08 219.792 150.422 219.739 150.381Z" fill="#EBEBEB"/>
<path d="M237.296 139.68C237.349 139.644 239.266 142.039 241.579 144.989C243.891 147.939 245.708 150.422 245.679 150.464C245.649 150.505 243.708 148.104 241.396 145.154C239.083 142.205 237.248 139.721 237.296 139.68Z" fill="#EBEBEB"/>
<path d="M14.0526 116.638L11.2896 115.83L7.66467 128.218L10.4277 129.026L14.0526 116.638Z" fill="#EBEBEB"/>
<path d="M5.06899 119.244L4.2605 122.007L16.6488 125.632L17.4573 122.869L5.06899 119.244Z" fill="#EBEBEB"/>
<path d="M133.691 251.525C132.629 250.611 130.258 247.726 132.086 244.364C132.759 243.136 134.181 242.523 135.467 242.004C136.753 241.485 138.11 240.989 139.177 240.087C141.189 238.376 141.744 235.532 143.077 233.249C144.611 230.63 147.472 228.665 150.492 228.801C153.955 228.96 156.84 231.786 158.162 235.007C159.483 238.228 159.518 241.809 159.542 245.29C159.542 247.213 159.471 249.384 158.061 250.682C156.758 251.862 154.793 251.897 153.029 251.862L134.116 251.272" fill="#F5F5F5"/>
<path d="M169.866 199.517H120.128L129.084 252.941C129.27 254.054 129.768 255.092 130.52 255.933C131.271 256.775 132.246 257.386 133.331 257.696L133.508 257.743C133.656 257.785 133.797 257.832 133.951 257.861C134.283 257.926 134.621 257.963 134.959 257.974V258.027L135.201 257.991H157.371C157.779 257.989 158.186 257.947 158.586 257.867C159.88 257.666 161.073 257.047 161.981 256.104C162.89 255.161 163.465 253.947 163.619 252.646L167.937 215.834L168.132 214.371L169.842 199.794L169.866 199.517ZM160.48 233.597H155.377L155.89 218.088H161.79L160.48 233.597ZM162.303 218.088H167.188L165.371 233.597H160.976L162.303 218.088ZM147.72 250.782L147.407 237.326H154.758L154.309 250.794L147.72 250.782ZM139.779 237.326H146.917L147.224 250.794H140.818L139.779 237.326ZM140.328 250.794H134.334C133.744 247.16 133.024 242.435 132.222 237.326H139.301L140.328 250.794ZM139.49 233.609L138.31 218.1H146.504L146.858 233.609H139.49ZM147.33 233.609L146.971 218.1H155.407L154.887 233.609H147.33ZM146.858 214.371L146.528 200.012H155.967L155.495 214.371H146.858ZM146.363 214.371H138.009L136.889 200.012H146.074L146.363 214.371ZM137.473 214.371H128.612C128.293 212.389 128.022 210.513 127.727 208.82C126.801 203.015 126.453 200.832 126.258 200.012H136.381L137.473 214.371ZM137.762 218.088L138.942 233.597H131.644C131.396 232.022 131.143 230.429 130.895 228.837C130.305 225.179 129.715 221.516 129.202 218.088H137.762ZM131.119 233.597H126.317L123.715 218.088H128.677C129.455 222.884 130.299 228.217 131.143 233.597H131.119ZM131.709 237.314L133.821 250.782H129.208L126.966 237.326L131.709 237.314ZM154.787 250.782L155.236 237.314H160.144L158.993 250.782H154.787ZM155.967 214.371L156.445 200.012H163.377L162.15 214.371H155.967ZM125.739 200.012C125.939 201.051 126.848 206.702 128.063 214.371H123.072L120.659 200.012H125.739ZM163.377 250.782H159.53L160.657 237.326H164.934L163.377 250.782ZM167.648 214.371H162.645L163.872 200.012H169.335L167.648 214.371Z" fill="#E0E0E0"/>
<path d="M58.3623 0.142334H54.6398V80.2084H58.3623V0.142334Z" fill="#E0E0E0"/>
<path d="M54.0203 0.761719H0.672479C0.643156 0.761719 0.619385 0.78549 0.619385 0.814813V80.2673C0.619385 80.2966 0.643156 80.3204 0.672479 80.3204H54.0203C54.0496 80.3204 54.0734 80.2966 54.0734 80.2673V0.814813C54.0734 0.78549 54.0496 0.761719 54.0203 0.761719Z" fill="#F5F5F5"/>
<path d="M54.6398 80.9398H0.0530943C0.0390128 80.9398 0.0255075 80.9342 0.0155504 80.9242C0.00559334 80.9143 0 80.9008 0 80.8867V0.171747C0 0.164774 0.00137353 0.157869 0.00404176 0.151428C0.00670999 0.144986 0.0106202 0.139133 0.0155504 0.134203C0.0204807 0.129273 0.0263335 0.125362 0.0327752 0.122694C0.0392169 0.120026 0.0461218 0.118652 0.0530943 0.118652H54.6398C54.6468 0.118652 54.6537 0.120026 54.6601 0.122694C54.6666 0.125362 54.6724 0.129273 54.6773 0.134203C54.6823 0.139133 54.6862 0.144986 54.6889 0.151428C54.6915 0.157869 54.6929 0.164774 54.6929 0.171747V80.8867C54.6929 80.9008 54.6873 80.9143 54.6773 80.9242C54.6674 80.9342 54.6539 80.9398 54.6398 80.9398ZM1.29196 79.7009H53.395C53.4025 79.7018 53.41 79.701 53.4172 79.6987C53.4243 79.6964 53.4309 79.6926 53.4365 79.6876C53.442 79.6826 53.4465 79.6765 53.4495 79.6696C53.4525 79.6627 53.4541 79.6553 53.454 79.6478V1.43421C53.4541 1.42671 53.4525 1.41929 53.4495 1.41243C53.4465 1.40557 53.442 1.39943 53.4365 1.39442C53.4309 1.3894 53.4243 1.38562 53.4172 1.38333C53.41 1.38104 53.4025 1.38028 53.395 1.38111H1.29196C1.27788 1.38111 1.26437 1.38671 1.25441 1.39666C1.24446 1.40662 1.23886 1.42013 1.23886 1.43421V79.6478C1.23886 79.6619 1.24446 79.6754 1.25441 79.6854C1.26437 79.6953 1.27788 79.7009 1.29196 79.7009Z" fill="#EBEBEB"/>
<path d="M48.7286 5.66992H6.05273C6.0234 5.66992 5.99963 5.69369 5.99963 5.72302V75.3059C5.99963 75.3352 6.0234 75.359 6.05273 75.359H48.7286C48.758 75.359 48.7817 75.3352 48.7817 75.3059V5.72302C48.7817 5.69369 48.758 5.66992 48.7286 5.66992Z" fill="#FAFAFA"/>
<path d="M39.3192 25.4268H15.3679C15.3483 25.4268 15.3325 25.4426 15.3325 25.4622V53.549C15.3325 53.5685 15.3483 53.5844 15.3679 53.5844H39.3192C39.3388 53.5844 39.3546 53.5685 39.3546 53.549V25.4622C39.3546 25.4426 39.3388 25.4268 39.3192 25.4268Z" fill="#EBEBEB"/>
<path d="M37.4549 50.1333C37.4549 50.2277 36.2751 50.7233 34.0451 50.4814C32.6585 50.2999 31.3398 49.7724 30.2105 48.9476C28.6852 47.8017 27.6352 46.1342 27.2609 44.2635C27.0395 43.0896 27.1336 41.878 27.5337 40.7524C27.9338 39.6268 28.6254 38.6276 29.538 37.8568C30.0429 37.4294 30.615 37.0885 31.2311 36.848C31.9203 36.5921 32.6611 36.5071 33.3903 36.6002C34.1924 36.6783 34.9498 37.0065 35.5554 37.5382C35.8923 37.8565 36.146 38.2526 36.2941 38.6919C36.4422 39.1311 36.4802 39.5999 36.4049 40.0572C36.2401 40.8801 35.8285 41.6333 35.225 42.2164C34.6909 42.7484 34.0805 43.1978 33.4139 43.5497C32.0882 44.2868 30.6106 44.7087 29.0956 44.7826C27.4943 44.8709 25.9004 44.5092 24.4941 43.7384C23.0428 42.9312 21.8657 41.709 21.1137 40.2283C20.3353 38.7137 20.126 36.97 20.5238 35.3142C20.9065 33.7103 21.8189 32.2824 23.1136 31.2613C23.7616 30.762 24.4982 30.3897 25.2846 30.164C26.0714 29.9603 26.894 29.9361 27.6915 30.0932C28.55 30.2549 29.3315 30.6943 29.9156 31.3439C30.4739 32.0036 30.7811 32.8394 30.7828 33.7036C30.7875 34.4955 30.5841 35.2746 30.1928 35.9631C29.8513 36.5878 29.4042 37.1486 28.8714 37.6208C27.8769 38.4561 26.7168 39.0714 25.4675 39.426C24.3064 39.768 23.0864 39.8625 21.8866 39.7033C20.771 39.556 19.7048 39.1521 18.7717 38.5234C17.973 37.9914 17.2968 37.2954 16.7882 36.4816C16.2796 35.6678 15.9502 34.755 15.822 33.8039C15.6634 32.3657 16.0578 30.921 16.9252 29.7629C17.4437 29.0435 18.1498 28.4803 18.9664 28.1347C19.5563 27.9223 19.8454 27.9282 19.8631 27.9813C19.8808 28.0344 19.6094 28.1818 19.1493 28.4827C18.5036 28.9283 17.9639 29.5103 17.5682 30.1876C16.9415 31.2216 16.7109 32.4478 16.9193 33.6388C17.0746 34.4006 17.3852 35.1222 17.8318 35.7586C18.2784 36.395 18.8514 36.9325 19.515 37.3376C20.3326 37.8144 21.2441 38.1078 22.1864 38.1975C23.1286 38.2871 24.0791 38.1709 24.9719 37.8568C25.9745 37.5356 26.9003 37.0115 27.6915 36.3171C28.0792 36.0099 28.3948 35.6215 28.616 35.1791C28.8372 34.7367 28.9586 34.2512 28.9717 33.7567C28.9671 33.305 28.7971 32.8705 28.4938 32.5357C28.1905 32.2008 27.7749 31.9888 27.3258 31.9397C26.804 31.8455 26.2677 31.8697 25.7565 32.0105C25.217 32.1758 24.7129 32.4398 24.2699 32.7892C23.3404 33.5402 22.6851 34.5771 22.4057 35.7389C22.1362 36.9355 22.297 38.1888 22.8599 39.2785C23.4402 40.4087 24.3411 41.3424 25.4498 41.9627C26.5308 42.56 27.7555 42.8478 28.9894 42.7945C30.2122 42.7413 31.4076 42.4147 32.4877 41.8388C32.9983 41.5787 33.4691 41.247 33.8858 40.8537C34.2338 40.5394 34.4802 40.1287 34.5938 39.6738C34.6273 39.5076 34.6184 39.3355 34.5679 39.1737C34.5174 39.0118 34.4268 38.8652 34.3047 38.7476C33.9741 38.4583 33.5618 38.2789 33.1248 38.2343C32.6676 38.1664 32.2008 38.2068 31.7621 38.3523C31.3161 38.5349 30.9035 38.7901 30.5409 39.1075C29.8205 39.6849 29.2631 40.4403 28.9237 41.2989C28.5844 42.1576 28.4749 43.09 28.6059 44.0039C28.8648 45.585 29.6758 47.0231 30.8949 48.0627C31.8481 48.8618 32.9724 49.431 34.1808 49.7263C36.2161 50.1982 37.4373 49.9623 37.4549 50.1333Z" fill="#E0E0E0"/>
<path d="M32.1044 233.208L35.7443 257.136H56.8993L61.8076 233.556L32.1044 233.208Z" fill="#EBEBEB"/>
<path d="M58.852 248.535C58.852 248.599 53.4305 248.658 46.7465 248.658C40.0626 248.658 34.6411 248.599 34.6411 248.535C34.6411 248.47 40.0567 248.411 46.7465 248.411C53.4364 248.411 58.852 248.476 58.852 248.535Z" fill="#FAFAFA"/>
<path d="M58.958 247.355C58.958 247.425 53.507 247.478 46.7759 247.478C40.0447 247.478 34.5878 247.425 34.5878 247.355C34.5878 247.284 40.0447 247.231 46.7759 247.231C53.507 247.231 58.958 247.302 58.958 247.355Z" fill="#FAFAFA"/>
<path d="M58.8873 246.039C58.8873 246.11 53.4304 246.163 46.7052 246.163C39.9799 246.163 34.5171 246.11 34.5171 246.039C34.5171 245.968 39.9681 245.915 46.7052 245.915C53.4422 245.915 58.8873 245.968 58.8873 246.039Z" fill="#FAFAFA"/>
<path d="M38.1746 255.773C37.8786 254.787 37.6616 253.779 37.5257 252.758C37.311 251.756 37.1788 250.738 37.1304 249.714C37.4231 250.701 37.64 251.709 37.7794 252.729C37.994 253.731 38.1262 254.749 38.1746 255.773Z" fill="#FAFAFA"/>
<path d="M39.6142 255.519C39.4633 254.543 39.3765 253.558 39.3546 252.57C39.244 251.591 39.1967 250.605 39.213 249.62C39.4454 250.587 39.5759 251.576 39.6024 252.57C39.7051 253.55 39.7091 254.538 39.6142 255.519Z" fill="#FAFAFA"/>
<path d="M42.2394 255.519C41.9466 254.537 41.7607 253.527 41.6849 252.505C41.5283 251.492 41.475 250.466 41.5256 249.443C41.7214 250.445 41.8573 251.457 41.9326 252.475C42.0899 253.484 42.1923 254.5 42.2394 255.519Z" fill="#FAFAFA"/>
<path d="M44.0799 255.643C43.7538 253.615 43.6864 251.553 43.8794 249.508C43.9883 250.525 44.0395 251.547 44.0328 252.57C44.1075 253.592 44.1232 254.619 44.0799 255.643Z" fill="#FAFAFA"/>
<path d="M47.3365 255.519C47.1809 254.558 47.1059 253.585 47.1123 252.611C47.0279 251.641 47.0279 250.666 47.1123 249.697C47.2644 250.659 47.3374 251.631 47.3306 252.605C47.4184 253.575 47.4204 254.55 47.3365 255.519Z" fill="#FAFAFA"/>
<path d="M49.7198 255.643C49.5998 254.645 49.5662 253.639 49.6195 252.635C49.5843 251.631 49.6336 250.627 49.767 249.632C49.88 250.63 49.9135 251.637 49.8673 252.641C49.8956 253.644 49.8463 254.648 49.7198 255.643Z" fill="#FAFAFA"/>
<path d="M51.9497 255.325C51.9766 253.226 52.1739 251.132 52.5396 249.065C52.5603 250.115 52.4991 251.164 52.3568 252.204C52.3015 253.253 52.1654 254.296 51.9497 255.325Z" fill="#FAFAFA"/>
<path d="M54.8286 255.024C54.8326 254.122 54.9515 253.224 55.1826 252.351C55.3376 251.463 55.6011 250.597 55.9672 249.773C55.8378 250.66 55.6566 251.539 55.4244 252.405C55.2764 253.288 55.0775 254.163 54.8286 255.024Z" fill="#FAFAFA"/>
<path d="M52.7874 186.001C52.7874 186.001 52.7874 186.043 52.7874 186.114C52.7874 186.184 52.7284 186.32 52.6871 186.456C52.5927 186.768 52.457 187.199 52.2859 187.748C52.1149 188.296 51.8907 188.987 51.6665 189.795C51.4423 190.603 51.1533 191.5 50.9055 192.52C50.6577 193.541 50.3155 194.65 50.0796 195.853C49.8436 197.057 49.5368 198.349 49.2655 199.706C48.7581 202.431 48.2921 205.452 47.9676 208.637C47.6431 211.823 47.5134 214.873 47.4721 217.646C47.4721 219.032 47.4721 220.353 47.5134 221.586C47.5547 222.819 47.5959 223.946 47.6608 225.014C47.7257 226.082 47.8024 227.008 47.8673 227.84C47.9322 228.671 48.0089 229.385 48.0738 229.969C48.1387 230.553 48.18 230.984 48.2095 231.314C48.2095 231.456 48.2095 231.568 48.2449 231.662C48.2486 231.704 48.2486 231.745 48.2449 231.786C48.2405 231.747 48.2405 231.708 48.2449 231.668C48.2449 231.574 48.2449 231.462 48.1918 231.32C48.1446 230.99 48.0856 230.547 48.0089 229.981C47.9322 229.415 47.8319 228.683 47.7611 227.851C47.6903 227.02 47.5723 226.082 47.5134 225.026C47.4544 223.97 47.3659 222.825 47.3364 221.592C47.3069 220.359 47.2833 219.032 47.2715 217.646C47.301 214.861 47.4367 211.805 47.7493 208.608C48.062 205.41 48.5457 202.396 49.0649 199.664C49.3481 198.302 49.6076 197.004 49.9085 195.806C50.2094 194.609 50.4984 193.488 50.7639 192.473C51.0294 191.458 51.3538 190.55 51.5603 189.753C51.7668 188.957 52.0264 188.273 52.2269 187.718L52.6694 186.438L52.7933 186.108L52.7874 186.001Z" fill="#EBEBEB"/>
<path d="M48.9706 200.815C49.5573 199.099 50.7206 197.639 52.2624 196.685C52.5039 196.493 52.7891 196.363 53.0926 196.308C53.3962 196.252 53.7088 196.272 54.0027 196.367C54.7401 196.72 54.7991 197.759 54.5926 198.549C54.2248 199.886 53.3868 201.044 52.2329 201.812C51.1995 202.571 49.9104 202.897 48.6402 202.72" fill="#EBEBEB"/>
<path d="M47.6845 210.82C48.2331 208.755 49.879 205.817 51.5899 204.537C51.8531 204.323 52.1557 204.163 52.4807 204.065C52.6438 204.019 52.8157 204.014 52.9812 204.05C53.1468 204.086 53.301 204.162 53.4305 204.272C53.5761 204.464 53.6718 204.69 53.7089 204.929C53.7459 205.168 53.7232 205.412 53.6428 205.64C53.2923 207.146 52.5294 208.525 51.4395 209.622C50.3497 210.72 48.9759 211.492 47.4721 211.852" fill="#EBEBEB"/>
<path d="M47.3305 219.628C48.1864 217.653 49.5527 215.943 51.289 214.672C51.4728 214.501 51.6895 214.37 51.9258 214.286C52.1622 214.202 52.4132 214.166 52.6635 214.182C53.4127 214.318 53.749 215.227 53.6841 215.988C53.5484 217.545 52.3568 218.79 51.1297 219.757C50.0029 220.538 48.7793 221.169 47.4898 221.633" fill="#EBEBEB"/>
<path d="M47.5311 225.952C48.3541 224.45 49.4983 223.149 50.8819 222.141C51.1783 221.913 51.5237 221.758 51.8907 221.687C52.0737 221.655 52.2618 221.674 52.4352 221.74C52.6085 221.806 52.7608 221.918 52.8759 222.064C53.2121 222.554 52.8759 223.244 52.5337 223.698C51.3554 225.356 49.6796 226.596 47.7493 227.238" fill="#EBEBEB"/>
<path d="M47.3659 223.38C45.9198 221.612 44.3165 219.979 42.5756 218.501C42.3043 218.271 41.9857 218.029 41.6199 218.141C41.4908 218.192 41.3799 218.281 41.3011 218.395C41.2224 218.51 41.1793 218.645 41.1775 218.784C41.1769 219.062 41.2395 219.336 41.3604 219.586C41.9328 220.859 42.785 221.986 43.8533 222.884C44.9217 223.782 46.1788 224.427 47.5311 224.772" fill="#EBEBEB"/>
<path d="M47.5193 215.144L43.7555 210.554C43.4261 210.088 43.0118 209.688 42.5343 209.375C42.2916 209.227 42.013 209.149 41.729 209.149C41.4451 209.149 41.1665 209.227 40.9238 209.375C40.7064 209.555 40.5434 209.792 40.4527 210.06C40.3621 210.328 40.3475 210.615 40.4105 210.891C40.5456 211.441 40.797 211.956 41.148 212.401C41.877 213.531 42.8067 214.519 43.8912 215.315C44.9943 216.076 45.9972 216.572 47.3246 216.371" fill="#EBEBEB"/>
<path d="M48.0443 205.87C47.3067 203.672 45.9975 201.709 44.251 200.183C43.9794 199.905 43.6399 199.701 43.2658 199.593C42.8813 199.563 42.4984 199.668 42.1829 199.89C41.8674 200.112 41.6391 200.437 41.5373 200.809C41.4196 201.225 41.3897 201.661 41.4496 202.09C41.5095 202.519 41.6579 202.93 41.8854 203.298C42.3445 204.034 42.9463 204.669 43.6552 205.168C44.924 206.138 46.3375 206.903 47.8437 207.434" fill="#EBEBEB"/>
<path d="M49.5486 197.6C49.1828 194.939 47.7788 192.727 46.1919 190.573C45.8556 190.119 45.3836 189.635 44.8232 189.724C44.6464 189.761 44.4818 189.842 44.3447 189.96C44.2075 190.077 44.1022 190.227 44.0386 190.396C43.9137 190.736 43.8615 191.098 43.8852 191.458C43.9579 193.067 44.4992 194.619 45.4425 195.924C46.3858 197.229 47.69 198.23 49.1946 198.803" fill="#EBEBEB"/>
<path d="M50.5988 193.376C50.4258 192.006 50.3804 190.624 50.4631 189.246C50.5469 187.864 51.0215 186.534 51.8317 185.411C52.1744 184.928 52.6469 184.552 53.1945 184.326C53.4699 184.215 53.7692 184.177 54.0637 184.215C54.3582 184.253 54.6379 184.367 54.8758 184.544C55.0785 184.731 55.2367 184.961 55.3388 185.218C55.4408 185.474 55.4842 185.75 55.4657 186.025C55.4177 186.571 55.2739 187.104 55.041 187.6C54.0381 190.013 52.3627 192.685 50.6165 193.358" fill="#EBEBEB"/>
<path d="M34.1808 196.549C34.1908 196.661 34.1908 196.774 34.1808 196.886C34.1808 197.133 34.1808 197.476 34.1808 197.853C34.1808 198.231 34.1808 198.785 34.1808 199.381C34.1808 199.977 34.1808 200.649 34.2575 201.399C34.3224 202.897 34.464 204.673 34.6941 206.643C34.9242 208.613 35.284 210.773 35.7324 212.997C36.1807 215.221 36.7707 217.339 37.337 219.232C37.9033 221.126 38.5169 222.813 39.0419 224.211C39.2956 224.913 39.567 225.539 39.7852 226.093C40.0035 226.648 40.21 227.114 40.3752 227.497L40.7527 228.388C40.8072 228.488 40.847 228.595 40.8707 228.707C40.8116 228.61 40.7584 228.509 40.7114 228.406L40.2867 227.539C40.1038 227.161 39.8914 226.695 39.6554 226.146C39.4195 225.598 39.1422 224.966 38.8767 224.276C38.2868 222.884 37.6969 221.197 37.1069 219.303C36.517 217.409 35.9565 215.292 35.4787 213.05C35.0009 210.808 34.7708 208.643 34.5348 206.649C34.2988 204.655 34.1926 202.891 34.1513 201.387C34.1159 200.638 34.1513 199.959 34.116 199.363C34.0806 198.767 34.116 198.254 34.116 197.835C34.116 197.417 34.1159 197.116 34.1513 196.868C34.153 196.761 34.1629 196.655 34.1808 196.549Z" fill="#E0E0E0"/>
<path d="M34.7708 207.457C34.7939 206.157 35.2695 204.905 36.1158 203.918C36.2396 203.736 36.4059 203.588 36.6002 203.485C36.7945 203.382 37.011 203.328 37.2308 203.328C37.8207 203.416 38.0744 204.107 38.0921 204.691C38.1231 205.685 37.7942 206.657 37.1659 207.428C36.6276 208.168 35.8207 208.668 34.9182 208.82" fill="#E0E0E0"/>
<path d="M36.0686 214.543C35.9919 213.021 36.4815 210.667 37.3723 209.428C37.5035 209.225 37.674 209.05 37.8738 208.915C37.9749 208.848 38.0906 208.808 38.2109 208.797C38.3311 208.785 38.4523 208.804 38.564 208.85C38.7064 208.949 38.8215 209.083 38.8988 209.239C38.9761 209.394 39.0131 209.567 39.0065 209.74C39.0918 210.842 38.8687 211.945 38.3623 212.926C37.8559 213.908 37.0862 214.729 36.1394 215.298" fill="#E0E0E0"/>
<path d="M37.7205 220.619C37.8756 219.092 38.4334 217.635 39.3369 216.395C39.4263 216.24 39.546 216.105 39.689 215.997C39.8319 215.89 39.9951 215.812 40.1687 215.769C40.7055 215.699 41.1303 216.247 41.2483 216.778C41.4901 217.864 40.9533 218.973 40.3221 219.893C39.7237 220.668 39.0255 221.36 38.2455 221.952" fill="#E0E0E0"/>
<path d="M39.2189 224.884C39.4568 223.683 39.9563 222.549 40.682 221.563C40.8353 221.346 41.0374 221.168 41.2719 221.044C41.3894 220.98 41.5221 220.951 41.6553 220.958C41.7885 220.965 41.9171 221.009 42.027 221.085C42.3633 221.35 42.2866 221.87 42.145 222.265C41.6958 223.642 40.8197 224.84 39.6437 225.686" fill="#E0E0E0"/>
<path d="M38.5523 223.167C37.1884 222.273 35.7448 221.507 34.2398 220.878C34.1309 220.811 34.007 220.773 33.8793 220.765C33.7516 220.758 33.6242 220.783 33.5083 220.837C33.4331 220.9 33.378 220.984 33.3498 221.079C33.3215 221.173 33.3212 221.273 33.349 221.368C33.4085 221.557 33.5092 221.73 33.644 221.875C34.3072 222.617 35.1287 223.201 36.0476 223.583C36.9666 223.965 37.9597 224.135 38.9534 224.082" fill="#E0E0E0"/>
<path d="M36.8828 217.528L33.3432 215.215C33.0204 214.971 32.654 214.791 32.2636 214.684C32.0674 214.634 31.8613 214.639 31.6678 214.698C31.4742 214.758 31.3008 214.869 31.1663 215.02C31.0589 215.191 31.0019 215.388 31.0019 215.59C31.0019 215.791 31.0589 215.988 31.1663 216.159C31.3741 216.505 31.6537 216.803 31.9863 217.032C32.7154 217.647 33.5485 218.126 34.4463 218.448C34.8532 218.62 35.2906 218.709 35.7324 218.709C36.1743 218.709 36.6116 218.62 37.0185 218.448" fill="#E0E0E0"/>
<path d="M35.2427 211.097C34.2655 209.761 32.9529 208.707 31.4376 208.041C31.1925 207.913 30.9176 207.852 30.6412 207.864C30.3761 207.926 30.1403 208.076 29.9737 208.291C29.807 208.506 29.7198 208.772 29.7268 209.044C29.7371 209.353 29.811 209.657 29.944 209.936C30.077 210.215 30.2661 210.464 30.4996 210.667C30.9708 211.069 31.5186 211.372 32.1101 211.557C33.1803 211.945 34.3054 212.16 35.4432 212.195" fill="#E0E0E0"/>
<path d="M34.4877 205.145C33.6677 203.41 32.2459 202.195 30.6885 201.08C30.5422 200.942 30.363 200.843 30.1678 200.793C29.9727 200.744 29.7681 200.745 29.5735 200.797C29.4612 200.861 29.3668 200.953 29.2988 201.063C29.2309 201.173 29.1914 201.299 29.1841 201.428C29.1743 201.686 29.2185 201.943 29.3139 202.183C29.7039 203.271 30.4064 204.218 31.3331 204.908C32.2598 205.597 33.3696 205.998 34.5231 206.059" fill="#E0E0E0"/>
<path d="M34.2989 202.042C33.8836 201.153 33.5557 200.227 33.3196 199.275C33.0775 198.317 33.1123 197.311 33.4199 196.372C33.5517 195.969 33.7926 195.609 34.116 195.334C34.2786 195.202 34.4722 195.113 34.6786 195.076C34.8849 195.039 35.0973 195.054 35.2959 195.122C35.4731 195.206 35.6289 195.33 35.7515 195.483C35.8742 195.636 35.9604 195.815 36.0038 196.007C36.0945 196.393 36.1125 196.793 36.0569 197.187C35.8917 199.045 35.3254 201.228 34.2871 202.059" fill="#E0E0E0"/>
<path d="M60.9403 196.319C60.9532 196.431 60.9532 196.544 60.9403 196.656C60.9403 196.897 60.9403 197.246 60.9757 197.617C61.0111 197.989 61.0052 198.549 60.9757 199.151C60.9462 199.753 60.9757 200.425 60.9403 201.175C60.899 202.679 60.7692 204.46 60.5568 206.437C60.3445 208.413 59.9964 210.566 59.5303 212.814C59.0643 215.062 58.4862 217.168 57.908 219.067C57.3299 220.967 56.7281 222.654 56.1382 224.04C55.8727 224.748 55.5896 225.362 55.3595 225.91C55.1294 226.459 54.9111 226.931 54.7283 227.309C54.5454 227.686 54.4156 227.958 54.3035 228.176C54.2625 228.28 54.209 228.379 54.1442 228.471C54.1761 228.364 54.2155 228.259 54.2622 228.158C54.3566 227.928 54.4805 227.633 54.6398 227.267C54.7991 226.902 55.0114 226.412 55.2297 225.857C55.448 225.303 55.7194 224.678 55.973 223.981C56.5158 222.583 57.0998 220.896 57.6838 219.002C58.2679 217.109 58.8047 215.003 59.2826 212.767C59.7604 210.531 60.079 208.372 60.3208 206.407C60.5627 204.443 60.6925 202.667 60.7633 201.169C60.8105 200.419 60.8164 199.741 60.8341 199.145C60.8518 198.549 60.8341 198.042 60.8341 197.617C60.8341 197.192 60.8341 196.897 60.8341 196.656C60.8612 196.541 60.8967 196.429 60.9403 196.319Z" fill="#EBEBEB"/>
<path d="M60.3503 207.239C60.3272 205.939 59.8516 204.687 59.0053 203.699C58.8822 203.517 58.7161 203.368 58.5216 203.265C58.3271 203.162 58.1103 203.109 57.8903 203.109C57.3004 203.192 57.0467 203.888 57.029 204.472C56.998 205.466 57.3269 206.438 57.9552 207.209C58.4948 207.951 59.3041 208.451 60.2087 208.602" fill="#EBEBEB"/>
<path d="M59.0761 214.318C59.1469 212.796 58.6572 210.442 57.7664 209.203C57.6353 209.001 57.4648 208.826 57.265 208.69C57.1639 208.624 57.0482 208.584 56.9279 208.572C56.8076 208.561 56.6864 208.579 56.5748 208.625C56.4328 208.725 56.3179 208.859 56.2407 209.015C56.1634 209.17 56.1262 209.343 56.1323 209.516C56.0477 210.617 56.271 211.72 56.7773 212.702C57.2837 213.683 58.053 214.504 58.9994 215.073" fill="#EBEBEB"/>
<path d="M57.4183 220.383C57.2666 218.858 56.7084 217.401 55.8019 216.165C55.713 216.01 55.5942 215.875 55.4524 215.766C55.3106 215.658 55.1487 215.579 54.976 215.534C54.4333 215.469 54.0085 216.017 53.8905 216.542C53.6487 217.634 54.1914 218.743 54.8167 219.663C55.4167 220.437 56.1147 221.129 56.8933 221.722" fill="#EBEBEB"/>
<path d="M55.92 224.654C55.684 223.453 55.1865 222.319 54.4629 221.333C54.3092 221.115 54.1073 220.935 53.8729 220.808C53.7546 220.747 53.6218 220.719 53.4889 220.727C53.3559 220.735 53.2277 220.779 53.1178 220.855C52.7875 221.114 52.8583 221.639 52.9998 222.035C53.4531 223.408 54.3285 224.604 55.5012 225.45" fill="#EBEBEB"/>
<path d="M56.5984 222.937C57.9622 222.041 59.4058 221.273 60.9108 220.642C61.0204 220.577 61.1441 220.539 61.2715 220.532C61.3989 220.525 61.5262 220.548 61.6424 220.601C61.7175 220.666 61.7724 220.751 61.8006 220.846C61.8288 220.941 61.8292 221.042 61.8017 221.138C61.7408 221.326 61.6402 221.499 61.5067 221.645C60.843 222.387 60.0214 222.97 59.1026 223.351C58.1837 223.733 57.1909 223.904 56.1973 223.852" fill="#EBEBEB"/>
<path d="M58.2561 217.297L61.7958 214.979C62.1203 214.739 62.4862 214.561 62.8753 214.454C63.071 214.403 63.2767 214.407 63.4702 214.466C63.6637 214.524 63.8375 214.634 63.9726 214.784C64.0799 214.956 64.1368 215.154 64.1368 215.357C64.1368 215.559 64.0799 215.757 63.9726 215.929C63.7624 216.274 63.4808 216.569 63.1467 216.796C62.4054 217.408 61.5601 217.881 60.6513 218.194C60.2444 218.367 59.8071 218.455 59.3652 218.455C58.9234 218.455 58.486 218.367 58.0792 218.194" fill="#EBEBEB"/>
<path d="M59.8961 210.867C60.869 209.541 62.1729 208.493 63.6776 207.829C63.9225 207.699 64.1971 207.636 64.474 207.646C64.7391 207.707 64.9749 207.858 65.1415 208.073C65.3081 208.288 65.3954 208.554 65.3884 208.826C65.38 209.136 65.3069 209.441 65.1738 209.722C65.0407 210.002 64.8506 210.251 64.6156 210.454C64.1428 210.851 63.598 211.154 63.011 211.345C61.9379 211.73 60.8113 211.945 59.6719 211.982" fill="#EBEBEB"/>
<path d="M60.6513 204.915C61.4713 203.18 62.8931 201.965 64.4505 200.85C64.5967 200.712 64.776 200.613 64.9711 200.563C65.1663 200.514 65.3709 200.515 65.5655 200.567C65.6781 200.631 65.7728 200.722 65.8408 200.833C65.9089 200.943 65.9481 201.069 65.9548 201.198C65.9672 201.456 65.9229 201.714 65.825 201.953C65.4273 203.034 64.7222 203.974 63.7966 204.658C62.871 205.343 61.7654 205.742 60.6159 205.806" fill="#EBEBEB"/>
<path d="M60.8459 201.812C61.257 200.92 61.5848 199.991 61.8252 199.039C62.0622 198.081 62.0254 197.075 61.719 196.137C61.5871 195.735 61.3461 195.377 61.0229 195.104C60.8603 194.972 60.6667 194.883 60.4604 194.846C60.254 194.809 60.0416 194.824 59.843 194.892C59.6674 194.977 59.5129 195.1 59.3905 195.252C59.2681 195.404 59.1809 195.581 59.1351 195.771C59.0515 196.158 59.0335 196.557 59.082 196.951C59.2472 198.809 59.8135 200.986 60.8518 201.824" fill="#EBEBEB"/>
<path d="M29.6797 228.477V232.954C29.6797 233.424 29.8661 233.874 30.1981 234.206C30.53 234.538 30.9801 234.724 31.4495 234.724H62.0848C62.5542 234.724 63.0044 234.538 63.3363 234.206C63.6682 233.874 63.8546 233.424 63.8546 232.954V228.477H29.6797Z" fill="#EBEBEB"/>
<path d="M32.3344 234.712L32.588 236.14L60.8518 238.152L61.5656 234.712H32.3344Z" fill="#E0E0E0"/>
<path d="M215.556 210.478C215.509 210.543 215.108 210.301 214.66 209.941C214.211 209.581 213.887 209.245 213.934 209.186C213.981 209.127 214.388 209.363 214.831 209.723C215.273 210.082 215.604 210.419 215.556 210.478Z" fill="#263238"/>
<path d="M227.762 192.237C227.935 190.534 227.793 188.815 227.343 187.164C226.806 185.547 225.574 184.055 223.886 183.712C221.981 183.317 220.028 184.521 218.96 186.149C217.893 187.777 217.521 189.753 217.191 191.671C215.013 204.924 214.212 218.368 214.801 231.786L222.6 232.878C226.045 218.878 227.137 206.649 227.762 192.237Z" fill="#455A64"/>
<path d="M222.807 183.642C222.807 183.642 222.807 183.689 222.771 183.771L222.642 184.125C222.512 184.45 222.341 184.904 222.122 185.47C222.01 185.765 221.869 186.06 221.751 186.444L221.373 187.624C221.238 188.048 221.09 188.497 220.937 188.981C220.783 189.464 220.671 189.983 220.536 190.526C219.882 193.069 219.378 195.647 219.025 198.248C218.606 201.198 218.329 204.431 218.111 207.847C217.71 214.684 217.645 220.89 217.474 225.374C217.391 227.621 217.309 229.438 217.226 230.683C217.185 231.273 217.149 231.774 217.126 232.122C217.126 232.276 217.126 232.4 217.096 232.5C217.102 232.543 217.102 232.587 217.096 232.63C217.096 232.63 217.096 232.583 217.096 232.5C217.096 232.417 217.096 232.276 217.096 232.122C217.096 231.769 217.096 231.285 217.143 230.677C217.191 229.421 217.238 227.609 217.297 225.368C217.427 220.884 217.456 214.678 217.851 207.829C218.07 204.407 218.359 201.151 218.795 198.213C219.16 195.603 219.684 193.019 220.364 190.473L220.789 188.927C220.954 188.45 221.108 187.995 221.249 187.571L221.65 186.391C221.774 186.025 221.928 185.712 222.046 185.417C222.282 184.827 222.476 184.414 222.636 184.09L222.789 183.748C222.793 183.712 222.798 183.677 222.807 183.642Z" fill="#263238"/>
<path d="M223.55 183.642C223.957 184.123 224.28 184.669 224.506 185.258C225.101 186.869 225.344 188.589 225.22 190.302C225.007 194.614 224.63 200.555 224.11 207.115C223.591 213.675 223.025 219.61 222.565 223.893C222.335 226.04 222.134 227.769 221.975 228.966C221.9 229.544 221.841 230.005 221.798 230.347L221.745 230.701C221.744 230.744 221.734 230.786 221.715 230.825C221.715 230.825 221.715 230.783 221.715 230.701C221.715 230.618 221.715 230.482 221.715 230.341C221.751 229.999 221.792 229.539 221.845 228.955C221.957 227.733 222.128 226.005 222.329 223.875C222.742 219.586 223.279 213.652 223.798 207.097C224.317 200.543 224.73 194.597 224.978 190.296C225.132 188.608 224.931 186.906 224.388 185.299C224.16 184.722 223.88 184.167 223.55 183.642Z" fill="#263238"/>
<path d="M228.936 203.847C228.425 203.813 227.925 203.685 227.461 203.469C226.965 203.334 226.496 203.115 226.075 202.82C226.587 202.86 227.089 202.99 227.556 203.204C228.051 203.333 228.519 203.551 228.936 203.847Z" fill="#263238"/>
<path d="M229.88 195.895C228.982 196.502 227.983 196.945 226.93 197.204C227.355 196.869 227.831 196.606 228.34 196.425C228.82 196.162 229.34 195.982 229.88 195.895Z" fill="#263238"/>
<path d="M229.391 189.405C228.62 189.538 227.829 189.483 227.084 189.246C227.854 189.113 228.645 189.168 229.391 189.405Z" fill="#263238"/>
<path d="M221.338 185.246C221.273 185.287 220.931 184.863 220.577 184.296C220.223 183.73 219.987 183.24 220.052 183.199C220.117 183.158 220.453 183.583 220.813 184.149C221.173 184.715 221.403 185.205 221.338 185.246Z" fill="#263238"/>
<path d="M218.677 189.169C218.677 189.252 218.182 189.299 217.568 189.287C217.193 189.323 216.815 189.268 216.465 189.128C216.465 189.045 216.966 188.998 217.574 189.01C217.949 188.973 218.328 189.027 218.677 189.169Z" fill="#263238"/>
<path d="M216.766 197.027C216.353 197.009 215.95 196.898 215.586 196.703C214.996 196.455 214.495 196.195 214.524 196.113C214.937 196.128 215.341 196.239 215.704 196.437C216.323 196.697 216.795 196.95 216.766 197.027Z" fill="#263238"/>
<path d="M216.565 203.629C216.565 203.705 216.134 203.859 215.568 203.977C215.23 204.09 214.87 204.118 214.518 204.059C214.518 203.982 214.949 203.823 215.515 203.705C216.081 203.587 216.547 203.552 216.565 203.629Z" fill="#263238"/>
<path d="M215.663 214.43C215.663 214.507 215.208 214.654 214.613 214.761C214.255 214.867 213.877 214.888 213.509 214.82C213.509 214.743 213.964 214.595 214.559 214.489C215.155 214.383 215.651 214.354 215.663 214.43Z" fill="#263238"/>
<path d="M215.067 220.395C215.102 220.459 214.713 220.743 214.188 221.014C213.663 221.285 213.214 221.462 213.179 221.392C213.144 221.321 213.539 221.043 214.058 220.772C214.577 220.501 215.031 220.324 215.067 220.395Z" fill="#263238"/>
<path d="M219.94 227.161C219.869 227.202 219.527 226.725 219.173 226.105C218.918 225.753 218.739 225.351 218.648 224.925C218.713 224.89 219.055 225.362 219.415 225.981C219.666 226.336 219.845 226.737 219.94 227.161Z" fill="#263238"/>
<path d="M221.344 215.917C221.397 215.97 221.013 216.43 220.488 216.943C219.963 217.457 219.497 217.834 219.438 217.781C219.379 217.728 219.769 217.262 220.294 216.749C220.819 216.236 221.291 215.858 221.344 215.917Z" fill="#263238"/>
<path d="M221.031 210.012C220.972 210.065 220.618 209.776 220.24 209.363C219.863 208.95 219.597 208.578 219.651 208.525C219.704 208.472 220.064 208.761 220.447 209.174C220.83 209.587 221.09 209.959 221.031 210.012Z" fill="#263238"/>
<path d="M221.999 202.472C222.052 202.525 221.733 202.974 221.285 203.475C220.836 203.977 220.423 204.342 220.364 204.289C220.305 204.236 220.63 203.794 221.078 203.292C221.527 202.791 221.94 202.419 221.999 202.472Z" fill="#263238"/>
<path d="M222.541 197.003C222.488 197.057 222.04 196.709 221.55 196.219C221.061 195.729 220.695 195.299 220.754 195.24C220.813 195.181 221.249 195.535 221.745 196.024C222.24 196.514 222.594 196.944 222.541 197.003Z" fill="#263238"/>
<path d="M223.609 189.606C223.525 190.005 223.356 190.381 223.113 190.709C222.771 191.299 222.441 191.718 222.376 191.676C222.311 191.635 222.529 191.14 222.872 190.567C223.214 189.995 223.55 189.541 223.609 189.606Z" fill="#263238"/>
<path d="M225.621 182.751C225.558 183.149 225.407 183.528 225.178 183.86C224.866 184.45 224.559 184.869 224.494 184.833C224.429 184.798 224.624 184.302 224.93 183.724C225.237 183.146 225.55 182.709 225.621 182.751Z" fill="#263238"/>
<path d="M227.898 185.86C227.933 185.931 227.621 186.149 227.202 186.349C226.783 186.55 226.417 186.656 226.382 186.585C226.346 186.515 226.665 186.296 227.084 186.102C227.503 185.907 227.862 185.795 227.898 185.86Z" fill="#263238"/>
<path d="M227.951 210.484C227.421 210.487 226.898 210.359 226.429 210.112C225.921 209.947 225.464 209.655 225.102 209.262C225.598 209.411 226.078 209.608 226.535 209.852C227.029 210.01 227.504 210.222 227.951 210.484Z" fill="#263238"/>
<path d="M227.019 215.693C227.019 215.769 226.565 215.923 225.975 216.041C225.385 216.159 224.883 216.188 224.872 216.112C224.86 216.035 225.326 215.882 225.922 215.764C226.277 215.654 226.653 215.63 227.019 215.693Z" fill="#263238"/>
<path d="M225.874 224.636C225.396 224.398 224.989 224.038 224.694 223.592C224.326 223.203 224.069 222.722 223.951 222.2C224.307 222.578 224.629 222.986 224.913 223.421C225.269 223.797 225.591 224.203 225.874 224.636Z" fill="#263238"/>
<path d="M213.332 228.724C213.285 228.665 213.604 228.311 214.04 227.934C214.477 227.556 214.884 227.303 214.931 227.344C214.978 227.385 214.666 227.757 214.223 228.135C213.781 228.512 213.385 228.783 213.332 228.724Z" fill="#263238"/>
<path d="M209.728 209.209C209.221 207.623 208.265 205.776 206.601 205.752C206.103 205.778 205.621 205.937 205.206 206.214C204.791 206.49 204.458 206.872 204.242 207.322C203.789 208.207 203.571 209.195 203.61 210.189C203.818 217.251 205.023 224.248 207.191 230.972H213.279C213.214 223.579 212.016 216.24 209.728 209.209Z" fill="#455A64"/>
<path d="M198.708 199.228C198.408 197.746 197.62 196.408 196.47 195.427C195.321 194.445 193.876 193.877 192.366 193.812C189.676 194.284 188.632 196.933 188.313 199.652C187.995 202.372 188.832 205.068 189.67 207.67L197.687 232.754L205.268 231.928C202.867 220.725 201.486 210.342 198.708 199.228Z" fill="#455A64"/>
<path d="M206.601 205.752C206.41 206.027 206.239 206.315 206.088 206.614C205.774 207.476 205.675 208.401 205.799 209.31C205.917 210.49 206.053 211.858 206.247 213.386C206.442 214.914 206.719 216.595 207.061 218.348C207.752 221.846 208.524 224.984 209.02 227.273C209.268 228.418 209.457 229.35 209.575 229.993C209.628 230.288 209.669 230.536 209.704 230.736C209.717 230.822 209.717 230.91 209.704 230.996C209.668 230.917 209.642 230.834 209.628 230.748C209.575 230.547 209.516 230.306 209.445 230.016C209.285 229.338 209.067 228.424 208.802 227.32C208.265 225.043 207.457 221.911 206.766 218.401C206.424 216.631 206.177 214.961 205.97 213.422C205.87 212.649 205.805 211.917 205.746 211.233C205.687 210.549 205.616 209.911 205.581 209.322C205.471 208.387 205.603 207.441 205.964 206.572C206.115 206.256 206.332 205.977 206.601 205.752Z" fill="#263238"/>
<path d="M192.478 193.594C192.144 193.982 191.838 194.394 191.564 194.827C190.855 196.033 190.45 197.393 190.384 198.791C190.361 200.86 190.686 202.918 191.346 204.879C192.012 207.133 192.744 209.599 193.511 212.206C195.021 217.404 196.39 222.099 197.386 225.539L198.531 229.592L198.832 230.695C198.874 230.821 198.902 230.952 198.914 231.084C198.86 230.964 198.815 230.84 198.779 230.712C198.69 230.435 198.572 230.075 198.431 229.621L197.198 225.598C196.177 222.164 194.785 217.468 193.239 212.283C192.484 209.681 191.759 207.204 191.098 204.944C190.448 202.95 190.149 200.858 190.213 198.762C190.288 197.34 190.72 195.96 191.469 194.75C191.741 194.313 192.082 193.922 192.478 193.594Z" fill="#263238"/>
<path d="M203.61 231.119C203.546 231.001 203.489 230.879 203.439 230.754C203.345 230.512 203.18 230.164 203.008 229.686C202.649 228.754 202.183 227.385 201.705 225.663C201.227 223.94 200.749 221.863 200.295 219.551C199.841 217.238 199.374 214.684 198.867 212.011C198.36 209.339 197.752 206.82 197.097 204.566C196.505 202.568 195.766 200.616 194.885 198.726C194.29 197.454 193.608 196.224 192.844 195.045C192.584 194.62 192.342 194.313 192.201 194.089C192.12 193.983 192.051 193.868 191.994 193.747C192.088 193.843 192.173 193.948 192.248 194.06C192.407 194.272 192.655 194.567 192.932 194.986C193.736 196.146 194.448 197.367 195.062 198.638C195.975 200.525 196.736 202.482 197.339 204.49C198.07 206.946 198.67 209.439 199.138 211.958C199.64 214.631 200.112 217.179 200.548 219.504C200.985 221.828 201.439 223.887 201.899 225.609C202.36 227.332 202.784 228.713 203.115 229.651C203.268 230.122 203.41 230.482 203.492 230.73C203.546 230.855 203.586 230.986 203.61 231.119Z" fill="#263238"/>
<path d="M189.8 206.419C189.8 206.496 189.41 206.661 188.88 206.785C188.349 206.909 187.912 206.956 187.894 206.885C187.877 206.814 188.29 206.643 188.815 206.519C189.34 206.395 189.782 206.348 189.8 206.419Z" fill="#263238"/>
<path d="M188.998 201.245C188.585 201.37 188.153 201.418 187.723 201.387C187.296 201.449 186.86 201.435 186.437 201.346C186.836 201.162 187.274 201.081 187.712 201.11C188.145 201.05 188.586 201.096 188.998 201.245Z" fill="#263238"/>
<path d="M189.853 196.526C189.806 196.585 189.393 196.313 188.933 195.936C188.472 195.558 188.142 195.187 188.195 195.128C188.248 195.069 188.655 195.34 189.115 195.718C189.576 196.095 189.924 196.467 189.853 196.526Z" fill="#263238"/>
<path d="M192.166 192.148C192.242 192.148 192.219 192.538 192.207 192.98C192.195 193.423 192.207 193.794 192.118 193.806C192.03 193.818 191.918 193.452 191.93 192.974C191.941 192.496 192.095 192.131 192.166 192.148Z" fill="#263238"/>
<path d="M196.891 194.213C196.956 194.255 196.767 194.626 196.478 195.045C196.189 195.464 195.888 195.765 195.835 195.718C195.782 195.67 195.959 195.299 196.248 194.886C196.537 194.473 196.826 194.166 196.891 194.213Z" fill="#263238"/>
<path d="M199.953 199.534C199.953 199.611 199.587 199.835 199.074 200.048C198.561 200.26 198.124 200.366 198.094 200.295C198.065 200.225 198.454 199.994 198.968 199.788C199.481 199.581 199.953 199.464 199.953 199.534Z" fill="#263238"/>
<path d="M201.817 205.015C201.083 205.521 200.186 205.732 199.304 205.605C199.705 205.445 200.125 205.338 200.554 205.286C200.962 205.143 201.386 205.052 201.817 205.015Z" fill="#263238"/>
<path d="M193.275 203.463C193.204 203.463 193.275 203.056 193.393 202.614C193.511 202.172 193.705 201.829 193.782 201.853C193.859 201.877 193.782 202.254 193.664 202.697C193.546 203.139 193.351 203.481 193.275 203.463Z" fill="#263238"/>
<path d="M194.466 210.342C194.491 209.941 194.608 209.552 194.808 209.203C195.068 208.613 195.339 208.141 195.398 208.171C195.374 208.574 195.257 208.965 195.056 209.315C194.808 209.911 194.537 210.371 194.466 210.342Z" fill="#263238"/>
<path d="M191.522 212.224C191.146 212.218 190.775 212.136 190.431 211.982C189.841 211.805 189.381 211.634 189.399 211.557C189.78 211.509 190.167 211.564 190.52 211.717C191.104 211.905 191.552 212.153 191.522 212.224Z" fill="#263238"/>
<path d="M193.221 217.858C193.269 217.923 192.944 218.229 192.496 218.548C192.047 218.867 191.652 219.073 191.611 219.008C191.57 218.943 191.888 218.636 192.337 218.318C192.785 217.999 193.174 217.769 193.221 217.858Z" fill="#263238"/>
<path d="M194.584 223.427C194.584 223.504 194.201 223.663 193.688 223.787C193.174 223.911 192.738 223.952 192.72 223.881C192.702 223.81 193.104 223.645 193.617 223.515C194.13 223.386 194.567 223.35 194.584 223.427Z" fill="#263238"/>
<path d="M201.964 209.687C202.006 209.752 201.663 210.029 201.162 210.218C200.661 210.407 200.224 210.425 200.212 210.354C200.2 210.283 200.59 210.135 201.062 209.953C201.534 209.77 201.929 209.599 201.964 209.687Z" fill="#263238"/>
<path d="M203.02 218.389C202.991 218.459 202.578 218.336 202.106 218.117C201.634 217.899 201.28 217.657 201.31 217.586C201.339 217.516 201.752 217.639 202.224 217.864C202.696 218.088 203.056 218.324 203.02 218.389Z" fill="#263238"/>
<path d="M204.885 224.618C204.463 224.598 204.05 224.487 203.675 224.294C203.038 224.046 202.543 223.781 202.572 223.704C202.994 223.724 203.406 223.835 203.781 224.029C204.419 224.282 204.914 224.548 204.885 224.618Z" fill="#263238"/>
<path d="M194.879 229.497C194.844 229.426 195.339 229.09 195.912 228.636C196.484 228.182 196.932 227.781 196.991 227.84C197.05 227.899 196.684 228.388 196.089 228.854C195.752 229.175 195.333 229.397 194.879 229.497Z" fill="#263238"/>
<path d="M199.805 226.329C199.723 226.329 199.616 225.922 199.428 225.432C199.239 224.943 199.038 224.565 199.103 224.518C199.168 224.471 199.487 224.807 199.693 225.332C199.9 225.857 199.876 226.323 199.805 226.329Z" fill="#263238"/>
<path d="M198.496 218.843C198.454 218.902 198.136 218.755 197.788 218.501C197.44 218.247 197.198 217.999 197.239 217.94C197.28 217.881 197.605 218.029 197.953 218.277C198.301 218.524 198.543 218.778 198.496 218.843Z" fill="#263238"/>
<path d="M209.982 207.103C210.029 207.168 209.716 207.475 209.291 207.788C208.867 208.1 208.477 208.313 208.43 208.248C208.383 208.183 208.695 207.882 209.12 207.563C209.545 207.245 209.928 207.044 209.982 207.103Z" fill="#263238"/>
<path d="M211.704 211.835C211.704 211.911 211.226 212.011 210.625 211.947C210.023 211.882 209.574 211.675 209.598 211.604C209.622 211.534 210.088 211.604 210.654 211.669C211.22 211.734 211.698 211.758 211.704 211.835Z" fill="#263238"/>
<path d="M204.271 212.897C204.271 212.967 203.84 213.127 203.256 213.168C202.672 213.209 202.212 213.109 202.218 213.032C202.224 212.956 202.678 212.926 203.239 212.891C203.799 212.855 204.253 212.82 204.271 212.897Z" fill="#263238"/>
<path d="M204.908 208.419C204.908 208.49 204.448 208.501 203.952 208.271C203.457 208.041 203.168 207.681 203.221 207.64C203.274 207.599 203.616 207.817 204.07 208.024C204.525 208.23 204.92 208.342 204.908 208.419Z" fill="#263238"/>
<path d="M212.341 216.908C212.3 216.973 211.834 216.755 211.303 216.418C210.772 216.082 210.377 215.764 210.412 215.699C210.448 215.634 210.92 215.852 211.451 216.182C211.981 216.513 212.383 216.843 212.341 216.908Z" fill="#263238"/>
<path d="M230.488 230.176H190.82V237.208H230.488V230.176Z" fill="#303564"/>
<path d="M193.782 235.815L198.602 256.823H222.246L227.52 235.815H193.782Z" fill="#303564"/>
<path d="M230.458 237.219C230.458 237.296 221.515 237.355 210.477 237.355C199.439 237.355 190.514 237.326 190.514 237.219C190.514 237.113 199.457 237.078 210.495 237.078C221.532 237.078 230.458 237.143 230.458 237.219Z" fill="#263238"/>
<path d="M208.401 213.05C208.336 213.091 208.064 212.773 207.811 212.342C207.557 211.911 207.374 211.528 207.439 211.487C207.504 211.445 207.775 211.764 208.029 212.194C208.283 212.625 208.465 213.009 208.401 213.05Z" fill="#263238"/>
<path d="M208.418 218.701C208.341 218.701 208.418 218.2 208.625 217.634C208.831 217.067 209.026 216.631 209.097 216.654C209.118 217.022 209.047 217.389 208.89 217.722C208.701 218.288 208.489 218.731 208.418 218.701Z" fill="#263238"/>
<path d="M210.353 224.642C210.282 224.677 209.987 224.2 209.693 223.58C209.471 223.222 209.33 222.819 209.28 222.4C209.35 222.365 209.645 222.843 209.94 223.462C210.165 223.819 210.306 224.223 210.353 224.642Z" fill="#263238"/>
<path d="M206.165 229.42C206.106 229.367 206.342 229.002 206.69 228.595C207.038 228.187 207.374 227.91 207.433 227.957C207.492 228.005 207.25 228.376 206.902 228.777C206.554 229.179 206.224 229.468 206.165 229.42Z" fill="#263238"/>
<path d="M205.262 220.743C205.262 220.819 204.867 220.819 204.407 220.743C203.947 220.666 203.593 220.536 203.604 220.459C203.616 220.383 204 220.389 204.454 220.459C204.908 220.53 205.298 220.672 205.262 220.743Z" fill="#263238"/>
<path d="M83.765 231.963C83.6765 232.624 82.0541 251.018 82.0541 251.018H73.6299L72.155 232.016L83.765 231.963Z" fill="#EB996E"/>
<path d="M83.0099 249.75V250.41C83.0099 250.41 94.3543 254.593 94.5372 256.717L72.2554 257.248L72.3852 249.826C74.0574 250.579 75.8723 250.962 77.7059 250.948C79.5395 250.935 81.3487 250.526 83.0099 249.75Z" fill="#303564"/>
<g opacity="0.6">
<path d="M74.7213 252.145C74.5117 252.218 74.336 252.365 74.2273 252.558C74.1186 252.751 74.0845 252.978 74.1313 253.195C74.1971 253.408 74.342 253.588 74.5361 253.698C74.7303 253.807 74.9591 253.838 75.1755 253.785C75.4009 253.711 75.5906 253.556 75.7075 253.35C75.8243 253.144 75.8597 252.901 75.8067 252.67C75.7197 252.451 75.5508 252.275 75.3359 252.179C75.121 252.084 74.8772 252.075 74.6564 252.157" fill="white"/>
</g>
<g opacity="0.6">
<path d="M72.2789 257.248L72.3143 255.478L93.6522 255.626C93.6522 255.626 94.6551 256.038 94.5607 256.735L72.2789 257.248Z" fill="white"/>
</g>
<path d="M83.1101 250.475C83.1101 250.582 82.5673 250.646 82.0423 251.006C81.5172 251.366 81.24 251.832 81.1397 251.791C81.0394 251.75 81.181 251.118 81.8299 250.694C82.4788 250.269 83.1455 250.375 83.1101 250.475Z" fill="#263238"/>
<path d="M85.47 251.384C85.4995 251.49 85.0275 251.685 84.6735 252.151C84.3196 252.617 84.2193 253.112 84.0836 253.106C83.9479 253.1 83.8948 252.516 84.3491 251.927C84.8033 251.337 85.4641 251.278 85.47 251.384Z" fill="#263238"/>
<path d="M86.8621 254.151C86.7618 254.151 86.6025 253.632 86.8621 253.03C87.1217 252.428 87.629 252.18 87.6762 252.269C87.7234 252.357 87.4166 252.688 87.2043 253.183C86.9919 253.679 86.9683 254.133 86.8621 254.151Z" fill="#263238"/>
<path d="M76.3494 235.479C76.2669 236.134 74.6445 254.528 74.6445 254.528H66.2203L64.7454 235.556L76.3494 235.479Z" fill="#FFBE9D"/>
<path d="M66.1967 251.791C66.1967 251.791 72.0961 255.985 74.9809 252.381L75.7242 254.151L79.0927 266.699C79.2066 267.092 79.173 267.514 78.9981 267.884C78.8232 268.254 78.5191 268.548 78.1429 268.71C77.856 268.828 77.5412 268.86 77.2365 268.802C76.9319 268.745 76.6504 268.6 76.4262 268.386C73.9898 266.067 65.0817 257.507 65.1643 256.345L65.1997 253.266C65.2025 252.954 65.299 252.649 65.4768 252.393C65.6546 252.136 65.9054 251.939 66.1967 251.826V251.791Z" fill="#303564"/>
<g opacity="0.6">
<path d="M77.8361 268.763L65.1466 255.242V255.914C65.1298 256.19 65.1739 256.467 65.2758 256.724C65.3778 256.981 65.5351 257.212 65.7366 257.401C66.7631 258.782 69.6066 261.879 76.3554 268.35C76.5491 268.536 76.7857 268.67 77.044 268.743C77.3023 268.815 77.5744 268.822 77.8361 268.763Z" fill="white"/>
</g>
<g opacity="0.6">
<path d="M67.0227 253.254C67.2183 253.397 67.3541 253.608 67.4042 253.845C67.4542 254.082 67.415 254.33 67.294 254.54C67.1591 254.741 66.9523 254.882 66.7163 254.935C66.4803 254.987 66.2331 254.947 66.0257 254.823C65.8181 254.671 65.6742 254.448 65.6219 254.196C65.5696 253.945 65.6126 253.682 65.7425 253.46C65.904 253.265 66.1356 253.14 66.388 253.112C66.6404 253.084 66.8935 253.157 67.0935 253.313" fill="white"/>
</g>
<path d="M74.1963 261.838C74.5737 261.339 75.0446 260.918 75.5826 260.599C76.164 260.364 76.7846 260.242 77.4114 260.239C77.4114 260.198 77.2227 260.08 76.851 260.027C76.3622 259.978 75.8695 260.068 75.4293 260.286C74.9891 260.504 74.6191 260.841 74.3615 261.259C74.1786 261.59 74.155 261.826 74.1963 261.838Z" fill="#263238"/>
<path d="M75.3348 263.961C75.7873 263.701 76.2563 263.47 76.7388 263.271C77.2514 263.171 77.7695 263.102 78.2903 263.065C78.3375 262.982 77.5706 262.652 76.6385 262.935C75.7064 263.218 75.2522 263.92 75.3348 263.961Z" fill="#263238"/>
<path d="M72.0784 259.118C72.1551 259.195 72.9279 258.392 74.1727 257.909C75.4175 257.425 76.5324 257.454 76.5324 257.348C75.6994 257.188 74.8381 257.27 74.05 257.584C73.2619 257.897 72.5799 258.43 72.0843 259.118H72.0784Z" fill="#263238"/>
<path d="M71.7952 255.301C71.8365 255.395 72.7155 255.024 73.8541 254.977C74.9927 254.929 75.9071 255.201 75.9366 255.106C75.9661 255.012 75.0694 254.564 73.8423 254.628C73.1021 254.605 72.3773 254.843 71.7952 255.301Z" fill="#263238"/>
<path d="M74.509 254.941C74.5195 254.741 74.4894 254.54 74.4205 254.351C74.2637 253.819 74.0052 253.322 73.6594 252.888C73.4301 252.553 73.0992 252.301 72.7156 252.169C72.5851 252.137 72.4481 252.147 72.3234 252.197C72.1988 252.246 72.0925 252.333 72.0194 252.446C71.8887 252.672 71.8466 252.939 71.9014 253.195C72.0355 253.71 72.3437 254.164 72.7738 254.478C73.2039 254.792 73.7295 254.947 74.2612 254.918C74.7874 254.873 75.2885 254.672 75.7012 254.343C76.1138 254.013 76.4195 253.569 76.5796 253.065C76.6184 252.938 76.6295 252.803 76.6122 252.671C76.5949 252.539 76.5496 252.412 76.4793 252.298C76.3965 252.192 76.2823 252.115 76.153 252.078C76.0237 252.041 75.886 252.046 75.7596 252.092C75.3901 252.247 75.0684 252.497 74.8275 252.817C74.4681 253.235 74.1846 253.712 73.9898 254.227C73.8976 254.41 73.8511 254.613 73.8541 254.817C74.1542 254.152 74.5519 253.536 75.034 252.989C75.2584 252.729 75.5415 252.527 75.8599 252.399C75.9289 252.371 76.0051 252.367 76.0766 252.387C76.1482 252.408 76.2109 252.451 76.2552 252.511C76.2959 252.588 76.3201 252.673 76.3262 252.761C76.3323 252.848 76.3202 252.936 76.2906 253.018C76.1415 253.45 75.8705 253.829 75.5103 254.109C75.15 254.39 74.7161 254.56 74.2612 254.599C73.8096 254.626 73.3622 254.499 72.9923 254.239C72.6225 253.978 72.3522 253.6 72.2259 253.166C72.1806 252.989 72.2016 252.802 72.2849 252.64C72.3239 252.577 72.382 252.527 72.4508 252.499C72.5197 252.47 72.5958 252.464 72.6684 252.481C72.9916 252.591 73.2735 252.797 73.4766 253.071C73.9239 253.632 74.2729 254.264 74.509 254.941Z" fill="#263238"/>
<path d="M54.3154 133.12L95.7229 141.532L95.835 149.538C95.8538 150.851 95.7809 152.164 95.6167 153.467L90.6554 192.638L83.4228 247.03L76.4674 246.641L76.3908 248.782L64.7454 248.11C64.7454 248.11 57.5187 214.684 58.0969 207.239C59.2767 191.995 56.7813 184.35 54.8876 176.562C52.8464 168.132 45.3484 148.151 54.3154 133.12Z" fill="#263238"/>
<path d="M80.7858 150.458C80.7922 150.528 80.7922 150.599 80.7858 150.67C80.7858 150.818 80.7858 151.024 80.7858 151.26C80.7858 151.815 80.7386 152.599 80.6973 153.62C80.6147 155.673 80.4908 158.622 80.3375 162.251C80.0071 169.554 79.541 179.618 79.0337 190.733C78.5263 201.847 78.0013 211.905 77.6414 219.209C77.4527 222.843 77.2934 225.787 77.1872 227.84C77.1282 228.842 77.081 229.609 77.0456 230.199C77.0456 230.453 77.0456 230.654 77.0043 230.789C76.963 230.925 77.0043 230.996 77.0043 230.996C76.9941 230.927 76.9941 230.858 77.0043 230.789C77.0043 230.636 77.0043 230.435 77.0043 230.199C77.0043 229.645 77.0515 228.86 77.0869 227.84C77.1754 225.787 77.2934 222.843 77.4468 219.209C77.783 211.905 78.2432 201.841 78.7505 190.727C79.2579 179.612 79.7888 169.554 80.1428 162.256C80.3375 158.622 80.4908 155.679 80.6029 153.626C80.6619 152.617 80.7091 151.856 80.7386 151.266C80.7386 151.012 80.774 150.806 80.7858 150.676C80.7791 150.603 80.7791 150.53 80.7858 150.458Z" fill="#455A64"/>
<path d="M76.969 230.447C77.0117 230.684 77.0276 230.926 77.0162 231.167C77.0162 231.698 77.0162 232.347 77.0162 233.137C77.0162 234.795 77.0162 237.09 76.9159 239.626C76.8156 242.163 76.7389 244.452 76.6327 246.116C76.5737 246.948 76.5206 247.614 76.4793 248.074C76.4686 248.317 76.435 248.558 76.3791 248.794C76.3501 248.553 76.3501 248.309 76.3791 248.068C76.3791 247.543 76.4145 246.889 76.4381 246.104C76.4912 244.381 76.556 242.122 76.6327 239.615C76.7094 237.107 76.7684 234.86 76.8215 233.125C76.8569 232.347 76.8864 231.686 76.91 231.161C76.9043 230.921 76.9241 230.682 76.969 230.447Z" fill="#455A64"/>
<path d="M88.9918 74.1496C88.9918 74.1496 94.4369 73.9254 96.2126 74.2912C97.9883 74.6569 110.867 76.061 110.867 76.061L103.964 72.5568L100.295 60.8289L123.934 71.5539C125.035 72.2592 125.955 73.2144 126.618 74.342C127.281 75.4695 127.669 76.7376 127.75 78.0432C127.867 79.9385 127.332 81.8167 126.234 83.3662C125.137 84.9157 123.542 86.0432 121.715 86.5618L95.3572 91.9656L88.9918 74.1496Z" fill="#FFBE9D"/>
<path d="M68.5269 74.9107C68.1848 75.0228 58.0674 78.6804 55.1236 80.6154C53.047 81.9781 52.8464 85.4587 53.8611 87.73L58.8992 99.0567L61.7132 113.068L52.5987 134.984L51.6843 138.594L95.7229 141.709L97.6579 137.143L95.3572 116.424V90.3847L88.9918 74.1497L78.078 74.2912L68.5269 74.9107Z" fill="#303564"/>
<g opacity="0.3">
<path d="M92.4961 126.029C92.0052 125.563 91.391 125.248 90.7263 125.12C82.7765 122.808 74.6746 121.056 66.48 119.876C64.5804 119.604 62.5923 119.38 60.7694 119.994C58.9465 120.607 56.8758 122.353 57.0469 124.265L56.7814 124.902C60.157 126.892 64.0491 127.83 67.9607 127.598C70.3204 127.498 72.8336 127.008 74.7804 128.306C76.1018 129.167 76.8569 130.665 77.9896 131.757C78.7377 132.469 79.6337 133.007 80.6136 133.333C81.5935 133.66 82.6332 133.766 83.6589 133.645C84.6829 133.507 85.6654 133.151 86.5398 132.6C87.4141 132.049 88.1598 131.317 88.7264 130.453C89.3164 129.497 89.9063 128.27 91.0095 128.058C91.4814 127.969 92.0065 128.058 92.4135 127.822C92.5426 127.713 92.6479 127.579 92.7226 127.428C92.7973 127.277 92.8399 127.112 92.8476 126.943C92.8554 126.775 92.8282 126.607 92.7677 126.449C92.7072 126.292 92.6147 126.149 92.4961 126.029Z" fill="black"/>
</g>
<path d="M55.519 80.344C55.519 80.344 53.8141 81.0578 52.1681 83.512C50.5222 85.9661 45.0358 102.13 45.0358 102.13L59.0232 107.929L62.4979 100.502L55.519 80.344Z" fill="#303564"/>
<path d="M58.9581 92.2017C59.0373 92.3714 59.0891 92.5526 59.1115 92.7385C59.1941 93.0925 59.2944 93.5998 59.4065 94.2369C59.6307 95.4994 59.8843 97.2574 60.0613 99.216C60.2383 101.175 60.3209 102.944 60.3327 104.23C60.3327 104.873 60.3327 105.41 60.3327 105.752C60.3444 105.941 60.3265 106.13 60.2796 106.313C60.1837 105.625 60.1325 104.931 60.1262 104.236C60.0613 102.956 59.9492 101.192 59.7722 99.2396C59.5953 97.2869 59.3711 95.5407 59.1823 94.2664C59.0664 93.5833 58.9915 92.8938 58.9581 92.2017Z" fill="#263238"/>
<g opacity="0.3">
<path d="M74.8866 94.7914C74.2851 94.7695 73.6895 94.9172 73.1679 95.2176C72.6463 95.5181 72.2198 95.9591 71.9369 96.4905C71.7717 96.8503 71.6891 97.2338 71.5122 97.5936C71.3324 97.873 71.1727 98.1648 71.0343 98.4667C70.9683 98.6164 70.9557 98.7843 70.9987 98.9421C71.0416 99.1 71.1375 99.2383 71.2703 99.3339C71.7658 99.6289 72.4147 99.1275 73.0401 99.1393C73.3761 99.1965 73.706 99.2854 74.0253 99.4047C74.4032 99.4622 74.7896 99.4213 75.1472 99.2859C75.5047 99.1506 75.8213 98.9253 76.0665 98.6319C76.5109 98.0673 76.8378 97.4194 77.028 96.7264C76.5782 97.0782 76.1095 97.4051 75.624 97.7057C75.5264 97.7816 75.4142 97.8365 75.2944 97.867C75.1746 97.8974 75.0498 97.9028 74.9279 97.8827C74.6978 97.8119 74.6506 97.4402 74.8925 97.3931C74.619 97.5748 74.3004 97.677 73.9722 97.688C73.6418 97.688 73.335 97.3577 73.4825 97.0981C73.63 96.8385 73.925 96.8267 74.1374 96.6733C74.7273 96.2604 75.0931 94.8681 74.8984 94.8032" fill="white"/>
<path d="M84.1367 109.068C84.3861 109.598 84.7899 110.041 85.2952 110.338C85.8005 110.634 86.3837 110.772 86.9684 110.731C87.399 110.731 87.8238 110.602 88.2544 110.596C88.612 110.616 88.9705 110.616 89.3281 110.596C89.5035 110.584 89.6719 110.523 89.8132 110.418C89.9544 110.313 90.0625 110.17 90.1245 110.006C90.2366 109.475 89.4874 109.162 89.275 108.661C89.2077 108.359 89.1761 108.05 89.1806 107.741C89.0811 107.39 88.8811 107.077 88.6054 106.839C88.3297 106.601 87.9903 106.449 87.6291 106.401C86.8624 106.291 86.0826 106.311 85.3224 106.46C85.8428 106.67 86.3509 106.908 86.8445 107.174C87.051 107.286 87.2751 107.446 87.2869 107.664C87.2987 107.882 86.933 108.089 86.7914 107.912C87.0725 108.042 87.3026 108.262 87.4462 108.537C87.4695 108.609 87.4763 108.686 87.4659 108.761C87.4556 108.837 87.4285 108.909 87.3866 108.972C87.3447 109.036 87.289 109.089 87.2238 109.128C87.1586 109.167 87.0854 109.191 87.0097 109.198C86.7383 109.198 86.5672 108.962 86.3312 108.85C85.6882 108.549 84.1308 108.85 84.1367 109.056" fill="white"/>
<path d="M77.8893 94.3607C77.484 94.3093 77.0724 94.3414 76.6799 94.4551C76.2937 94.567 75.962 94.8168 75.7478 95.1571C75.654 95.3166 75.611 95.5009 75.6248 95.6853C75.6385 95.8698 75.7082 96.0457 75.8245 96.1895C76.0251 96.4196 76.3791 96.5907 76.3555 96.8857C76.3315 97.0018 76.2939 97.1147 76.2434 97.2219C76.2225 97.2778 76.223 97.3394 76.2448 97.395C76.2665 97.4505 76.3081 97.496 76.3614 97.5228C76.503 97.57 76.6445 97.4402 76.7389 97.3281L77.7123 96.1482C77.9798 95.8885 78.182 95.5691 78.3023 95.2161C78.3494 95.0417 78.3303 94.8559 78.2486 94.6947C78.1669 94.5335 78.0284 94.4082 77.8598 94.343" fill="white"/>
<path d="M82.6442 93.7944C82.1782 93.6941 82.2372 93.5526 81.7829 93.3992C81.5586 93.3057 81.3164 93.263 81.0736 93.2742C80.8309 93.2854 80.5936 93.3503 80.3789 93.4641C80.1835 93.6375 80.0315 93.8543 79.9352 94.0972C79.8389 94.34 79.8009 94.602 79.8243 94.8622C79.783 95.5937 79.7476 96.3194 79.7063 97.0509C79.6343 97.5085 79.7152 97.9771 79.9364 98.3841C80.1539 98.6271 80.4342 98.8052 80.7465 98.8989C81.0588 98.9926 81.3909 98.9982 81.7062 98.9151C82.345 98.7575 82.9335 98.441 83.417 97.9948C83.8371 97.7144 84.1475 97.2976 84.296 96.8149C84.3156 96.6925 84.3084 96.5672 84.2751 96.4478C84.2418 96.3283 84.1831 96.2175 84.103 96.1228C84.0229 96.0282 83.9233 95.9519 83.811 95.8993C83.6987 95.8467 83.5764 95.8189 83.4524 95.8179C83.0872 95.8923 82.7513 96.0705 82.4849 96.3312C82.3486 96.4573 82.18 96.5433 81.9978 96.5798C81.8156 96.6162 81.627 96.6016 81.4526 96.5376C81.1045 96.3312 81.2107 95.812 81.5115 95.5288C81.8124 95.2457 82.2313 95.0864 82.5616 94.8327C82.892 94.5791 83.1103 94.1071 82.8448 93.8121" fill="white"/>
<path d="M73.2701 101.989C72.9574 101.723 72.6802 101.753 72.2318 101.605C72.0075 101.512 71.7653 101.469 71.5225 101.48C71.2798 101.491 71.0425 101.556 70.8278 101.67C70.632 101.843 70.4798 102.06 70.3835 102.303C70.2871 102.546 70.2494 102.808 70.2732 103.068C70.2319 103.794 70.1966 104.525 70.1553 105.251C70.0832 105.709 70.1641 106.177 70.3853 106.584C70.6003 106.831 70.8805 107.011 71.1936 107.105C71.5068 107.199 71.8401 107.203 72.1551 107.115C72.7935 106.96 73.3821 106.645 73.866 106.201C74.2915 105.91 74.6024 105.481 74.745 104.986C74.7646 104.863 74.7575 104.738 74.7241 104.619C74.6908 104.5 74.632 104.39 74.5518 104.295C74.4716 104.201 74.3719 104.126 74.2596 104.074C74.1473 104.022 74.0251 103.995 73.9013 103.994C73.5362 104.069 73.2002 104.247 72.9339 104.508C72.7968 104.633 72.6282 104.718 72.4463 104.754C72.2644 104.791 72.0761 104.777 71.9015 104.714C71.5534 104.508 71.6596 103.989 71.9605 103.705C72.2613 103.422 72.6802 103.263 73.0105 103.003C73.3409 102.744 73.5592 102.284 73.2937 101.989" fill="white"/>
<path d="M87.9004 97.9416C87.4462 98.1127 87.399 97.9711 86.927 98.0891C86.6922 98.1287 86.4696 98.2216 86.2763 98.3607C86.083 98.4998 85.9242 98.6814 85.8121 98.8914C85.6351 99.3811 85.9654 99.8707 86.2781 100.278L87.6409 102.048C87.9004 102.456 88.2765 102.776 88.7204 102.968C89.0396 103.047 89.3737 103.04 89.6895 102.949C90.0053 102.858 90.2916 102.685 90.5197 102.449C90.9345 101.992 91.2125 101.428 91.3221 100.821C91.478 100.357 91.4463 99.8509 91.2336 99.4106C91.0937 99.1911 90.8744 99.0342 90.6215 98.9727C90.3687 98.9111 90.1018 98.9496 89.8767 99.0802C89.6307 99.3288 89.4696 99.6489 89.4166 99.9946C89.3163 100.325 89.0803 100.691 88.7086 100.708C88.6108 100.703 88.5153 100.676 88.4287 100.63C88.3421 100.585 88.2665 100.52 88.2071 100.442C88.1477 100.365 88.1058 100.275 88.0845 100.179C88.0631 100.083 88.0627 99.9842 88.0833 99.8884C88.1951 99.5131 88.3291 99.1447 88.4845 98.7852C88.5191 98.6939 88.5351 98.5966 88.5315 98.499C88.5279 98.4014 88.5048 98.3056 88.4636 98.217C88.4223 98.1285 88.3638 98.0491 88.2914 97.9836C88.219 97.9181 88.1342 97.8677 88.042 97.8354" fill="white"/>
<path d="M88.632 93.293C88.2692 93.3817 87.8964 93.4233 87.5229 93.4169C87.149 93.4101 86.7765 93.4639 86.4198 93.5761C86.2492 93.6306 86.0947 93.7265 85.9702 93.8552C85.8456 93.9838 85.7549 94.1413 85.7059 94.3136C85.7132 94.6278 85.7792 94.938 85.9006 95.228C85.9537 95.458 85.9419 95.6999 85.9773 95.9359C85.9853 96.0562 86.0176 96.1737 86.0724 96.2812C86.1272 96.3887 86.2032 96.484 86.2959 96.5612C86.5615 96.7097 86.8661 96.7736 87.169 96.7441C87.3981 96.778 87.6318 96.7651 87.8558 96.7063C88.0799 96.6475 88.2897 96.544 88.4727 96.4019C88.631 96.1974 88.7273 95.9517 88.75 95.694C88.8739 94.9448 89.0037 94.1956 89.1335 93.4463L88.632 93.293Z" fill="white"/>
<path d="M73.3822 108.13C73.0813 108.205 72.7718 108.238 72.4619 108.23C72.1499 108.227 71.8394 108.273 71.5416 108.366C71.4021 108.408 71.2751 108.483 71.1722 108.586C71.0692 108.689 70.9934 108.816 70.9517 108.956C70.9527 109.218 71.0069 109.477 71.1109 109.717C71.1522 109.906 71.1404 110.112 71.1699 110.307C71.1783 110.407 71.2066 110.505 71.2532 110.594C71.2998 110.683 71.3638 110.762 71.4413 110.826C71.662 110.95 71.9151 111.003 72.1669 110.979C72.3567 111.007 72.5501 110.996 72.7355 110.948C72.921 110.899 73.0948 110.813 73.2465 110.696C73.3798 110.527 73.4599 110.321 73.4766 110.106C73.5828 109.516 73.6949 108.867 73.801 108.242L73.3822 108.13Z" fill="white"/>
<path d="M78.1489 106.212C77.681 106.039 77.1745 105.997 76.6845 106.092C76.1945 106.187 75.74 106.414 75.3704 106.749C75.0616 107.064 74.8748 107.479 74.8435 107.918C74.8122 108.358 74.9383 108.795 75.1993 109.15C75.4116 109.422 75.7007 109.634 75.9308 109.894C76.385 110.413 76.6033 111.121 77.1991 111.51C78.0192 112.047 79.2698 111.752 80.0249 111.097C80.716 110.417 81.2304 109.579 81.5234 108.655C81.6629 108.384 81.7261 108.08 81.7062 107.776C81.6296 107.322 81.1812 107.003 80.7683 106.737C80.5456 106.567 80.2876 106.448 80.0131 106.389C79.8722 106.361 79.7261 106.376 79.5936 106.432C79.4611 106.488 79.3483 106.582 79.2698 106.702C79.1223 107.027 79.4173 107.339 79.5825 107.646C79.7239 107.944 79.7412 108.286 79.6306 108.597C79.52 108.908 79.2905 109.162 78.9926 109.304C78.3436 109.599 77.4469 109.227 77.3702 108.596C77.2817 107.758 78.4439 107.009 78.1725 106.236" fill="white"/>
<path d="M85.5703 104.39C84.9644 104.809 84.2483 105.041 83.5114 105.056C83.1692 105.056 82.7563 104.956 82.6973 104.661C82.6383 104.366 82.8802 104.195 83.0572 103.994C83.2181 103.825 83.3388 103.621 83.4103 103.399C83.4818 103.176 83.5022 102.94 83.4701 102.708C83.4186 102.475 83.2953 102.264 83.1176 102.104C82.9398 101.944 82.7165 101.844 82.479 101.818C82.2351 101.786 81.9883 101.847 81.7866 101.988C81.585 102.128 81.4427 102.339 81.3876 102.579C81.4146 102.912 81.5308 103.232 81.7239 103.505C81.8157 103.647 81.8569 103.815 81.8408 103.983C81.8248 104.151 81.7524 104.309 81.6354 104.431C81.5125 104.508 81.3704 104.549 81.2254 104.549C81.0804 104.549 80.9383 104.508 80.8154 104.431C80.5878 104.287 80.4042 104.083 80.2845 103.841C79.7889 102.98 79.547 101.871 80.1665 101.039C80.7609 100.415 81.53 99.9852 82.3728 99.8059C82.6821 99.6694 83.024 99.6244 83.358 99.6761C83.706 99.8043 83.9926 100.059 84.1603 100.39C84.5084 100.915 84.8741 101.517 84.6913 102.124C84.5969 102.449 84.3491 102.761 84.414 103.086C84.5379 103.676 85.5231 103.806 85.5939 104.384" fill="white"/>
<path d="M75.323 102.596C75.6538 102.719 75.9382 102.942 76.1371 103.233C76.289 103.492 76.4155 103.765 76.5147 104.048C76.5728 104.25 76.6919 104.429 76.8557 104.561C77.0194 104.692 77.2199 104.77 77.4298 104.784C77.6396 104.798 77.8485 104.746 78.0278 104.636C78.2072 104.527 78.3484 104.364 78.432 104.171C78.6168 103.79 78.7059 103.368 78.6916 102.944C78.7609 102.723 78.7695 102.488 78.7166 102.262C78.6637 102.037 78.5511 101.83 78.3907 101.663C78.2303 101.496 78.0279 101.375 77.8048 101.313C77.5816 101.251 77.3459 101.25 77.1223 101.31C76.509 101.356 75.9178 101.56 75.4056 101.9C75.2558 101.982 75.139 102.113 75.0753 102.272C75.0645 102.311 75.0627 102.351 75.07 102.391C75.0773 102.43 75.0935 102.468 75.1174 102.5C75.1412 102.533 75.1721 102.559 75.2078 102.578C75.2434 102.597 75.2828 102.607 75.323 102.608" fill="white"/>
<path d="M84.3727 108.425C84.3644 108.299 84.3965 108.174 84.4645 108.068C84.5324 107.962 84.6326 107.88 84.7503 107.835C84.9949 107.729 85.2474 107.642 85.5054 107.575C85.6324 107.547 85.7514 107.49 85.8535 107.41C85.9556 107.329 86.0383 107.226 86.0953 107.109C86.1293 106.966 86.1082 106.814 86.0361 106.685C85.964 106.557 85.8462 106.459 85.706 106.413C85.4147 106.3 85.1039 106.246 84.7916 106.254C84.4449 106.205 84.0917 106.273 83.7887 106.448C83.6819 106.542 83.5978 106.659 83.5426 106.789C83.4874 106.92 83.4626 107.062 83.4701 107.204C83.4722 107.58 83.5941 107.946 83.8182 108.248C83.8781 108.346 83.973 108.417 84.0837 108.448C84.1957 108.448 84.3491 108.407 84.355 108.301" fill="white"/>
</g>
<path d="M81.6766 101.47C81.708 101.665 81.708 101.864 81.6766 102.059C81.6276 102.58 81.5328 103.095 81.3934 103.599C80.9387 105.275 80.074 106.81 78.8772 108.068C77.6804 109.326 76.1892 110.265 74.5384 110.802C74.0423 110.964 73.533 111.083 73.0163 111.156C72.8231 111.201 72.6236 111.213 72.4264 111.192C72.4264 111.139 73.2287 111.044 74.4499 110.602C76.042 110.023 77.4779 109.083 78.644 107.854C79.8102 106.626 80.6747 105.143 81.1692 103.522C81.5645 102.278 81.6176 101.464 81.6766 101.47Z" fill="#263238"/>
<path d="M95.3572 91.9656L107.828 89.3994L106.342 75.3412C106.342 75.3412 96.5135 74.12 94.0417 74.1023C91.5698 74.0847 87.0922 74.1023 87.0922 74.1023" fill="#303564"/>
<path d="M87.9417 55.6256C88.5485 54.8872 88.932 53.9908 89.0469 53.0419C89.1619 52.093 89.0036 51.131 88.5906 50.269C88.4735 50.0957 88.4194 49.8875 88.4372 49.6791C88.5025 49.5061 88.6174 49.3563 88.7676 49.2484C89.1452 48.913 89.4504 48.5041 89.6644 48.0466C89.8785 47.5891 89.9969 47.0927 90.0123 46.5878C90.0207 46.0823 89.8952 45.5836 89.6486 45.1423C89.402 44.7009 89.0431 44.3326 88.6083 44.0747C89.9062 43.2075 90.0241 41.125 89.0154 39.9452C88.4757 39.3805 87.779 38.9908 87.0153 38.8268C86.2517 38.6627 85.4564 38.7317 84.7324 39.0249C84.8584 38.5653 84.8323 38.0774 84.6579 37.6339C84.4835 37.1905 84.1702 36.8154 83.7649 36.5648C82.9415 36.0742 81.98 35.867 81.0276 35.9749C79.7534 36.0634 78.3257 36.5648 77.8833 37.7447C77.6296 37.0073 76.7388 36.6828 75.9542 36.6887C74.8982 36.7209 73.8916 37.1434 73.1289 37.8745C72.3662 38.6056 71.9015 39.5935 71.8246 40.6472C71.0917 40.2936 70.266 40.1801 69.4649 40.3227C69.0697 40.4012 68.7114 40.6079 68.4458 40.9109C68.1802 41.2139 68.0221 41.5961 67.996 41.9981C67.7088 41.7221 67.3564 41.5232 66.9716 41.42C66.5869 41.3169 66.1823 41.3128 65.7955 41.4082C65.2235 41.4669 64.6826 41.6972 64.244 42.0689C64.0293 42.2587 63.8784 42.5101 63.8119 42.7889C63.7453 43.0676 63.7665 43.3601 63.8723 43.6264C63.3155 43.5557 62.7525 43.6976 62.2957 44.0237C61.8389 44.3499 61.5219 44.8363 61.4079 45.3859C61.294 45.9355 61.3915 46.5078 61.681 46.9887C61.9705 47.4696 62.4307 47.8236 62.9697 47.9801C62.6219 48.3139 62.3647 48.7306 62.2222 49.1911C62.0797 49.6516 62.0566 50.1408 62.1551 50.6127C62.2536 51.0846 62.4705 51.5237 62.7853 51.8887C63.1001 52.2538 63.5026 52.5328 63.9549 52.6996C63.8548 52.7554 63.7682 52.8326 63.7014 52.9257C63.6345 53.0188 63.5891 53.1255 63.5682 53.2382C63.5474 53.3509 63.5516 53.4668 63.5808 53.5776C63.6099 53.6885 63.6631 53.7915 63.7366 53.8794C63.91 54.0473 64.1207 54.1717 64.3514 54.2424C64.5821 54.3132 64.8263 54.3283 65.064 54.2865C65.2764 55.9265 65.4946 57.5724 65.707 59.2184C65.7939 60.2873 66.0467 61.3361 66.4562 62.3273C66.668 62.8199 66.9914 63.2565 67.401 63.6026C67.8105 63.9486 68.295 64.1947 68.816 64.3213" fill="#263238"/>
<path d="M87.2752 50.9063C86.5437 46.9537 81.7711 43.5026 77.8362 44.417L65.2647 48.4285L65.5656 50.5641L68.704 76.651C68.9471 78.6382 69.9575 80.4515 71.5194 81.7037C73.0813 82.9559 75.071 83.5477 77.0634 83.3527C78.1086 83.2553 79.1226 82.9444 80.0427 82.4392C80.9628 81.934 81.7694 81.2454 82.4126 80.4158C83.0557 79.5863 83.5218 78.6335 83.7818 77.6166C84.0419 76.5996 84.0904 75.5401 83.9244 74.5037L83.5645 72.2914C83.5645 72.2914 88.5494 70.8284 88.7972 64.0677C88.9211 60.6638 88.1011 55.2718 87.2752 50.9063Z" fill="#FFBE9D"/>
<path d="M86.4256 56.1034C86.456 56.3245 86.3982 56.5487 86.2646 56.7276C86.131 56.9064 85.9324 57.0255 85.7117 57.0591C85.6043 57.0813 85.4935 57.0817 85.3859 57.0603C85.2783 57.0389 85.1761 56.9961 85.0854 56.9345C84.9946 56.8729 84.9171 56.7937 84.8575 56.7016C84.7979 56.6095 84.7574 56.5064 84.7383 56.3984C84.7126 56.1771 84.773 55.9544 84.907 55.7765C85.041 55.5986 85.2383 55.479 85.4581 55.4427C85.5651 55.4205 85.6756 55.4202 85.7828 55.4416C85.89 55.4631 85.9918 55.5059 86.0821 55.5676C86.1724 55.6293 86.2494 55.7085 86.3084 55.8005C86.3674 55.8926 86.4072 55.9956 86.4256 56.1034Z" fill="#263238"/>
<path d="M86.4551 53.8559C86.3607 53.9798 85.6587 53.5786 84.7443 53.6907C83.8299 53.8028 83.2105 54.3455 83.0984 54.2453C82.9863 54.145 83.1279 53.9857 83.3933 53.7379C83.7564 53.4111 84.2119 53.2049 84.6971 53.148C85.1718 53.0883 85.6533 53.1813 86.0717 53.4134C86.3784 53.5963 86.5023 53.7851 86.4551 53.8559Z" fill="#263238"/>
<path d="M78.3199 57.4426C78.3487 57.6643 78.2895 57.8885 78.1549 58.0672C78.0204 58.2458 77.8213 58.3646 77.6002 58.3983C77.4931 58.4204 77.3827 58.4208 77.2755 58.3993C77.1683 58.3778 77.0665 58.335 76.9762 58.2733C76.8859 58.2117 76.8089 58.1324 76.7499 58.0404C76.6909 57.9483 76.651 57.8453 76.6327 57.7375C76.6038 57.5166 76.6622 57.2932 76.7956 57.1147C76.9289 56.9363 77.1265 56.8168 77.3465 56.7818C77.454 56.7597 77.5648 56.7592 77.6723 56.7806C77.7799 56.8021 77.8821 56.8448 77.9729 56.9064C78.0637 56.968 78.1411 57.0472 78.2007 57.1393C78.2604 57.2314 78.3009 57.3345 78.3199 57.4426Z" fill="#263238"/>
<path d="M77.5176 55.2952C77.4291 55.4191 76.727 55.0238 75.8126 55.1359C74.8982 55.248 74.2788 55.7907 74.1667 55.6904C74.0546 55.5902 74.1667 55.4309 74.4617 55.1831C74.8214 54.8547 75.2756 54.6482 75.7595 54.5932C76.2363 54.5296 76.7208 54.6228 77.14 54.8586C77.4468 55.0356 77.5648 55.2421 77.5176 55.2952Z" fill="#263238"/>
<path d="M81.6176 61.5251C82.083 61.3161 82.5724 61.1655 83.0748 61.0768C83.3048 61.0237 83.5231 60.947 83.5408 60.7818C83.5317 60.538 83.4472 60.3031 83.2989 60.1093C83.0118 59.5705 82.711 59.0041 82.3963 58.4103C81.128 55.9915 80.1782 53.9917 80.2726 53.9445C80.367 53.8973 81.4819 55.8146 82.7503 58.2333L83.6293 59.9441C83.8087 60.209 83.8901 60.5282 83.8594 60.8467C83.8358 60.9334 83.7927 61.0135 83.7334 61.081C83.6741 61.1485 83.6001 61.2015 83.5172 61.2361C83.3929 61.288 83.2618 61.3218 83.1279 61.3363C82.634 61.4605 82.1268 61.5239 81.6176 61.5251Z" fill="#263238"/>
<path d="M83.5644 72.2558C80.446 72.6804 77.2708 72.2333 74.3909 70.9639C74.3909 70.9639 77.3406 75.3117 83.8771 73.884L83.5644 72.2558Z" fill="#EB996E"/>
<path d="M81.4997 63.749C81.2992 63.5507 81.0517 63.4066 80.7803 63.3302C80.5089 63.2539 80.2226 63.2478 79.9481 63.3124C79.7481 63.3549 79.5588 63.4375 79.3915 63.5551C79.2242 63.6727 79.0825 63.8229 78.9747 63.9967C78.8692 64.1641 78.8181 64.3601 78.8287 64.5577C78.8393 64.7553 78.9109 64.9448 79.0337 65.0999C79.2007 65.2471 79.408 65.3409 79.6288 65.3693C79.8496 65.3977 80.0738 65.3594 80.2726 65.2592C80.6924 65.0536 81.0674 64.7669 81.3758 64.4156C81.4701 64.3301 81.548 64.2281 81.6059 64.1147C81.6325 64.0594 81.6422 63.9974 81.6338 63.9365C81.6254 63.8757 81.5993 63.8187 81.5587 63.7726" fill="#EB996E"/>
<path d="M79.0161 62.4512C79.1694 62.4512 79.2874 63.4187 80.2254 64.0263C81.1634 64.6339 82.2076 64.3862 82.2312 64.5277C82.2548 64.6693 82.0188 64.746 81.5705 64.8168C80.9903 64.8918 80.4021 64.7624 79.9069 64.4511C79.4313 64.1499 79.0909 63.6763 78.9571 63.1296C78.8509 62.7048 78.9335 62.4571 79.0161 62.4512Z" fill="#263238"/>
<path d="M77.3996 51.9918C77.3406 52.2513 76.4085 52.2454 75.3525 52.505C74.2965 52.7646 73.4588 53.1598 73.2877 52.9593C73.211 52.859 73.3349 52.6053 73.6594 52.3221C74.0884 51.9649 74.5958 51.7143 75.1401 51.5906C75.681 51.4597 76.2452 51.4597 76.7861 51.5906C77.2049 51.6968 77.4232 51.8679 77.3996 51.9918Z" fill="#263238"/>
<path d="M85.7945 51.2306C85.6588 51.4607 85.004 51.3191 84.2429 51.4017C83.4819 51.4843 82.8566 51.7085 82.6855 51.5138C82.6088 51.4135 82.6855 51.1952 82.9392 50.9593C83.2888 50.6796 83.7131 50.5091 84.159 50.4693C84.6049 50.4294 85.0527 50.5218 85.4464 50.7351C85.7414 50.9062 85.8535 51.1186 85.7945 51.2306Z" fill="#263238"/>
<path d="M83.6234 43.5675C83.9131 44.1495 84.0213 44.8051 83.9339 45.4493C83.8466 46.0936 83.5677 46.6967 83.1334 47.1806C82.6992 47.6644 82.1296 48.0066 81.4985 48.1629C80.8674 48.3191 80.204 48.2822 79.5941 48.0569C79.8205 48.2646 79.9624 48.5485 79.9929 48.8542C80.0234 49.16 79.9402 49.4662 79.7593 49.7146C79.3742 50.2019 78.8125 50.5178 78.196 50.5936C77.5584 50.7075 76.9038 50.6827 76.2767 50.5208C75.6496 50.359 75.0647 50.0639 74.562 49.6556C74.5584 50.1745 74.4322 50.6852 74.1937 51.1461C73.9551 51.6069 73.611 52.0049 73.1894 52.3074C72.7678 52.6099 72.2807 52.8085 71.7677 52.887C71.2547 52.9654 70.7305 52.9214 70.2377 52.7587C70.6155 53.0377 70.9229 53.4012 71.1353 53.8202C71.3477 54.2391 71.4592 54.7018 71.4611 55.1715C71.4629 55.6412 71.355 56.1048 71.1459 56.5254C70.9368 56.946 70.6323 57.3119 70.2567 57.5939C69.8812 57.8759 69.4449 58.0663 68.9827 58.1499C68.5205 58.2334 68.0452 58.2078 67.5946 58.075C67.1441 57.9423 66.7308 57.7061 66.3877 57.3854C66.0446 57.0646 65.7812 56.6681 65.6186 56.2275C65.1208 56.0837 64.6629 55.8271 64.2805 55.4776C63.8981 55.128 63.6015 54.695 63.4137 54.2121C63.2259 53.7292 63.152 53.2096 63.1978 52.6935C63.2436 52.1774 63.4078 51.6789 63.6777 51.2366C63.3337 51.1541 63.0174 50.9826 62.7606 50.7392C62.5038 50.4959 62.3156 50.1893 62.2146 49.8503C62.0181 49.1678 62.0039 48.4457 62.1733 47.756C62.317 46.9028 62.6314 46.0873 63.0977 45.3585C63.564 44.6297 64.1726 44.0024 64.887 43.5144C65.6131 43.0409 66.4645 42.7962 67.3312 42.812C68.1978 42.8278 69.0398 43.1033 69.7481 43.6029C69.8853 43.7433 70.0625 43.838 70.2554 43.8742C70.5209 43.8742 70.7274 43.6501 70.8808 43.4318C71.5887 42.482 72.3202 41.4673 73.4116 41.0189C74.0792 40.7626 74.8139 40.7397 75.4962 40.9539C76.1785 41.1681 76.7682 41.6069 77.1695 42.1988C77.4721 41.4638 78.0031 40.8456 78.6841 40.4356C79.365 40.0255 80.1598 39.8453 80.951 39.9217C82.5143 40.1635 83.7414 41.9274 83.2045 43.42" fill="#263238"/>
<path d="M68.9871 56.5991C69.0856 57.955 68.9882 59.318 68.6981 60.6461C68.6735 60.9337 68.5789 61.2109 68.4226 61.4536C68.2663 61.6962 68.053 61.897 67.8014 62.0383C67.5471 62.1024 67.279 62.0838 67.0361 61.9851C66.7932 61.8865 66.588 61.7129 66.4504 61.4897C66.1871 61.0324 66.0374 60.5185 66.0139 59.9913C65.8615 58.1311 65.83 56.263 65.9195 54.3987" fill="#263238"/>
<path d="M67.7423 58.3334C67.6538 58.3039 64.2499 57.5724 64.6039 60.9645C64.9578 64.3566 68.291 63.3242 68.291 63.2062C68.291 63.0883 67.7423 58.3334 67.7423 58.3334Z" fill="#FFBE9D"/>
<path d="M67.1171 62.0264C67.1171 62.0264 67.064 62.0736 66.9696 62.1326C66.8347 62.2074 66.6759 62.2265 66.5271 62.1857C66.2934 62.0704 66.0947 61.8948 65.9516 61.677C65.8084 61.4592 65.7261 61.2071 65.713 60.9468C65.6746 60.6556 65.7008 60.3595 65.7897 60.0796C65.8093 59.9707 65.8557 59.8684 65.9247 59.7818C65.9937 59.6953 66.0831 59.6274 66.185 59.5841C66.2507 59.5573 66.3238 59.5551 66.391 59.5778C66.4581 59.6006 66.5149 59.6468 66.5507 59.7079C66.6097 59.7964 66.592 59.8672 66.6097 59.8731C66.6274 59.879 66.6805 59.8082 66.6097 59.6667C66.5853 59.5846 66.5304 59.515 66.4564 59.472C66.4069 59.4407 66.3515 59.4199 66.2937 59.4108C66.2359 59.4017 66.1768 59.4044 66.1201 59.4189C65.9785 59.4565 65.8494 59.5309 65.7458 59.6345C65.6422 59.7381 65.5678 59.8672 65.5302 60.0088C65.4159 60.3177 65.3794 60.65 65.424 60.9763C65.4377 61.2802 65.5415 61.5732 65.7222 61.8179C65.9029 62.0627 66.1523 62.2482 66.4387 62.3509C66.5325 62.3685 66.6292 62.3643 66.7213 62.3388C66.8133 62.3132 66.8982 62.2669 66.9696 62.2034C67.1171 62.1149 67.1289 62.0323 67.1171 62.0264Z" fill="#EB996E"/>
<path d="M86.7382 59.4367C87.5228 59.242 88.508 58.9411 88.744 58.6107C89.1156 58.1152 89.3339 56.4457 89.5168 54.8705C89.5168 54.67 89.5522 54.5343 89.5581 54.4989L89.2395 54.4104C89.2395 54.4517 89.2395 54.5225 89.1864 54.8352C89.092 55.6788 88.8502 57.9205 88.4785 58.4043C88.1068 58.888 83.818 59.7906 83.3815 59.5546C83.1101 59.3777 82.2606 57.5135 81.7414 56.2392L81.6943 56.1271L79.9952 56.2982V56.4162C79.7829 57.3424 79.0985 59.8791 78.4142 60.4218C77.5588 61.1003 73.8894 61.3067 73.5649 60.9587C72.8701 59.7142 72.2667 58.4208 71.7597 57.0887L71.7067 56.9648L66.5742 57.8497L66.6273 58.1801L71.5002 57.3365C71.7892 58.0267 72.9396 60.7817 73.3231 61.1829C73.8481 61.7374 77.7594 61.3657 78.6325 60.6814C79.5056 59.9971 80.1545 57.2244 80.302 56.605L81.5173 56.4811C81.8122 57.2008 82.8033 59.5546 83.2458 59.8319C83.6882 60.1092 85.7648 59.6608 86.0008 59.6136C86.2368 59.5664 86.4432 59.5133 86.7382 59.4367Z" fill="#455A64"/>
<path d="M79.9777 56.8823L80.2314 56.2924C77.8126 55.2954 73.7421 55.2777 71.4177 56.9885L71.813 57.5253C73.8955 55.9738 77.7123 55.9502 79.9777 56.8823Z" fill="#455A64"/>
<path d="M89.4047 54.8645L89.564 54.2215C86.7028 53.49 83.2517 54.2982 81.3698 56.1388L81.8359 56.6166C83.5349 54.9471 86.7854 54.1979 89.4047 54.8645Z" fill="#455A64"/>
<path d="M74.2965 49.0065C74.2965 49.0065 74.3319 49.0065 74.4086 49.0065H74.7272C75.1253 49.0046 75.5216 48.953 75.907 48.8531C76.1889 48.7816 76.4605 48.6746 76.7152 48.5345C77.0184 48.3664 77.2835 48.1375 77.494 47.862C77.7332 47.5467 77.8931 47.1784 77.96 46.7883C78.032 46.3461 77.9396 45.8928 77.7004 45.514L77.6001 45.6202C78.4584 46.0833 79.4439 46.2552 80.4082 46.1099C80.9336 46.0334 81.4411 45.8635 81.9067 45.6084C82.1514 45.4787 82.3744 45.3115 82.5674 45.1129C82.7714 44.9044 82.9124 44.6427 82.9745 44.3578C83.0369 44.0269 83.0248 43.6863 82.9391 43.3608C82.86 43.0525 82.7574 42.7508 82.6323 42.4582C82.5233 42.1652 82.3701 41.8907 82.178 41.6441C82.0846 41.515 81.9636 41.4083 81.8238 41.3317C81.684 41.2552 81.5289 41.2108 81.3698 41.2016V41.3668C81.9634 41.4678 82.5737 41.3682 83.1042 41.0836C83.594 40.8376 84.0033 40.4569 84.2841 39.9863C84.533 39.5685 84.6502 39.0854 84.6204 38.6C84.5991 38.1855 84.4819 37.7817 84.2782 37.4201C84.0015 36.907 83.5701 36.4941 83.0452 36.2403C82.8608 36.1452 82.6612 36.0833 82.4553 36.0574C82.4553 36.0574 82.6677 36.1105 83.0452 36.2874C83.5483 36.553 83.9596 36.9642 84.2251 37.4673C84.4084 37.8181 84.5131 38.2046 84.5319 38.6C84.5553 39.0598 84.4402 39.516 84.2015 39.9096C83.9288 40.3493 83.5412 40.7063 83.0806 40.942C82.5787 41.2042 82.0043 41.2933 81.4465 41.1957V41.3609C81.5811 41.3701 81.7119 41.4093 81.8293 41.4756C81.9467 41.542 82.0477 41.6338 82.125 41.7443C82.3065 41.9788 82.4517 42.2394 82.5556 42.5172C82.8297 43.0643 82.9422 43.6782 82.8801 44.287C82.8111 44.538 82.6875 44.7708 82.5183 44.9686C82.349 45.1664 82.1381 45.3245 81.9008 45.4314C81.2646 45.7682 80.5558 45.9443 79.836 45.9443C79.1162 45.9443 78.4074 45.7682 77.7712 45.4314L77.4999 45.284L77.6709 45.5376C77.8976 45.8863 77.986 46.3071 77.9187 46.7175C77.8608 47.0886 77.7152 47.4405 77.494 47.744C77.2964 48.0096 77.0451 48.2307 76.7565 48.3929C76.5127 48.5369 76.2508 48.648 75.9778 48.7233C75.5929 48.8304 75.1971 48.8937 74.798 48.9121C74.4617 49.0006 74.2965 48.9947 74.2965 49.0065Z" fill="white"/>
<path d="M84.6027 46.2516C84.6027 46.2516 84.6794 46.2988 84.8387 46.3342C85.0686 46.3782 85.3049 46.3782 85.5348 46.3342C85.8829 46.2696 86.2024 46.0985 86.4492 45.8446C86.6004 45.6848 86.6866 45.4745 86.6911 45.2547C86.6914 45.1297 86.6553 45.0074 86.5872 44.9026C86.5191 44.7978 86.422 44.7152 86.3076 44.6647L86.2604 44.8299H86.3194C86.709 44.8872 87.1064 44.8594 87.4843 44.7484C87.8621 44.6374 88.2114 44.4458 88.5081 44.1869C88.6859 44.0321 88.8391 43.851 88.9623 43.65C89.0449 43.5084 89.0803 43.42 89.0685 43.4141C88.8781 43.6599 88.6648 43.887 88.4314 44.0925C88.1432 44.3281 87.8096 44.5021 87.4514 44.6035C87.0932 44.705 86.7179 44.7319 86.3489 44.6824H86.2958L85.4581 44.5585L86.2486 44.8476C86.3303 44.8875 86.3991 44.9496 86.4471 45.0269C86.4951 45.1041 86.5204 45.1932 86.52 45.2842C86.52 45.4634 86.4527 45.6361 86.3312 45.7679C86.1042 45.9976 85.8185 46.1609 85.5053 46.2398C85.2067 46.2889 84.9025 46.2929 84.6027 46.2516Z" fill="white"/>
<path d="M78.2314 62.8996C78.2314 62.8996 78.2845 62.8288 78.3553 62.7403C78.4503 62.6218 78.5714 62.5269 78.7092 62.463C79.0337 62.3155 79.3581 62.2742 79.3463 62.2153C79.1052 62.1531 78.8493 62.1869 78.6325 62.3096C78.4672 62.3828 78.3334 62.5125 78.255 62.6754C78.196 62.8052 78.2078 62.8937 78.2314 62.8996Z" fill="#EB996E"/>
<path d="M77.6474 63.4659C77.7005 63.4659 77.7359 63.2063 77.8362 62.876C77.9365 62.5456 78.0427 62.3273 78.0014 62.286C77.9601 62.2447 77.7713 62.4748 77.671 62.8052C77.5707 63.1356 77.6061 63.4718 77.6474 63.4659Z" fill="#EB996E"/>
<path d="M76.3436 118.076L57.1235 110.737L58.0851 107.375L46.6581 102.821C45.0357 107.381 43.8382 110.342 43.4016 113.782C43.4016 113.988 43.3544 114.2 43.3367 114.401C43.0418 119.12 46.6168 123.221 51.2949 123.923L74.8393 125.498L76.3436 118.076Z" fill="#FFBE9D"/>
<path d="M85.346 126.937L85.2221 126.577C85.2221 126.577 86.0126 128.471 85.2221 129.657C85.1062 129.832 84.958 129.984 84.7856 130.105C84.7012 130.47 84.5227 130.807 84.2677 131.082C84.0127 131.357 83.6902 131.56 83.3322 131.672C82.9743 131.784 82.5933 131.799 82.2273 131.718C81.8613 131.637 81.5229 131.461 81.246 131.208C81.0983 131.102 80.9869 130.952 80.9268 130.78C80.8667 130.608 80.8607 130.422 80.9097 130.247C81.0033 130.078 81.1396 129.938 81.305 129.84C81.3884 129.781 81.4655 129.714 81.535 129.639L80.1959 129.014C80.1959 129.014 76.7507 127.975 76.2551 125.887C76.1725 125.551 68.5388 124.365 68.5388 124.365L71.0932 116.047L83.2222 120.719C83.2222 120.719 91.8589 123.846 92.7261 124.046C92.8666 124.061 93.0015 124.109 93.1195 124.186C93.2375 124.264 93.335 124.369 93.4039 124.492C93.4728 124.615 93.5109 124.753 93.5151 124.895C93.5194 125.036 93.4895 125.176 93.4281 125.303C93.2629 125.893 92.7792 125.987 91.912 125.822L86.2486 124.642C86.5436 125.409 86.8385 126.613 86.0657 126.837L85.346 126.937Z" fill="#FFBE9D"/>
<path d="M82.5557 127.326C82.5557 127.291 82.8152 127.326 83.1928 127.468C83.7044 127.637 84.1678 127.926 84.5437 128.312C84.7399 128.51 84.8866 128.751 84.9717 129.017C85.0568 129.283 85.0779 129.564 85.0334 129.84C84.9449 130.264 84.7148 130.43 84.6971 130.43C84.6794 130.43 84.7974 130.199 84.821 129.84C84.8294 129.601 84.7894 129.362 84.7032 129.139C84.617 128.916 84.4865 128.713 84.3196 128.542C83.9676 128.189 83.5562 127.902 83.1043 127.692C82.7562 127.486 82.5557 127.368 82.5557 127.326Z" fill="#EB996E"/>
<path d="M83.2871 124.713C83.2871 124.678 83.588 124.713 83.9891 124.99C84.5166 125.315 84.9515 125.77 85.2516 126.312C85.5533 126.853 85.7117 127.462 85.7117 128.082C85.7117 128.553 85.6114 128.831 85.5761 128.825C85.5975 127.995 85.3965 127.174 84.994 126.448C84.5916 125.722 84.0022 125.117 83.2871 124.695V124.713Z" fill="#EB996E"/>
<path d="M84.6323 123.61C84.6323 123.533 85.1632 123.61 85.6824 123.982C86.2015 124.353 86.467 124.778 86.4021 124.825C86.3372 124.872 85.9891 124.548 85.5113 124.235C85.0334 123.923 84.6028 123.692 84.6323 123.61Z" fill="#EB996E"/>
<path d="M82.9213 130.441C82.8387 130.441 82.6854 130.152 82.3314 129.946C81.9774 129.739 81.6471 129.733 81.6294 129.651C81.6117 129.568 82.0364 129.409 82.4907 129.692C82.9449 129.975 83.0039 130.435 82.9213 130.441Z" fill="#EB996E"/>
<path d="M100.637 73.666C100.637 74.2559 99.4573 73.8606 98.9145 73.7013C98.6345 73.6373 98.3801 73.4905 98.1845 73.2802C97.9888 73.0698 97.8609 72.8055 97.8173 72.5215C97.8574 71.9873 98.1078 71.4909 98.5134 71.141C98.9217 70.7988 99.2228 70.3461 99.3806 69.8373C99.4039 69.4443 99.4039 69.0503 99.3806 68.6574C99.3806 68.268 99.6697 67.8256 100.065 67.8374C100.199 67.8514 100.326 67.904 100.431 67.9888C100.535 68.0736 100.613 68.187 100.655 68.3152C100.727 68.5681 100.749 68.8326 100.72 69.094C100.619 70.6514 100.708 72.079 100.637 73.666Z" fill="#FFBE9D"/>
<path d="M99.5398 59.6667C99.5398 59.6667 102.637 61.7138 102.572 62.2389C102.446 62.6578 102.192 63.027 101.846 63.2948C101.846 63.2948 105.073 64.0205 104.879 66.1973C104.879 66.1973 105.734 66.8522 105.598 67.5778C105.463 68.3034 104.548 68.1677 104.548 68.1677C104.548 68.1677 105.534 69.678 103.958 69.678C102.278 69.5675 100.607 69.3487 98.9557 69.0231C98.9557 69.0231 97.5694 68.1677 97.8998 67.5719C98.0774 67.2346 98.353 66.959 98.6903 66.7814C98.2994 66.2971 98.0141 65.7365 97.8526 65.1354C97.8093 64.918 97.8449 64.6923 97.953 64.4988C98.0611 64.3052 98.2347 64.1566 98.4425 64.0795C98.4425 64.0795 97.2626 62.699 97.8526 62.2389C98.4425 61.7787 98.7788 62.174 98.7788 62.174C98.7788 62.174 98.1888 60.6578 98.5841 60.1977C98.8355 59.9202 99.1714 59.7336 99.5398 59.6667Z" fill="#FFBE9D"/>
<path d="M104.548 68.1677C103.534 68.077 102.531 67.8913 101.551 67.6131C100.544 67.4251 99.5564 67.1426 98.6018 66.7695C99.6164 66.8528 100.62 67.0366 101.599 67.3182C102.608 67.5031 103.596 67.7877 104.548 68.1677Z" fill="#EB996E"/>
<path d="M101.846 63.2947C101.292 63.2822 100.744 63.1682 100.23 62.9584C99.6805 62.8395 99.1706 62.5815 98.7493 62.2092C99.2891 62.3065 99.8171 62.4608 100.324 62.6694C100.864 62.7871 101.38 62.9987 101.846 63.2947Z" fill="#EB996E"/>
<path d="M104.896 66.2445C103.776 66.0351 102.676 65.7251 101.611 65.3183C100.512 65.0098 99.4442 64.6031 98.419 64.103C99.5388 64.3197 100.638 64.6316 101.705 65.0351C102.801 65.3464 103.869 65.751 104.896 66.2445Z" fill="#EB996E"/>
<path d="M105.481 73.3236C103.829 72.6216 101.257 73.8722 100.295 73.9548C99.77 72.185 100.507 68.5156 100.507 68.5156L103.929 69.1056L105.481 73.3236Z" fill="#FFBE9D"/>
<path d="M101.021 69.4951C101.285 69.8421 101.449 70.2558 101.492 70.6901C101.536 71.1244 101.459 71.5623 101.268 71.9551C101.147 72.215 100.938 72.4238 100.678 72.5451C100.813 72.317 100.906 72.0676 100.956 71.8077C101.016 71.5596 101.055 71.307 101.074 71.0525C101.101 70.5328 101.083 70.0118 101.021 69.4951Z" fill="#EB996E"/>
<path d="M101.085 71.9551C101.233 71.5388 101.489 71.1699 101.829 70.8873C102.156 70.5916 102.526 70.3469 102.926 70.1617C103.714 69.7619 104.613 69.6373 105.48 69.8077C104.254 70.0185 103.083 70.4783 102.041 71.1587C101.686 71.3772 101.364 71.6454 101.085 71.9551Z" fill="#EB996E"/>
<path d="M244.829 257.236C244.829 257.319 191.983 257.39 126.807 257.39C61.6306 257.39 8.7724 257.319 8.7724 257.236C8.7724 257.154 61.607 257.083 126.807 257.083C192.006 257.083 244.829 257.154 244.829 257.236Z" fill="#263238"/>
<path d="M58.3682 66.3803L54.3507 59.3011C56.8309 55.2714 57.7141 50.4598 56.8269 45.812C55.9397 41.1642 53.3462 37.0163 49.5561 34.1835C45.766 31.3508 41.0535 30.038 36.3447 30.5033C31.6359 30.9685 27.2714 33.1782 24.109 36.6979C20.9466 40.2176 19.215 44.7929 19.2545 49.5244C19.294 54.256 21.1019 58.8017 24.3226 62.268C27.5434 65.7344 31.9443 67.8708 36.6602 68.2573C41.3761 68.6438 46.066 67.2525 49.8082 64.3568L58.3682 66.3803Z" fill="white"/>
<path d="M58.3682 66.3803L49.7846 64.4335H49.6666L49.7374 64.3391L49.8495 64.4453C47.2106 66.5129 44.0687 67.8406 40.7468 68.2917C39.7522 68.4299 38.7475 68.4812 37.744 68.4451C37.2249 68.4451 36.6999 68.4038 36.1689 68.3566L34.5643 68.1206C29.7863 67.1801 25.5449 64.4573 22.7007 60.5045C21.1191 58.3178 20.0247 55.8172 19.4914 53.1716C18.9416 50.3757 19.0181 47.4925 19.7156 44.7297C20.4328 41.8397 21.8281 39.1622 23.7862 36.9189C25.7709 34.6175 28.2798 32.8269 31.1014 31.698C33.8029 30.6289 36.7103 30.1813 39.6082 30.3884C42.35 30.5763 45.0168 31.3658 47.419 32.7009C51.7346 35.1038 54.9602 39.0751 56.4273 43.7917C57.0157 45.7943 57.2923 47.8756 57.2473 49.9624C57.1488 53.2944 56.1698 56.5409 54.4097 59.3719V59.2952C56.911 63.7964 58.1145 65.9614 58.3623 66.4157L54.2799 59.366V59.3306V59.2893C55.996 56.472 56.9438 53.2542 57.029 49.9565C57.064 47.8822 56.7794 45.8148 56.1854 43.8271C54.7211 39.182 51.5306 35.2757 47.2715 32.9133C44.9122 31.6047 42.294 30.8313 39.6023 30.6479C36.75 30.4492 33.8894 30.8927 31.2312 31.9458C28.4577 33.062 25.9904 34.8235 24.0339 37.0841C22.1106 39.2874 20.7377 41.9159 20.0283 44.7533C19.3437 47.4737 19.2651 50.3113 19.7982 53.0655C20.3231 55.6726 21.397 58.1381 22.9485 60.2981C25.7476 64.1977 29.9222 66.8901 34.6292 67.8315L36.2102 68.0793C36.7353 68.1206 37.2544 68.1383 37.7676 68.1678C38.7529 68.2086 39.7399 68.1632 40.7173 68.0321C44.0064 67.5941 47.1229 66.3003 49.7551 64.2801L50.2271 63.9144L49.8613 64.3863L49.82 64.2683L58.3682 66.3803Z" fill="#263238"/>
<path d="M28.6886 50.871L31.3374 48.2222L36.4521 52.7647L46.4928 43.1074L48.9529 45.7562L36.0746 57.8794L28.6886 50.871Z" fill="#303564"/>
</svg>
