<svg width="244" height="234" viewBox="0 0 244 234" fill="none" xmlns="http://www.w3.org/2000/svg">
<path d="M42.987 52.4973C44.7869 54.7685 46.6379 56.9431 48.4548 59.1745C50.2717 61.4059 52.1454 63.5634 54.0077 65.7324C55.9439 68.0035 57.8971 70.2747 59.8446 72.4947C59.907 72.5629 59.9581 72.6367 60.0206 72.7105C61.7504 74.6864 63.486 76.6604 65.2272 78.6325L65.4827 78.9164L65.8006 78.712C68.0036 77.2774 70.2029 75.8352 72.3983 74.3854C72.4766 74.3403 72.5524 74.291 72.6254 74.2378C75.1199 72.6026 77.603 70.9503 80.0748 69.281C82.4368 67.6912 84.8101 66.0731 87.1664 64.4549C89.5227 62.8367 91.8847 61.1844 94.224 59.4868C91.7939 60.8835 89.3864 62.3654 86.9734 63.8076C84.5603 65.2498 82.1529 66.7544 79.7511 68.2647C77.0788 69.9264 74.4064 71.6165 71.734 73.335C69.7316 74.6069 67.7292 75.8863 65.7268 77.1733C64.1541 75.4018 62.5699 73.6189 60.9801 71.8645C58.868 69.5101 56.7464 67.167 54.6153 64.8353C52.6999 62.7458 50.7789 60.664 48.8523 58.5896C46.8707 56.5683 44.9516 54.4959 42.987 52.4973Z" fill="white"/>
<path d="M71.5466 74.0676C71.5669 74.0871 71.5859 74.108 71.6034 74.1301L72.3188 74.925C73.4544 76.1855 74.6297 77.4005 75.8277 78.5929C77.2926 80.0578 78.7972 81.4829 80.3132 82.8967C81.8292 84.3105 83.3736 85.6732 84.9577 87.0131C86.5418 88.3531 88.1373 89.6817 89.8066 90.9195C88.4382 89.3467 86.9676 87.8591 85.5311 86.3772C84.0947 84.8953 82.556 83.4872 81.0513 82.0791C79.5467 80.671 77.9796 79.2913 76.4012 77.9456C75.1464 76.8725 73.8632 75.8164 72.5402 74.8057C72.2374 74.5673 71.9308 74.3345 71.6204 74.1074L71.5466 74.0676Z" fill="white"/>
<path d="M38.8138 83.9698C40.7613 83.2203 42.6633 82.3743 44.537 81.5056C46.4107 80.6369 48.2674 79.7057 50.1184 78.7745C51.9693 77.8434 53.7919 76.8554 55.5918 75.8334C57.0624 75.0044 58.5159 74.1301 59.941 73.2443C60.2533 73.0513 60.5543 72.8582 60.8552 72.6765L60.9233 72.6311C60.8954 72.6383 60.8661 72.6383 60.8382 72.6311L59.7594 73.0683C58.2207 73.6872 56.7104 74.3685 55.2171 75.0612C53.3377 75.9356 51.4867 76.8554 49.6414 77.7979C47.7961 78.7405 45.9735 79.7171 44.168 80.7448C42.3624 81.7724 40.5569 82.8172 38.8138 83.9698Z" fill="white"/>
<path d="M13.6665 16.2331C15.7957 17.4368 17.9363 18.561 20.0712 19.7307C22.206 20.9003 24.3523 22.0018 26.4985 23.1374C28.7356 24.307 30.9783 25.4483 33.2211 26.5895L33.4255 26.7031L39.3815 29.6953L39.6711 29.8372L39.8585 29.5761C41.1303 27.7535 42.3908 25.9252 43.657 24.0969C43.7038 24.0349 43.7474 23.9704 43.7876 23.9039C45.2259 21.8371 46.6492 19.7553 48.0573 17.6582C49.4086 15.6653 50.7543 13.644 52.0886 11.6284C53.4229 9.61272 54.7515 7.56869 56.0631 5.50195C54.5982 7.36429 53.1844 9.28908 51.7479 11.1798C50.3114 13.0705 48.909 15.018 47.5009 16.9599C45.9338 19.1137 44.3724 21.2864 42.8166 23.478C41.6546 25.1095 40.4906 26.7466 39.3248 28.3894C37.5079 27.4809 35.7023 26.6009 33.9024 25.7265C31.495 24.5455 29.0876 23.3796 26.6802 22.2289C24.5226 21.2012 22.3593 20.1792 20.1961 19.1799C18.0328 18.1806 15.8468 17.1756 13.6665 16.2331Z" fill="white"/>
<path d="M42.8961 24.0742C42.9157 24.0877 42.9367 24.0991 42.9586 24.1083L43.7705 24.5057C45.0613 25.1303 46.3653 25.717 47.6826 26.2659C49.2951 26.9586 50.9246 27.5945 52.5599 28.2191C54.1951 28.8436 55.8417 29.4284 57.5053 29.9792C59.1689 30.5299 60.8438 31.0637 62.5472 31.5065C60.9744 30.7059 59.3733 29.9962 57.7664 29.3092C56.1596 28.6222 54.513 27.9863 52.8835 27.3617C51.254 26.7371 49.596 26.1466 47.9324 25.5959C46.6095 25.153 45.2695 24.7272 43.9125 24.3524C43.6002 24.2616 43.2879 24.1821 42.97 24.0969L42.8961 24.0742Z" fill="white"/>
<path d="M20.3721 42.2432C21.661 41.0452 22.8818 39.779 24.0741 38.4958C25.2665 37.2126 26.4361 35.9067 27.5887 34.5951C28.7413 33.2836 29.8598 31.9209 30.9443 30.5525C31.8357 29.4169 32.7101 28.2814 33.5391 27.1458L34.0671 26.402C34.0671 26.402 34.0671 26.3622 34.1069 26.3452L34.0501 26.3963C33.8116 26.6234 33.5732 26.8449 33.3404 27.0777C32.3297 28.0486 31.3588 29.0592 30.3992 30.0869C29.2012 31.3644 28.0429 32.676 26.896 33.9933C25.7491 35.3105 24.6249 36.6619 23.5404 38.0359C22.4559 39.41 21.3714 40.767 20.3721 42.2432Z" fill="white"/>
<path d="M188.232 127.127C190.185 128.598 192.161 129.995 194.12 131.442C196.079 132.89 198.066 134.253 200.048 135.638C202.029 137.024 204.187 138.517 206.259 139.942L206.447 140.078C208.275 141.331 210.111 142.582 211.954 143.831L212.227 144.007L212.443 143.775C213.957 142.136 215.452 140.491 216.928 138.841C216.985 138.788 217.038 138.731 217.087 138.67C218.779 136.808 220.463 134.93 222.14 133.038C223.741 131.244 225.337 129.415 226.927 127.593C228.517 125.77 230.101 123.919 231.656 122.034C229.953 123.692 228.306 125.441 226.632 127.104C224.957 128.768 223.31 130.511 221.658 132.277C219.822 134.2 217.992 136.147 216.167 138.12C214.799 139.584 213.436 141.061 212.068 142.531C210.399 141.396 208.729 140.288 207.06 139.187C204.834 137.699 202.601 136.227 200.36 134.77C198.361 133.464 196.353 132.173 194.336 130.897C192.275 129.643 190.265 128.348 188.232 127.127Z" fill="white"/>
<path d="M216.162 138.767L216.218 138.807C216.468 138.977 216.724 139.147 216.973 139.306C218.172 140.101 219.387 140.851 220.624 141.577C222.129 142.469 223.662 143.315 225.201 144.155C226.739 144.995 228.295 145.779 229.874 146.546C231.452 147.312 233.036 148.061 234.666 148.72C233.218 147.721 231.719 146.807 230.214 145.921C228.71 145.035 227.165 144.178 225.632 143.343C224.099 142.509 222.532 141.708 220.959 140.941C219.705 140.328 218.427 139.732 217.132 139.181C216.837 139.053 216.536 138.928 216.23 138.807L216.162 138.767Z" fill="white"/>
<path d="M191.463 153.773C192.899 152.751 194.302 151.655 195.625 150.548C196.948 149.441 198.305 148.277 199.599 147.142C200.894 146.006 202.2 144.797 203.46 143.576C204.488 142.588 205.499 141.583 206.475 140.538L207.1 139.868C207.116 139.852 207.131 139.835 207.145 139.817C207.127 139.834 207.106 139.848 207.083 139.857L206.293 140.425C205.158 141.259 204.068 142.128 202.978 143.019C201.621 144.155 200.303 145.291 199.003 146.426C197.703 147.562 196.403 148.771 195.142 149.992C193.882 151.213 192.644 152.462 191.463 153.773Z" fill="white"/>
<path d="M197.498 64.1711L190.043 64.3301L186.262 64.3925C184.996 64.4209 183.724 64.3925 182.458 64.4266H182.208V64.1711L182.174 57.8176V57.5337H182.458L189.975 57.5678C192.479 57.5678 194.989 57.6359 197.493 57.6643H197.652V57.8176C197.652 58.8964 197.606 59.9695 197.578 61.0256L197.498 64.1711ZM197.498 64.1711L197.425 60.9802C197.396 59.9184 197.362 58.8737 197.351 57.8346L197.504 57.9879C195 58.0163 192.491 58.0788 189.987 58.0844L182.469 58.1185L182.753 57.8346V64.1881L182.498 63.9326C183.735 63.9326 184.973 63.9326 186.217 63.9667L189.953 64.0292L197.498 64.1711Z" fill="#EBEBEB"/>
<path d="M189.112 72.1826L181.657 72.3416L177.876 72.404C176.615 72.404 175.343 72.404 174.077 72.4381H173.827V72.1826L173.799 65.8291V65.5225H174.083L181.6 65.5565C184.104 65.5565 186.614 65.6247 189.118 65.653H189.277V65.8064C189.277 66.8851 189.231 67.9583 189.203 69.0143L189.112 72.1826ZM189.112 72.1826L189.033 68.9746C189.004 67.9128 188.97 66.8681 188.959 65.8291L189.112 65.9824C186.608 66.0108 184.099 66.0732 181.595 66.0789L174.077 66.113L174.361 65.8291L174.327 72.1826L174.077 71.9271C175.315 71.9271 176.553 71.9271 177.791 71.9611L181.527 72.0236L189.112 72.1826Z" fill="#EBEBEB"/>
<path d="M205.885 72.1826L198.435 72.3416L194.654 72.404C193.388 72.404 192.116 72.404 190.85 72.4381H190.611V72.1826L190.577 65.8291V65.5225H190.861L198.378 65.5565C200.888 65.5565 203.392 65.6247 205.896 65.653H206.055V65.8064C206.055 66.8851 206.004 67.9583 205.975 69.0143L205.885 72.1826ZM205.885 72.1826L205.805 68.9746C205.805 67.9128 205.743 66.8681 205.731 65.8291L205.885 65.9824C203.381 66.0108 200.877 66.0732 198.367 66.0789L190.85 66.113L191.134 65.8291L191.105 72.1826L190.85 71.9271C192.087 71.9271 193.325 71.9271 194.569 71.9611L198.305 72.0236L205.885 72.1826Z" fill="#EBEBEB"/>
<path d="M234.529 6.63741L227.074 6.79639L223.293 6.85885C222.027 6.85885 220.761 6.85885 219.494 6.89292H219.239V6.63741L219.211 0.283893V0H219.5L227.018 0.0340679C229.522 0.0340679 232.025 0.102203 234.535 0.130593H234.688V0.283893C234.688 1.36268 234.637 2.4358 234.615 3.49188L234.529 6.63741ZM234.529 6.63741L234.444 3.42942C234.444 2.36767 234.382 1.32294 234.37 0.283893L234.529 0.437195C232.02 0.465584 229.516 0.528042 227.012 0.53372L219.494 0.567785L219.773 0.283893L219.744 6.63741L219.494 6.38191C220.732 6.38191 221.964 6.38191 223.208 6.41598L226.949 6.47275L234.529 6.63741Z" fill="#EBEBEB"/>
<path d="M242.916 14.6489L235.466 14.8079L231.685 14.8703C230.424 14.8703 229.152 14.8703 227.886 14.9044H227.631V14.6489L227.602 8.29537V8.01147H227.886L235.404 8.04554C237.908 8.04554 240.412 8.11368 242.921 8.14206H243.075V8.29537C243.075 9.37416 243.023 10.4473 243.001 11.5034L242.916 14.6489ZM242.916 14.6489L242.847 11.4409C242.819 10.3791 242.779 9.33441 242.768 8.29537L242.927 8.44867C240.417 8.47706 237.913 8.53952 235.409 8.54519L227.892 8.57926L228.176 8.29537L228.142 14.6489L227.892 14.3934C229.13 14.3934 230.362 14.3934 231.605 14.4275L235.341 14.4899L242.916 14.6489Z" fill="#EBEBEB"/>
<path d="M21.6155 6.64302L14.1662 6.80201L10.3847 6.86446C9.11859 6.89285 7.84675 6.86446 6.58058 6.89853H6.33076V6.64302L6.29669 0.289508V0.00561523H6.58058L14.0981 0.04536C16.6077 0.04536 19.1116 0.107816 21.6155 0.136206H21.7745V0.289508C21.7745 1.3683 21.7234 2.44141 21.695 3.50317L21.6155 6.64302ZM21.6155 6.64302L21.536 3.43504C21.536 2.37896 21.4736 1.32856 21.4622 0.289508L21.6155 0.448487C19.1116 0.448487 16.6077 0.533655 14.0981 0.539333L6.58058 0.573401L6.86448 0.289508L6.83609 6.64302L6.58058 6.3932C7.81836 6.3932 9.05613 6.3932 10.2996 6.3932L14.0299 6.47269L21.6155 6.64302Z" fill="#EBEBEB"/>
<path d="M227.881 154.387L235.33 154.228L239.111 154.165C240.378 154.137 241.649 154.165 242.916 154.131H243.165V154.387L243.199 160.74V161.024H242.916L235.398 160.984C232.888 160.984 230.385 160.922 227.881 160.893H227.722V160.74C227.722 159.661 227.773 158.588 227.795 157.526L227.881 154.387ZM227.881 154.387L227.96 157.595C227.96 158.651 228.023 159.701 228.034 160.74L227.881 160.581C230.385 160.553 232.888 160.496 235.398 160.49L242.916 160.456L242.632 160.74L242.66 154.387L242.916 154.636C241.678 154.636 240.44 154.636 239.197 154.608L235.461 154.546L227.881 154.387Z" fill="#EBEBEB"/>
<path d="M6.58059 154.387L14.0299 154.228L17.8114 154.165C19.0719 154.137 20.3437 154.165 21.6099 154.131H21.8654V154.387V160.74V161.024H21.5815L14.064 160.984C11.5601 160.984 9.05613 160.922 6.54652 160.893H6.39322V160.74C6.39322 159.661 6.44432 158.588 6.46703 157.526L6.58059 154.387ZM6.58059 154.387L6.66008 157.595C6.66008 158.651 6.72821 159.701 6.73957 160.74L6.58059 160.581C9.0902 160.553 11.5941 160.496 14.0981 160.49L21.6155 160.456L21.3317 160.74L21.3657 154.387L21.6155 154.636C20.3778 154.636 19.1457 154.636 17.9022 154.608L14.1662 154.546L6.58059 154.387Z" fill="#EBEBEB"/>
<path d="M14.9668 146.375L22.4218 146.216L26.2033 146.154C27.4694 146.125 28.7356 146.154 30.0018 146.12H30.2573V146.375V152.729V153.013H29.9677L22.4843 152.961C19.9804 152.961 17.4764 152.899 14.9668 152.871H14.8135V152.717C14.8135 151.638 14.8646 150.565 14.8873 149.504L14.9668 146.375ZM14.9668 146.375L15.052 149.583C15.052 150.639 15.1144 151.69 15.1258 152.729L14.9668 152.57C17.4764 152.541 19.9804 152.484 22.4843 152.479L30.0018 152.445L29.7236 152.729V146.375L29.9734 146.625C28.7356 146.625 27.5035 146.625 26.2601 146.625L22.5468 146.534L14.9668 146.375Z" fill="#EBEBEB"/>
<path d="M166.634 50.8792L243.994 50.8792V46.2858L166.634 46.2858V50.8792Z" fill="#EBEBEB"/>
<path d="M238.123 50.8792H233.53V66.0731H238.123V50.8792Z" fill="#EBEBEB"/>
<path d="M238.123 50.8792H233.53V55.5747H238.123V50.8792Z" fill="#DBDBDB"/>
<path d="M177.098 50.8792H172.505V66.0731H177.098V50.8792Z" fill="#EBEBEB"/>
<path d="M177.098 50.8792H172.505V55.5747H177.098V50.8792Z" fill="#DBDBDB"/>
<path d="M224.446 46.2858V17.0107H217.076V46.2858H224.446Z" fill="#C7C7C7"/>
<path d="M224.451 18.6688V15.4495H217.081V18.6688H224.451Z" fill="#DBDBDB"/>
<path d="M224.446 23.9775V22.7852H217.076V23.9775H224.446Z" fill="#DBDBDB"/>
<path d="M224.451 42.4532V39.2339H216.162V42.4532H224.451Z" fill="#DBDBDB"/>
<path d="M217.076 46.2914V12.1392H211.926V46.2914H217.076Z" fill="#DBDBDB"/>
<path d="M216.071 28.48V15.3472H212.976V28.48H216.071Z" fill="#EBEBEB"/>
<path d="M178.893 46.3094L203.181 22.2996L199.561 18.6372L175.273 42.647L178.893 46.3094Z" fill="#C7C7C7"/>
<path d="M183.858 39.9288L193.197 30.696L191.022 28.4954L181.682 37.7281L183.858 39.9288Z" fill="#DBDBDB"/>
<path d="M211.926 46.2971V20.355H203.176V46.2971H211.926Z" fill="#A6A6A6"/>
<path d="M211.92 43.5435V41.1248H203.171V43.5435H211.92Z" fill="#C7C7C7"/>
<path d="M211.92 39.5406V38.6038H203.171V39.5406H211.92Z" fill="#C7C7C7"/>
<path d="M230.492 46.2972V21.9165H224.446V46.2972H230.492Z" fill="#A6A6A6"/>
<path d="M230.492 43.7082V41.437H224.446V43.7082H230.492Z" fill="#C7C7C7"/>
<path d="M230.487 29.2069V26.9358H224.44V29.2069H230.487Z" fill="#C7C7C7"/>
<path d="M230.492 31.6484V30.7683H224.446V31.6484H230.492Z" fill="#C7C7C7"/>
<path d="M5.49612 228.21L35.3105 228.074L65.1249 228.023L124.748 227.926L184.371 228.023L214.186 228.074L244 228.21L214.186 228.352L184.371 228.397L124.748 228.494L65.1249 228.397L35.3105 228.346L5.49612 228.21Z" fill="#263238"/>
<path d="M195.528 6.64307H97.6931C96.381 6.65494 95.0842 6.92523 93.8766 7.4385C92.669 7.95177 91.5745 8.69796 90.6554 9.63442C89.7364 10.5709 89.0108 11.6793 88.5203 12.8962C88.0298 14.1132 87.7838 15.4149 87.7966 16.7269V218.126C87.7739 220.775 88.8033 223.325 90.6588 225.215C92.5143 227.106 95.0442 228.183 97.6931 228.21H195.528C198.179 228.184 200.71 227.108 202.568 225.218C204.426 223.327 205.457 220.776 205.436 218.126V16.7269C205.448 15.4141 205.201 14.1119 204.71 12.8945C204.218 11.6771 203.492 10.5685 202.571 9.63208C201.651 8.69562 200.556 7.94964 199.347 7.43678C198.139 6.92391 196.841 6.6542 195.528 6.64307ZM199.247 211.897C199.247 217.201 195.273 221.487 190.378 221.487H102.854C97.9486 221.487 93.9741 217.201 93.9741 211.897V24.358C93.9741 13.57 97.9486 13.0023 102.854 13.0023H120.387C121.409 13.0023 122.244 14.1378 122.244 15.597V16.2159C122.244 19.5772 124.084 19.5886 126.338 19.5886H166.883C169.155 19.5886 170.994 19.5886 170.994 16.2159V15.6254C170.994 14.1889 171.817 13.0307 172.851 13.0307H190.378C195.278 13.0307 199.247 14.4672 199.247 24.3864V211.897Z" fill="#263238"/>
<path d="M199.253 24.3579V211.897C199.253 217.201 195.278 221.487 190.384 221.487H102.86C97.9542 221.487 93.9797 217.201 93.9797 211.897V24.3579C93.9797 13.57 97.9542 13.0022 102.86 13.0022H120.393C121.415 13.0022 122.25 14.1378 122.25 15.597V16.2159C122.25 19.5772 124.089 19.5885 126.343 19.5885H166.889C169.16 19.5885 171 19.5885 171 16.2159V15.6254C171 14.1889 171.823 13.0306 172.856 13.0306H190.384C195.284 13.0306 199.253 14.4671 199.253 24.3579Z" fill="white"/>
<path d="M199.253 24.3638V41.3973H93.9797V24.3638C93.9797 13.5758 97.9542 13.0081 102.86 13.0081H120.393C121.415 13.0081 122.25 14.1436 122.25 15.6028V16.2217C122.25 19.583 124.089 19.5944 126.343 19.5944H166.889C169.16 19.5944 171 19.5944 171 16.2217V15.6312C171 14.1947 171.823 13.0364 172.856 13.0364H190.384C195.284 13.0364 199.253 14.4729 199.253 24.3638Z" fill="#303564"/>
<path d="M152.144 15.2563H141.083C140.902 15.2548 140.729 15.1818 140.601 15.0531C140.473 14.9244 140.402 14.7505 140.402 14.5693C140.402 14.4798 140.419 14.3912 140.454 14.3085C140.488 14.2259 140.538 14.1508 140.601 14.0875C140.665 14.0242 140.74 13.974 140.822 13.9398C140.905 13.9056 140.994 13.8879 141.083 13.8879H152.144C152.233 13.8879 152.322 13.9056 152.404 13.9398C152.487 13.974 152.562 14.0242 152.625 14.0875C152.689 14.1508 152.739 14.2259 152.773 14.3085C152.807 14.3912 152.825 14.4798 152.825 14.5693C152.826 14.6592 152.809 14.7484 152.775 14.8318C152.741 14.9151 152.691 14.9909 152.627 15.0547C152.564 15.1186 152.489 15.1693 152.406 15.2039C152.323 15.2385 152.234 15.2563 152.144 15.2563Z" fill="white"/>
<path d="M104.461 32.165L104.313 32.2843C104.086 32.4773 103.848 32.6647 103.609 32.8521C103.371 33.0394 103.042 33.2836 102.724 33.4937C102.406 33.7037 102.122 33.9081 101.815 34.1069C101.509 34.3056 101.191 34.4986 100.873 34.6746C101.145 34.4305 101.44 34.2034 101.724 33.982C102.008 33.7605 102.292 33.5504 102.616 33.3404C102.939 33.1303 103.218 32.9259 103.524 32.7271C103.831 32.5284 104.024 32.4149 104.279 32.2672C104.336 32.2317 104.395 32.1995 104.455 32.1707L104.461 32.165Z" fill="#303564"/>
<path d="M109.986 34.6803C109.662 34.5043 109.35 34.3112 109.043 34.1125C108.736 33.9138 108.43 33.7094 108.129 33.4993C107.828 33.2892 107.533 33.0791 107.243 32.8577C106.954 32.6362 106.772 32.4943 106.545 32.2899L106.397 32.1707L106.573 32.2729C106.831 32.4205 107.08 32.5738 107.323 32.7328C107.635 32.9315 107.936 33.1359 108.237 33.346C108.538 33.5561 108.833 33.7661 109.123 33.9876C109.412 34.209 109.679 34.4361 109.986 34.6803Z" fill="#303564"/>
<path d="M111.939 29.0707C111.939 29.4584 111.824 29.8373 111.608 30.1596C111.393 30.4818 111.087 30.7329 110.728 30.881C110.37 31.0291 109.976 31.0675 109.596 30.9915C109.216 30.9154 108.867 30.7283 108.593 30.4538C108.319 30.1793 108.133 29.8297 108.058 29.4493C107.983 29.069 108.023 28.675 108.172 28.3171C108.321 27.9593 108.573 27.6537 108.896 27.4392C109.219 27.2246 109.598 27.1107 109.986 27.1118C110.504 27.1133 111.001 27.3204 111.367 27.6876C111.733 28.0548 111.939 28.5521 111.939 29.0707Z" fill="#455A64"/>
<path d="M110.627 29.4624C110.626 29.5035 110.608 29.5425 110.579 29.5711C110.549 29.5997 110.509 29.6157 110.468 29.6157V29.8314C110.461 29.8677 110.442 29.9005 110.413 29.9241C110.385 29.9476 110.349 29.9605 110.312 29.9605C110.275 29.9605 110.239 29.9476 110.211 29.9241C110.182 29.9005 110.163 29.8677 110.156 29.8314V29.6157H109.27C109.253 29.6171 109.235 29.6149 109.218 29.609C109.202 29.6031 109.186 29.5938 109.174 29.5816C109.159 29.5678 109.147 29.5511 109.139 29.5325C109.131 29.514 109.127 29.494 109.127 29.4737C109.127 29.4535 109.131 29.4335 109.139 29.4149C109.147 29.3964 109.159 29.3797 109.174 29.3658L110.162 28.0486H110.207H110.298V29.1842C110.335 29.1405 110.388 29.1133 110.445 29.1085C110.501 29.1037 110.558 29.1217 110.602 29.1586C110.645 29.1955 110.673 29.2482 110.677 29.3052C110.682 29.3622 110.664 29.4187 110.627 29.4624ZM110.128 28.6107L109.56 29.3091H110.128V28.6107Z" fill="white"/>
<path d="M117.367 17.079L117.197 17.2493L117.1 17.3459C116.667 16.9135 116.08 16.6707 115.468 16.6707C114.856 16.6707 114.268 16.9135 113.835 17.3459L113.744 17.2493C113.688 17.1926 113.631 17.1415 113.58 17.0847L113.795 16.8916C113.946 16.7674 114.112 16.6624 114.289 16.5794C114.497 16.4745 114.719 16.3999 114.948 16.3579C115.056 16.3579 115.164 16.3579 115.272 16.3125H115.561H115.783C115.989 16.3354 116.191 16.3851 116.385 16.4601C116.526 16.5109 116.663 16.5736 116.793 16.6475C116.931 16.7279 117.062 16.819 117.185 16.92L117.361 17.0847L117.367 17.079Z" fill="white"/>
<path d="M114.369 17.8795L114.102 17.6126C114.389 17.3062 114.771 17.1061 115.187 17.0449C115.485 17.0029 115.79 17.0325 116.075 17.1312C116.361 17.23 116.618 17.3949 116.827 17.6126L116.561 17.8795C116.269 17.5909 115.875 17.4296 115.465 17.431C115.261 17.4293 115.06 17.4681 114.872 17.5452C114.684 17.6222 114.513 17.7358 114.369 17.8795Z" fill="white"/>
<path d="M116.294 18.1464C116.203 18.2315 116.112 18.3224 116.027 18.4132C115.953 18.338 115.864 18.2785 115.767 18.2385C115.669 18.1985 115.565 18.1787 115.459 18.1804C115.353 18.178 115.249 18.1975 115.151 18.2375C115.053 18.2776 114.965 18.3374 114.891 18.4132L114.624 18.1464C114.733 18.0355 114.863 17.9474 115.006 17.8873C115.15 17.8271 115.304 17.7961 115.459 17.7961C115.614 17.7961 115.768 17.8271 115.912 17.8873C116.055 17.9474 116.185 18.0355 116.294 18.1464Z" fill="white"/>
<path d="M115.703 18.6519C115.704 18.7006 115.691 18.7486 115.665 18.7896C115.638 18.8306 115.6 18.8628 115.555 18.882C115.51 18.9011 115.461 18.9064 115.413 18.8972C115.365 18.888 115.321 18.8646 115.287 18.8301C115.252 18.7956 115.229 18.7516 115.219 18.7037C115.21 18.6559 115.216 18.6063 115.235 18.5615C115.254 18.5166 115.286 18.4786 115.327 18.4522C115.368 18.4258 115.416 18.4123 115.465 18.4134C115.528 18.4134 115.589 18.4385 115.633 18.4832C115.678 18.528 115.703 18.5886 115.703 18.6519Z" fill="white"/>
<path d="M100.844 17.59C100.844 17.4519 100.885 17.3168 100.962 17.202C101.039 17.0871 101.148 16.9976 101.275 16.9448C101.403 16.8919 101.543 16.8781 101.679 16.905C101.814 16.932 101.939 16.9985 102.036 17.0962C102.134 17.1938 102.201 17.3183 102.228 17.4537C102.255 17.5892 102.241 17.7296 102.188 17.8572C102.135 17.9848 102.045 18.0939 101.931 18.1707C101.816 18.2474 101.681 18.2884 101.543 18.2884C101.451 18.2884 101.36 18.2703 101.275 18.2352C101.191 18.2001 101.114 18.1487 101.049 18.0838C100.984 18.019 100.933 17.942 100.897 17.8572C100.862 17.7725 100.844 17.6817 100.844 17.59Z" fill="white"/>
<path d="M103.042 17.59C103.042 17.4519 103.083 17.3168 103.159 17.202C103.236 17.0871 103.345 16.9976 103.473 16.9448C103.6 16.8919 103.741 16.8781 103.876 16.905C104.012 16.932 104.136 16.9985 104.234 17.0962C104.331 17.1938 104.398 17.3183 104.425 17.4537C104.452 17.5892 104.438 17.7296 104.385 17.8572C104.332 17.9848 104.243 18.0939 104.128 18.1707C104.013 18.2474 103.878 18.2884 103.74 18.2884C103.555 18.2884 103.377 18.2148 103.246 18.0838C103.115 17.9528 103.042 17.7752 103.042 17.59Z" fill="white"/>
<path d="M105.239 17.59C105.239 17.4519 105.28 17.3168 105.357 17.202C105.433 17.0871 105.542 16.9976 105.67 16.9448C105.798 16.8919 105.938 16.8781 106.074 16.905C106.209 16.932 106.334 16.9985 106.431 17.0962C106.529 17.1938 106.595 17.3183 106.622 17.4537C106.649 17.5892 106.635 17.7296 106.583 17.8572C106.53 17.9848 106.44 18.0939 106.325 18.1707C106.21 18.2474 106.075 18.2884 105.937 18.2884C105.752 18.2884 105.574 18.2148 105.444 18.0838C105.313 17.9528 105.239 17.7752 105.239 17.59Z" fill="white"/>
<path d="M107.436 17.59C107.436 17.4519 107.477 17.3168 107.554 17.202C107.631 17.0871 107.74 16.9976 107.867 16.9448C107.995 16.8919 108.135 16.8781 108.271 16.905C108.406 16.932 108.531 16.9985 108.628 17.0962C108.726 17.1938 108.793 17.3183 108.82 17.4537C108.847 17.5892 108.833 17.7296 108.78 17.8572C108.727 17.9848 108.637 18.0939 108.523 18.1707C108.408 18.2474 108.273 18.2884 108.135 18.2884C108.043 18.2884 107.952 18.2703 107.867 18.2352C107.783 18.2001 107.706 18.1487 107.641 18.0838C107.576 18.019 107.525 17.942 107.489 17.8572C107.454 17.7725 107.436 17.6817 107.436 17.59Z" fill="white"/>
<path d="M109.634 17.59C109.634 17.4519 109.675 17.3168 109.751 17.202C109.828 17.0871 109.937 16.9976 110.065 16.9448C110.192 16.8919 110.333 16.8781 110.468 16.905C110.604 16.932 110.728 16.9985 110.826 17.0962C110.923 17.1938 110.99 17.3183 111.017 17.4537C111.044 17.5892 111.03 17.7296 110.977 17.8572C110.924 17.9848 110.835 18.0939 110.72 18.1707C110.605 18.2474 110.47 18.2884 110.332 18.2884C110.24 18.2884 110.149 18.2703 110.065 18.2352C109.98 18.2001 109.903 18.1487 109.838 18.0838C109.773 18.019 109.722 17.942 109.687 17.8572C109.652 17.7725 109.634 17.6817 109.634 17.59Z" fill="white"/>
<path d="M191.349 19.1174H185.671V16.4829H191.349V19.1174ZM185.961 18.8279H191.071V16.7725H185.961V18.8279Z" fill="white"/>
<path d="M189.805 16.9314H186.143V18.6688H189.805V16.9314Z" fill="white"/>
<path d="M191.86 17.0959H191.355V18.5041H191.86V17.0959Z" fill="white"/>
<path d="M184.752 34.1408L184.036 34.7086L182.713 32.9598L182.231 32.3182C182.33 32.2795 182.423 32.2279 182.509 32.1649C182.669 32.0399 182.794 31.8756 182.872 31.688L183.389 32.3636L184.752 34.1408Z" fill="white"/>
<path d="M183.344 30.0187C183.117 29.7232 182.81 29.4987 182.46 29.3717C182.109 29.2448 181.73 29.2207 181.366 29.3023C181.003 29.3839 180.67 29.5678 180.408 29.8323C180.145 30.0968 179.964 30.4308 179.885 30.795C179.806 31.1592 179.833 31.5383 179.963 31.8876C180.093 32.237 180.32 32.5419 180.617 32.7665C180.914 32.9911 181.27 33.126 181.641 33.1552C182.012 33.1845 182.385 33.1068 182.713 32.9315C182.81 32.8816 182.901 32.8227 182.986 32.7555C183.143 32.6387 183.279 32.4967 183.389 32.3353C183.63 31.9949 183.755 31.5864 183.747 31.1696C183.739 30.7527 183.597 30.3495 183.344 30.0187ZM182.509 32.1366C182.423 32.1996 182.33 32.2511 182.231 32.2899C181.981 32.3896 181.704 32.3997 181.448 32.3186C181.192 32.2375 180.971 32.0701 180.824 31.8449C180.677 31.6198 180.613 31.3506 180.642 31.0833C180.671 30.816 180.792 30.567 180.983 30.3785C181.175 30.1901 181.426 30.0739 181.694 30.0497C181.962 30.0254 182.23 30.0947 182.453 30.2456C182.675 30.3965 182.838 30.6199 182.915 30.8776C182.991 31.1354 182.976 31.4117 182.872 31.6596C182.794 31.8472 182.669 32.0115 182.509 32.1366Z" fill="white"/>
<path d="M175.042 29.3716H169.853V34.5611H175.042V29.3716Z" fill="white"/>
<path d="M172.732 30.3367H172.164V33.6014H172.732V30.3367Z" fill="#303564"/>
<path d="M170.812 31.6825V32.2502H174.077V31.6825H170.812Z" fill="#303564"/>
<path d="M191.349 29.7066C191.349 29.7953 191.323 29.882 191.274 29.9558C191.224 30.0296 191.154 30.0871 191.072 30.121C190.99 30.155 190.9 30.1638 190.813 30.1465C190.726 30.1292 190.646 30.0865 190.584 30.0238C190.521 29.9611 190.478 29.8811 190.461 29.7941C190.443 29.7071 190.452 29.6169 190.486 29.535C190.52 29.453 190.578 29.3829 190.652 29.3337C190.725 29.2844 190.812 29.2581 190.901 29.2581C190.96 29.2581 191.018 29.2697 191.072 29.2922C191.127 29.3147 191.176 29.3478 191.218 29.3894C191.26 29.4311 191.293 29.4805 191.315 29.535C191.338 29.5894 191.349 29.6477 191.349 29.7066Z" fill="white"/>
<path d="M191.349 32.023C191.349 32.142 191.302 32.2561 191.218 32.3402C191.134 32.4243 191.02 32.4716 190.901 32.4716C190.782 32.4716 190.668 32.4243 190.584 32.3402C190.499 32.2561 190.452 32.142 190.452 32.023C190.452 31.9641 190.464 31.9058 190.486 31.8514C190.509 31.7969 190.542 31.7475 190.584 31.7058C190.625 31.6642 190.675 31.6311 190.729 31.6086C190.783 31.5861 190.842 31.5745 190.901 31.5745C190.96 31.5745 191.018 31.5861 191.072 31.6086C191.127 31.6311 191.176 31.6642 191.218 31.7058C191.26 31.7475 191.293 31.7969 191.315 31.8514C191.338 31.9058 191.349 31.9641 191.349 32.023Z" fill="white"/>
<path d="M191.349 34.3624C191.349 34.4213 191.338 34.4796 191.315 34.534C191.293 34.5884 191.26 34.6379 191.218 34.6795C191.176 34.7212 191.127 34.7542 191.072 34.7768C191.018 34.7993 190.96 34.8109 190.901 34.8109C190.842 34.8109 190.783 34.7993 190.729 34.7768C190.675 34.7542 190.625 34.7212 190.584 34.6795C190.542 34.6379 190.509 34.5884 190.486 34.534C190.464 34.4796 190.452 34.4213 190.452 34.3624C190.452 34.2434 190.499 34.1293 190.584 34.0452C190.668 33.9611 190.782 33.9138 190.901 33.9138C191.02 33.9138 191.134 33.9611 191.218 34.0452C191.302 34.1293 191.349 34.2434 191.349 34.3624Z" fill="white"/>
<path d="M199.247 41.3745H93.9797V57.6302H199.247V41.3745Z" fill="#EBEBEB"/>
<path d="M111.121 52.6451C110.791 52.8489 110.431 52.9984 110.054 53.0879C109.154 53.304 108.205 53.1728 107.398 52.7206C106.59 52.2684 105.982 51.5284 105.696 50.6482C105.41 49.7679 105.466 48.8121 105.853 47.9714C106.24 47.1306 106.93 46.4667 107.785 46.1119C108.64 45.7572 109.597 45.7378 110.466 46.0575C111.335 46.3773 112.051 47.0127 112.472 47.837C112.893 48.6614 112.987 49.6141 112.737 50.5053C112.487 51.3964 111.91 52.1605 111.121 52.6451Z" fill="#303564"/>
<path d="M110.275 49.0567C110.275 49.2813 110.209 49.5009 110.084 49.6876C109.959 49.8743 109.782 50.0199 109.574 50.1058C109.367 50.1918 109.138 50.2143 108.918 50.1705C108.698 50.1266 108.495 50.0185 108.337 49.8597C108.178 49.7009 108.07 49.4985 108.026 49.2783C107.982 49.058 108.005 48.8296 108.091 48.6221C108.176 48.4147 108.322 48.2373 108.509 48.1125C108.695 47.9877 108.915 47.9211 109.14 47.9211C109.441 47.9211 109.73 48.0408 109.943 48.2537C110.156 48.4667 110.275 48.7555 110.275 49.0567Z" fill="white"/>
<path d="M111.121 52.1794V52.645C110.791 52.8488 110.431 52.9983 110.054 53.0878C109.575 53.2076 109.077 53.2301 108.589 53.154C108.102 53.0779 107.634 52.9048 107.215 52.645V52.1794C107.215 51.6644 107.419 51.1705 107.784 50.8063C108.148 50.4421 108.642 50.2375 109.157 50.2375C109.672 50.2375 110.166 50.4421 110.53 50.8063C110.894 51.1705 111.098 51.6644 111.098 52.1794H111.121Z" fill="white"/>
<path d="M132.334 51.9467H127.451L129.444 49.5052L127.451 47.0637H132.334L134.327 49.5052L132.334 51.9467Z" fill="white"/>
<path d="M119.786 47.0637L120.581 48.6706L122.352 48.9261L121.069 50.1809L121.375 51.9467L119.786 51.112L118.202 51.9467L118.502 50.1809L117.219 48.9261L118.991 48.6706L119.786 47.0637Z" fill="#303564"/>
<path d="M166.639 48.5115H137.83V50.4987H166.639V48.5115Z" fill="#263238"/>
<path d="M189.805 48.5115H178.512V50.4987H189.805V48.5115Z" fill="#455A64"/>
<path d="M111.121 68.929C110.791 69.1328 110.431 69.2823 110.054 69.3719C109.154 69.5879 108.205 69.4568 107.398 69.0046C106.59 68.5524 105.982 67.8124 105.696 66.9321C105.41 66.0519 105.466 65.0961 105.853 64.2553C106.24 63.4145 106.93 62.7506 107.785 62.3959C108.64 62.0412 109.597 62.0217 110.466 62.3415C111.335 62.6612 112.051 63.2966 112.472 64.121C112.893 64.9453 112.987 65.8981 112.737 66.7892C112.487 67.6804 111.91 68.4444 111.121 68.929Z" fill="#455A64"/>
<path d="M110.275 65.3406C110.275 65.5652 110.209 65.7848 110.084 65.9715C109.959 66.1583 109.782 66.3038 109.574 66.3898C109.367 66.4757 109.138 66.4982 108.918 66.4544C108.698 66.4106 108.495 66.3024 108.337 66.1436C108.178 65.9848 108.07 65.7825 108.026 65.5622C107.982 65.3419 108.005 65.1136 108.091 64.9061C108.176 64.6986 108.322 64.5212 108.509 64.3965C108.695 64.2717 108.915 64.2051 109.14 64.2051C109.441 64.2051 109.73 64.3247 109.943 64.5377C110.156 64.7506 110.275 65.0395 110.275 65.3406Z" fill="white"/>
<path d="M111.121 68.4352V68.9291C110.791 69.1329 110.431 69.2825 110.054 69.372C109.575 69.4934 109.077 69.5167 108.589 69.4406C108.101 69.3645 107.634 69.1905 107.215 68.9291V68.4636C107.215 67.9485 107.419 67.4546 107.784 67.0905C108.148 66.7263 108.642 66.5217 109.157 66.5217C109.672 66.5217 110.166 66.7263 110.53 67.0905C110.894 67.4546 111.098 67.9485 111.098 68.4636L111.121 68.4352Z" fill="white"/>
<path d="M132.334 68.2023H127.451L129.444 65.7608L127.451 63.3193H132.334L134.327 65.7608L132.334 68.2023Z" fill="white"/>
<path d="M132.402 68.3614H127.15L129.262 65.778L127.15 63.1946H132.402L134.508 65.778L132.402 68.3614ZM127.752 68.0775H132.294L134.168 65.778L132.294 63.5069H127.752L129.625 65.778L127.752 68.0775Z" fill="#EBEBEB"/>
<path d="M119.786 63.3193L120.581 64.9262L122.352 65.1817L121.069 66.4365L121.375 68.2023L119.786 67.3676L118.202 68.2023L118.502 66.4365L117.219 65.1817L118.991 64.9262L119.786 63.3193Z" fill="#303564"/>
<path d="M166.639 64.7673H137.83V66.7546H166.639V64.7673Z" fill="#263238"/>
<path d="M189.805 64.7673H178.512V66.7546H189.805V64.7673Z" fill="#455A64"/>
<path d="M199.247 73.886H93.9797V90.1417H199.247V73.886Z" fill="#EBEBEB"/>
<path d="M111.121 85.1564C110.79 85.3597 110.43 85.511 110.054 85.605C109.149 85.8271 108.194 85.7 107.379 85.249C106.564 84.7981 105.949 84.0563 105.656 83.1719C105.364 82.2874 105.415 81.3252 105.801 80.4772C106.187 79.6292 106.878 78.9578 107.737 78.5969C108.596 78.2361 109.559 78.2122 110.435 78.5302C111.31 78.8482 112.034 79.4846 112.461 80.3124C112.888 81.1403 112.987 82.0987 112.739 82.9966C112.491 83.8945 111.913 84.6657 111.121 85.1564Z" fill="#303564"/>
<path d="M110.275 81.5965C110.275 81.8211 110.209 82.0407 110.084 82.2274C109.959 82.4141 109.782 82.5597 109.574 82.6456C109.367 82.7316 109.138 82.7541 108.918 82.7103C108.698 82.6664 108.495 82.5583 108.337 82.3995C108.178 82.2407 108.07 82.0383 108.026 81.818C107.982 81.5978 108.005 81.3694 108.091 81.1619C108.176 80.9544 108.322 80.7771 108.509 80.6523C108.695 80.5275 108.915 80.4609 109.14 80.4609C109.441 80.4609 109.73 80.5806 109.943 80.7935C110.156 81.0065 110.275 81.2953 110.275 81.5965Z" fill="white"/>
<path d="M111.121 84.6908V85.1564C110.79 85.3597 110.43 85.511 110.054 85.605C109.575 85.7252 109.076 85.7474 108.589 85.6704C108.101 85.5933 107.633 85.4185 107.215 85.1564V84.6908C107.215 84.1758 107.419 83.6819 107.784 83.3178C108.148 82.9536 108.642 82.749 109.157 82.749C109.672 82.749 110.166 82.9536 110.53 83.3178C110.894 83.6819 111.098 84.1758 111.098 84.6908H111.121Z" fill="white"/>
<path d="M132.334 84.4582H127.451L129.444 82.0167L127.451 79.5752H132.334L134.327 82.0167L132.334 84.4582Z" fill="white"/>
<path d="M119.786 79.5752L120.581 81.182L122.352 81.4375L121.069 82.6923L121.375 84.4582L119.786 83.6235L118.202 84.4582L118.502 82.6923L117.219 81.4375L118.991 81.182L119.786 79.5752Z" fill="white"/>
<path d="M166.639 81.0229H137.83V83.0102H166.639V81.0229Z" fill="#DBDBDB"/>
<path d="M189.805 81.0229H178.512V83.0102H189.805V81.0229Z" fill="#C7C7C7"/>
<path d="M111.121 101.412C110.79 101.615 110.43 101.767 110.054 101.861C109.149 102.083 108.194 101.956 107.379 101.505C106.564 101.054 105.949 100.312 105.656 99.4275C105.364 98.543 105.415 97.5808 105.801 96.7328C106.187 95.8848 106.878 95.2134 107.737 94.8526C108.596 94.4917 109.559 94.4678 110.435 94.7858C111.31 95.1038 112.034 95.7402 112.461 96.568C112.888 97.3959 112.987 98.3544 112.739 99.2522C112.491 100.15 111.913 100.921 111.121 101.412Z" fill="#A6A6A6"/>
<path d="M110.275 97.8521C110.275 98.0767 110.209 98.2963 110.084 98.483C109.959 98.6698 109.782 98.8153 109.574 98.9013C109.367 98.9872 109.138 99.0097 108.918 98.9659C108.698 98.9221 108.495 98.8139 108.337 98.6551C108.178 98.4963 108.07 98.2939 108.026 98.0737C107.982 97.8534 108.005 97.6251 108.091 97.4176C108.176 97.2101 108.322 97.0327 108.509 96.9079C108.695 96.7831 108.915 96.7166 109.14 96.7166C109.441 96.7166 109.73 96.8362 109.943 97.0492C110.156 97.2621 110.275 97.551 110.275 97.8521Z" fill="white"/>
<path d="M111.121 100.952V101.412C110.79 101.616 110.43 101.767 110.054 101.861C109.575 101.981 109.076 102.003 108.589 101.926C108.101 101.849 107.633 101.674 107.215 101.412V100.952C107.215 100.437 107.419 99.9434 107.784 99.5792C108.148 99.2151 108.642 99.0105 109.157 99.0105C109.672 99.0105 110.166 99.2151 110.53 99.5792C110.894 99.9434 111.098 100.437 111.098 100.952H111.121Z" fill="white"/>
<path d="M132.334 100.714H127.451L129.444 98.2723L127.451 95.8308H132.334L134.327 98.2723L132.334 100.714Z" fill="white"/>
<path d="M132.402 100.856H127.15L129.262 98.2724L127.15 95.689H132.402L134.508 98.2724L132.402 100.856ZM127.752 100.572H132.294L134.168 98.3008L132.294 96.0012H127.752L129.625 98.3008L127.752 100.572Z" fill="#EBEBEB"/>
<path d="M119.786 95.8308L120.581 97.4376L122.352 97.6988L121.069 98.9479L121.375 100.714L119.786 99.8791L118.202 100.714L118.502 98.9479L117.219 97.6988L118.991 97.4376L119.786 95.8308Z" fill="#303564"/>
<path d="M166.639 97.2786H137.83V99.2658H166.639V97.2786Z" fill="#DBDBDB"/>
<path d="M189.805 97.2786H178.512V99.2658H189.805V97.2786Z" fill="#C7C7C7"/>
<path d="M199.247 106.403H93.9797V122.659H199.247V106.403Z" fill="#EBEBEB"/>
<path d="M111.121 117.668C110.79 117.871 110.43 118.022 110.054 118.116C109.149 118.339 108.194 118.211 107.379 117.761C106.564 117.31 105.949 116.568 105.656 115.683C105.364 114.799 105.415 113.837 105.801 112.989C106.187 112.141 106.878 111.469 107.737 111.108C108.596 110.748 109.559 110.724 110.435 111.042C111.31 111.36 112.034 111.996 112.461 112.824C112.888 113.652 112.987 114.61 112.739 115.508C112.491 116.406 111.913 117.177 111.121 117.668Z" fill="#37474F"/>
<path d="M110.275 114.108C110.275 114.332 110.209 114.552 110.084 114.739C109.959 114.925 109.782 115.071 109.574 115.157C109.367 115.243 109.138 115.265 108.918 115.221C108.698 115.178 108.495 115.07 108.337 114.911C108.178 114.752 108.07 114.55 108.026 114.329C107.982 114.109 108.005 113.881 108.091 113.673C108.176 113.466 108.322 113.288 108.509 113.164C108.695 113.039 108.915 112.972 109.14 112.972C109.441 112.972 109.73 113.092 109.943 113.305C110.156 113.518 110.275 113.807 110.275 114.108Z" fill="white"/>
<path d="M111.121 117.191V117.651C110.79 117.854 110.43 118.005 110.054 118.099C109.575 118.22 109.076 118.242 108.589 118.165C108.101 118.088 107.633 117.913 107.215 117.651V117.191C107.215 116.676 107.419 116.182 107.784 115.818C108.148 115.454 108.642 115.249 109.157 115.249C109.672 115.249 110.166 115.454 110.53 115.818C110.894 116.182 111.098 116.676 111.098 117.191H111.121Z" fill="white"/>
<path d="M132.334 116.969H127.451L129.444 114.528L127.451 112.086H132.334L134.327 114.528L132.334 116.969Z" fill="white"/>
<path d="M119.786 112.086L120.581 113.693L122.352 113.954L121.069 115.204L121.375 116.969L119.786 116.135L118.202 116.969L118.502 115.204L117.219 113.954L118.991 113.693L119.786 112.086Z" fill="#303564"/>
<path d="M166.639 113.534H137.83V115.522H166.639V113.534Z" fill="#DBDBDB"/>
<path d="M189.805 113.534H178.512V115.522H189.805V113.534Z" fill="#C7C7C7"/>
<path d="M199.253 203.937V211.886C199.276 213.529 198.884 215.151 198.111 216.602C197.339 218.052 196.212 219.284 194.835 220.181H98.4028C97.026 219.284 95.8988 218.053 95.1264 216.602C94.3539 215.152 93.9614 213.529 93.9854 211.886V203.937H199.253Z" fill="#EBEBEB"/>
<path d="M111.121 215.208C110.79 215.411 110.43 215.562 110.054 215.656C109.149 215.878 108.194 215.751 107.379 215.3C106.564 214.849 105.949 214.108 105.656 213.223C105.364 212.339 105.415 211.376 105.801 210.528C106.187 209.681 106.878 209.009 107.737 208.648C108.596 208.287 109.559 208.263 110.435 208.581C111.31 208.899 112.034 209.536 112.461 210.364C112.888 211.192 112.987 212.15 112.739 213.048C112.491 213.946 111.913 214.717 111.121 215.208Z" fill="#303564"/>
<path d="M110.275 211.648C110.275 211.872 110.209 212.092 110.084 212.278C109.959 212.465 109.782 212.611 109.574 212.697C109.367 212.783 109.138 212.805 108.918 212.761C108.698 212.717 108.495 212.609 108.337 212.451C108.178 212.292 108.07 212.089 108.026 211.869C107.982 211.649 108.005 211.42 108.091 211.213C108.176 211.005 108.322 210.828 108.509 210.703C108.695 210.579 108.915 210.512 109.14 210.512C109.441 210.512 109.73 210.632 109.943 210.845C110.156 211.058 110.275 211.346 110.275 211.648Z" fill="white"/>
<path d="M111.121 214.742V215.208C110.79 215.411 110.43 215.562 110.054 215.656C109.575 215.775 109.076 215.797 108.589 215.72C108.101 215.643 107.634 215.469 107.215 215.208V214.742C107.215 214.227 107.419 213.733 107.784 213.369C108.148 213.005 108.642 212.8 109.157 212.8C109.672 212.8 110.166 213.005 110.53 213.369C110.894 213.733 111.098 214.227 111.098 214.742H111.121Z" fill="white"/>
<path d="M132.334 214.509H127.451L129.444 212.068L127.451 209.626H132.334L134.327 212.068L132.334 214.509Z" fill="white"/>
<path d="M119.786 209.626L120.581 211.233L122.352 211.489L121.069 212.743L121.375 214.509L119.786 213.675L118.202 214.509L118.502 212.743L117.219 211.489L118.991 211.233L119.786 209.626Z" fill="#303564"/>
<path d="M166.639 211.074H137.83V213.061H166.639V211.074Z" fill="#DBDBDB"/>
<path d="M189.805 211.074H178.512V213.061H189.805V211.074Z" fill="#C7C7C7"/>
<path d="M111.121 133.924C110.625 134.229 110.063 134.414 109.482 134.461C108.901 134.508 108.317 134.417 107.778 134.196C107.239 133.975 106.759 133.629 106.379 133.187C105.999 132.745 105.729 132.219 105.591 131.652C105.429 130.99 105.454 130.296 105.663 129.647C105.871 128.997 106.255 128.419 106.772 127.974C107.289 127.53 107.919 127.237 108.592 127.128C109.265 127.019 109.955 127.099 110.586 127.358C111.217 127.617 111.764 128.045 112.166 128.596C112.568 129.146 112.811 129.797 112.866 130.477C112.921 131.156 112.788 131.838 112.48 132.446C112.172 133.055 111.702 133.566 111.121 133.924Z" fill="#263238"/>
<path d="M110.275 130.364C110.275 130.588 110.209 130.808 110.084 130.994C109.959 131.181 109.782 131.327 109.574 131.413C109.367 131.499 109.138 131.521 108.918 131.477C108.698 131.434 108.495 131.325 108.337 131.167C108.178 131.008 108.07 130.805 108.026 130.585C107.982 130.365 108.005 130.137 108.091 129.929C108.176 129.722 108.322 129.544 108.509 129.419C108.695 129.295 108.915 129.228 109.14 129.228C109.441 129.228 109.73 129.348 109.943 129.561C110.156 129.774 110.275 130.062 110.275 130.364Z" fill="white"/>
<path d="M111.121 133.464V133.923C110.538 134.286 109.866 134.478 109.179 134.478C108.493 134.478 107.82 134.286 107.238 133.923V133.464C107.238 132.949 107.442 132.455 107.806 132.09C108.17 131.726 108.664 131.522 109.179 131.522C109.694 131.522 110.188 131.726 110.552 132.09C110.917 132.455 111.121 132.949 111.121 133.464Z" fill="white"/>
<path d="M132.334 133.225H127.451L129.444 130.784L127.451 128.342H132.334L134.327 130.784L132.334 133.225Z" fill="white"/>
<path d="M132.402 133.367H127.15L129.262 130.784L127.15 128.2H132.402L134.508 130.784L132.402 133.367ZM127.752 133.083H132.294L134.168 130.784L132.294 128.484H127.752L129.625 130.784L127.752 133.083Z" fill="#EBEBEB"/>
<path d="M119.786 128.342L120.581 129.949L122.352 130.21L121.069 131.459L121.375 133.225L119.786 132.391L118.202 133.225L118.502 131.459L117.219 130.21L118.991 129.949L119.786 128.342Z" fill="white"/>
<path d="M121.563 133.486L119.786 132.555L118.008 133.486L118.349 131.51L116.913 130.108L118.9 129.824L119.786 128.024L120.671 129.824L122.659 130.108L121.222 131.51L121.563 133.486ZM119.786 132.231L121.182 132.97L120.916 131.408L122.051 130.307L120.484 130.08L119.786 128.666L119.07 130.08L117.509 130.307L118.644 131.408L118.378 132.97L119.786 132.231Z" fill="#EBEBEB"/>
<path d="M166.639 129.79H137.83V131.777H166.639V129.79Z" fill="#DBDBDB"/>
<path d="M189.805 129.79H178.512V131.777H189.805V129.79Z" fill="#C7C7C7"/>
<path d="M199.247 138.914H93.9797V155.17H199.247V138.914Z" fill="#EBEBEB"/>
<path d="M111.121 150.185C110.79 150.386 110.43 150.536 110.054 150.628C109.345 150.8 108.6 150.758 107.915 150.508C107.23 150.257 106.634 149.809 106.204 149.22C105.773 148.631 105.526 147.927 105.495 147.198C105.464 146.469 105.65 145.747 106.029 145.124C106.409 144.5 106.964 144.003 107.626 143.695C108.287 143.388 109.025 143.283 109.746 143.394C110.467 143.506 111.139 143.828 111.677 144.321C112.215 144.815 112.594 145.456 112.768 146.165C112.952 146.923 112.892 147.72 112.596 148.442C112.3 149.164 111.784 149.774 111.121 150.185Z" fill="#303564"/>
<path d="M110.275 146.619C110.275 146.844 110.209 147.063 110.084 147.25C109.959 147.437 109.782 147.582 109.574 147.668C109.367 147.754 109.138 147.777 108.918 147.733C108.698 147.689 108.495 147.581 108.337 147.422C108.178 147.263 108.07 147.061 108.026 146.841C107.982 146.62 108.005 146.392 108.091 146.185C108.176 145.977 108.322 145.8 108.509 145.675C108.695 145.55 108.915 145.484 109.14 145.484C109.441 145.484 109.73 145.603 109.943 145.816C110.156 146.029 110.275 146.318 110.275 146.619Z" fill="white"/>
<path d="M111.121 149.719V150.185C110.79 150.386 110.43 150.536 110.054 150.628C109.575 150.748 109.076 150.77 108.589 150.693C108.101 150.616 107.633 150.441 107.215 150.179V149.719C107.215 149.204 107.419 148.71 107.784 148.346C108.148 147.982 108.642 147.777 109.157 147.777C109.672 147.777 110.166 147.982 110.53 148.346C110.894 148.71 111.098 149.204 111.098 149.719H111.121Z" fill="white"/>
<path d="M132.334 149.487H127.451L129.444 147.039L127.451 144.598H132.334L134.327 147.039L132.334 149.487Z" fill="white"/>
<path d="M119.786 144.598L120.581 146.21L122.352 146.466L121.069 147.715L121.375 149.487L119.786 148.652L118.202 149.487L118.502 147.715L117.219 146.466L118.991 146.21L119.786 144.598Z" fill="#303564"/>
<path d="M166.639 146.051H137.83V148.039H166.639V146.051Z" fill="#263238"/>
<path d="M189.805 146.051H178.512V148.039H189.805V146.051Z" fill="#455A64"/>
<path d="M111.121 166.441C110.791 166.644 110.431 166.794 110.054 166.883C109.345 167.056 108.6 167.014 107.915 166.763C107.23 166.513 106.634 166.064 106.204 165.475C105.773 164.886 105.526 164.183 105.495 163.454C105.464 162.725 105.65 162.003 106.029 161.379C106.409 160.756 106.964 160.259 107.626 159.951C108.287 159.643 109.025 159.538 109.746 159.65C110.467 159.761 111.139 160.084 111.677 160.577C112.215 161.07 112.594 161.712 112.768 162.421C112.952 163.179 112.892 163.976 112.596 164.697C112.3 165.419 111.784 166.029 111.121 166.441Z" fill="#303564"/>
<path d="M110.275 162.875C110.275 163.099 110.209 163.319 110.084 163.506C109.959 163.692 109.782 163.838 109.574 163.924C109.367 164.01 109.138 164.032 108.918 163.989C108.698 163.945 108.495 163.837 108.337 163.678C108.178 163.519 108.07 163.317 108.026 163.096C107.982 162.876 108.005 162.648 108.091 162.44C108.176 162.233 108.322 162.055 108.509 161.931C108.695 161.806 108.915 161.739 109.14 161.739C109.441 161.739 109.73 161.859 109.943 162.072C110.156 162.285 110.275 162.574 110.275 162.875Z" fill="white"/>
<path d="M111.121 165.975V166.441C110.791 166.644 110.431 166.794 110.054 166.883C109.575 167.004 109.076 167.026 108.589 166.949C108.101 166.872 107.633 166.697 107.215 166.435V165.975C107.215 165.46 107.419 164.966 107.784 164.602C108.148 164.238 108.642 164.033 109.157 164.033C109.672 164.033 110.166 164.238 110.53 164.602C110.894 164.966 111.098 165.46 111.098 165.975H111.121Z" fill="white"/>
<path d="M132.334 165.742H127.451L129.444 163.301L127.451 160.859H132.334L134.327 163.301L132.334 165.742Z" fill="white"/>
<path d="M132.402 165.884H127.15L129.262 163.301L127.15 160.717H132.402L134.508 163.301L132.402 165.884ZM127.752 165.6H132.294L134.168 163.301L132.294 161.03H127.752L129.625 163.301L127.752 165.6Z" fill="#EBEBEB"/>
<path d="M119.786 160.859L120.581 162.466L122.352 162.722L121.069 163.971L121.375 165.742L119.786 164.908L118.202 165.742L118.502 163.971L117.219 162.722L118.991 162.466L119.786 160.859Z" fill="white"/>
<path d="M121.563 166.02L119.786 165.089L118.008 166.02L118.349 164.044L116.913 162.614L118.9 162.324L119.786 160.524L120.671 162.324L122.659 162.614L121.222 164.01L121.563 166.02ZM117.526 162.846L118.661 163.948L118.395 165.504L119.791 164.766L121.188 165.504L120.921 163.948L122.057 162.846L120.49 162.614L119.791 161.2L119.07 162.614L117.526 162.846Z" fill="#EBEBEB"/>
<path d="M166.639 162.307H137.83V164.294H166.639V162.307Z" fill="#DBDBDB"/>
<path d="M189.805 162.307H178.512V164.294H189.805V162.307Z" fill="#C7C7C7"/>
<path d="M199.247 171.426H93.9797V187.681H199.247V171.426Z" fill="#EBEBEB"/>
<path d="M111.121 182.696C110.791 182.9 110.431 183.05 110.054 183.139C109.154 183.355 108.205 183.224 107.398 182.772C106.59 182.32 105.982 181.58 105.696 180.699C105.41 179.819 105.466 178.863 105.853 178.023C106.24 177.182 106.93 176.518 107.785 176.163C108.64 175.808 109.597 175.789 110.466 176.109C111.335 176.429 112.051 177.064 112.472 177.888C112.893 178.713 112.987 179.665 112.737 180.557C112.487 181.448 111.91 182.212 111.121 182.696Z" fill="#455A64"/>
<path d="M110.275 179.131C110.275 179.355 110.209 179.575 110.084 179.762C109.959 179.948 109.782 180.094 109.574 180.18C109.367 180.266 109.138 180.288 108.918 180.244C108.698 180.201 108.495 180.092 108.337 179.934C108.178 179.775 108.07 179.573 108.026 179.352C107.982 179.132 108.005 178.904 108.091 178.696C108.176 178.489 108.322 178.311 108.509 178.186C108.695 178.062 108.915 177.995 109.14 177.995C109.441 177.995 109.73 178.115 109.943 178.328C110.156 178.541 110.275 178.83 110.275 179.131Z" fill="white"/>
<path d="M111.121 182.231V182.696C110.791 182.9 110.431 183.05 110.054 183.139C109.575 183.259 109.077 183.281 108.589 183.205C108.102 183.129 107.634 182.956 107.215 182.696V182.231C107.215 181.716 107.419 181.222 107.784 180.858C108.148 180.493 108.642 180.289 109.157 180.289C109.672 180.289 110.166 180.493 110.53 180.858C110.894 181.222 111.098 181.716 111.098 182.231H111.121Z" fill="white"/>
<path d="M132.334 181.998H127.451L129.444 179.556L127.451 177.115H132.334L134.327 179.556L132.334 181.998Z" fill="white"/>
<path d="M119.786 177.115L120.581 178.722L122.352 178.977L121.069 180.226L121.375 181.998L119.786 181.163L118.202 181.998L118.502 180.226L117.219 178.977L118.991 178.722L119.786 177.115Z" fill="white"/>
<path d="M166.639 178.563H137.83V180.55H166.639V178.563Z" fill="#DBDBDB"/>
<path d="M189.805 178.563H178.512V180.55H189.805V178.563Z" fill="#C7C7C7"/>
<path d="M111.121 198.952C110.791 199.156 110.431 199.305 110.054 199.395C109.154 199.611 108.205 199.48 107.398 199.028C106.59 198.575 105.982 197.835 105.696 196.955C105.41 196.075 105.466 195.119 105.853 194.278C106.24 193.437 106.93 192.774 107.785 192.419C108.64 192.064 109.597 192.045 110.466 192.364C111.335 192.684 112.051 193.32 112.472 194.144C112.893 194.968 112.987 195.921 112.737 196.812C112.487 197.703 111.91 198.467 111.121 198.952Z" fill="#A6A6A6"/>
<path d="M110.275 195.392C110.275 195.617 110.209 195.836 110.084 196.023C109.959 196.21 109.782 196.355 109.574 196.441C109.367 196.527 109.138 196.549 108.918 196.506C108.698 196.462 108.495 196.354 108.337 196.195C108.178 196.036 108.07 195.834 108.026 195.613C107.982 195.393 108.005 195.165 108.091 194.957C108.176 194.75 108.322 194.572 108.509 194.448C108.695 194.323 108.915 194.256 109.14 194.256C109.441 194.256 109.73 194.376 109.943 194.589C110.156 194.802 110.275 195.091 110.275 195.392Z" fill="white"/>
<path d="M111.121 198.486V198.952C110.791 199.156 110.431 199.305 110.054 199.395C109.575 199.516 109.077 199.539 108.589 199.463C108.101 199.387 107.634 199.213 107.215 198.952V198.486C107.215 197.971 107.419 197.477 107.784 197.113C108.148 196.749 108.642 196.544 109.157 196.544C109.672 196.544 110.166 196.749 110.53 197.113C110.894 197.477 111.098 197.971 111.098 198.486H111.121Z" fill="white"/>
<path d="M132.334 198.254H127.451L129.444 195.812L127.451 193.371H132.334L134.327 195.812L132.334 198.254Z" fill="white"/>
<path d="M132.402 198.384H127.15L129.262 195.801L127.15 193.217H132.402L134.508 195.801L132.402 198.384ZM127.752 198.1H132.294L134.168 195.829L132.294 193.53H127.752L129.625 195.829L127.752 198.1Z" fill="#EBEBEB"/>
<path d="M119.786 193.371L120.581 194.977L122.352 195.233L121.069 196.488L121.375 198.254L119.786 197.419L118.202 198.254L118.502 196.488L117.219 195.233L118.991 194.977L119.786 193.371Z" fill="white"/>
<path d="M121.563 198.515L119.786 197.578L118.008 198.515L118.349 196.533L116.913 195.136L118.9 194.847L119.786 193.047L120.671 194.847L122.659 195.136L121.222 196.533L121.563 198.515ZM119.786 197.248L121.182 197.981L120.916 196.425L122.051 195.324L120.484 195.097L119.786 193.677L119.087 195.097L117.526 195.324L118.661 196.425L118.395 197.981L119.786 197.248Z" fill="#EBEBEB"/>
<path d="M166.639 194.819H137.83V196.806H166.639V194.819Z" fill="#DBDBDB"/>
<path d="M189.805 194.819H178.512V196.806H189.805V194.819Z" fill="#C7C7C7"/>
<path d="M110.4 228.318H64.3073C58.7941 208.979 54.3597 194.251 54.3597 194.251H98.0621C98.0621 194.251 103.462 208.837 110.4 228.318Z" fill="#37474F"/>
<path d="M71.0583 228.318H70.1101C67.3791 219.205 64.5401 210.149 61.758 201.025C61.7183 200.905 61.9056 200.849 61.951 200.968C62.5188 202.546 63.0866 204.125 63.6544 205.709C66.3116 213.181 68.7474 220.732 71.0583 228.318Z" fill="#263238"/>
<path d="M97.0629 194.268C97.0118 195.182 94.576 203.545 93.3155 216.059C92.8556 220.676 92.3332 225.019 91.7768 228.318H30.6093C24.5567 209.615 33.539 194.251 33.539 194.251C33.539 194.251 97.0685 194.228 97.0629 194.268Z" fill="#37474F"/>
<path d="M84.8385 214.981C85.0542 218.121 85.128 221.266 85.0883 224.406C84.9887 225.708 84.9774 227.015 85.0542 228.318H83.9924C83.7369 226.325 83.9924 223.844 83.9924 221.885C83.9584 213.771 82.925 205.749 81.6759 197.743C81.6748 197.707 81.6863 197.672 81.7085 197.643C81.7308 197.615 81.7622 197.595 81.7974 197.588C81.8326 197.581 81.8693 197.586 81.901 197.603C81.9328 197.619 81.9576 197.647 81.9711 197.68C83.5182 203.333 84.4791 209.131 84.8385 214.981Z" fill="#263238"/>
<path d="M92.4241 219.035C92.3673 220.704 91.9131 225.15 90.6015 228.318H89.6873C91.4645 223.986 91.3623 215.531 91.2317 213.556C90.8627 207.764 90.4141 202.325 89.4318 196.227C89.3978 196.034 89.7157 196.022 89.7555 196.198C91.4872 203.557 92.6625 211.483 92.4241 219.035Z" fill="#263238"/>
<path d="M34.385 202.387C32.6135 210.047 33.4766 218.285 35.1686 225.865C35.3446 226.688 35.5433 227.506 35.7364 228.318H34.8165C32.3126 217.751 31.5461 206.816 35.9521 196.567C36.0089 196.442 36.1963 196.567 36.1452 196.675C35.4142 198.532 34.8258 200.441 34.385 202.387Z" fill="#263238"/>
<path d="M135.933 82.5561L125.884 114.545C125.48 115.476 125.918 116.283 126.849 116.334L143.587 117.288C144.1 117.28 144.599 117.126 145.028 116.845C145.456 116.563 145.796 116.165 146.006 115.698L156.033 83.7314C156.436 82.7946 155.999 81.994 155.068 81.9429L138.375 80.989C137.861 80.9904 137.358 81.1387 136.925 81.4163C136.493 81.6939 136.149 82.0894 135.933 82.5561Z" fill="#37474F"/>
<path d="M137.921 82.6753L127.894 114.642C127.49 115.573 127.928 116.373 128.865 116.43L145.597 117.384C146.11 117.375 146.61 117.221 147.039 116.94C147.469 116.659 147.809 116.261 148.022 115.794L158.043 83.8222C158.446 82.8911 158.015 82.1189 157.078 82.0394L140.339 81.0798C139.827 81.0901 139.327 81.2454 138.899 81.5278C138.471 81.8101 138.132 82.208 137.921 82.6753Z" fill="#455A64"/>
<path d="M142.423 84.4185C142.401 84.6996 142.296 84.9678 142.121 85.1891C141.946 85.4104 141.71 85.5749 141.442 85.6618C141.173 85.7487 140.885 85.754 140.614 85.6772C140.343 85.6004 140.1 85.4448 139.918 85.2302C139.735 85.0155 139.62 84.7515 139.587 84.4714C139.554 84.1913 139.605 83.9079 139.734 83.6569C139.862 83.4058 140.062 83.1986 140.309 83.0613C140.555 82.9239 140.836 82.8628 141.117 82.8855C141.494 82.9159 141.843 83.0944 142.087 83.3818C142.332 83.6693 142.453 84.0421 142.423 84.4185Z" fill="#263238"/>
<path d="M79.1719 128.609C87.3083 149.396 106.834 176.979 115.624 177.671C119.803 178.006 127.207 179.5 133.015 175.054C145.688 165.356 157.027 145.949 159.826 134.599C160.825 130.562 141.532 120.405 138.375 123.533C130.994 130.869 121.994 145.626 120.774 145.455C116.299 144.819 99.6633 128.99 88.0634 117.867C73.9824 104.353 75.9185 120.325 79.1719 128.609Z" fill="#EB9481"/>
<path d="M161.711 113.523C160.155 105.086 158.463 103.161 160.927 95.3541C162.546 90.244 159.968 86.9906 155.999 90.931C149.503 97.3697 149.225 108.674 150.259 112.62L161.711 113.523Z" fill="#EB9481"/>
<path d="M158.622 138.097C158.622 138.097 163.085 126.781 162.318 117.657C161.785 111.331 159.093 97.6932 142.02 89.4603C137.972 87.5071 130.818 87.5979 136.274 93.1906C140.146 97.1651 143.809 98.5108 145.643 101.23C145.643 101.23 136.558 102.423 134.752 106.556C133.184 110.171 131.873 113.891 130.829 117.691C131.48 118.042 132.154 118.351 132.845 118.616C132.845 118.616 131.283 122.539 133.878 128.422L158.622 138.097Z" fill="#EB9481"/>
<path d="M160.848 111.672C158.457 109.356 153.308 104.535 147.721 102.054C141.52 99.3 128.825 95.6662 126.837 100.265C125.384 103.638 130.108 105.455 130.108 105.455C130.108 105.455 124.544 105.057 123.896 108.39C123.329 111.428 127.042 112.615 127.042 112.615C127.042 112.615 123.635 112.955 123.635 115.993C123.635 119.644 130.784 118.332 133.975 122.04C134.679 122.869 160.848 111.672 160.848 111.672Z" fill="#EB9481"/>
<path d="M145.904 109.094C143.298 107.283 136.325 104.694 130.221 105.37C130.08 105.37 130.017 105.495 130.148 105.506C135.52 106.081 140.803 107.305 145.881 109.151C145.915 109.168 145.932 109.111 145.904 109.094Z" fill="#263238"/>
<path d="M142.917 115.278C140.51 113.943 133.208 111.598 127.019 112.49C126.883 112.49 126.826 112.626 126.957 112.637C132.341 112.932 137.675 113.837 142.855 115.334C142.862 115.343 142.873 115.348 142.884 115.348C142.895 115.349 142.906 115.345 142.914 115.337C142.923 115.33 142.928 115.319 142.928 115.308C142.929 115.297 142.925 115.286 142.917 115.278Z" fill="#263238"/>
<path d="M104.569 130.301L101.469 134.066L100.827 134.849L88.4098 149.85C88.4098 149.85 77.1733 131.499 74.9022 121.063C73.5452 114.818 74.5217 111.099 77.2528 110.423C77.4561 110.375 77.6632 110.345 77.8717 110.332C79.6375 110.179 82.0108 111.11 84.8497 113.205C92.8442 119.11 104.569 130.301 104.569 130.301Z" fill="#303564"/>
<path d="M103.876 129.682C103.59 130.623 103.239 131.543 102.826 132.436L104.529 130.392C104.533 130.367 104.533 130.342 104.529 130.318C104.478 130.216 104.245 129.994 103.876 129.682ZM84.8044 113.216C83.7009 113.918 82.6899 114.755 81.7951 115.709C79.0752 118.555 77.5545 122.339 77.5481 126.275C77.5564 127.333 77.6247 128.389 77.7525 129.438C78.0326 130.085 78.3165 130.733 78.6042 131.38C78.5531 130.96 78.4963 130.545 78.4395 130.119C78.0437 127.853 78.013 125.537 78.3487 123.261C78.7074 121.466 79.3904 119.751 80.3643 118.202C81.5643 116.265 83.1631 114.606 85.0542 113.336C84.9804 113.29 84.9179 113.239 84.8498 113.188L84.8044 113.216Z" fill="white"/>
<path d="M85.9967 143.61C86.6667 142.032 93.5653 132.555 99.3112 126.537C99.3286 126.517 99.353 126.505 99.379 126.504C99.4051 126.502 99.4308 126.511 99.4504 126.528C99.4699 126.545 99.4818 126.57 99.4834 126.596C99.485 126.622 99.4762 126.648 99.4589 126.667C98.8911 127.405 87.5354 142.628 86.1954 143.78C86.0875 143.877 85.9513 143.724 85.9967 143.61Z" fill="#263238"/>
<path opacity="0.05" d="M96.3588 140.26L88.4098 149.844C88.4098 149.844 77.1734 131.499 74.9022 121.063C73.3351 113.864 74.8625 110.037 78.5928 110.326L96.3588 140.26Z" fill="black"/>
<path d="M98.63 196.789C97.0402 198.492 29.8201 205.675 29.434 205.209C28.4063 203.954 34.5895 136.019 62.1271 111.133C66.9816 106.749 75.5552 107.998 79.5297 110.253C81.5112 111.388 84.9634 120.768 88.3417 131.732C90.8967 140.107 99.6066 195.687 98.63 196.789Z" fill="#303564"/>
<path d="M98.6299 196.789C98.2779 197.169 94.6554 197.828 89.2444 198.611L88.6312 198.697C85.8945 199.088 82.7376 199.509 79.3309 199.934L78.5928 200.031C68.8666 201.252 57.2667 202.558 47.7734 203.557L47.4668 203.585C37.2466 204.664 29.5645 205.368 29.4339 205.209C29.3033 205.05 29.3033 202.217 29.7519 197.754C29.7519 197.567 29.7916 197.368 29.8086 197.186C30.8818 186.87 33.857 168.127 39.9095 149.998C40.0061 149.702 40.1083 149.43 40.2048 149.118C42.0159 143.713 44.1528 138.423 46.6037 133.276C46.6776 133.123 46.7457 132.975 46.8252 132.822C49.2244 127.773 52.1151 122.973 55.4555 118.491C55.5691 118.344 55.6769 118.202 55.7962 118.065C57.6946 115.573 59.8134 113.257 62.127 111.144C62.7757 110.566 63.4949 110.072 64.2675 109.674C64.4436 109.583 64.6252 109.498 64.8069 109.418C67.228 108.402 69.866 108.011 72.4777 108.282L73.125 108.351C75.364 108.57 77.5391 109.221 79.5296 110.27C80.3075 110.718 81.3181 112.433 82.4594 115.039C82.5162 115.153 82.5673 115.278 82.6184 115.402C84.3217 119.377 86.3601 125.305 88.3416 131.749C89.04 134.02 90.204 139.812 91.4928 147.034L91.578 147.522C92.0266 150.015 92.4865 152.683 92.9464 155.431C93.0145 155.823 93.0826 156.209 93.1451 156.601C94.0819 162.211 95.0188 168.104 95.8534 173.6C95.8818 173.822 95.9159 174.049 95.9556 174.265C96.6597 178.966 97.2843 183.349 97.7669 186.978C97.8009 187.267 97.835 187.545 97.8748 187.829C98.5163 193.041 98.8457 196.522 98.6299 196.789Z" fill="#303564"/>
<path d="M76.7588 190.202C75.6133 188.601 74.155 187.249 72.472 186.228C70.6644 185.177 68.671 184.485 66.6011 184.19C64.4322 183.815 62.1554 183.622 60.1227 182.679C58.1809 181.799 56.8182 180.227 55.4612 178.642C55.1035 178.228 54.7344 177.813 54.3597 177.416C54.7855 177.126 55.217 176.848 55.6599 176.559C58.2093 174.992 61.0255 173.811 63.3818 171.948C65.5144 170.295 67.0074 167.953 67.6061 165.322C68.1788 162.729 67.9814 160.026 67.0383 157.543C66.037 155.039 64.3869 152.846 62.2576 151.19C60.0746 149.518 57.5786 148.301 54.9172 147.611C52.2558 146.92 49.483 146.771 46.7627 147.17C44.4867 147.474 42.2698 148.121 40.1878 149.089C40.0912 149.384 39.989 149.657 39.8925 149.969C40.9018 149.461 41.9498 149.034 43.0267 148.692C48.2213 146.985 53.8779 147.382 58.7827 149.799C61.1483 150.975 63.1953 152.705 64.7502 154.841C66.2461 156.953 67.0891 159.459 67.1746 162.046C67.2929 164.603 66.5601 167.127 65.0908 169.223C63.3875 171.534 60.7927 172.93 58.3285 174.265C56.8068 175.094 55.3306 175.968 53.8941 176.939C53.0635 176.078 52.0668 175.394 50.9643 174.929C49.1327 174.261 47.126 174.249 45.2865 174.895C41.2836 176.241 38.9046 180.119 38.4447 184.19C38.2204 186.46 38.4836 188.752 39.2169 190.912C37.5482 192.622 35.6822 194.128 33.6582 195.398C32.4431 196.149 31.1383 196.744 29.7746 197.169C29.7746 197.362 29.7348 197.561 29.7178 197.737C29.962 197.669 30.2061 197.595 30.4446 197.51C33.9251 196.335 36.8208 194.075 39.4383 191.537C40.167 193.507 41.1196 195.388 42.2772 197.141C43.7759 199.454 45.5072 201.607 47.4441 203.568L47.7507 203.54C46.631 202.358 45.5825 201.11 44.6108 199.804C42.5754 197.192 40.9604 194.278 39.8244 191.168C40.7953 190.202 41.7321 189.198 42.6633 188.204C44.4575 186.251 46.2233 184.229 48.1368 182.407C49.9206 180.692 51.8445 179.129 53.8884 177.734C55.1092 179.034 56.1596 180.505 57.4882 181.708C59.0558 183.011 60.9404 183.875 62.9503 184.212C65.034 184.65 67.1803 184.826 69.23 185.456C71.055 186.032 72.7315 187.001 74.1413 188.295C75.5624 189.56 76.7013 191.11 77.4839 192.845C78.2665 194.579 78.6752 196.459 78.6836 198.362C78.6799 198.922 78.6362 199.482 78.553 200.037L79.2911 199.94C79.6994 196.491 78.7954 193.015 76.7588 190.202ZM50.7599 179.239C48.6079 181.011 46.5905 182.941 44.7244 185.013C43.021 186.841 41.3801 188.755 39.6143 190.543C39.3031 189.534 39.0864 188.498 38.967 187.449C38.5242 183.474 39.7335 178.932 43.1516 176.559C44.7129 175.459 46.5919 174.903 48.5001 174.974C50.3702 175.104 52.1242 175.928 53.4172 177.285C52.5144 177.904 51.623 178.546 50.7599 179.239ZM95.825 173.561C93.8605 175.133 91.9925 176.848 89.7952 178.103C86.6326 179.909 82.2834 180.868 79.4047 178.001C78.2055 176.837 77.4829 175.267 77.3779 173.599C77.2729 171.931 77.7931 170.284 78.8369 168.979C79.9725 167.389 81.3749 166.055 82.4764 164.436C83.3795 163.083 84.1676 161.657 84.8327 160.172C86.2432 160.596 87.7541 160.542 89.1309 160.019C90.8107 159.344 92.2119 158.119 93.1054 156.544C93.0429 156.152 92.9748 155.766 92.9066 155.375C92.4614 156.247 91.8872 157.047 91.2033 157.748C90.5722 158.419 89.7993 158.942 88.9408 159.277C88.0823 159.612 87.1599 159.751 86.2408 159.684C85.8691 159.646 85.5008 159.58 85.1393 159.485C85.2245 159.309 85.304 159.128 85.3835 158.918C86.9789 155.272 88.3132 151.417 90.8229 148.26C91.0456 147.976 91.2825 147.703 91.5326 147.443L91.4474 146.954C89.0854 149.407 87.5638 152.598 86.2181 155.681C85.6901 156.891 85.1734 158.106 84.6113 159.309C83.3509 158.86 82.2092 158.13 81.2727 157.174C78.1896 154.035 77.9568 149.186 78.2748 145.052C78.4792 142.531 78.8426 140.022 78.9675 137.501C78.9943 135.011 78.8043 132.525 78.3997 130.068C78.0039 127.802 77.9732 125.486 78.3089 123.209C78.6676 121.415 79.3506 119.7 80.3245 118.151C80.9524 117.12 81.6994 116.167 82.5502 115.312C82.4991 115.187 82.448 115.062 82.3912 114.948C82.1755 115.153 81.9654 115.363 81.7553 115.584C79.02 118.468 77.5115 122.301 77.548 126.276C77.548 128.865 78.0647 131.414 78.2634 133.992C78.3987 136.647 78.2713 139.31 77.883 141.941C77.355 146.534 76.8837 151.593 79.2798 155.772C80.4108 157.738 82.1917 159.248 84.316 160.042C84.0492 160.61 83.7766 161.177 83.4814 161.7C82.9593 162.669 82.3752 163.604 81.7326 164.499C81.1251 165.328 80.4437 166.1 79.7738 166.878C78.5417 168.314 77.2868 169.881 76.9348 171.778C76.6326 173.407 76.8845 175.09 77.6502 176.559C78.3896 178.048 79.6299 179.23 81.1535 179.897C82.998 180.608 85.0311 180.662 86.9108 180.05C90.4652 179.011 93.1564 176.507 95.9556 174.248C95.8875 174.032 95.8534 173.805 95.825 173.583V173.561ZM97.8464 187.789C96.0578 186.37 94.1501 184.95 91.8108 184.763C90.6672 184.632 89.5146 184.916 88.5631 185.564C87.6931 186.221 87.0452 187.128 86.7064 188.164C85.9317 190.446 86.0226 192.934 86.9619 195.154C87.5039 196.442 88.2732 197.623 89.2331 198.64L88.6198 198.725C87.9824 198.035 87.4278 197.273 86.9676 196.454C86.3158 195.285 85.8828 194.008 85.6901 192.684C85.3381 190.384 85.6901 187.795 87.2004 185.95C88.8413 183.951 91.5156 183.747 93.8151 184.587C95.2477 185.166 96.578 185.971 97.7555 186.972C97.7726 187.25 97.8066 187.534 97.8464 187.812V187.789ZM72.5118 109.208C72.7162 108.924 72.9036 108.64 73.0796 108.334L72.4323 108.265C71.1148 110.287 69.5487 112.136 67.7708 113.767L67.4187 114.102C67.0608 112.847 66.4988 111.66 65.7551 110.588C65.4553 110.169 65.1231 109.774 64.7615 109.407C64.5798 109.486 64.3981 109.571 64.2221 109.662C65.4121 110.872 66.2941 112.35 66.7942 113.972C66.851 114.159 66.9021 114.346 66.9532 114.539C65.4151 116.064 63.6148 117.299 61.6387 118.185C59.7764 118.94 57.5052 119.093 55.7508 118.06C55.6315 118.196 55.5236 118.338 55.4101 118.486C56.8621 119.319 58.5717 119.584 60.2079 119.229C62.814 118.735 65.0397 117.015 66.9872 115.306L67.1178 115.192C67.9354 118.701 67.6288 122.403 68.1796 125.98C68.8098 130.051 70.763 134.168 69.758 138.335C69.4275 139.969 68.5381 141.437 67.2427 142.486C66.4628 143.019 65.5658 143.356 64.6278 143.469C63.6898 143.581 62.7385 143.466 61.8545 143.133C57.8345 141.844 55.4896 138.023 52.1624 135.672C50.4566 134.567 48.6552 133.617 46.7798 132.833C46.7003 132.987 46.6321 133.134 46.5583 133.288C47.6939 133.827 48.8295 134.332 49.8628 134.906C50.6759 135.335 51.4542 135.826 52.1907 136.376C53.0516 137.053 53.8707 137.781 54.6436 138.557C56.1823 140.056 57.6926 141.651 59.5663 142.747C61.2696 143.741 63.308 144.371 65.2839 143.99C66.1314 143.803 66.9295 143.438 67.6255 142.919C68.3214 142.401 68.8992 141.74 69.3208 140.981C70.1857 139.447 70.6322 137.712 70.6154 135.951C70.6154 133.679 69.9965 131.408 69.4457 129.211C69.1347 128.042 68.8864 126.858 68.7019 125.662C68.5543 124.606 68.4692 123.55 68.4067 122.488C68.3434 120.386 68.169 118.287 67.8843 116.203C67.8048 115.72 67.7083 115.243 67.5948 114.767C69.436 113.103 71.0853 111.238 72.5118 109.208Z" fill="white"/>
<path d="M55.5861 120.598C44.52 143.633 29.7064 200.877 27.5318 209.291C26.0499 215.003 55.8757 220.789 56.6649 216.82C57.5734 212.278 68.9802 145.279 67.8446 121.148C67.2257 107.942 59.413 112.649 55.5861 120.598Z" fill="#EB9481"/>
<path d="M57.034 214.18C56.682 218.518 54.1951 227.341 52.1056 228.778C50.0162 230.214 38.5526 230.532 32.8009 230.839C27.0492 231.146 25.8115 229.613 25.8001 227.608C25.7888 225.604 37.8769 224.605 37.8769 224.605C37.8769 224.605 21.9789 230.084 17.9533 231.049C13.9277 232.014 4.70121 234.87 3.1909 231.577C2.46413 230.089 4.94536 228.42 4.94536 228.42C4.94536 228.42 1.07874 229.772 0.351973 227.852C-0.476994 225.666 2.58337 224.281 2.58337 224.281C2.58337 224.281 0.153248 224.906 0.00562362 223.094C-0.335048 219.057 14.9157 216.281 14.9157 216.281C14.9157 216.281 3.45776 222.623 2.90701 219.341C2.14617 214.799 25.9761 208.519 28.3779 206.396C30.1235 204.779 31.7427 203.031 33.2211 201.167L57.034 214.18Z" fill="#EB9481"/>
<path d="M25.9535 228.608C25.8985 228.327 25.9122 228.038 25.9933 227.764C26.0743 227.49 26.2204 227.24 26.419 227.035C26.8134 226.634 27.272 226.302 27.776 226.053C28.8162 225.539 29.9015 225.123 31.0181 224.809C33.2609 224.111 35.5604 223.583 37.8315 222.862C35.4328 222.949 33.0552 223.344 30.7569 224.037C29.584 224.37 28.4639 224.867 27.4297 225.513C26.8948 225.845 26.4347 226.283 26.0784 226.802C25.9042 227.067 25.8012 227.372 25.7793 227.688C25.7575 228.005 25.8174 228.321 25.9535 228.608Z" fill="#263238"/>
<path d="M4.94534 228.42C6.58624 227.926 8.19875 227.37 9.80558 226.813C11.4124 226.257 13.0136 225.678 14.6147 225.11L19.4011 223.327C20.9966 222.759 22.5864 222.146 24.1989 221.573C22.5095 221.85 20.8403 222.239 19.2024 222.737C17.5558 223.202 15.9433 223.77 14.3365 224.349C12.7297 224.928 11.1456 225.564 9.58414 226.251C8.02273 226.938 6.46132 227.614 4.94534 228.42Z" fill="#263238"/>
<path d="M20.0882 217.729C18.5284 217.913 16.9838 218.209 15.4664 218.615C13.9435 219.006 12.4424 219.478 10.9695 220.028C9.49446 220.571 8.05181 221.199 6.64869 221.908C5.23885 222.601 3.88028 223.394 2.58335 224.281C4.04256 223.713 5.45635 223.043 6.9042 222.475C8.35205 221.908 9.79423 221.34 11.2534 220.772C12.7126 220.204 14.1775 219.71 15.6424 219.194C17.1073 218.677 18.6006 218.217 20.0882 217.729Z" fill="#263238"/>
<path d="M17.5104 213.998C14.9921 214.326 12.5277 214.982 10.1803 215.951C7.81248 216.874 5.5769 218.106 3.53154 219.614C5.87649 218.637 8.15331 217.621 10.4812 216.707C12.8092 215.792 15.1655 214.901 17.5104 213.998Z" fill="#263238"/>
<path d="M68.4181 147.062L41.8344 147.193C41.8344 147.193 49.0509 125.827 55.9211 116.998C62.7913 108.169 68.3045 109.333 68.9177 119.723C69.5309 130.114 68.4181 147.062 68.4181 147.062Z" fill="#303564"/>
<path d="M68.9177 119.723C68.9518 120.195 68.9745 120.689 68.9915 121.183C68.9915 121.404 68.9915 121.625 69.0256 121.853C69.4003 132.26 68.4237 147.062 68.4237 147.062L61.2015 147.102H60.4804L41.84 147.204C41.84 147.204 44.9004 138.12 48.9203 129.387C49.0566 129.098 49.1872 128.819 49.3348 128.513C51.3845 124.129 53.667 119.899 55.9154 117.009C62.7913 108.169 68.2988 109.339 68.9177 119.723Z" fill="#303564"/>
<path d="M46.8763 147.17L52.276 147.136C50.4815 146.926 48.668 146.937 46.8763 147.17ZM68.719 125.64C68.5714 124.584 68.4862 123.527 68.4238 122.466C68.3604 120.363 68.1861 118.265 67.9014 116.18C67.8219 115.698 67.7254 115.221 67.6118 114.744C67.714 114.642 67.8219 114.551 67.9298 114.443C67.8503 114.238 67.7708 114.045 67.6857 113.875C67.6062 113.96 67.5153 114.034 67.4358 114.119C67.2821 113.574 67.0925 113.039 66.868 112.518C66.5586 112.114 66.1728 111.774 65.7325 111.519C66.209 112.293 66.5903 113.123 66.868 113.989C66.9248 114.176 66.9759 114.363 67.027 114.556C65.4889 116.081 63.6887 117.316 61.7126 118.202C59.6969 119.025 57.1987 119.133 55.3988 117.793C55.2909 117.94 55.1887 118.082 55.0865 118.236C55.8373 118.751 56.6857 119.106 57.5793 119.28C58.4729 119.454 59.3927 119.442 60.2817 119.246C62.8879 118.752 65.1136 117.032 67.0611 115.323L67.1917 115.209C68.0093 118.718 67.7027 122.42 68.2534 125.997C68.4635 127.326 68.8212 128.666 69.1505 130.006C69.1505 129.251 69.1505 128.496 69.1505 127.735C68.9518 127.019 68.8156 126.332 68.719 125.64ZM67.2598 142.457C66.4798 142.99 65.5829 143.328 64.6449 143.44C63.7069 143.553 62.7556 143.438 61.8715 143.105C57.8516 141.816 55.5067 137.995 52.1794 135.644C50.6353 134.632 49.0029 133.762 47.3022 133.044C47.2284 133.197 47.1659 133.356 47.0978 133.515C48.0403 133.963 48.9885 134.401 49.8799 134.883C50.693 135.312 51.4713 135.804 52.2078 136.354C53.0687 137.03 53.8878 137.758 54.6607 138.534C56.1994 140.033 57.7097 141.628 59.5834 142.724C61.2867 143.718 63.3251 144.348 65.301 143.968C66.6481 143.682 67.8531 142.935 68.7077 141.856C68.7077 141.521 68.7417 141.169 68.7531 140.805C68.3653 141.446 67.8584 142.007 67.2598 142.457Z" fill="white"/>
<path d="M45.2581 141.038C46.9615 140.516 59.2313 139.704 67.9298 140.283C67.9569 140.283 67.9829 140.294 68.0021 140.313C68.0212 140.332 68.032 140.358 68.032 140.385C68.032 140.412 68.0212 140.438 68.0021 140.457C67.9829 140.477 67.9569 140.487 67.9298 140.487C66.9702 140.544 47.075 141.623 45.2581 141.316C45.0821 141.311 45.1105 141.101 45.2581 141.038Z" fill="#263238"/>
<path d="M70.1044 130.948C70.1044 130.93 70.0972 130.913 70.0844 130.9C70.0717 130.888 70.0543 130.88 70.0363 130.88C70.0182 130.88 70.0009 130.888 69.9881 130.9C69.9753 130.913 69.9681 130.93 69.9681 130.948C69.7251 131.853 69.5355 132.77 69.4003 133.697C69.3606 133.907 69.3322 134.122 69.2925 134.332C69.2187 132.061 69.1108 129.853 68.9915 127.627C68.9915 127.525 68.8212 127.525 68.8269 127.627C68.895 135.343 68.6906 142.389 68.2194 146.852L65.9141 147.045C65.8821 147.052 65.8532 147.069 65.8325 147.094C65.8118 147.12 65.8004 147.152 65.8004 147.184C65.8004 147.217 65.8118 147.249 65.8325 147.274C65.8532 147.299 65.8821 147.317 65.9141 147.323L68.8439 147.426C68.9688 147.426 69.4571 140.998 69.3379 135.934C69.4969 135.201 69.6672 134.474 69.7864 133.736C69.9635 132.817 70.0698 131.885 70.1044 130.948Z" fill="#263238"/>
<path d="M45.4285 147.198C44.2304 147.272 43.0324 147.335 41.8401 147.369H41.6016L41.6754 147.136C42.141 145.671 42.6179 144.212 43.1403 142.77C43.6626 141.327 44.1907 139.88 44.7585 138.454C45.3263 137.029 45.894 135.616 46.5583 134.207C47.2227 132.799 47.8586 131.42 48.6024 130.074L46.899 134.366L45.2638 138.659L43.6286 142.957L41.999 147.284L41.8401 147.056C43.0324 147.062 44.2304 147.125 45.4285 147.198Z" fill="#263238"/>
<path d="M77.8944 122.023C73.8518 123.357 66.2208 117.674 62.9787 112.813C62.7573 112.478 62.9787 98.3518 62.7516 95.5527C62.7005 94.9849 80.7333 98.2894 80.7333 98.2894C80.7333 98.2894 79.5126 104.319 79.9668 109.202C80.0123 109.611 81.8008 120.734 77.8944 122.023Z" fill="#EB9481"/>
<path d="M80.7391 98.2837C80.7391 98.3688 80.6539 98.7209 80.563 99.2887C80.4041 100.254 80.1656 101.815 80.0236 103.587C79.8484 105.448 79.8351 107.321 79.9839 109.185C79.9896 109.315 80.0048 109.444 80.0293 109.571V109.634C80.0691 109.861 80.1031 110.167 80.1429 110.531C79.5823 110.656 79.0128 110.738 78.4395 110.775C68.8383 111.388 64.5912 99.9132 63.308 95.4731L63.6147 95.5015C64.0859 95.5356 64.7105 95.6094 65.46 95.7059L66.0277 95.7854C67.2258 95.9558 68.6566 96.1829 70.1442 96.4213C70.6325 96.5008 71.1208 96.5747 71.6204 96.6655C72.6879 96.8529 73.7667 97.0346 74.766 97.1992C75.1975 97.2844 75.6233 97.3582 76.0208 97.4263C76.4182 97.4945 76.9008 97.5796 77.304 97.6478L77.8717 97.75L78.15 97.8067L79.6432 98.0736L80.3586 98.1985C80.4602 98.2152 80.5607 98.238 80.6596 98.2666C80.688 98.2666 80.6993 98.2666 80.7107 98.2666L80.7391 98.2837Z" fill="#263238"/>
<path d="M59.2994 74.9704C57.5961 81.2899 61.4911 99.2489 66.0731 103.133C72.7276 108.759 83.3167 108.969 88.035 101.054C92.5773 93.3837 87.1096 70.0591 82.0165 66.5615C74.5104 61.4117 61.8204 65.636 59.2994 74.9704Z" fill="#EB9481"/>
<path d="M61.9055 92.549C65.1135 91.5156 63.6941 83.1692 63.6941 83.1692C63.6941 83.1692 67.5209 80.898 67.4698 73.0853C67.4698 73.0853 71.6033 80.052 84.9747 75.9526C84.9629 73.4573 84.1685 71.0286 82.7035 69.0086C84.4741 71.1196 86.0692 73.3718 87.4729 75.7425C87.4729 75.7425 88.705 63.8191 78.2918 61.5479C74.147 60.6451 68.3385 62.0192 60.2079 68.0207C60.2079 68.0207 57.545 62.9844 56.6422 63.8701C55.7394 64.7559 58.6124 69.389 58.6124 69.389C58.6124 69.389 54.4789 68.878 53.9679 69.8149C53.525 70.6211 57.4768 70.9504 57.4768 70.9504C57.4768 70.9504 51.799 73.9313 54.0701 80.6596C56.1084 86.8144 60.3157 93.0657 61.9055 92.549Z" fill="#263238"/>
<path d="M58.5443 70.6326C56.8063 70.8842 55.2202 71.7625 54.0845 73.1021C52.9489 74.4416 52.342 76.1501 52.3782 77.9059C52.4406 79.9102 53.3093 81.9315 54.2632 83.6689C55.3374 85.5133 56.6446 87.2116 58.1525 88.7222C58.232 88.8074 58.3569 88.6654 58.2718 88.5802C56.9413 87.1452 55.8401 85.5135 55.007 83.7427C54.1154 82.0922 53.4944 80.3095 53.1674 78.4623C52.9485 76.7428 53.384 75.0038 54.3873 73.5903C55.3906 72.1768 56.8886 71.192 58.5841 70.8313C58.6075 70.8233 58.6273 70.807 58.6397 70.7855C58.6521 70.7641 58.6562 70.7388 58.6513 70.7145C58.6465 70.6902 58.6329 70.6684 58.6132 70.6534C58.5935 70.6383 58.569 70.6309 58.5443 70.6326Z" fill="#263238"/>
<path d="M70.1442 61.0427C67.9107 61.9842 65.8108 63.2155 63.8985 64.7049C62.0124 66.0328 60.3684 67.6749 59.0383 69.5595C58.9758 69.656 59.1008 69.7695 59.1802 69.6787C62.1611 66.4821 66.0448 64.0633 69.9682 62.1555C73.619 60.367 78.1783 59.5551 81.6759 62.1555C81.681 62.1627 81.6877 62.1687 81.6954 62.1728C81.7032 62.177 81.7118 62.1793 81.7206 62.1796C81.7294 62.1799 81.7381 62.1781 81.7461 62.1744C81.7541 62.1707 81.7611 62.1652 81.7666 62.1583C81.7721 62.1514 81.776 62.1434 81.7778 62.1348C81.7797 62.1261 81.7795 62.1172 81.7773 62.1087C81.7751 62.1002 81.771 62.0923 81.7652 62.0856C81.7594 62.079 81.7522 62.0737 81.744 62.0704C78.519 59.2769 73.8745 59.5324 70.1442 61.0427Z" fill="#263238"/>
<path d="M63.8644 89.6818C63.8644 89.6818 59.6855 83.896 57.051 85.395C54.4165 86.8939 57.6188 95.3199 60.7529 96.4327C61.1452 96.6031 61.5678 96.6924 61.9954 96.6953C62.423 96.6983 62.8468 96.6148 63.2413 96.4498C63.6359 96.2849 63.993 96.042 64.2913 95.7356C64.5896 95.4292 64.823 95.0657 64.9773 94.6669L63.8644 89.6818Z" fill="#EB9481"/>
<path d="M58.0276 87.7854C57.9765 87.7854 57.9708 87.8535 58.0276 87.8706C60.2249 88.7222 61.4059 90.7095 62.2406 92.816C61.5819 92.0211 60.6905 91.5896 59.6174 92.3788C59.5606 92.4185 59.6174 92.5094 59.6742 92.4923C60.0566 92.3643 60.4694 92.3577 60.8557 92.4736C61.242 92.5895 61.583 92.8222 61.8318 93.1396C62.2416 93.6695 62.5955 94.2403 62.8878 94.843C62.99 95.036 63.3421 94.9281 63.2683 94.701C63.2672 94.6859 63.2672 94.6707 63.2683 94.6556C63.2512 91.8848 61.0255 88.0239 58.0276 87.7854Z" fill="#263238"/>
<path d="M78.025 85.2815C78.025 85.2417 77.9455 85.3553 77.9512 85.4064C78.2067 86.5987 78.2919 88.0125 77.2756 88.603C77.2695 88.6057 77.2643 88.61 77.2607 88.6156C77.257 88.6211 77.2551 88.6276 77.2551 88.6342C77.2551 88.6409 77.257 88.6474 77.2607 88.6529C77.2643 88.6585 77.2695 88.6628 77.2756 88.6655C78.5871 88.2339 78.4565 86.3773 78.025 85.2815Z" fill="#263238"/>
<path d="M76.7305 84.2197C74.7773 84.4184 75.311 88.3191 77.1222 88.1374C78.9335 87.9557 78.3713 84.055 76.7305 84.2197Z" fill="#263238"/>
<path d="M84.9009 83.8734C84.9009 83.828 85.0031 83.9188 85.0088 83.9699C85.1394 85.1793 85.4914 86.5477 86.6383 86.8089C86.6724 86.8089 86.6781 86.877 86.6383 86.877C85.2756 86.8656 84.8271 85.0431 84.9009 83.8734Z" fill="#263238"/>
<path d="M85.8093 82.4653C87.7341 82.0508 88.4211 85.9288 86.6383 86.3092C84.8554 86.6896 84.1968 82.8116 85.8093 82.4653Z" fill="#263238"/>
<path d="M74.9022 83.1239C75.3941 82.9021 75.8736 82.6538 76.3387 82.3801C76.8824 82.1926 77.348 81.8289 77.6616 81.3468C77.7303 81.1772 77.7414 80.9898 77.6932 80.8134C77.6449 80.6369 77.5401 80.4812 77.3948 80.3702C77.0705 80.1951 76.7054 80.1096 76.3372 80.1226C75.9689 80.1356 75.6108 80.2465 75.2996 80.444C74.6104 80.7447 74.0579 81.2912 73.7496 81.977C73.689 82.1377 73.6762 82.3126 73.7126 82.4804C73.7491 82.6483 73.8332 82.8021 73.955 82.9232C74.0767 83.0444 74.2309 83.1278 74.399 83.1634C74.567 83.199 74.7417 83.1853 74.9022 83.1239Z" fill="#263238"/>
<path d="M86.7518 80.3305C86.2132 80.2948 85.6768 80.2304 85.145 80.1374C84.5703 80.149 84.0078 79.9714 83.5438 79.6321C83.4189 79.4975 83.3422 79.3252 83.3257 79.1423C83.3093 78.9594 83.354 78.7762 83.453 78.6214C83.6941 78.3441 84.0049 78.1363 84.3533 78.0195C84.7017 77.9027 85.075 77.8812 85.4346 77.9571C86.1882 77.9942 86.9001 78.3146 87.4275 78.8542C87.5424 78.9827 87.6174 79.1418 87.6432 79.3122C87.669 79.4826 87.6445 79.6568 87.5728 79.8135C87.5011 79.9702 87.3852 80.1026 87.2394 80.1944C87.0936 80.2862 86.9241 80.3335 86.7518 80.3305Z" fill="#263238"/>
<path d="M78.2521 96.0297C78.5814 96.2739 78.9221 96.5975 79.3877 96.5975C79.8356 96.5281 80.2635 96.3635 80.6425 96.1149C80.6822 96.1149 80.7276 96.1149 80.7049 96.1717C80.5645 96.4324 80.3565 96.6507 80.1028 96.8035C79.8491 96.9563 79.5589 97.0381 79.2627 97.0404C79.0073 97.0093 78.7669 96.9032 78.5718 96.7354C78.3767 96.5676 78.2358 96.3458 78.1669 96.0979C78.1158 96.0297 78.1896 95.9957 78.2521 96.0297Z" fill="#263238"/>
<path d="M79.0243 92.2369C79.3967 92.6728 79.8553 93.027 80.3712 93.2772C80.8871 93.5273 81.4492 93.668 82.0222 93.6904C82.522 93.7159 83.0229 93.67 83.5098 93.5541C83.604 93.5381 83.697 93.5154 83.788 93.486L84.0492 93.4065C84.1114 93.3855 84.1651 93.3448 84.202 93.2904C84.2389 93.2361 84.257 93.1712 84.2536 93.1056L84.2252 92.9807V92.8728C84.1173 91.9416 83.8334 90.5392 83.8334 90.5392C84.1968 90.6641 86.0364 91.2035 85.9456 90.7209C85.1507 86.7464 84.2706 82.295 82.6411 78.4908C82.6328 78.4614 82.6132 78.4366 82.5866 78.4216C82.5599 78.4067 82.5285 78.403 82.4991 78.4113C82.4698 78.4196 82.4449 78.4392 82.43 78.4658C82.4151 78.4924 82.4114 78.5239 82.4196 78.5532C83.0328 82.4199 84.316 86.1502 84.9917 90.0225C84.3371 89.8174 83.6563 89.7084 82.9704 89.6989C82.8455 89.7557 83.5666 92.4015 83.5836 92.8217C83.5849 92.8368 83.5849 92.852 83.5836 92.8671C82.0506 93.2816 80.8071 92.9693 79.1435 92.129C79.0243 92.0552 78.9391 92.1517 79.0243 92.2369Z" fill="#263238"/>
<path d="M82.8966 93.1565C82.4784 93.8907 81.8781 94.5047 81.1535 94.9394C80.7516 95.1653 80.2887 95.2586 79.8306 95.2062C78.8313 95.087 78.695 94.2069 78.7575 93.4234C78.7998 93.0071 78.8913 92.5974 79.03 92.2026C80.1841 92.9249 81.539 93.2591 82.8966 93.1565Z" fill="#263238"/>
<path d="M81.1535 94.9393C80.7516 95.1652 80.2887 95.2586 79.8306 95.2062C78.8313 95.087 78.695 94.2069 78.7575 93.4234C79.8079 93.3893 80.9264 93.9457 81.1535 94.9393Z" fill="#FF9ABB"/>
<path d="M140.12 33.57V34H134V33.57H134.86V27.01H139.66V28.38H136.42V29.89H139.5V31.26H136.42V33.57H140.12ZM143.403 33.57V34H140.123V33.57H140.983V27.01H142.543V33.57H143.403ZM150.944 33.57V34H148.354L146.864 31.7L145.384 34H142.824V33.57H143.784L145.854 30.42L143.664 27.01H145.534L146.864 29.08L148.194 27.01H150.074L147.894 30.38L149.974 33.57H150.944ZM151.217 33.57V27.01H153.867C154.954 27.01 155.727 27.1933 156.187 27.56C156.654 27.9267 156.887 28.5167 156.887 29.33C156.887 30.45 156.444 31.1733 155.557 31.5L157.017 33.57H157.957V34H155.407L153.857 31.77H152.777V34H150.247V33.57H151.217ZM153.917 30.42C154.451 30.42 154.814 30.3333 155.007 30.16C155.201 29.9867 155.297 29.7133 155.297 29.34C155.297 28.96 155.197 28.7 154.997 28.56C154.797 28.42 154.447 28.35 153.947 28.35H152.777V30.42H153.917Z" fill="#F5F5F5"/>
</svg>
