<svg xmlns="http://www.w3.org/2000/svg" width="46" height="45" fill="none" viewBox="0 0 46 45"><path stroke="#303564" stroke-linejoin="round" stroke-width="1.5" d="M8 32.8858C8 31.0399 8.71116 29.2696 9.97703 27.9643C11.2429 26.6591 12.9598 25.9258 14.75 25.9258H28.25C30.0402 25.9258 31.7571 26.6591 33.023 27.9643C34.2888 29.2696 35 31.0399 35 32.8858C35 33.8087 34.6444 34.6939 34.0115 35.3465C33.3785 35.9991 32.5201 36.3658 31.625 36.3658H11.375C10.4799 36.3658 9.62145 35.9991 8.98851 35.3465C8.35558 34.6939 8 33.8087 8 32.8858Z"/><path stroke="#303564" stroke-width="1.5" d="M21.5001 18.9654C24.296 18.9654 26.5626 16.6283 26.5626 13.7454C26.5626 10.8625 24.296 8.52539 21.5001 8.52539C18.7041 8.52539 16.4376 10.8625 16.4376 13.7454C16.4376 16.6283 18.7041 18.9654 21.5001 18.9654Z"/></svg>