<svg xmlns="http://www.w3.org/2000/svg" width="46" height="42" fill="none" viewBox="0 0 46 42"><g clip-path="url(#clip0_1308_1565)"><path stroke="#303564" stroke-linecap="round" stroke-linejoin="round" stroke-width="1.5" d="M10.6786 24.0445V32.0803C10.6786 32.3171 10.7727 32.5442 10.9401 32.7116C11.1076 32.879 11.3347 32.9731 11.5715 32.9731H29.4286C29.6654 32.9731 29.8925 32.879 30.0599 32.7116C30.2274 32.5442 30.3215 32.3171 30.3215 32.0803V24.0445M8.89288 15.116V18.6874C8.89288 18.9242 8.98695 19.1513 9.1544 19.3187C9.32184 19.4862 9.54894 19.5803 9.78574 19.5803H31.2143C31.4511 19.5803 31.6782 19.4862 31.8457 19.3187C32.0131 19.1513 32.1072 18.9242 32.1072 18.6874V15.116M8.89288 15.116L11.0715 10.741C11.2212 10.4438 11.451 10.1943 11.735 10.0208C12.019 9.84725 12.3458 9.75652 12.6786 9.75883H28.3215C28.6542 9.75652 28.9811 9.84725 29.265 10.0208C29.549 10.1943 29.7788 10.4438 29.9286 10.741L32.1072 15.116M8.89288 15.116H32.1072M22.2857 24.0445V32.9731M10.6786 26.7231H22.2857"/></g><defs><clipPath id="clip0_1308_1565"><rect width="25" height="25" fill="#fff" transform="translate(8 8.86621)"/></clipPath></defs></svg>