<svg width="116" height="121" viewBox="0 0 116 121" fill="none" xmlns="http://www.w3.org/2000/svg">
<path fill-rule="evenodd" clip-rule="evenodd" d="M153.456 133.284C149.204 151.988 156.1 177.533 139.866 187.75C124.252 197.577 105.364 179.209 87.4416 174.831C70.2896 170.642 48.2735 176.445 37.2185 162.678C26.13 148.87 35.0682 128.543 36.074 110.862C36.8913 96.4938 35.5096 81.8036 42.5335 69.2427C49.6182 56.5732 62.2511 48.9062 74.7995 41.6092C88.8999 33.4096 103.262 22.0804 119.384 24.5529C135.737 27.0605 149.512 39.8616 157.581 54.3038C164.845 67.3053 161.087 82.9313 160.31 97.8041C159.666 110.135 156.193 121.243 153.456 133.284Z" fill="#C2E2FF" fill-opacity="0.05"/>
<path fill-rule="evenodd" clip-rule="evenodd" d="M21.2015 108.695C22.6969 121.475 25.6451 133.745 33.9554 143.569C44.3913 155.905 56.5381 170.302 72.679 169.547C89.1196 168.778 99.3531 152.669 109.879 140.016C120.527 127.217 135.62 113.987 132.507 97.6311C129.455 81.5881 108.685 78.1134 96.1162 67.686C83.3893 57.1271 76.0305 36.3288 59.5103 37.0688C42.9025 37.8126 33.2871 56.192 25.4466 70.8514C19.2231 82.4876 19.6679 95.5886 21.2015 108.695Z" fill="#C2E2FF" fill-opacity="0.05"/>
</svg>
