<svg width="178" height="120" viewBox="0 0 178 120" fill="none" xmlns="http://www.w3.org/2000/svg">
<path d="M171.352 42.706H137.529C137.529 42.706 140.884 33.543 146.044 33.543C151.205 33.543 152.821 39.8651 152.821 39.8651C152.821 39.8651 156.302 36.4314 159.163 36.4314C162.023 36.4314 164.513 40.9714 164.513 40.9714C164.513 40.9714 168.555 38.5295 171.352 42.706Z" fill="#EBEBEB"/>
<path d="M164.493 22.2197H148.688C148.688 22.2197 152.22 17.083 155.01 17.083C157.799 17.083 158.617 20.4969 158.617 20.4969C158.617 20.4969 160.593 18.9164 162.399 19.1891C164.204 19.4617 164.493 22.2197 164.493 22.2197Z" fill="#EBEBEB"/>
<path d="M40.3667 29.8585H9.57812C9.57812 29.8585 13.81 20.4465 18.3066 19.8578C22.8031 19.269 24.9724 26.8516 24.9724 26.8516C24.9724 26.8516 27.8806 24.1726 30.1684 24.1726C32.4562 24.1726 34.2224 27.7011 34.2224 27.7011C34.2224 27.7011 38.798 25.2829 40.3667 29.8585Z" fill="#EBEBEB"/>
<path d="M62.7784 10.3851H41.9788C41.9788 10.3851 45.5349 3.56515 49.427 3.46242C53.319 3.35969 55.3539 8.62677 55.3539 8.62677C55.3539 8.62677 61.3717 3.78643 62.7784 10.3851Z" fill="#EBEBEB"/>
<path d="M73.3837 35.3013H59.3447C59.3447 35.3013 61.759 30.698 64.3747 30.6308C66.9905 30.5637 68.3656 34.1159 68.3656 34.1159C68.3656 34.1159 72.4354 30.8481 73.3837 35.3013Z" fill="#EBEBEB"/>
<path d="M136.352 41.6719H123.798V107.469H136.352V41.6719Z" fill="#DBDBDB"/>
<path d="M128.188 43.8096H125.747V46.3226H128.188V43.8096Z" fill="#EBEBEB"/>
<path d="M131.31 43.8096H128.868V46.3226H131.31V43.8096Z" fill="#EBEBEB"/>
<path d="M128.188 48.0771H125.747V50.5902H128.188V48.0771Z" fill="#EBEBEB"/>
<path d="M131.31 48.0771H128.868V50.5902H131.31V48.0771Z" fill="#EBEBEB"/>
<path d="M128.188 52.3398H125.746V54.8529H128.188V52.3398Z" fill="#EBEBEB"/>
<path d="M131.31 52.3398H128.868V54.8529H131.31V52.3398Z" fill="#EBEBEB"/>
<path d="M128.188 56.6074H125.746V59.1205H128.188V56.6074Z" fill="#EBEBEB"/>
<path d="M131.31 56.6074H128.868V59.1205H131.31V56.6074Z" fill="#EBEBEB"/>
<path d="M128.188 60.8711H125.747V63.3841H128.188V60.8711Z" fill="#EBEBEB"/>
<path d="M131.31 60.8711H128.868V63.3841H131.31V60.8711Z" fill="#EBEBEB"/>
<path d="M128.188 65.1377H125.747V67.6507H128.188V65.1377Z" fill="#EBEBEB"/>
<path d="M131.31 65.1377H128.868V67.6507H131.31V65.1377Z" fill="#EBEBEB"/>
<path d="M128.188 69.4014H125.746V71.9144H128.188V69.4014Z" fill="#EBEBEB"/>
<path d="M131.31 69.4014H128.868V71.9144H131.31V69.4014Z" fill="#EBEBEB"/>
<path d="M128.188 73.6689H125.746V76.182H128.188V73.6689Z" fill="#EBEBEB"/>
<path d="M131.31 73.6689H128.868V76.182H131.31V73.6689Z" fill="#EBEBEB"/>
<path d="M128.188 77.9326H125.746V80.4456H128.188V77.9326Z" fill="#EBEBEB"/>
<path d="M131.31 77.9326H128.868V80.4456H131.31V77.9326Z" fill="#EBEBEB"/>
<path d="M128.188 82.2012H125.746V84.7142H128.188V82.2012Z" fill="#EBEBEB"/>
<path d="M131.31 82.2012H128.868V84.7142H131.31V82.2012Z" fill="#EBEBEB"/>
<path d="M128.188 86.4629H125.747V88.9759H128.188V86.4629Z" fill="#EBEBEB"/>
<path d="M131.31 86.4629H128.868V88.9759H131.31V86.4629Z" fill="#EBEBEB"/>
<path d="M128.188 90.7305H125.747V93.2435H128.188V90.7305Z" fill="#EBEBEB"/>
<path d="M131.31 90.7305H128.868V93.2435H131.31V90.7305Z" fill="#EBEBEB"/>
<path d="M128.188 94.9951H125.746V97.5081H128.188V94.9951Z" fill="#EBEBEB"/>
<path d="M131.31 94.9951H128.868V97.5081H131.31V94.9951Z" fill="#EBEBEB"/>
<path d="M128.188 99.2617H125.746V101.775H128.188V99.2617Z" fill="#EBEBEB"/>
<path d="M131.958 101.774H134.4V99.2614H131.958V101.774Z" fill="#EBEBEB"/>
<path d="M131.958 97.5117H134.4V94.9987H131.958V97.5117Z" fill="#EBEBEB"/>
<path d="M131.958 93.2441H134.4V90.7311H131.958V93.2441Z" fill="#EBEBEB"/>
<path d="M131.958 88.9805H134.4V86.4674H131.958V88.9805Z" fill="#EBEBEB"/>
<path d="M131.958 84.709H134.4V82.196H131.958V84.709Z" fill="#EBEBEB"/>
<path d="M131.958 80.4453H134.4V77.9323H131.958V80.4453Z" fill="#EBEBEB"/>
<path d="M131.958 76.1787H134.4V73.6657H131.958V76.1787Z" fill="#EBEBEB"/>
<path d="M131.958 71.915H134.4V69.402H131.958V71.915Z" fill="#EBEBEB"/>
<path d="M131.958 67.6475H134.4V65.1344H131.958V67.6475Z" fill="#EBEBEB"/>
<path d="M131.958 63.3838H134.4V60.8708H131.958V63.3838Z" fill="#EBEBEB"/>
<path d="M131.958 59.1162H134.4V56.6032H131.958V59.1162Z" fill="#EBEBEB"/>
<path d="M131.958 54.8525H134.4V52.3395H131.958V54.8525Z" fill="#EBEBEB"/>
<path d="M131.958 50.585H134.4V48.0719H131.958V50.585Z" fill="#EBEBEB"/>
<path d="M131.958 46.3223H134.4V43.8092H131.958V46.3223Z" fill="#EBEBEB"/>
<path d="M131.31 99.2617H128.868V101.775H131.31V99.2617Z" fill="#EBEBEB"/>
<path d="M146.246 41.6719H136.348V107.469H146.246V41.6719Z" fill="#A6A6A6"/>
<path d="M143.207 101.774H145.222V99.2614H143.207V101.774Z" fill="#C7C7C7"/>
<path d="M140.635 101.774H142.65V99.2614H140.635V101.774Z" fill="#C7C7C7"/>
<path d="M143.207 97.5117H145.222V94.9987H143.207V97.5117Z" fill="#C7C7C7"/>
<path d="M140.635 97.5117H142.65V94.9987H140.635V97.5117Z" fill="#C7C7C7"/>
<path d="M143.207 93.2441H145.222V90.7311H143.207V93.2441Z" fill="#C7C7C7"/>
<path d="M140.635 93.2441H142.65V90.7311H140.635V93.2441Z" fill="#C7C7C7"/>
<path d="M143.207 88.9805H145.222V86.4674H143.207V88.9805Z" fill="#C7C7C7"/>
<path d="M140.635 88.9805H142.65V86.4674H140.635V88.9805Z" fill="#C7C7C7"/>
<path d="M143.207 84.709H145.222V82.196H143.207V84.709Z" fill="#C7C7C7"/>
<path d="M140.635 84.709H142.65V82.196H140.635V84.709Z" fill="#C7C7C7"/>
<path d="M143.207 80.4453H145.222V77.9323H143.207V80.4453Z" fill="#C7C7C7"/>
<path d="M140.635 80.4453H142.65V77.9323H140.635V80.4453Z" fill="#C7C7C7"/>
<path d="M143.207 76.1787H145.222V73.6657H143.207V76.1787Z" fill="#C7C7C7"/>
<path d="M140.635 76.1787H142.65V73.6657H140.635V76.1787Z" fill="#C7C7C7"/>
<path d="M143.207 71.915H145.222V69.402H143.207V71.915Z" fill="#C7C7C7"/>
<path d="M140.635 71.915H142.65V69.402H140.635V71.915Z" fill="#C7C7C7"/>
<path d="M143.207 67.6475H145.222V65.1344H143.207V67.6475Z" fill="#C7C7C7"/>
<path d="M140.635 67.6475H142.65V65.1344H140.635V67.6475Z" fill="#C7C7C7"/>
<path d="M143.207 63.3838H145.222V60.8708H143.207V63.3838Z" fill="#C7C7C7"/>
<path d="M140.635 63.3838H142.65V60.8708H140.635V63.3838Z" fill="#C7C7C7"/>
<path d="M143.207 59.1162H145.222V56.6032H143.207V59.1162Z" fill="#C7C7C7"/>
<path d="M140.635 59.1162H142.65V56.6032H140.635V59.1162Z" fill="#C7C7C7"/>
<path d="M143.207 54.8525H145.222V52.3395H143.207V54.8525Z" fill="#C7C7C7"/>
<path d="M140.635 54.8525H142.65V52.3395H140.635V54.8525Z" fill="#C7C7C7"/>
<path d="M143.207 50.585H145.222V48.0719H143.207V50.585Z" fill="#C7C7C7"/>
<path d="M140.635 50.585H142.65V48.0719H140.635V50.585Z" fill="#C7C7C7"/>
<path d="M143.207 46.3223H145.222V43.8092H143.207V46.3223Z" fill="#C7C7C7"/>
<path d="M140.094 43.8096H138.079V46.3226H140.094V43.8096Z" fill="#C7C7C7"/>
<path d="M140.094 48.0771H138.079V50.5902H140.094V48.0771Z" fill="#C7C7C7"/>
<path d="M140.094 52.3398H138.079V54.8529H140.094V52.3398Z" fill="#C7C7C7"/>
<path d="M140.094 56.6074H138.079V59.1205H140.094V56.6074Z" fill="#C7C7C7"/>
<path d="M140.094 60.8711H138.079V63.3841H140.094V60.8711Z" fill="#C7C7C7"/>
<path d="M140.094 65.1377H138.079V67.6507H140.094V65.1377Z" fill="#C7C7C7"/>
<path d="M140.094 69.4014H138.079V71.9144H140.094V69.4014Z" fill="#C7C7C7"/>
<path d="M140.094 73.6689H138.079V76.182H140.094V73.6689Z" fill="#C7C7C7"/>
<path d="M140.094 77.9326H138.079V80.4456H140.094V77.9326Z" fill="#C7C7C7"/>
<path d="M140.094 82.2012H138.079V84.7142H140.094V82.2012Z" fill="#C7C7C7"/>
<path d="M140.094 86.4629H138.079V88.9759H140.094V86.4629Z" fill="#C7C7C7"/>
<path d="M140.094 90.7305H138.079V93.2435H140.094V90.7305Z" fill="#C7C7C7"/>
<path d="M140.094 94.9951H138.079V97.5081H140.094V94.9951Z" fill="#C7C7C7"/>
<path d="M140.094 99.2617H138.079V101.775H140.094V99.2617Z" fill="#C7C7C7"/>
<path d="M140.635 46.3223H142.65V43.8092H140.635V46.3223Z" fill="#C7C7C7"/>
<path d="M47.2262 38.123H32.3772V107.468H47.2262V38.123Z" fill="#EBEBEB"/>
<path d="M47.2261 36.6055H32.0215V38.1228H47.2261V36.6055Z" fill="#C7C7C7"/>
<path d="M35.2261 40.3633H33.7207V107.472H35.2261V40.3633Z" fill="white"/>
<path d="M37.8892 40.3633H36.3838V107.472H37.8892V40.3633Z" fill="white"/>
<path d="M40.5562 40.3633H39.0508V107.472H40.5562V40.3633Z" fill="white"/>
<path d="M43.2193 40.3633H41.7139V107.472H43.2193V40.3633Z" fill="white"/>
<path d="M45.8865 40.3633H44.3811V107.472H45.8865V40.3633Z" fill="white"/>
<path d="M35.2261 42.2793H33.7207V45.2744H35.2261V42.2793Z" fill="#EBEBEB"/>
<path d="M37.8892 42.2793H36.3838V45.2744H37.8892V42.2793Z" fill="#EBEBEB"/>
<path d="M40.5562 42.2793H39.0508V45.2744H40.5562V42.2793Z" fill="#EBEBEB"/>
<path d="M43.2196 42.2793H41.7141V45.2744H43.2196V42.2793Z" fill="#EBEBEB"/>
<path d="M45.8865 42.2793H44.3811V45.2744H45.8865V42.2793Z" fill="#EBEBEB"/>
<path d="M35.2261 47.1514H33.7207V50.1504H35.2261V47.1514Z" fill="#EBEBEB"/>
<path d="M37.8892 47.1514H36.3838V50.1504H37.8892V47.1514Z" fill="#EBEBEB"/>
<path d="M40.5562 47.1514H39.0508V50.1504H40.5562V47.1514Z" fill="#EBEBEB"/>
<path d="M43.2196 47.1514H41.7141V50.1504H43.2196V47.1514Z" fill="#EBEBEB"/>
<path d="M45.8865 47.1514H44.3811V50.1504H45.8865V47.1514Z" fill="#EBEBEB"/>
<path d="M35.2261 52.0234H33.7207V55.0185H35.2261V52.0234Z" fill="#EBEBEB"/>
<path d="M37.8892 52.0234H36.3838V55.0185H37.8892V52.0234Z" fill="#EBEBEB"/>
<path d="M40.5562 52.0234H39.0508V55.0185H40.5562V52.0234Z" fill="#EBEBEB"/>
<path d="M43.2193 52.0234H41.7139V55.0185H43.2193V52.0234Z" fill="#EBEBEB"/>
<path d="M45.8865 52.0234H44.3811V55.0185H45.8865V52.0234Z" fill="#EBEBEB"/>
<path d="M35.2261 56.8916H33.7207V59.8906H35.2261V56.8916Z" fill="#EBEBEB"/>
<path d="M37.8892 56.8916H36.3838V59.8906H37.8892V56.8916Z" fill="#EBEBEB"/>
<path d="M40.5562 56.8916H39.0508V59.8906H40.5562V56.8916Z" fill="#EBEBEB"/>
<path d="M43.2193 56.8916H41.7139V59.8906H43.2193V56.8916Z" fill="#EBEBEB"/>
<path d="M45.8865 56.8916H44.3811V59.8906H45.8865V56.8916Z" fill="#EBEBEB"/>
<path d="M35.2261 61.7637H33.7207V64.7627H35.2261V61.7637Z" fill="#EBEBEB"/>
<path d="M37.8892 61.7637H36.3838V64.7627H37.8892V61.7637Z" fill="#EBEBEB"/>
<path d="M40.5562 61.7637H39.0508V64.7627H40.5562V61.7637Z" fill="#EBEBEB"/>
<path d="M43.2196 61.7637H41.7141V64.7627H43.2196V61.7637Z" fill="#EBEBEB"/>
<path d="M45.8865 61.7637H44.3811V64.7627H45.8865V61.7637Z" fill="#EBEBEB"/>
<path d="M35.2261 66.6357H33.7207V69.6348H35.2261V66.6357Z" fill="#EBEBEB"/>
<path d="M37.8892 66.6357H36.3838V69.6348H37.8892V66.6357Z" fill="#EBEBEB"/>
<path d="M40.5562 66.6357H39.0508V69.6348H40.5562V66.6357Z" fill="#EBEBEB"/>
<path d="M43.2196 66.6357H41.7141V69.6348H43.2196V66.6357Z" fill="#EBEBEB"/>
<path d="M45.8865 66.6357H44.3811V69.6348H45.8865V66.6357Z" fill="#EBEBEB"/>
<path d="M35.2261 71.5078H33.7207V74.5069H35.2261V71.5078Z" fill="#EBEBEB"/>
<path d="M37.8892 71.5078H36.3838V74.5069H37.8892V71.5078Z" fill="#EBEBEB"/>
<path d="M40.5562 71.5078H39.0508V74.5069H40.5562V71.5078Z" fill="#EBEBEB"/>
<path d="M43.2196 71.5078H41.7141V74.5069H43.2196V71.5078Z" fill="#EBEBEB"/>
<path d="M45.8865 71.5078H44.3811V74.5069H45.8865V71.5078Z" fill="#EBEBEB"/>
<path d="M35.2261 76.375H33.7207V79.374H35.2261V76.375Z" fill="#EBEBEB"/>
<path d="M37.8892 76.375H36.3838V79.374H37.8892V76.375Z" fill="#EBEBEB"/>
<path d="M40.5562 76.375H39.0508V79.374H40.5562V76.375Z" fill="#EBEBEB"/>
<path d="M43.2193 76.375H41.7139V79.374H43.2193V76.375Z" fill="#EBEBEB"/>
<path d="M45.8865 76.375H44.3811V79.374H45.8865V76.375Z" fill="#EBEBEB"/>
<path d="M35.2261 81.2471H33.7207V84.2422H35.2261V81.2471Z" fill="#EBEBEB"/>
<path d="M37.8892 81.2471H36.3838V84.2422H37.8892V81.2471Z" fill="#EBEBEB"/>
<path d="M40.5562 81.2471H39.0508V84.2422H40.5562V81.2471Z" fill="#EBEBEB"/>
<path d="M43.2196 81.2471H41.7141V84.2422H43.2196V81.2471Z" fill="#EBEBEB"/>
<path d="M45.8865 81.2471H44.3811V84.2422H45.8865V81.2471Z" fill="#EBEBEB"/>
<path d="M35.2261 86.1191H33.7207V89.1182H35.2261V86.1191Z" fill="#EBEBEB"/>
<path d="M37.8892 86.1191H36.3838V89.1182H37.8892V86.1191Z" fill="#EBEBEB"/>
<path d="M40.5562 86.1191H39.0508V89.1182H40.5562V86.1191Z" fill="#EBEBEB"/>
<path d="M43.2196 86.1191H41.7141V89.1182H43.2196V86.1191Z" fill="#EBEBEB"/>
<path d="M45.8865 86.1191H44.3811V89.1182H45.8865V86.1191Z" fill="#EBEBEB"/>
<path d="M35.2261 90.9912H33.7207V93.9863H35.2261V90.9912Z" fill="#EBEBEB"/>
<path d="M37.8892 90.9912H36.3838V93.9863H37.8892V90.9912Z" fill="#EBEBEB"/>
<path d="M40.5562 90.9912H39.0508V93.9863H40.5562V90.9912Z" fill="#EBEBEB"/>
<path d="M43.2196 90.9912H41.7141V93.9863H43.2196V90.9912Z" fill="#EBEBEB"/>
<path d="M45.8865 90.9912H44.3811V93.9863H45.8865V90.9912Z" fill="#EBEBEB"/>
<path d="M35.2261 95.8604H33.7207V98.8554H35.2261V95.8604Z" fill="#EBEBEB"/>
<path d="M37.8892 95.8604H36.3838V98.8554H37.8892V95.8604Z" fill="#EBEBEB"/>
<path d="M40.5562 95.8604H39.0508V98.8554H40.5562V95.8604Z" fill="#EBEBEB"/>
<path d="M43.2193 95.8604H41.7139V98.8554H43.2193V95.8604Z" fill="#EBEBEB"/>
<path d="M45.8865 95.8604H44.3811V98.8554H45.8865V95.8604Z" fill="#EBEBEB"/>
<path d="M35.2261 100.731H33.7207V103.73H35.2261V100.731Z" fill="#EBEBEB"/>
<path d="M37.8892 100.731H36.3838V103.73H37.8892V100.731Z" fill="#EBEBEB"/>
<path d="M40.5562 100.731H39.0508V103.73H40.5562V100.731Z" fill="#EBEBEB"/>
<path d="M43.2193 100.731H41.7139V103.73H43.2193V100.731Z" fill="#EBEBEB"/>
<path d="M45.8865 100.731H44.3811V103.73H45.8865V100.731Z" fill="#EBEBEB"/>
<path d="M35.2261 105.604H33.7207V107.472H35.2261V105.604Z" fill="#EBEBEB"/>
<path d="M37.8892 105.604H36.3838V107.472H37.8892V105.604Z" fill="#EBEBEB"/>
<path d="M40.5562 105.604H39.0508V107.472H40.5562V105.604Z" fill="#EBEBEB"/>
<path d="M43.2193 105.604H41.7139V107.472H43.2193V105.604Z" fill="#EBEBEB"/>
<path d="M45.8865 105.604H44.3811V107.472H45.8865V105.604Z" fill="#EBEBEB"/>
<path d="M56.7606 38.123H47.2261V107.468H56.7606V38.123Z" fill="#DBDBDB"/>
<path d="M57.1715 36.6055H47.2261V38.1228H57.1715V36.6055Z" fill="#C7C7C7"/>
<path d="M50.075 40.3633H48.5696V107.472H50.075V40.3633Z" fill="#C7C7C7"/>
<path d="M52.7423 40.3633H51.2368V107.472H52.7423V40.3633Z" fill="#C7C7C7"/>
<path d="M55.4053 40.3633H53.8999V107.472H55.4053V40.3633Z" fill="#C7C7C7"/>
<path d="M50.075 42.2793H48.5696V45.2744H50.075V42.2793Z" fill="#DBDBDB"/>
<path d="M52.7423 42.2793H51.2368V45.2744H52.7423V42.2793Z" fill="#DBDBDB"/>
<path d="M55.4051 42.2793H53.8997V45.2744H55.4051V42.2793Z" fill="#DBDBDB"/>
<path d="M50.075 47.1514H48.5696V50.1504H50.075V47.1514Z" fill="#DBDBDB"/>
<path d="M52.7423 47.1514H51.2368V50.1504H52.7423V47.1514Z" fill="#DBDBDB"/>
<path d="M55.4051 47.1514H53.8997V50.1504H55.4051V47.1514Z" fill="#DBDBDB"/>
<path d="M50.075 52.0234H48.5696V55.0185H50.075V52.0234Z" fill="#DBDBDB"/>
<path d="M52.7423 52.0234H51.2368V55.0185H52.7423V52.0234Z" fill="#DBDBDB"/>
<path d="M55.4053 52.0234H53.8999V55.0185H55.4053V52.0234Z" fill="#DBDBDB"/>
<path d="M50.075 56.8916H48.5696V59.8906H50.075V56.8916Z" fill="#DBDBDB"/>
<path d="M52.7423 56.8916H51.2368V59.8906H52.7423V56.8916Z" fill="#DBDBDB"/>
<path d="M55.4053 56.8916H53.8999V59.8906H55.4053V56.8916Z" fill="#DBDBDB"/>
<path d="M50.075 61.7637H48.5696V64.7627H50.075V61.7637Z" fill="#DBDBDB"/>
<path d="M52.7423 61.7637H51.2368V64.7627H52.7423V61.7637Z" fill="#DBDBDB"/>
<path d="M55.4051 61.7637H53.8997V64.7627H55.4051V61.7637Z" fill="#DBDBDB"/>
<path d="M50.075 66.6357H48.5696V69.6348H50.075V66.6357Z" fill="#DBDBDB"/>
<path d="M52.7423 66.6357H51.2368V69.6348H52.7423V66.6357Z" fill="#DBDBDB"/>
<path d="M55.4051 66.6357H53.8997V69.6348H55.4051V66.6357Z" fill="#DBDBDB"/>
<path d="M50.075 71.5078H48.5696V74.5069H50.075V71.5078Z" fill="#DBDBDB"/>
<path d="M52.7423 71.5078H51.2368V74.5069H52.7423V71.5078Z" fill="#DBDBDB"/>
<path d="M55.4051 71.5078H53.8997V74.5069H55.4051V71.5078Z" fill="#DBDBDB"/>
<path d="M50.075 76.375H48.5696V79.374H50.075V76.375Z" fill="#DBDBDB"/>
<path d="M52.7423 76.375H51.2368V79.374H52.7423V76.375Z" fill="#DBDBDB"/>
<path d="M55.4053 76.375H53.8999V79.374H55.4053V76.375Z" fill="#DBDBDB"/>
<path d="M50.075 81.2471H48.5696V84.2422H50.075V81.2471Z" fill="#DBDBDB"/>
<path d="M52.7423 81.2471H51.2368V84.2422H52.7423V81.2471Z" fill="#DBDBDB"/>
<path d="M55.4051 81.2471H53.8997V84.2422H55.4051V81.2471Z" fill="#DBDBDB"/>
<path d="M50.075 86.1191H48.5696V89.1182H50.075V86.1191Z" fill="#DBDBDB"/>
<path d="M52.7423 86.1191H51.2368V89.1182H52.7423V86.1191Z" fill="#DBDBDB"/>
<path d="M55.4051 86.1191H53.8997V89.1182H55.4051V86.1191Z" fill="#DBDBDB"/>
<path d="M50.075 90.9912H48.5696V93.9863H50.075V90.9912Z" fill="#DBDBDB"/>
<path d="M52.7423 90.9912H51.2368V93.9863H52.7423V90.9912Z" fill="#DBDBDB"/>
<path d="M55.4051 90.9912H53.8997V93.9863H55.4051V90.9912Z" fill="#DBDBDB"/>
<path d="M50.075 95.8604H48.5696V98.8554H50.075V95.8604Z" fill="#DBDBDB"/>
<path d="M52.7423 95.8604H51.2368V98.8554H52.7423V95.8604Z" fill="#DBDBDB"/>
<path d="M55.4053 95.8604H53.8999V98.8554H55.4053V95.8604Z" fill="#DBDBDB"/>
<path d="M50.075 100.731H48.5696V103.73H50.075V100.731Z" fill="#DBDBDB"/>
<path d="M52.7423 100.731H51.2368V103.73H52.7423V100.731Z" fill="#DBDBDB"/>
<path d="M55.4053 100.731H53.8999V103.73H55.4053V100.731Z" fill="#DBDBDB"/>
<path d="M50.075 105.604H48.5696V107.472H50.075V105.604Z" fill="#DBDBDB"/>
<path d="M52.7423 105.604H51.2368V107.472H52.7423V105.604Z" fill="#DBDBDB"/>
<path d="M55.4053 105.604H53.8999V107.472H55.4053V105.604Z" fill="#DBDBDB"/>
<path d="M28.5206 63.6094H13.7349V107.469H28.5206V63.6094Z" fill="#EBEBEB"/>
<path d="M28.5245 59.8906H15.8408V63.6088H28.5245V59.8906Z" fill="#C7C7C7"/>
<path d="M26.9006 65.5498H15.3589V107.469H26.9006V65.5498Z" fill="#DBDBDB"/>
<path d="M26.9006 69.5518H15.3589V70.5435H26.9006V69.5518Z" fill="white"/>
<path d="M26.9006 73.6543H15.3589V74.6461H26.9006V73.6543Z" fill="white"/>
<path d="M26.9006 77.7588H15.3589V78.7506H26.9006V77.7588Z" fill="white"/>
<path d="M26.9006 81.8604H15.3589V82.8521H26.9006V81.8604Z" fill="white"/>
<path d="M26.9006 85.9648H15.3589V86.9566H26.9006V85.9648Z" fill="white"/>
<path d="M26.9006 90.0674H15.3589V91.0592H26.9006V90.0674Z" fill="white"/>
<path d="M26.9006 94.1719H15.3589V95.1637H26.9006V94.1719Z" fill="white"/>
<path d="M26.9006 98.2734H15.3589V99.2652H26.9006V98.2734Z" fill="white"/>
<path d="M26.9006 102.375H15.3589V103.367H26.9006V102.375Z" fill="white"/>
<path d="M26.9006 106.48H15.3589V107.472H26.9006V106.48Z" fill="white"/>
<path d="M37.7824 63.6094H28.5205V107.469H37.7824V63.6094Z" fill="#DBDBDB"/>
<path d="M36.3915 59.8906H28.5205V63.6088H36.3915V59.8906Z" fill="#A6A6A6"/>
<path d="M36.921 65.5498H29.8008V107.469H36.921V65.5498Z" fill="#C7C7C7"/>
<path d="M36.921 69.5518H29.8008V70.5435H36.921V69.5518Z" fill="white"/>
<path d="M36.921 73.6543H29.8008V74.6461H36.921V73.6543Z" fill="white"/>
<path d="M36.921 77.7588H29.8008V78.7506H36.921V77.7588Z" fill="white"/>
<path d="M36.921 81.8604H29.8008V82.8521H36.921V81.8604Z" fill="white"/>
<path d="M36.921 85.9648H29.8008V86.9566H36.921V85.9648Z" fill="white"/>
<path d="M36.921 90.0674H29.8008V91.0592H36.921V90.0674Z" fill="white"/>
<path d="M36.921 94.1719H29.8008V95.1637H36.921V94.1719Z" fill="white"/>
<path d="M36.921 98.2734H29.8008V99.2652H36.921V98.2734Z" fill="white"/>
<path d="M36.921 102.375H29.8008V103.367H36.921V102.375Z" fill="white"/>
<path d="M36.921 106.48H29.8008V107.472H36.921V106.48Z" fill="white"/>
<path d="M69.9619 81.793H58.5308V107.469H69.9619V81.793Z" fill="#DBDBDB"/>
<path d="M62.3517 84.0176H60.3286V85.5902H62.3517V84.0176Z" fill="#C7C7C7"/>
<path d="M62.3517 87.376H60.3286V88.9486H62.3517V87.376Z" fill="#C7C7C7"/>
<path d="M62.3517 90.7354H60.3286V92.308H62.3517V90.7354Z" fill="#C7C7C7"/>
<path d="M62.3517 94.0977H60.3286V95.6703H62.3517V94.0977Z" fill="#C7C7C7"/>
<path d="M62.3517 97.4561H60.3286V99.0287H62.3517V97.4561Z" fill="#C7C7C7"/>
<path d="M62.3517 100.818H60.3286V102.391H62.3517V100.818Z" fill="#C7C7C7"/>
<path d="M62.3517 104.177H60.3286V105.749H62.3517V104.177Z" fill="#C7C7C7"/>
<path d="M65.2638 84.0176H63.2407V85.5902H65.2638V84.0176Z" fill="#C7C7C7"/>
<path d="M65.2638 87.376H63.2407V88.9486H65.2638V87.376Z" fill="#C7C7C7"/>
<path d="M65.2638 90.7354H63.2407V92.308H65.2638V90.7354Z" fill="#C7C7C7"/>
<path d="M65.2638 94.0977H63.2407V95.6703H65.2638V94.0977Z" fill="#C7C7C7"/>
<path d="M65.2638 97.4561H63.2407V99.0287H65.2638V97.4561Z" fill="#C7C7C7"/>
<path d="M65.2638 100.818H63.2407V102.391H65.2638V100.818Z" fill="#C7C7C7"/>
<path d="M65.2638 104.177H63.2407V105.749H65.2638V104.177Z" fill="#C7C7C7"/>
<path d="M68.1642 84.0176H66.1411V85.5902H68.1642V84.0176Z" fill="#C7C7C7"/>
<path d="M68.1642 87.376H66.1411V88.9486H68.1642V87.376Z" fill="#C7C7C7"/>
<path d="M68.1642 90.7354H66.1411V92.308H68.1642V90.7354Z" fill="#C7C7C7"/>
<path d="M68.1642 94.0977H66.1411V95.6703H68.1642V94.0977Z" fill="#C7C7C7"/>
<path d="M68.1642 97.4561H66.1411V99.0287H68.1642V97.4561Z" fill="#C7C7C7"/>
<path d="M68.1642 100.818H66.1411V102.391H68.1642V100.818Z" fill="#C7C7C7"/>
<path d="M68.1642 104.177H66.1411V105.749H68.1642V104.177Z" fill="#C7C7C7"/>
<path d="M77.9831 81.793H69.9619V107.469H77.9831V81.793Z" fill="#A6A6A6"/>
<path d="M75.5134 105.501H77.1611V103.928H75.5134V105.501Z" fill="#C7C7C7"/>
<path d="M75.5134 102.138H77.1611V100.565H75.5134V102.138Z" fill="#C7C7C7"/>
<path d="M75.5134 98.7803H77.1611V97.2077H75.5134V98.7803Z" fill="#C7C7C7"/>
<path d="M75.5134 95.4209H77.1611V93.8483H75.5134V95.4209Z" fill="#C7C7C7"/>
<path d="M75.5134 92.0576H77.1611V90.485H75.5134V92.0576Z" fill="#C7C7C7"/>
<path d="M75.5134 88.6963H77.1611V87.1237H75.5134V88.6963Z" fill="#C7C7C7"/>
<path d="M75.5134 85.3408H77.1611V83.7682H75.5134V85.3408Z" fill="#C7C7C7"/>
<path d="M73.1465 105.501H74.7942V103.928H73.1465V105.501Z" fill="#C7C7C7"/>
<path d="M73.1465 102.138H74.7942V100.565H73.1465V102.138Z" fill="#C7C7C7"/>
<path d="M73.1465 98.7803H74.7942V97.2077H73.1465V98.7803Z" fill="#C7C7C7"/>
<path d="M73.1465 95.4209H74.7942V93.8483H73.1465V95.4209Z" fill="#C7C7C7"/>
<path d="M73.1465 92.0576H74.7942V90.485H73.1465V92.0576Z" fill="#C7C7C7"/>
<path d="M73.1465 88.6963H74.7942V87.1237H73.1465V88.6963Z" fill="#C7C7C7"/>
<path d="M73.1465 85.3408H74.7942V83.7682H73.1465V85.3408Z" fill="#C7C7C7"/>
<path d="M70.7839 105.501H72.4316V103.928H70.7839V105.501Z" fill="#C7C7C7"/>
<path d="M70.7839 102.138H72.4316V100.565H70.7839V102.138Z" fill="#C7C7C7"/>
<path d="M70.7839 98.7803H72.4316V97.2077H70.7839V98.7803Z" fill="#C7C7C7"/>
<path d="M70.7839 95.4209H72.4316V93.8483H70.7839V95.4209Z" fill="#C7C7C7"/>
<path d="M70.7837 92.0576H72.4314V90.485H70.7837V92.0576Z" fill="#C7C7C7"/>
<path d="M70.7837 88.6963H72.4314V87.1237H70.7837V88.6963Z" fill="#C7C7C7"/>
<path d="M70.7839 85.3408H72.4316V83.7682H70.7839V85.3408Z" fill="#C7C7C7"/>
<path d="M155.006 52.3398H147.107V61.6689H155.006V52.3398Z" fill="#DBDBDB"/>
<path d="M160.008 52.3398H155.002V62.0087H160.008V52.3398Z" fill="#C7C7C7"/>
<path d="M160.344 56.4609H155.373V62.0125H160.344V56.4609Z" fill="#DBDBDB"/>
<path d="M163.442 56.4609H160.344V62.0125H163.442V56.4609Z" fill="#C7C7C7"/>
<path d="M156.847 61.0635H144.077V107.472H156.847V61.0635Z" fill="#EBEBEB"/>
<path d="M149.553 63.0605H145.538V64.7003H149.553V63.0605Z" fill="white"/>
<path d="M154.69 63.0605H150.675V64.7003H154.69V63.0605Z" fill="white"/>
<path d="M149.553 65.8457H145.538V67.4855H149.553V65.8457Z" fill="white"/>
<path d="M154.69 65.8457H150.675V67.4855H154.69V65.8457Z" fill="white"/>
<path d="M149.553 68.6279H145.538V70.2677H149.553V68.6279Z" fill="white"/>
<path d="M154.69 68.6279H150.675V70.2677H154.69V68.6279Z" fill="white"/>
<path d="M149.553 71.4131H145.538V73.0529H149.553V71.4131Z" fill="white"/>
<path d="M154.69 71.4131H150.675V73.0529H154.69V71.4131Z" fill="white"/>
<path d="M149.553 74.1982H145.538V75.838H149.553V74.1982Z" fill="white"/>
<path d="M154.69 74.1982H150.675V75.838H154.69V74.1982Z" fill="white"/>
<path d="M149.553 76.9844H145.538V78.6242H149.553V76.9844Z" fill="white"/>
<path d="M154.69 76.9844H150.675V78.6242H154.69V76.9844Z" fill="white"/>
<path d="M149.553 79.7695H145.538V81.4093H149.553V79.7695Z" fill="white"/>
<path d="M154.69 79.7695H150.675V81.4093H154.69V79.7695Z" fill="white"/>
<path d="M149.553 82.5547H145.538V84.1945H149.553V82.5547Z" fill="white"/>
<path d="M154.69 82.5547H150.675V84.1945H154.69V82.5547Z" fill="white"/>
<path d="M149.553 85.3408H145.538V86.9806H149.553V85.3408Z" fill="white"/>
<path d="M154.69 85.3408H150.675V86.9806H154.69V85.3408Z" fill="white"/>
<path d="M149.553 88.127H145.538V89.7667H149.553V88.127Z" fill="white"/>
<path d="M154.69 88.127H150.675V89.7667H154.69V88.127Z" fill="white"/>
<path d="M149.553 90.9121H145.538V92.5519H149.553V90.9121Z" fill="white"/>
<path d="M154.69 90.9121H150.675V92.5519H154.69V90.9121Z" fill="white"/>
<path d="M149.553 93.6982H145.538V95.338H149.553V93.6982Z" fill="white"/>
<path d="M154.69 93.6982H150.675V95.338H154.69V93.6982Z" fill="white"/>
<path d="M149.553 96.4854H145.538V98.1251H149.553V96.4854Z" fill="white"/>
<path d="M154.69 96.4854H150.675V98.1251H154.69V96.4854Z" fill="white"/>
<path d="M149.553 99.2705H145.538V100.91H149.553V99.2705Z" fill="white"/>
<path d="M154.69 99.2705H150.675V100.91H154.69V99.2705Z" fill="white"/>
<path d="M167.196 61.0635H156.847V107.472H167.196V61.0635Z" fill="#C7C7C7"/>
<path d="M162.861 100.913H166.156V99.2733H162.861V100.913Z" fill="#EBEBEB"/>
<path d="M158.645 100.913H161.94V99.2733H158.645V100.913Z" fill="#EBEBEB"/>
<path d="M162.861 98.1279H166.156V96.4881H162.861V98.1279Z" fill="#EBEBEB"/>
<path d="M158.645 98.1279H161.94V96.4881H158.645V98.1279Z" fill="#EBEBEB"/>
<path d="M162.861 95.3428H166.156V93.703H162.861V95.3428Z" fill="#EBEBEB"/>
<path d="M158.645 95.3428H161.94V93.703H158.645V95.3428Z" fill="#EBEBEB"/>
<path d="M162.861 92.5566H166.156V90.9168H162.861V92.5566Z" fill="#EBEBEB"/>
<path d="M158.645 92.5566H161.94V90.9168H158.645V92.5566Z" fill="#EBEBEB"/>
<path d="M162.861 89.7705H166.156V88.1307H162.861V89.7705Z" fill="#EBEBEB"/>
<path d="M158.645 89.7705H161.94V88.1307H158.645V89.7705Z" fill="#EBEBEB"/>
<path d="M162.861 86.9854H166.156V85.3456H162.861V86.9854Z" fill="#EBEBEB"/>
<path d="M158.645 86.9854H161.94V85.3456H158.645V86.9854Z" fill="#EBEBEB"/>
<path d="M162.861 84.1982H166.156V82.5584H162.861V84.1982Z" fill="#EBEBEB"/>
<path d="M158.645 84.1982H161.94V82.5584H158.645V84.1982Z" fill="#EBEBEB"/>
<path d="M162.861 81.4141H166.156V79.7743H162.861V81.4141Z" fill="#EBEBEB"/>
<path d="M158.645 81.4141H161.94V79.7743H158.645V81.4141Z" fill="#EBEBEB"/>
<path d="M162.861 78.6279H166.156V76.9881H162.861V78.6279Z" fill="#EBEBEB"/>
<path d="M158.645 78.6279H161.94V76.9881H158.645V78.6279Z" fill="#EBEBEB"/>
<path d="M162.861 75.8428H166.156V74.203H162.861V75.8428Z" fill="#EBEBEB"/>
<path d="M158.645 75.8428H161.94V74.203H158.645V75.8428Z" fill="#EBEBEB"/>
<path d="M162.861 73.0557H166.156V71.4159H162.861V73.0557Z" fill="#EBEBEB"/>
<path d="M158.645 73.0557H161.94V71.4159H158.645V73.0557Z" fill="#EBEBEB"/>
<path d="M162.861 70.2705H166.156V68.6307H162.861V70.2705Z" fill="#EBEBEB"/>
<path d="M158.645 70.2705H161.94V68.6307H158.645V70.2705Z" fill="#EBEBEB"/>
<path d="M162.861 67.4814H166.156V65.8417H162.861V67.4814Z" fill="#EBEBEB"/>
<path d="M158.645 67.4814H161.94V65.8417H158.645V67.4814Z" fill="#EBEBEB"/>
<path d="M162.861 64.6953H166.156V63.0555H162.861V64.6953Z" fill="#EBEBEB"/>
<path d="M158.645 64.6953H161.94V63.0555H158.645V64.6953Z" fill="#EBEBEB"/>
<path d="M102.821 77.2295H87.7585V107.469H102.821V77.2295Z" fill="#C7C7C7"/>
<path d="M92.7965 79.8496H90.1294V81.7028H92.7965V79.8496Z" fill="#DBDBDB"/>
<path d="M92.7965 83.8037H90.1294V85.6569H92.7965V83.8037Z" fill="#DBDBDB"/>
<path d="M92.7965 87.7627H90.1294V89.6159H92.7965V87.7627Z" fill="#DBDBDB"/>
<path d="M92.7965 91.7197H90.1294V93.5729H92.7965V91.7197Z" fill="#DBDBDB"/>
<path d="M92.7965 95.6777H90.1294V97.5309H92.7965V95.6777Z" fill="#DBDBDB"/>
<path d="M92.7965 99.6338H90.1294V101.487H92.7965V99.6338Z" fill="#DBDBDB"/>
<path d="M92.7965 103.592H90.1294V105.445H92.7965V103.592Z" fill="#DBDBDB"/>
<path d="M96.6293 79.8496H93.9622V81.7028H96.6293V79.8496Z" fill="#DBDBDB"/>
<path d="M96.6293 83.8037H93.9622V85.6569H96.6293V83.8037Z" fill="#DBDBDB"/>
<path d="M96.629 87.7627H93.9619V89.6159H96.629V87.7627Z" fill="#DBDBDB"/>
<path d="M96.629 91.7197H93.9619V93.5729H96.629V91.7197Z" fill="#DBDBDB"/>
<path d="M96.6293 95.6777H93.9622V97.5309H96.6293V95.6777Z" fill="#DBDBDB"/>
<path d="M96.6293 99.6338H93.9622V101.487H96.6293V99.6338Z" fill="#DBDBDB"/>
<path d="M96.629 103.592H93.9619V105.445H96.629V103.592Z" fill="#DBDBDB"/>
<path d="M100.454 79.8496H97.7871V81.7028H100.454V79.8496Z" fill="#DBDBDB"/>
<path d="M100.454 83.8037H97.7871V85.6569H100.454V83.8037Z" fill="#DBDBDB"/>
<path d="M100.454 87.7627H97.7871V89.6159H100.454V87.7627Z" fill="#DBDBDB"/>
<path d="M100.454 91.7197H97.7871V93.5729H100.454V91.7197Z" fill="#DBDBDB"/>
<path d="M100.454 95.6777H97.7871V97.5309H100.454V95.6777Z" fill="#DBDBDB"/>
<path d="M100.454 99.6338H97.7871V101.487H100.454V99.6338Z" fill="#DBDBDB"/>
<path d="M100.454 103.592H97.7871V105.445H100.454V103.592Z" fill="#DBDBDB"/>
<path d="M102.821 74.0801H92.7925V77.2293H102.821V74.0801Z" fill="#DBDBDB"/>
<path d="M102.821 72.1279H96.4631V74.0799H102.821V72.1279Z" fill="#EBEBEB"/>
<path d="M113.387 77.2295H102.821V107.469H113.387V77.2295Z" fill="#A6A6A6"/>
<path d="M110.139 105.149H112.308V103.296H110.139V105.149Z" fill="#C7C7C7"/>
<path d="M110.139 101.19H112.308V99.3373H110.139V101.19Z" fill="#C7C7C7"/>
<path d="M110.139 97.2344H112.308V95.3812H110.139V97.2344Z" fill="#C7C7C7"/>
<path d="M110.139 93.2754H112.308V91.4222H110.139V93.2754Z" fill="#C7C7C7"/>
<path d="M110.139 89.3203H112.308V87.4672H110.139V89.3203Z" fill="#C7C7C7"/>
<path d="M110.139 85.3604H112.308V83.5072H110.139V85.3604Z" fill="#C7C7C7"/>
<path d="M110.139 81.4053H112.308V79.5521H110.139V81.4053Z" fill="#C7C7C7"/>
<path d="M107.013 105.149H109.183V103.296H107.013V105.149Z" fill="#C7C7C7"/>
<path d="M107.013 101.19H109.183V99.3373H107.013V101.19Z" fill="#C7C7C7"/>
<path d="M107.013 97.2344H109.183V95.3812H107.013V97.2344Z" fill="#C7C7C7"/>
<path d="M107.013 93.2754H109.182V91.4222H107.013V93.2754Z" fill="#C7C7C7"/>
<path d="M107.013 89.3203H109.182V87.4672H107.013V89.3203Z" fill="#C7C7C7"/>
<path d="M107.013 85.3604H109.183V83.5072H107.013V85.3604Z" fill="#C7C7C7"/>
<path d="M107.013 81.4053H109.183V79.5521H107.013V81.4053Z" fill="#C7C7C7"/>
<path d="M103.9 105.149H106.069V103.296H103.9V105.149Z" fill="#C7C7C7"/>
<path d="M103.9 101.19H106.069V99.3373H103.9V101.19Z" fill="#C7C7C7"/>
<path d="M103.9 97.2344H106.069V95.3812H103.9V97.2344Z" fill="#C7C7C7"/>
<path d="M103.9 93.2754H106.069V91.4222H103.9V93.2754Z" fill="#C7C7C7"/>
<path d="M103.9 89.3203H106.069V87.4672H103.9V89.3203Z" fill="#C7C7C7"/>
<path d="M103.9 85.3604H106.069V83.5072H103.9V85.3604Z" fill="#C7C7C7"/>
<path d="M103.9 81.4053H106.069V79.5521H103.9V81.4053Z" fill="#C7C7C7"/>
<path d="M111.787 74.0801H102.821V77.2293H111.787V74.0801Z" fill="#C7C7C7"/>
<path d="M107.681 72.1279H102.821V74.0799H107.681V72.1279Z" fill="#DBDBDB"/>
<path d="M89.0033 120C131.5 120 165.951 117.692 165.951 114.844C165.951 111.996 131.5 109.688 89.0033 109.688C46.5063 109.688 12.0557 111.996 12.0557 114.844C12.0557 117.692 46.5063 120 89.0033 120Z" fill="#EBEBEB"/>
<path d="M26.62 107.005C26.62 107.005 26.2881 105.457 25.6243 105.216C24.9605 104.974 24.5535 105.674 24.5535 105.674C24.5535 105.674 24.3994 104.192 23.455 103.746C22.5107 103.299 21.8073 104.212 21.8073 104.212C21.8073 104.212 21.0842 102.331 19.7922 102.331C18.5001 102.331 17.8521 105.097 17.8521 105.097C17.8521 105.097 17.0895 104.275 16.3071 104.737C15.5247 105.2 15.5168 107.017 15.5168 107.017L26.62 107.005Z" fill="#303564"/>
<path d="M136.798 107.005C136.798 107.005 136.466 105.457 135.802 105.216C135.139 104.974 134.736 105.674 134.736 105.674C134.736 105.674 134.578 104.192 133.637 103.746C132.697 103.299 131.989 104.212 131.989 104.212C131.989 104.212 131.266 102.331 129.974 102.331C128.682 102.331 128.03 105.097 128.03 105.097C128.03 105.097 127.272 104.275 126.489 104.737C125.707 105.2 125.699 107.017 125.699 107.017L136.798 107.005Z" fill="#303564"/>
<path d="M55.9703 107.005H44.2942C44.2942 107.005 44.6893 105.361 45.4519 105.242C45.685 105.222 45.9188 105.273 46.1222 105.388C46.3255 105.504 46.4887 105.679 46.5899 105.89C46.5899 105.89 46.5543 103.595 48.0005 103.203C49.4467 102.812 50.6558 104.839 50.6558 104.839C50.6558 104.839 51.5646 103.686 52.7974 103.761C54.0302 103.836 54.3503 105.736 54.3503 105.736C54.3503 105.736 55.4724 105.065 55.9703 107.005Z" fill="#303564"/>
<path d="M16.2439 107.006H10.0996C10.0996 107.006 10.0996 106.094 10.716 105.849C10.8803 105.778 11.0631 105.762 11.237 105.804C11.4108 105.846 11.5664 105.944 11.6801 106.082C11.6801 106.082 11.9251 104.398 13.0512 104.398C14.1774 104.398 14.7187 105.821 14.7187 105.821C14.8142 105.682 14.9482 105.575 15.1041 105.512C15.2599 105.449 15.4309 105.432 15.5959 105.465C16.2202 105.56 16.2439 107.006 16.2439 107.006Z" fill="#303564"/>
<path d="M60.7908 107.006H54.6465C54.6465 107.006 54.6465 106.094 55.2629 105.849C55.4272 105.778 55.61 105.762 55.7838 105.804C55.9577 105.846 56.1132 105.944 56.227 106.082C56.227 106.082 56.4759 104.398 57.6021 104.398C58.7282 104.398 59.2498 105.821 59.2498 105.821C59.3453 105.682 59.4792 105.575 59.6351 105.512C59.791 105.449 59.962 105.432 60.1269 105.465C60.7671 105.56 60.7908 107.006 60.7908 107.006Z" fill="#303564"/>
<path d="M161.865 107.006H155.721C155.721 107.006 155.721 106.094 156.337 105.849C156.501 105.778 156.684 105.762 156.858 105.804C157.032 105.846 157.187 105.944 157.301 106.082C157.301 106.082 157.546 104.398 158.672 104.398C159.798 104.398 160.34 105.849 160.34 105.849C160.435 105.71 160.569 105.602 160.725 105.539C160.881 105.476 161.052 105.46 161.217 105.493C161.841 105.56 161.865 107.006 161.865 107.006Z" fill="#303564"/>
<path d="M170.831 107.005H160.699C160.699 107.005 160.723 105.499 161.719 105.1C161.989 104.985 162.29 104.962 162.575 105.033C162.861 105.104 163.115 105.267 163.299 105.495C163.299 105.495 163.695 102.729 165.564 102.729C167.432 102.729 168.306 105.124 168.306 105.124C168.463 104.896 168.684 104.718 168.941 104.613C169.198 104.509 169.48 104.482 169.752 104.535C170.791 104.634 170.831 107.005 170.831 107.005Z" fill="#303564"/>
<path d="M172.901 106.989H8.02515V109.862H172.901V106.989Z" fill="#C7C7C7"/>
<path d="M19.5864 107.005C19.8445 107.945 19.8445 108.937 19.5864 109.877C19.4475 109.412 19.3809 108.929 19.3888 108.443C19.3828 107.957 19.4494 107.472 19.5864 107.005Z" fill="#303564"/>
<path d="M32.4717 107.005C32.6086 107.472 32.6752 107.957 32.6692 108.443C32.6772 108.929 32.6106 109.412 32.4717 109.877C32.2135 108.937 32.2135 107.945 32.4717 107.005Z" fill="#303564"/>
<path d="M45.3608 107.005C45.6189 107.945 45.6189 108.937 45.3608 109.877C45.2219 109.412 45.1553 108.929 45.1632 108.443C45.1572 107.957 45.2238 107.472 45.3608 107.005Z" fill="#303564"/>
<path d="M58.2458 107.005C58.3828 107.472 58.4494 107.957 58.4434 108.443C58.4514 108.929 58.3847 109.412 58.2458 109.877C57.9877 108.937 57.9877 107.945 58.2458 107.005Z" fill="#303564"/>
<path d="M71.1352 107.005C71.3933 107.945 71.3933 108.937 71.1352 109.877C70.9963 109.412 70.9297 108.929 70.9376 108.443C70.9317 107.957 70.9982 107.472 71.1352 107.005Z" fill="#303564"/>
<path d="M84.0205 107.005C84.1575 107.472 84.224 107.957 84.2181 108.443C84.226 108.929 84.1594 109.412 84.0205 109.877C83.7624 108.937 83.7624 107.945 84.0205 107.005Z" fill="#303564"/>
<path d="M96.9094 107.005C97.1675 107.945 97.1675 108.937 96.9094 109.877C96.7705 109.412 96.7039 108.929 96.7118 108.443C96.7058 107.957 96.7724 107.472 96.9094 107.005Z" fill="#303564"/>
<path d="M109.795 107.005C109.932 107.472 109.998 107.957 109.992 108.443C110 108.929 109.934 109.412 109.795 109.877C109.537 108.937 109.537 107.945 109.795 107.005Z" fill="#303564"/>
<path d="M122.684 107.005C122.942 107.945 122.942 108.937 122.684 109.877C122.545 109.412 122.478 108.929 122.486 108.443C122.48 107.957 122.547 107.472 122.684 107.005Z" fill="#303564"/>
<path d="M135.569 107.005C135.706 107.472 135.773 107.957 135.767 108.443C135.775 108.929 135.708 109.412 135.569 109.877C135.311 108.937 135.311 107.945 135.569 107.005Z" fill="#303564"/>
<path d="M148.458 107.005C148.716 107.945 148.716 108.937 148.458 109.877C148.319 109.412 148.253 108.929 148.261 108.443C148.255 107.957 148.321 107.472 148.458 107.005Z" fill="#303564"/>
<path d="M161.343 107.005C161.48 107.472 161.547 107.957 161.541 108.443C161.549 108.929 161.482 109.412 161.343 109.877C161.085 108.937 161.085 107.945 161.343 107.005Z" fill="#303564"/>
<path d="M7.40063 109.862L28.1647 109.767L48.9328 109.731L90.4649 109.664L131.997 109.731L152.765 109.767L173.529 109.862L152.765 109.96L131.997 109.996L90.4649 110.059L48.9328 109.992L28.1647 109.96L7.40063 109.862Z" fill="#303564"/>
<path d="M96.1186 4.82122C97.744 6.20275 98.9534 8.00888 99.6118 10.0379C100.27 12.067 100.352 14.2391 99.8472 16.3118C99.3427 18.3845 98.2719 20.2762 96.7546 21.7756C95.2373 23.275 93.333 24.3232 91.2545 24.8031L88.696 30.0292L86.2169 24.8378C84.3639 24.4423 82.6391 23.5901 81.1991 22.3587C80.0298 21.3845 79.0653 20.1882 78.3613 18.8389C77.6573 17.4896 77.2278 16.0142 77.0976 14.4978C76.9674 12.9815 77.1392 11.4544 77.6029 10.0049C78.0667 8.55539 78.8132 7.21219 79.7994 6.05301C80.7855 4.89382 81.9917 3.94166 83.3481 3.25158C84.7046 2.5615 86.1844 2.14721 87.702 2.03266C89.2196 1.91811 90.7448 2.10558 92.1895 2.58423C93.6342 3.06287 94.9696 3.82319 96.1186 4.82122Z" fill="white"/>
<path d="M96.1186 4.82127C97.7439 6.20414 98.9553 8.0093 99.6191 10.0374C99.7855 10.5424 99.9196 11.0574 100.021 11.5794C100.105 12.1031 100.16 12.6312 100.184 13.1611C100.275 15.3002 99.7774 17.4231 98.7465 19.2995C98.4853 19.7651 98.1903 20.2109 97.8639 20.6333C97.5527 21.0693 97.2061 21.4789 96.8276 21.858C95.307 23.3887 93.3886 24.4637 91.2892 24.9618L91.4033 24.8775L88.8795 30.1185L88.696 30.5002L88.5126 30.1185L86.0334 24.937L86.1921 25.056C84.0164 24.5877 82.0205 23.5056 80.4409 21.9378C78.8613 20.3701 77.7642 18.3824 77.2795 16.2103C76.7948 14.0382 76.9428 11.7727 77.706 9.68214C78.4692 7.59157 79.8157 5.76358 81.5859 4.41469C82.9918 3.35886 84.6167 2.63197 86.3409 2.28759C88.0562 1.94447 89.8269 1.99418 91.5203 2.43298C93.2137 2.87178 94.7858 3.68829 96.1186 4.82127ZM96.1186 4.82127C94.7911 3.69256 93.2227 2.88304 91.5336 2.45487C89.8446 2.02671 88.0799 1.99128 86.3751 2.3513C84.6702 2.71133 83.0705 3.45724 81.6988 4.53176C80.3271 5.60628 79.2199 6.98084 78.4621 8.5499C77.7129 10.0953 77.3246 11.7908 77.3267 13.5082C77.346 15.2248 77.7385 16.9167 78.477 18.4665C79.2283 20.0085 80.3189 21.3604 81.6671 22.4209C83.0152 23.4814 84.586 24.2229 86.2615 24.59H86.3706L86.4202 24.6891L88.8993 29.8904H88.5275L91.1206 24.6792L91.1554 24.6098H91.2297C93.2861 24.1568 95.1751 23.1385 96.6838 21.6695C97.0607 21.3035 97.4088 20.9089 97.7251 20.4895C98.7104 19.2484 99.4157 17.809 99.7927 16.27C100.059 15.2461 100.171 14.1883 100.125 13.1314C100.11 12.6031 100.06 12.0764 99.9761 11.5546C99.8771 11.0369 99.7479 10.5253 99.5894 10.0225C98.9312 8.00336 97.7305 6.20404 96.1186 4.82127Z" fill="#303564"/>
<path d="M93.0247 11.9465C92.8065 9.75497 91.2943 7.56836 88.6317 7.56836C85.9691 7.56836 84.4667 9.75497 84.2485 11.9465C83.9114 15.338 86.1971 18.3923 88.6317 21.2086C91.0761 18.4072 93.3619 15.338 93.0247 11.9465ZM88.6317 14.386C88.1563 14.385 87.6918 14.2432 87.297 13.9783C86.9022 13.7135 86.5947 13.3376 86.4135 12.8981C86.2322 12.4586 86.1853 11.9752 86.2787 11.5091C86.372 11.0429 86.6014 10.6149 86.9379 10.2791C87.2744 9.94324 87.7029 9.7147 88.1693 9.62232C88.6356 9.52993 89.1189 9.57784 89.558 9.76C89.9971 9.94215 90.3724 10.2504 90.6364 10.6457C90.9005 11.0411 91.0414 11.5058 91.0414 11.9812C91.042 12.2976 90.9801 12.611 90.8592 12.9034C90.7383 13.1958 90.5607 13.4614 90.3368 13.6849C90.1128 13.9084 89.8468 14.0854 89.5542 14.2057C89.2616 14.326 88.9481 14.3873 88.6317 14.386Z" fill="#303564"/>
<path d="M92.1866 105.285C107.31 102.855 117.599 88.625 115.168 73.5021C112.738 58.3791 98.5082 48.0898 83.3852 50.5202C68.2623 52.9506 57.9729 67.1805 60.4034 82.3034C62.8338 97.4264 77.0636 107.716 92.1866 105.285Z" fill="#303564"/>
<path d="M87.5764 83.0297L78.3348 94.8938C78.0206 95.3877 77.5884 95.7957 77.0773 96.081C76.5662 96.3664 75.9922 96.5201 75.4069 96.5284C74.604 96.5394 73.8293 96.2327 73.2514 95.6752C72.9576 95.4057 72.7253 95.0761 72.5703 94.7088C72.4154 94.3415 72.3413 93.9451 72.3533 93.5467C72.3823 92.6543 72.6971 91.7948 73.2514 91.0948L83.7864 78.0631L73.9071 65.0224C73.448 64.4104 73.1963 63.6679 73.1886 62.9029C73.1862 62.4466 73.2784 61.9948 73.4592 61.5759C73.6401 61.1571 73.9057 60.7802 74.2394 60.469C74.5527 60.1418 74.9292 59.8816 75.346 59.704C75.7628 59.5265 76.2112 59.4354 76.6643 59.4361C77.2444 59.4455 77.813 59.6 78.3182 59.8856C78.8233 60.1711 79.2489 60.5785 79.5562 61.0707L88.4835 72.8271L97.4647 61.2683C97.7858 60.729 98.2348 60.2773 98.7722 59.953C99.3095 59.6287 99.9185 59.4419 100.545 59.4092C100.934 59.4082 101.319 59.4875 101.676 59.642C102.033 59.7965 102.354 60.023 102.62 60.3073C102.903 60.5738 103.129 60.8952 103.283 61.252C103.437 61.6087 103.517 61.9932 103.518 62.382C103.508 63.0776 103.268 63.7504 102.835 64.2949L92.2646 77.8206L102.476 91.2924C102.959 91.8945 103.227 92.6403 103.24 93.4119C103.242 93.8582 103.148 94.2997 102.964 94.706C102.779 95.1123 102.509 95.4736 102.171 95.765C101.512 96.3987 100.633 96.7527 99.719 96.7529C99.1359 96.7457 98.564 96.5923 98.0556 96.3067C97.5472 96.0211 97.1186 95.6125 96.8091 95.1184L87.5764 83.0297Z" fill="white"/>
</svg>
